<?xml version="1.0" encoding="UTF-8" standalone="no"?>
<!-- Created with Inkscape (http://www.inkscape.org/) -->

<svg
   xmlns:dc="http://purl.org/dc/elements/1.1/"
   xmlns:cc="http://creativecommons.org/ns#"
   xmlns:rdf="http://www.w3.org/1999/02/22-rdf-syntax-ns#"
   xmlns:svg="http://www.w3.org/2000/svg"
   xmlns="http://www.w3.org/2000/svg"
   xmlns:sodipodi="http://sodipodi.sourceforge.net/DTD/sodipodi-0.dtd"
   xmlns:inkscape="http://www.inkscape.org/namespaces/inkscape"
   width="48"
   height="48"
   id="svg2"
   version="1.1"
   inkscape:version="0.48.4 r9939"
   sodipodi:docname="add-folders-to-archive.svg">
  <defs
     id="defs4" />
  <sodipodi:namedview
     id="base"
     pagecolor="#ffffff"
     bordercolor="#666666"
     borderopacity="1.0"
     inkscape:pageopacity="0.0"
     inkscape:pageshadow="2"
     inkscape:zoom="11.2"
     inkscape:cx="10.251576"
     inkscape:cy="24.945807"
     inkscape:document-units="px"
     inkscape:current-layer="layer1"
     showgrid="false"
     inkscape:window-width="1440"
     inkscape:window-height="834"
     inkscape:window-x="0"
     inkscape:window-y="27"
     inkscape:window-maximized="1" />
  <metadata
     id="metadata7">
    <rdf:RDF>
      <cc:Work
         rdf:about="">
        <dc:format>image/svg+xml</dc:format>
        <dc:type
           rdf:resource="http://purl.org/dc/dcmitype/StillImage" />
        <dc:title />
      </cc:Work>
    </rdf:RDF>
  </metadata>
  <g
     inkscape:label="Layer 1"
     inkscape:groupmode="layer"
     id="layer1"
     transform="translate(0,-1004.3622)">
    <path
       sodipodi:type="arc"
       style="fill:#ffcc00;stroke:none"
       id="path2985"
       sodipodi:cx="20.834396"
       sodipodi:cy="26.660528"
       sodipodi:rx="18.814091"
       sodipodi:ry="18.814091"
       d="m 39.648487,26.660528 a 18.814091,18.814091 0 1 1 -37.6281814,0 18.814091,18.814091 0 1 1 37.6281814,0 z"
       transform="matrix(0.63781979,0,0,0.63781428,22.71141,1023.3578)" />
    <rect
       style="fill:#ffffff;stroke:none"
       id="rect2987"
       width="3.1567266"
       height="14.39455"
       x="34.421638"
       y="1033.165"
       ry="2.1942909" />
    <rect
       ry="2.2231822"
       y="-43.292042"
       x="1038.7838"
       height="14.584077"
       width="3.1566994"
       id="rect2989"
       style="fill:#ffffff;stroke:none"
       transform="matrix(0,1,-1,0,0,0)" />
    <path
       inkscape:connector-curvature="0"
       id="path4038-3"
       style="fill:#4d4d4d;fill-opacity:1;fill-rule:nonzero;stroke:none"
       d="m 30.191484,1031.3548 c 0,2.1471 -1.733272,3.8876 -3.871515,3.8876 l -20.131929,0 c -2.138243,0 -3.871525,-1.7405 -3.871525,-3.8876 l 0,-20.2157 c 0,-2.1471 1.733282,-3.8877 3.871525,-3.8877 l 20.131929,0 c 2.138243,0 3.871515,1.7406 3.871515,3.8877 l 0,20.2157 z" />
    <rect
       style="fill:#ffffff;fill-opacity:1;stroke:none"
       id="rect4024-4"
       width="25.134033"
       height="17.057331"
       x="3.686985"
       y="1009.9064" />
    <path
       style="fill:#4d4d4d;fill-opacity:1;stroke:#494949;stroke-width:0.05999395;stroke-linecap:butt;stroke-linejoin:miter;stroke-opacity:1"
       d="m 2.328923,1030.1702 27.850153,0"
       id="path2988"
       inkscape:connector-curvature="0" />
    <path
       style="fill:#4d4d4d;fill-opacity:1;stroke:#494949;stroke-width:0.05999391;stroke-linecap:butt;stroke-linejoin:miter;stroke-opacity:1"
       d="m 2.328937,1031.2166 27.850123,0"
       id="path2988-1"
       inkscape:connector-curvature="0" />
    <rect
       y="1011.3248"
       x="4.5829296"
       height="17.057331"
       width="23.342144"
       id="rect3022"
       style="fill:#f4d7d7;fill-opacity:1;stroke:none" />
    <rect
       style="fill:#e9afaf;fill-opacity:1;stroke:none"
       id="rect3024"
       width="20.833492"
       height="17.057331"
       x="5.8372536"
       y="1012.743" />
    <rect
       y="1014.4696"
       x="6.8162193"
       height="16.711998"
       width="18.126957"
       id="rect2999"
       style="fill:#ff8080;fill-opacity:1;stroke:none" />
    <g
       id="g3018"
       transform="matrix(0.05938281,0,0,0.06104198,15.234242,1003.5348)"
       style="fill:#483737">
      <path
         style="fill:#483737;fill-opacity:1;stroke:none"
         d="m -22.40887,216.54377 -56.23752,-79.03641 -139.83373,0 0,86.63614 197.59114,0 z"
         id="path4008-9-0"
         inkscape:connector-curvature="0" />
      <path
         inkscape:connector-curvature="0"
         style="fill:#483737;fill-opacity:1;fill-rule:nonzero;stroke:none"
         d="m -218.53893,206.42134 0,258.21873 c 0,28.9071 29.31336,52.3804 65.47545,52.3804 l 340.4723,0 c 36.16209,0 65.47529,-23.4733 65.47529,-52.3804 l 0,-258.21873 -471.42304,0 z"
         id="path4003-9-1" />
    </g>
    <path
       d="m 37.091553,1037.9365 c 0,2.147 -1.733273,3.8875 -3.871515,3.8875 l -20.131929,0 c -2.138243,0 -3.871526,-1.7405 -3.871526,-3.8875 l 0,-20.2158 c 0,-2.147 1.733283,-3.8876 3.871526,-3.8876 l 20.131929,0 c 2.138242,0 3.871515,1.7406 3.871515,3.8876 l 0,20.2158 z"
       style="fill:#4d4d4d;fill-opacity:1;fill-rule:nonzero;stroke:none"
       id="path3038"
       inkscape:connector-curvature="0" />
    <rect
       y="1016.488"
       x="10.587051"
       height="17.057331"
       width="25.134033"
       id="rect3040"
       style="fill:#ffffff;fill-opacity:1;stroke:none" />
    <path
       inkscape:connector-curvature="0"
       id="path3042"
       d="m 9.228991,1036.7519 27.850154,0"
       style="fill:#4d4d4d;fill-opacity:1;stroke:#494949;stroke-width:0.05999395;stroke-linecap:butt;stroke-linejoin:miter;stroke-opacity:1" />
    <path
       inkscape:connector-curvature="0"
       id="path3044"
       d="m 9.229006,1037.7983 27.850123,0"
       style="fill:#4d4d4d;fill-opacity:1;stroke:#494949;stroke-width:0.05999391;stroke-linecap:butt;stroke-linejoin:miter;stroke-opacity:1" />
    <rect
       style="fill:#f4d7d7;fill-opacity:1;stroke:none"
       id="rect3046"
       width="23.342144"
       height="17.057331"
       x="11.482998"
       y="1017.9065" />
    <rect
       y="1019.3246"
       x="12.73732"
       height="17.057331"
       width="20.833492"
       id="rect3048"
       style="fill:#e9afaf;fill-opacity:1;stroke:none" />
    <rect
       style="fill:#ff8080;fill-opacity:1;stroke:none"
       id="rect3050"
       width="18.126957"
       height="16.711998"
       x="13.716288"
       y="1021.0511" />
    <g
       transform="matrix(0.05938281,0,0,0.06104198,22.13431,1010.1164)"
       id="g3052">
      <path
         inkscape:connector-curvature="0"
         id="path3054"
         d="m -22.40887,216.54377 -56.23752,-79.03641 -139.83373,0 0,86.63614 197.59114,0 z"
         style="fill:#ac9d93;fill-opacity:1;stroke:none" />
      <path
         id="path3056"
         d="m -218.53893,206.42134 0,258.21873 c 0,28.9071 29.31336,52.3804 65.47545,52.3804 l 340.4723,0 c 36.16209,0 65.47529,-23.4733 65.47529,-52.3804 l 0,-258.21873 -471.42304,0 z"
         style="fill:#ac9d93;fill-opacity:1;fill-rule:nonzero;stroke:none"
         inkscape:connector-curvature="0" />
    </g>
    <path
       sodipodi:type="arc"
       style="fill:#ffcc00;stroke:none"
       id="path2985-1"
       sodipodi:cx="20.834396"
       sodipodi:cy="26.660528"
       sodipodi:rx="18.814091"
       sodipodi:ry="18.814091"
       d="m 39.648487,26.660528 a 18.814091,18.814091 0 1 1 -37.6281814,0 18.814091,18.814091 0 1 1 37.6281814,0 z"
       transform="matrix(0.63781979,0,0,0.63781428,22.711409,1023.3576)" />
    <rect
       style="fill:#ffffff;stroke:none"
       id="rect2987-4"
       width="3.1567266"
       height="14.39455"
       x="34.421635"
       y="1033.1649"
       ry="2.1942909" />
    <rect
       ry="2.2231822"
       y="-43.292042"
       x="1038.7836"
       height="14.584077"
       width="3.1566994"
       id="rect2989-9"
       style="fill:#ffffff;stroke:none"
       transform="matrix(0,1,-1,0,0,0)" />
  </g>
</svg>
