<?xml version="1.0" encoding="UTF-8" standalone="no"?>
<!-- Created with Inkscape (http://www.inkscape.org/) -->

<svg
   xmlns:dc="http://purl.org/dc/elements/1.1/"
   xmlns:cc="http://creativecommons.org/ns#"
   xmlns:rdf="http://www.w3.org/1999/02/22-rdf-syntax-ns#"
   xmlns:svg="http://www.w3.org/2000/svg"
   xmlns="http://www.w3.org/2000/svg"
   xmlns:sodipodi="http://sodipodi.sourceforge.net/DTD/sodipodi-0.dtd"
   xmlns:inkscape="http://www.inkscape.org/namespaces/inkscape"
   width="48"
   height="48"
   id="svg2"
   version="1.1"
   inkscape:version="0.48.4 r9939"
   sodipodi:docname="address-book-new.svg">
  <defs
     id="defs4" />
  <sodipodi:namedview
     id="base"
     pagecolor="#ffffff"
     bordercolor="#666666"
     borderopacity="1.0"
     inkscape:pageopacity="0.0"
     inkscape:pageshadow="2"
     inkscape:zoom="5.6"
     inkscape:cx="39.370067"
     inkscape:cy="12.309635"
     inkscape:document-units="px"
     inkscape:current-layer="layer2"
     showgrid="false"
     inkscape:window-width="1440"
     inkscape:window-height="850"
     inkscape:window-x="0"
     inkscape:window-y="0"
     inkscape:window-maximized="1" />
  <metadata
     id="metadata7">
    <rdf:RDF>
      <cc:Work
         rdf:about="">
        <dc:format>image/svg+xml</dc:format>
        <dc:type
           rdf:resource="http://purl.org/dc/dcmitype/StillImage" />
        <dc:title />
      </cc:Work>
    </rdf:RDF>
  </metadata>
  <g
     inkscape:label="Layer 1"
     inkscape:groupmode="layer"
     id="layer1"
     transform="translate(0,-1004.3622)">
    <path
       sodipodi:type="arc"
       style="fill:#ffcc00;stroke:none"
       id="path2985"
       sodipodi:cx="20.834396"
       sodipodi:cy="26.660528"
       sodipodi:rx="18.814091"
       sodipodi:ry="18.814091"
       d="m 39.648487,26.660528 c 0,10.390736 -8.423355,18.814091 -18.814091,18.814091 -10.390735,0 -18.8140904,-8.423355 -18.8140904,-18.814091 0,-10.390735 8.4233554,-18.8140905 18.8140904,-18.8140905 10.390736,0 18.814091,8.4233555 18.814091,18.8140905 z"
       transform="matrix(0.61124396,0,0,0.61124396,23.515101,1022.0483)" />
    <rect
       style="fill:#ffffff;stroke:none"
       id="rect2987"
       width="3.0251963"
       height="13.794896"
       x="34.737404"
       y="1031.4469"
       ry="2.1028802" />
    <rect
       ry="2.1305497"
       y="-43.238205"
       x="1036.8317"
       height="13.976407"
       width="3.0251963"
       id="rect2989"
       style="fill:#ffffff;stroke:none"
       transform="matrix(0,1,-1,0,0,0)" />
    <path
       sodipodi:type="arc"
       style="fill:#ffcc00;stroke:none"
       id="path2985-1"
       sodipodi:cx="20.834396"
       sodipodi:cy="26.660528"
       sodipodi:rx="18.814091"
       sodipodi:ry="18.814091"
       d="m 39.648487,26.660528 c 0,10.390736 -8.423355,18.814091 -18.814091,18.814091 -10.390735,0 -18.8140904,-8.423355 -18.8140904,-18.814091 0,-10.390735 8.4233554,-18.8140905 18.8140904,-18.8140905 10.390736,0 18.814091,8.4233555 18.814091,18.8140905 z"
       transform="matrix(0.61124396,0,0,0.61124396,23.5151,1022.0481)" />
    <rect
       style="fill:#ffffff;stroke:none"
       id="rect2987-4"
       width="3.0251963"
       height="13.794896"
       x="34.7374"
       y="1031.4468"
       ry="2.1028802" />
    <rect
       ry="2.1305497"
       y="-43.238205"
       x="1036.8314"
       height="13.976407"
       width="3.0251963"
       id="rect2989-9"
       style="fill:#ffffff;stroke:none"
       transform="matrix(0,1,-1,0,0,0)" />
    <rect
       style="fill:#483737;stroke:none"
       id="rect3008"
       width="32.095406"
       height="37.180943"
       x="4.6903152"
       y="1006.804"
       ry="5.5548263" />
    <rect
       ry="5.5548263"
       y="1007.6404"
       x="4.6903152"
       height="37.180943"
       width="32.095406"
       id="rect3010"
       style="fill:#b3b3b3;stroke:none" />
    <rect
       style="fill:#cccccc;stroke:none"
       id="rect3012"
       width="32.095406"
       height="37.180943"
       x="4.6903152"
       y="1008.4767"
       ry="5.5548263" />
    <rect
       ry="5.5548263"
       y="1009.6521"
       x="4.4642868"
       height="37.180943"
       width="32.095406"
       id="rect3014"
       style="fill:#b3b3b3;stroke:none" />
    <rect
       style="fill:#483737;stroke:none"
       id="rect3008-4"
       width="32.095406"
       height="37.180943"
       x="4.4642868"
       y="1010.5569"
       ry="5.5548263" />
    <path
       transform="matrix(0.61124396,0,0,0.61124396,23.515101,1022.0483)"
       d="m 39.648487,26.660528 c 0,10.390736 -8.423355,18.814091 -18.814091,18.814091 -10.390735,0 -18.8140904,-8.423355 -18.8140904,-18.814091 0,-10.390735 8.4233554,-18.8140905 18.8140904,-18.8140905 10.390736,0 18.814091,8.4233555 18.814091,18.8140905 z"
       sodipodi:ry="18.814091"
       sodipodi:rx="18.814091"
       sodipodi:cy="26.660528"
       sodipodi:cx="20.834396"
       id="path3128"
       style="fill:#ffcc00;stroke:none"
       sodipodi:type="arc" />
    <rect
       ry="2.1028802"
       y="1031.4469"
       x="34.737404"
       height="13.794896"
       width="3.0251963"
       id="rect3130"
       style="fill:#ffffff;stroke:none" />
    <rect
       transform="matrix(0,1,-1,0,0,0)"
       style="fill:#ffffff;stroke:none"
       id="rect3132"
       width="3.0251963"
       height="13.976407"
       x="1036.8317"
       y="-43.238205"
       ry="2.1305497" />
    <path
       transform="matrix(0.61124396,0,0,0.61124396,23.5151,1022.0481)"
       d="m 39.648487,26.660528 c 0,10.390736 -8.423355,18.814091 -18.814091,18.814091 -10.390735,0 -18.8140904,-8.423355 -18.8140904,-18.814091 0,-10.390735 8.4233554,-18.8140905 18.8140904,-18.8140905 10.390736,0 18.814091,8.4233555 18.814091,18.8140905 z"
       sodipodi:ry="18.814091"
       sodipodi:rx="18.814091"
       sodipodi:cy="26.660528"
       sodipodi:cx="20.834396"
       id="path3134"
       style="fill:#ffcc00;stroke:none"
       sodipodi:type="arc" />
    <rect
       ry="2.1028802"
       y="1031.4468"
       x="34.7374"
       height="13.794896"
       width="3.0251963"
       id="rect3136"
       style="fill:#ffffff;stroke:none" />
    <rect
       transform="matrix(0,1,-1,0,0,0)"
       style="fill:#ffffff;stroke:none"
       id="rect3138"
       width="3.0251963"
       height="13.976407"
       x="1036.8314"
       y="-43.238205"
       ry="2.1305497" />
    <path
       sodipodi:type="arc"
       style="fill:#ffb380;fill-opacity:1;stroke:none"
       id="path2985-4-6"
       sodipodi:cx="24.36993"
       sodipodi:cy="21.862303"
       sodipodi:rx="13.131983"
       sodipodi:ry="13.131983"
       d="m 37.501913,21.862303 a 13.131983,13.131983 0 1 1 -26.263966,0 13.131983,13.131983 0 1 1 26.263966,0 z"
       transform="matrix(0.46331216,0,0,0.46331216,10.316258,1010.9731)" />
    <rect
       style="fill:#ffb380;fill-opacity:1;stroke:none"
       id="rect2987-9-6"
       width="20.013817"
       height="13.435529"
       x="11.600236"
       y="1028.5704"
       ry="3.1069038" />
    <path
       sodipodi:type="arc"
       style="fill:#ffffff;fill-opacity:1;stroke:none"
       id="path2989-7"
       sodipodi:cx="-10.229504"
       sodipodi:cy="18.625"
       sodipodi:rx="6.6454968"
       sodipodi:ry="4.1071429"
       d="m -3.5840068,18.625 a 6.6454968,4.1071429 0 1 1 -13.2909932,0 l 6.645496,0 z"
       transform="matrix(0.56298398,0,0,0.56298398,27.366189,1018.0491)"
       sodipodi:start="0"
       sodipodi:end="3.1415927" />
  </g>
  <g
     inkscape:groupmode="layer"
     id="layer2"
     inkscape:label="Add">
    <path
       sodipodi:type="arc"
       style="fill:#ffcc00;stroke:none"
       id="path2985-7"
       sodipodi:cx="20.834396"
       sodipodi:cy="26.660528"
       sodipodi:rx="18.814091"
       sodipodi:ry="18.814091"
       d="m 39.648487,26.660528 a 18.814091,18.814091 0 1 1 -37.6281814,0 18.814091,18.814091 0 1 1 37.6281814,0 z"
       transform="matrix(0.61124396,0,0,0.61124396,23.5151,17.685914)" />
    <rect
       style="fill:#ffffff;stroke:none"
       id="rect2987-1"
       width="3.0251963"
       height="13.794896"
       x="34.737396"
       y="27.084513"
       ry="2.1028802" />
    <rect
       ry="2.1305497"
       y="-43.23819"
       x="32.46928"
       height="13.976407"
       width="3.0251963"
       id="rect2989-2"
       style="fill:#ffffff;stroke:none"
       transform="matrix(0,1,-1,0,0,0)" />
    <path
       sodipodi:type="arc"
       style="fill:#ffcc00;stroke:none"
       id="path2985-1-5"
       sodipodi:cx="20.834396"
       sodipodi:cy="26.660528"
       sodipodi:rx="18.814091"
       sodipodi:ry="18.814091"
       d="m 39.648487,26.660528 a 18.814091,18.814091 0 1 1 -37.6281814,0 18.814091,18.814091 0 1 1 37.6281814,0 z"
       transform="matrix(0.61124396,0,0,0.61124396,23.5151,17.685714)" />
    <rect
       style="fill:#ffffff;stroke:none"
       id="rect2987-4-9"
       width="3.0251963"
       height="13.794896"
       x="34.737396"
       y="27.084391"
       ry="2.1028802" />
    <rect
       ry="2.1305497"
       y="-43.23819"
       x="32.469036"
       height="13.976407"
       width="3.0251963"
       id="rect2989-9-4"
       style="fill:#ffffff;stroke:none"
       transform="matrix(0,1,-1,0,0,0)" />
    <path
       transform="matrix(0.61124396,0,0,0.61124396,23.5151,17.685914)"
       d="m 39.648487,26.660528 a 18.814091,18.814091 0 1 1 -37.6281814,0 18.814091,18.814091 0 1 1 37.6281814,0 z"
       sodipodi:ry="18.814091"
       sodipodi:rx="18.814091"
       sodipodi:cy="26.660528"
       sodipodi:cx="20.834396"
       id="path3140"
       style="fill:#ffcc00;stroke:none"
       sodipodi:type="arc" />
    <rect
       ry="2.1028802"
       y="27.084513"
       x="34.737396"
       height="13.794896"
       width="3.0251963"
       id="rect3142"
       style="fill:#ffffff;stroke:none" />
    <rect
       transform="matrix(0,1,-1,0,0,0)"
       style="fill:#ffffff;stroke:none"
       id="rect3144"
       width="3.0251963"
       height="13.976407"
       x="32.46928"
       y="-43.23819"
       ry="2.1305497" />
    <path
       transform="matrix(0.61124396,0,0,0.61124396,23.5151,17.685714)"
       d="m 39.648487,26.660528 a 18.814091,18.814091 0 1 1 -37.6281814,0 18.814091,18.814091 0 1 1 37.6281814,0 z"
       sodipodi:ry="18.814091"
       sodipodi:rx="18.814091"
       sodipodi:cy="26.660528"
       sodipodi:cx="20.834396"
       id="path3146"
       style="fill:#ffcc00;stroke:none"
       sodipodi:type="arc" />
    <rect
       ry="2.1028802"
       y="27.084391"
       x="34.737396"
       height="13.794896"
       width="3.0251963"
       id="rect3148"
       style="fill:#ffffff;stroke:none" />
    <rect
       transform="matrix(0,1,-1,0,0,0)"
       style="fill:#ffffff;stroke:none"
       id="rect3150"
       width="3.0251963"
       height="13.976407"
       x="32.469036"
       y="-43.23819"
       ry="2.1305497" />
  </g>
</svg>
