<?xml version="1.0" encoding="UTF-8" standalone="no"?>
<!-- Created with Inkscape (http://www.inkscape.org/) -->

<svg
   xmlns:dc="http://purl.org/dc/elements/1.1/"
   xmlns:cc="http://creativecommons.org/ns#"
   xmlns:rdf="http://www.w3.org/1999/02/22-rdf-syntax-ns#"
   xmlns:svg="http://www.w3.org/2000/svg"
   xmlns="http://www.w3.org/2000/svg"
   xmlns:sodipodi="http://sodipodi.sourceforge.net/DTD/sodipodi-0.dtd"
   xmlns:inkscape="http://www.inkscape.org/namespaces/inkscape"
   width="48"
   height="48"
   id="svg2"
   version="1.1"
   inkscape:version="0.48.4 r9939"
   sodipodi:docname="appointment-new.svg">
  <defs
     id="defs4" />
  <sodipodi:namedview
     id="base"
     pagecolor="#ffffff"
     bordercolor="#666666"
     borderopacity="1.0"
     inkscape:pageopacity="0.0"
     inkscape:pageshadow="2"
     inkscape:zoom="5.6"
     inkscape:cx="23.586434"
     inkscape:cy="23.867796"
     inkscape:document-units="px"
     inkscape:current-layer="layer2"
     showgrid="false"
     inkscape:window-width="1440"
     inkscape:window-height="834"
     inkscape:window-x="0"
     inkscape:window-y="27"
     inkscape:window-maximized="1" />
  <metadata
     id="metadata7">
    <rdf:RDF>
      <cc:Work
         rdf:about="">
        <dc:format>image/svg+xml</dc:format>
        <dc:type
           rdf:resource="http://purl.org/dc/dcmitype/StillImage" />
        <dc:title />
      </cc:Work>
    </rdf:RDF>
  </metadata>
  <g
     inkscape:label="Layer 1"
     inkscape:groupmode="layer"
     id="layer1"
     transform="translate(0,-1004.3622)">
    <rect
       style="fill:#ffffff;stroke:none"
       id="rect2987"
       width="3.0251963"
       height="13.794896"
       x="22.487402"
       y="1021.4647"
       ry="2.1028802" />
    <rect
       ry="2.1305497"
       y="-30.988203"
       x="1026.8496"
       height="13.976407"
       width="3.0251963"
       id="rect2989"
       style="fill:#ffffff;stroke:none"
       transform="matrix(0,1,-1,0,0,0)" />
    <rect
       style="fill:#ffffff;stroke:none"
       id="rect2987-4"
       width="3.0251963"
       height="13.794896"
       x="22.487402"
       y="1021.4647"
       ry="2.1028802" />
    <rect
       ry="2.1305497"
       y="-30.988203"
       x="1026.8496"
       height="13.976407"
       width="3.0251963"
       id="rect2989-9"
       style="fill:#ffffff;stroke:none"
       transform="matrix(0,1,-1,0,0,0)" />
    <path
       style="fill:#ffffff;fill-rule:evenodd"
       d="m 43.769987,1028.3622 c 0,10.9191 -8.851484,19.77 -19.769987,19.77 -10.918501,0 -19.769987,-8.8509 -19.769987,-19.77 0,-10.9185 8.851486,-19.77 19.769987,-19.77 10.918503,0 19.769987,8.8515 19.769987,19.77 z"
       id="path4"
       inkscape:connector-curvature="0" />
    <path
       style="fill:#ff8080"
       d="m 13.258364,1026.7024 c -0.267282,1.0558 0.379909,2.1324 1.435721,2.3996 l 10.502754,2.8143 c 0.44757,0.1198 0.921994,0.079 1.343169,-0.1199 l 7.00846,-3.2389 c 0.688028,-0.2716 1.159691,-0.8966 1.24265,-1.6258 0.07595,-0.7311 -0.252915,-1.4432 -0.862276,-1.8544 -0.609517,-0.4107 -1.399352,-0.4468 -2.043862,-0.1 l -6.351217,2.9354 -9.816246,-2.6303 c -0.513147,-0.1455 -1.066609,-0.077 -1.529917,0.1898 -0.46389,0.2673 -0.798928,0.7134 -0.929236,1.2301 z"
       id="path6"
       inkscape:connector-curvature="0" />
    <path
       style="fill:#aaaaaa"
       d="m 24,1008.5922 c -10.896781,0 -19.769987,8.8732 -19.769987,19.77 0,10.8968 8.873206,19.77 19.769987,19.77 10.896781,0 19.769987,-8.8732 19.769987,-19.77 0,-10.8968 -8.873206,-19.77 -19.769987,-19.77 z m 0,3.9543 c 8.757363,0 15.815751,7.0584 15.815751,15.8157 0,8.7574 -7.058388,15.8158 -15.815751,15.8158 -8.757366,0 -15.815748,-7.0584 -15.815748,-15.8158 0,-8.7573 7.058382,-15.8157 15.815748,-15.8157 z"
       id="path8"
       inkscape:connector-curvature="0" />
    <path
       style="fill:#999999;stroke:#9c9c9c;stroke-width:0.82374942px;stroke-linecap:butt;stroke-linejoin:miter;stroke-opacity:1"
       d="m 25.342663,1034.0488 -2.685326,-11.3732"
       id="path2991"
       inkscape:connector-curvature="0" />
  </g>
  <g
     inkscape:groupmode="layer"
     id="layer2"
     inkscape:label="Add">
    <g
       id="g3011"
       transform="matrix(1.0434783,0,0,1.0434783,10.956521,10.956521)">
      <path
         transform="matrix(0.61124396,0,0,0.61124396,11.265101,7.7039132)"
         d="m 39.648487,26.660528 c 0,10.390736 -8.423355,18.814091 -18.814091,18.814091 -10.390735,0 -18.8140904,-8.423355 -18.8140904,-18.814091 0,-10.390735 8.4233554,-18.8140905 18.8140904,-18.8140905 10.390736,0 18.814091,8.4233555 18.814091,18.8140905 z"
         sodipodi:ry="18.814091"
         sodipodi:rx="18.814091"
         sodipodi:cy="26.660528"
         sodipodi:cx="20.834396"
         id="path2985-7"
         style="fill:#ffcc00;stroke:none"
         sodipodi:type="arc" />
      <rect
         style="fill:#ffffff;stroke:none"
         id="rect3148"
         width="3.0251963"
         height="13.794896"
         x="22.487402"
         y="17.102552"
         ry="2.1028802" />
      <rect
         ry="2.1305497"
         y="-30.988203"
         x="22.487402"
         height="13.976407"
         width="3.0251963"
         id="rect3150"
         style="fill:#ffffff;stroke:none"
         transform="matrix(0,1,-1,0,0,0)" />
    </g>
  </g>
</svg>
