<?xml version="1.0" encoding="UTF-8" standalone="no"?>
<!-- Created with Inkscape (http://www.inkscape.org/) -->

<svg
   xmlns:dc="http://purl.org/dc/elements/1.1/"
   xmlns:cc="http://creativecommons.org/ns#"
   xmlns:rdf="http://www.w3.org/1999/02/22-rdf-syntax-ns#"
   xmlns:svg="http://www.w3.org/2000/svg"
   xmlns="http://www.w3.org/2000/svg"
   xmlns:sodipodi="http://sodipodi.sourceforge.net/DTD/sodipodi-0.dtd"
   xmlns:inkscape="http://www.inkscape.org/namespaces/inkscape"
   width="48"
   height="48"
   id="svg2"
   version="1.1"
   inkscape:version="0.48.4 r9939"
   sodipodi:docname="call-start.svg">
  <defs
     id="defs4" />
  <sodipodi:namedview
     id="base"
     pagecolor="#ffffff"
     bordercolor="#666666"
     borderopacity="1.0"
     inkscape:pageopacity="0.0"
     inkscape:pageshadow="2"
     inkscape:zoom="7.9195959"
     inkscape:cx="22.911613"
     inkscape:cy="29.372021"
     inkscape:document-units="px"
     inkscape:current-layer="layer1"
     showgrid="false"
     inkscape:window-width="1440"
     inkscape:window-height="850"
     inkscape:window-x="0"
     inkscape:window-y="0"
     inkscape:window-maximized="1" />
  <metadata
     id="metadata7">
    <rdf:RDF>
      <cc:Work
         rdf:about="">
        <dc:format>image/svg+xml</dc:format>
        <dc:type
           rdf:resource="http://purl.org/dc/dcmitype/StillImage" />
        <dc:title></dc:title>
      </cc:Work>
    </rdf:RDF>
  </metadata>
  <g
     inkscape:label="Layer 1"
     inkscape:groupmode="layer"
     id="layer1"
     transform="translate(0,-1004.3622)">
    <path
       sodipodi:nodetypes="cccscccscccccccccccc"
       style="fill:#c83737;fill-opacity:1"
       d="m 45.118641,1019.9806 c 0.05372,-0.6959 -3.146783,-10.4621 -3.6357,-11.081 -0.582323,-0.7367 -5.08391,-0.3037 -9.953104,0.9586 -11.032287,2.8591 -21.5442417,11.6051 -26.4322796,21.9917 -1.4160917,3.0089 -3.3594558,8.9087 -3.2170132,9.7646 0.040764,0.2515 2.5173933,1.6562 5.5029044,3.1223 l -2.001e-4,0 c 2.9854115,1.4661 5.4911095,2.6697 5.5688785,2.6757 0.07677,0.01 1.752361,-2.6396 3.721378,-5.8795 l 3.579897,-5.8905 -2.722112,-3.1709 -2.71962,-3.1682 1.440563,-1.7499 c 1.621892,-1.972 6.966816,-6.4267 9.081157,-7.567 l 1.39242,-0.7495 2.745825,3.1366 2.743232,3.1364 6.437169,-2.5929 c 3.54059,-1.4264 6.450891,-2.7486 6.466603,-2.9391 z"
       id="path4128-0-9"
       inkscape:connector-curvature="0" />
    <rect
       style="fill:#ffd5d5;fill-opacity:1;stroke:#9c9c9c;stroke-width:0.11262325;stroke-opacity:1"
       id="rect3759"
       width="2.8282714"
       height="16.159849"
       x="944.77081"
       y="397.09555"
       ry="1.4300749"
       transform="matrix(0.43033972,0.90266701,-0.91045972,0.41359775,0,0)" />
    <rect
       style="fill:#ffd5d5;fill-opacity:1;stroke:#9c9c9c;stroke-width:0.11262281;stroke-opacity:1"
       id="rect3759-7"
       width="2.8611047"
       height="15.97428"
       x="583.83179"
       y="864.45276"
       ry="1.4136528"
       transform="matrix(0.84607892,0.53305766,-0.54823325,0.83632548,0,0)" />
  </g>
</svg>
