<?xml version="1.0" encoding="UTF-8" standalone="no"?>
<!-- Created with Inkscape (http://www.inkscape.org/) -->

<svg
   xmlns:dc="http://purl.org/dc/elements/1.1/"
   xmlns:cc="http://creativecommons.org/ns#"
   xmlns:rdf="http://www.w3.org/1999/02/22-rdf-syntax-ns#"
   xmlns:svg="http://www.w3.org/2000/svg"
   xmlns="http://www.w3.org/2000/svg"
   xmlns:sodipodi="http://sodipodi.sourceforge.net/DTD/sodipodi-0.dtd"
   xmlns:inkscape="http://www.inkscape.org/namespaces/inkscape"
   width="48"
   height="48"
   id="svg2"
   version="1.1"
   inkscape:version="0.48.4 r9939"
   sodipodi:docname="call-start.svg">
  <defs
     id="defs4" />
  <sodipodi:namedview
     id="base"
     pagecolor="#ffffff"
     bordercolor="#666666"
     borderopacity="1.0"
     inkscape:pageopacity="0.0"
     inkscape:pageshadow="2"
     inkscape:zoom="7.9195959"
     inkscape:cx="22.659075"
     inkscape:cy="29.624559"
     inkscape:document-units="px"
     inkscape:current-layer="layer1"
     showgrid="false"
     inkscape:window-width="1440"
     inkscape:window-height="850"
     inkscape:window-x="0"
     inkscape:window-y="0"
     inkscape:window-maximized="1" />
  <metadata
     id="metadata7">
    <rdf:RDF>
      <cc:Work
         rdf:about="">
        <dc:format>image/svg+xml</dc:format>
        <dc:type
           rdf:resource="http://purl.org/dc/dcmitype/StillImage" />
        <dc:title />
      </cc:Work>
    </rdf:RDF>
  </metadata>
  <g
     inkscape:label="Layer 1"
     inkscape:groupmode="layer"
     id="layer1"
     transform="translate(0,-1004.3622)">
    <path
       sodipodi:nodetypes="cccscccscccccccccccc"
       style="fill:#76bd74;fill-opacity:1"
       d="m 14.017759,1007.9513 c -0.697892,0 -10.1888581,3.9427 -10.7682606,4.4778 -0.6897093,0.6373 0.088556,5.0922 1.7217898,9.8498 3.6997547,10.7795 13.2289568,20.5871 23.9609288,24.6612 3.108973,1.1803 9.140855,2.6638 9.983287,2.4559 0.247609,-0.06 1.457518,-2.6374 2.689502,-5.7269 l 0.0026,0 c 1.231985,-3.0894 2.239097,-5.6803 2.239097,-5.7583 0,-0.077 -2.766602,-1.544 -6.148518,-3.2578 l -6.148503,-3.1159 -2.952018,2.9581 -2.949432,2.9554 -1.85562,-1.3016 c -2.090958,-1.4653 -6.943798,-6.4515 -8.243479,-8.4718 l -0.85447,-1.3306 2.915969,-2.9791 2.915983,-2.9765 -3.080691,-6.2185 c -1.69467,-3.4203 -3.236957,-6.2202 -3.428134,-6.2212 z"
       id="path4128-0-9"
       inkscape:connector-curvature="0" />
    <rect
       style="fill:#ffd5d5;fill-opacity:1;stroke:#9c9c9c;stroke-width:0.11262325;stroke-opacity:1"
       id="rect3759"
       width="2.8282714"
       height="16.159849"
       x="-476.78885"
       y="879.7146"
       ry="1.4300749"
       transform="matrix(0.86686667,-0.49854004,0.48244753,0.87592487,0,0)" />
    <rect
       style="fill:#ffd5d5;fill-opacity:1;stroke:#9c9c9c;stroke-width:0.11262281;stroke-opacity:1"
       id="rect3759-7"
       width="2.8611047"
       height="15.97428"
       x="-889.57611"
       y="507.92465"
       ry="1.4136528"
       transform="matrix(0.46635494,-0.88459769,0.87604122,0.48223622,0,0)" />
  </g>
</svg>
