<?xml version="1.0" encoding="UTF-8" standalone="no"?>
<!-- Created with Inkscape (http://www.inkscape.org/) -->

<svg
   xmlns:dc="http://purl.org/dc/elements/1.1/"
   xmlns:cc="http://creativecommons.org/ns#"
   xmlns:rdf="http://www.w3.org/1999/02/22-rdf-syntax-ns#"
   xmlns:svg="http://www.w3.org/2000/svg"
   xmlns="http://www.w3.org/2000/svg"
   xmlns:sodipodi="http://sodipodi.sourceforge.net/DTD/sodipodi-0.dtd"
   xmlns:inkscape="http://www.inkscape.org/namespaces/inkscape"
   width="48"
   height="48"
   id="svg2"
   version="1.1"
   inkscape:version="0.48.4 r9939"
   sodipodi:docname="contact.svg">
  <defs
     id="defs4" />
  <sodipodi:namedview
     id="base"
     pagecolor="#ffffff"
     bordercolor="#666666"
     borderopacity="1.0"
     inkscape:pageopacity="0.0"
     inkscape:pageshadow="2"
     inkscape:zoom="7.9195959"
     inkscape:cx="7.6002842"
     inkscape:cy="24.106219"
     inkscape:document-units="px"
     inkscape:current-layer="layer1"
     showgrid="false"
     inkscape:window-width="1440"
     inkscape:window-height="850"
     inkscape:window-x="0"
     inkscape:window-y="0"
     inkscape:window-maximized="1" />
  <metadata
     id="metadata7">
    <rdf:RDF>
      <cc:Work
         rdf:about="">
        <dc:format>image/svg+xml</dc:format>
        <dc:type
           rdf:resource="http://purl.org/dc/dcmitype/StillImage" />
        <dc:title />
      </cc:Work>
    </rdf:RDF>
  </metadata>
  <g
     inkscape:label="Layer 1"
     inkscape:groupmode="layer"
     id="layer1"
     transform="translate(0,-1004.3622)">
    <path
       sodipodi:type="arc"
       style="fill:#ffb380;fill-opacity:1;stroke:none;stroke-width:0.10000000000000001;stroke-opacity:1"
       id="path2985"
       sodipodi:cx="24.36993"
       sodipodi:cy="21.862303"
       sodipodi:rx="13.131983"
       sodipodi:ry="13.131983"
       d="m 37.501913,21.862303 c 0,7.252594 -5.879389,13.131983 -13.131983,13.131983 -7.252594,0 -13.131983,-5.879389 -13.131983,-13.131983 0,-7.252594 5.879389,-13.131983 13.131983,-13.131983 7.252594,0 13.131983,5.879389 13.131983,13.131983 z"
       transform="matrix(0.82295799,0,0,0.82295799,3.9445712,997.24001)" />
    <rect
       style="fill:#ffb380;fill-opacity:1;stroke:none"
       id="rect2987"
       width="35.54953"
       height="23.864853"
       x="6.225235"
       y="1028.4973"
       ry="5.5186362" />
    <path
       sodipodi:type="arc"
       style="fill:#ffffff;fill-opacity:1;stroke:none"
       id="path2989"
       sodipodi:cx="-10.229504"
       sodipodi:cy="18.625"
       sodipodi:rx="6.6454968"
       sodipodi:ry="4.1071429"
       d="m -3.5840068,18.625 c 0,2.268312 -2.9752903,4.107143 -6.6454972,4.107143 -3.670206,0 -6.645496,-1.838831 -6.645496,-4.107143 0,0 0,0 0,0 l 6.645496,0 z"
       transform="translate(34.229504,1009.8086)"
       sodipodi:start="0"
       sodipodi:end="3.1415927" />
    <path
       sodipodi:type="arc"
       style="fill:#ffcc00;stroke:none"
       id="path2985-73"
       sodipodi:cx="20.834396"
       sodipodi:cy="26.660528"
       sodipodi:rx="18.814091"
       sodipodi:ry="18.814091"
       d="m 39.648487,26.660528 a 18.814091,18.814091 0 1 1 -37.6281814,0 18.814091,18.814091 0 1 1 37.6281814,0 z"
       transform="matrix(0.61124396,0,0,0.61124396,23.515101,1022.0481)" />
    <rect
       style="fill:#ffffff;stroke:none"
       id="rect2987-7"
       width="3.0251963"
       height="13.794896"
       x="34.737404"
       y="1031.4467"
       ry="2.1028802" />
    <rect
       ry="2.1305497"
       y="-43.238205"
       x="1036.8315"
       height="13.976407"
       width="3.0251963"
       id="rect2989"
       style="fill:#ffffff;stroke:none"
       transform="matrix(0,1,-1,0,0,0)" />
    <path
       sodipodi:type="arc"
       style="fill:#ffcc00;stroke:none"
       id="path2985-1"
       sodipodi:cx="20.834396"
       sodipodi:cy="26.660528"
       sodipodi:rx="18.814091"
       sodipodi:ry="18.814091"
       d="m 39.648487,26.660528 a 18.814091,18.814091 0 1 1 -37.6281814,0 18.814091,18.814091 0 1 1 37.6281814,0 z"
       transform="matrix(0.61124396,0,0,0.61124396,23.5151,1022.0479)" />
    <rect
       style="fill:#ffffff;stroke:none"
       id="rect2987-4"
       width="3.0251963"
       height="13.794896"
       x="34.7374"
       y="1031.4467"
       ry="2.1028802" />
    <rect
       ry="2.1305497"
       y="-43.238205"
       x="1036.8312"
       height="13.976407"
       width="3.0251963"
       id="rect2989-9"
       style="fill:#ffffff;stroke:none"
       transform="matrix(0,1,-1,0,0,0)" />
    <path
       transform="matrix(0.61124396,0,0,0.61124396,23.515101,1022.0481)"
       d="m 39.648487,26.660528 a 18.814091,18.814091 0 1 1 -37.6281814,0 18.814091,18.814091 0 1 1 37.6281814,0 z"
       sodipodi:ry="18.814091"
       sodipodi:rx="18.814091"
       sodipodi:cy="26.660528"
       sodipodi:cx="20.834396"
       id="path3128"
       style="fill:#ffcc00;stroke:none"
       sodipodi:type="arc" />
    <rect
       ry="2.1028802"
       y="1031.4467"
       x="34.737404"
       height="13.794896"
       width="3.0251963"
       id="rect3130"
       style="fill:#ffffff;stroke:none" />
    <rect
       transform="matrix(0,1,-1,0,0,0)"
       style="fill:#ffffff;stroke:none"
       id="rect3132"
       width="3.0251963"
       height="13.976407"
       x="1036.8315"
       y="-43.238205"
       ry="2.1305497" />
    <path
       transform="matrix(0.61124396,0,0,0.61124396,23.5151,1022.0479)"
       d="m 39.648487,26.660528 a 18.814091,18.814091 0 1 1 -37.6281814,0 18.814091,18.814091 0 1 1 37.6281814,0 z"
       sodipodi:ry="18.814091"
       sodipodi:rx="18.814091"
       sodipodi:cy="26.660528"
       sodipodi:cx="20.834396"
       id="path3134"
       style="fill:#ffcc00;stroke:none"
       sodipodi:type="arc" />
    <rect
       ry="2.1028802"
       y="1031.4467"
       x="34.7374"
       height="13.794896"
       width="3.0251963"
       id="rect3136"
       style="fill:#ffffff;stroke:none" />
    <rect
       transform="matrix(0,1,-1,0,0,0)"
       style="fill:#ffffff;stroke:none"
       id="rect3138"
       width="3.0251963"
       height="13.976407"
       x="1036.8312"
       y="-43.238205"
       ry="2.1305497" />
    <path
       sodipodi:type="arc"
       style="fill:#ffcc00;stroke:none"
       id="path2985-7"
       sodipodi:cx="20.834396"
       sodipodi:cy="26.660528"
       sodipodi:rx="18.814091"
       sodipodi:ry="18.814091"
       d="m 39.648487,26.660528 a 18.814091,18.814091 0 1 1 -37.6281814,0 18.814091,18.814091 0 1 1 37.6281814,0 z"
       transform="matrix(0.61124396,0,0,0.61124396,23.5151,1022.0479)" />
    <rect
       style="fill:#ffffff;stroke:none"
       id="rect2987-1"
       width="3.0251963"
       height="13.794896"
       x="34.737396"
       y="1031.4465"
       ry="2.1028802" />
    <rect
       ry="2.1305497"
       y="-43.23819"
       x="1036.8313"
       height="13.976407"
       width="3.0251963"
       id="rect2989-2"
       style="fill:#ffffff;stroke:none"
       transform="matrix(0,1,-1,0,0,0)" />
    <path
       sodipodi:type="arc"
       style="fill:#ffcc00;stroke:none"
       id="path2985-1-5"
       sodipodi:cx="20.834396"
       sodipodi:cy="26.660528"
       sodipodi:rx="18.814091"
       sodipodi:ry="18.814091"
       d="m 39.648487,26.660528 a 18.814091,18.814091 0 1 1 -37.6281814,0 18.814091,18.814091 0 1 1 37.6281814,0 z"
       transform="matrix(0.61124396,0,0,0.61124396,23.5151,1022.0477)" />
    <rect
       style="fill:#ffffff;stroke:none"
       id="rect2987-4-9"
       width="3.0251963"
       height="13.794896"
       x="34.737396"
       y="1031.4464"
       ry="2.1028802" />
    <rect
       ry="2.1305497"
       y="-43.23819"
       x="1036.8311"
       height="13.976407"
       width="3.0251963"
       id="rect2989-9-4"
       style="fill:#ffffff;stroke:none"
       transform="matrix(0,1,-1,0,0,0)" />
    <path
       transform="matrix(0.61124396,0,0,0.61124396,23.5151,1022.0479)"
       d="m 39.648487,26.660528 a 18.814091,18.814091 0 1 1 -37.6281814,0 18.814091,18.814091 0 1 1 37.6281814,0 z"
       sodipodi:ry="18.814091"
       sodipodi:rx="18.814091"
       sodipodi:cy="26.660528"
       sodipodi:cx="20.834396"
       id="path3140"
       style="fill:#ffcc00;stroke:none"
       sodipodi:type="arc" />
    <rect
       ry="2.1028802"
       y="1031.4465"
       x="34.737396"
       height="13.794896"
       width="3.0251963"
       id="rect3142"
       style="fill:#ffffff;stroke:none" />
    <rect
       transform="matrix(0,1,-1,0,0,0)"
       style="fill:#ffffff;stroke:none"
       id="rect3144"
       width="3.0251963"
       height="13.976407"
       x="1036.8313"
       y="-43.23819"
       ry="2.1305497" />
    <path
       transform="matrix(0.61124396,0,0,0.61124396,23.5151,1022.0477)"
       d="m 39.648487,26.660528 a 18.814091,18.814091 0 1 1 -37.6281814,0 18.814091,18.814091 0 1 1 37.6281814,0 z"
       sodipodi:ry="18.814091"
       sodipodi:rx="18.814091"
       sodipodi:cy="26.660528"
       sodipodi:cx="20.834396"
       id="path3146"
       style="fill:#ffcc00;stroke:none"
       sodipodi:type="arc" />
    <rect
       ry="2.1028802"
       y="1031.4464"
       x="34.737396"
       height="13.794896"
       width="3.0251963"
       id="rect3148"
       style="fill:#ffffff;stroke:none" />
    <rect
       transform="matrix(0,1,-1,0,0,0)"
       style="fill:#ffffff;stroke:none"
       id="rect3150"
       width="3.0251963"
       height="13.976407"
       x="1036.8311"
       y="-43.23819"
       ry="2.1305497" />
  </g>
</svg>
