<?xml version="1.0" encoding="UTF-8" standalone="no"?>
<!-- Created with Inkscape (http://www.inkscape.org/) -->

<svg
   xmlns:dc="http://purl.org/dc/elements/1.1/"
   xmlns:cc="http://creativecommons.org/ns#"
   xmlns:rdf="http://www.w3.org/1999/02/22-rdf-syntax-ns#"
   xmlns:svg="http://www.w3.org/2000/svg"
   xmlns="http://www.w3.org/2000/svg"
   xmlns:sodipodi="http://sodipodi.sourceforge.net/DTD/sodipodi-0.dtd"
   xmlns:inkscape="http://www.inkscape.org/namespaces/inkscape"
   width="48"
   height="48"
   id="svg2"
   version="1.1"
   inkscape:version="0.48.4 r9939"
   sodipodi:docname="New document 1">
  <defs
     id="defs4" />
  <sodipodi:namedview
     id="base"
     pagecolor="#ffffff"
     bordercolor="#666666"
     borderopacity="1.0"
     inkscape:pageopacity="0.0"
     inkscape:pageshadow="2"
     inkscape:zoom="7.9195959"
     inkscape:cx="45.682511"
     inkscape:cy="25.431355"
     inkscape:document-units="px"
     inkscape:current-layer="layer1"
     showgrid="false"
     inkscape:window-width="1440"
     inkscape:window-height="850"
     inkscape:window-x="0"
     inkscape:window-y="0"
     inkscape:window-maximized="1" />
  <metadata
     id="metadata7">
    <rdf:RDF>
      <cc:Work
         rdf:about="">
        <dc:format>image/svg+xml</dc:format>
        <dc:type
           rdf:resource="http://purl.org/dc/dcmitype/StillImage" />
        <dc:title></dc:title>
      </cc:Work>
    </rdf:RDF>
  </metadata>
  <g
     inkscape:label="Layer 1"
     inkscape:groupmode="layer"
     id="layer1"
     transform="translate(0,-1004.3622)">
    <path
       sodipodi:type="arc"
       style="fill:#ffff00;fill-opacity:1;stroke:none"
       id="path2985"
       sodipodi:cx="21.213203"
       sodipodi:cy="20.347075"
       sodipodi:rx="12.879445"
       sodipodi:ry="12.879445"
       d="m 34.092649,20.347075 a 12.879445,12.879445 0 1 1 -25.7588906,0 12.879445,12.879445 0 1 1 25.7588906,0 z"
       transform="matrix(1.0856569,0,0,1.0856569,-8.6287285,1001.0468)" />
    <rect
       style="fill:#ffff00;fill-opacity:1;stroke:none"
       id="rect2989"
       width="8.4992628"
       height="27.82823"
       x="-843.88727"
       y="596.79987"
       ry="3.6246855"
       transform="matrix(0.56055312,-0.82811847,0.82811847,0.56055312,0,0)" />
    <path
       sodipodi:type="arc"
       style="fill:#ffffff;fill-opacity:1;stroke:none"
       id="path2991"
       sodipodi:cx="-8.4600277"
       sodipodi:cy="8.73032"
       sodipodi:rx="6.1871843"
       sodipodi:ry="6.1871843"
       d="m -2.2728434,8.73032 a 6.1871843,6.1871843 0 1 1 -12.3743686,0 6.1871843,6.1871843 0 1 1 12.3743686,0 z"
       transform="matrix(1.4733916,0,0,1.4733916,26.866467,1010.2736)" />
    <path
       transform="matrix(0.77225761,0,0,0.77225761,20.934854,1016.3946)"
       d="m -2.2728434,8.73032 a 6.1871843,6.1871843 0 1 1 -12.3743686,0 6.1871843,6.1871843 0 1 1 12.3743686,0 z"
       sodipodi:ry="6.1871843"
       sodipodi:rx="6.1871843"
       sodipodi:cy="8.73032"
       sodipodi:cx="-8.4600277"
       id="path2993"
       style="fill:#b3b3b3;fill-opacity:1;stroke:none"
       sodipodi:type="arc" />
  </g>
</svg>
