<?xml version="1.0" encoding="UTF-8" standalone="no"?>
<svg
   xmlns:dc="http://purl.org/dc/elements/1.1/"
   xmlns:cc="http://creativecommons.org/ns#"
   xmlns:rdf="http://www.w3.org/1999/02/22-rdf-syntax-ns#"
   xmlns:svg="http://www.w3.org/2000/svg"
   xmlns="http://www.w3.org/2000/svg"
   xmlns:sodipodi="http://sodipodi.sourceforge.net/DTD/sodipodi-0.dtd"
   xmlns:inkscape="http://www.inkscape.org/namespaces/inkscape"
   width="256"
   height="256"
   viewBox="0 0 256 256"
   id="svg2"
   version="1.1"
   inkscape:version="0.48.4 r9939"
   sodipodi:docname="format-text-direction-ltr.svg">
  <metadata
     id="metadata16">
    <rdf:RDF>
      <cc:Work
         rdf:about="">
        <dc:format>image/svg+xml</dc:format>
        <dc:type
           rdf:resource="http://purl.org/dc/dcmitype/StillImage" />
      </cc:Work>
    </rdf:RDF>
  </metadata>
  <defs
     id="defs14" />
  <sodipodi:namedview
     pagecolor="#ffffff"
     bordercolor="#666666"
     borderopacity="1"
     objecttolerance="10"
     gridtolerance="10"
     guidetolerance="10"
     inkscape:pageopacity="0"
     inkscape:pageshadow="2"
     inkscape:window-width="1440"
     inkscape:window-height="850"
     id="namedview12"
     showgrid="false"
     inkscape:zoom="0.921875"
     inkscape:cx="-35.79661"
     inkscape:cy="125.83051"
     inkscape:window-x="0"
     inkscape:window-y="0"
     inkscape:window-maximized="1"
     inkscape:current-layer="svg2" />
  <g
     style="fill:#6058a0;fill-opacity:1"
     id="g4">
    <path
       d="M 32 0 L 32 32 L 128 32 C 134.851562 32 144 41.828125 144 48 L 144 64 L 64 64 C 49.292969 64 36.230469 70.144531 28 79.5 C 19.773438 88.855469 15.898438 100.46875 16 112 C 16.097656 123.53125 20.304688 135.242188 28.5 144.5 C 36.699219 153.757812 49.46875 160 64 160 L 176 160 L 176 48 C 176 21.851562 154.886719 0 128 0 Z M 64 96 L 144 96 L 144 128 L 64 128 C 57.636719 128 54.929688 126.242188 52.5 123.5 C 50.074219 120.757812 48.042969 116.46875 48 112 C 47.96875 107.53125 49.675781 103.144531 52 100.5 C 54.328125 97.855469 57.246094 96 64 96 Z "
       id="path6"
       style="fill:#6058a0;fill-opacity:1" />
    <path
       d="M 192 240 L 208 240 C 212.246094 240 216.488281 238.511719 219.5 235.5 L 256 199 L 256 185 L 219.5 148.5 C 216.488281 145.488281 212.246094 144 208 144 L 192 144 L 192 160 C 192 164.246094 193.488281 168.488281 196.5 171.5 L 217 192 L 196.5 212.5 C 193.488281 215.511719 192 219.757812 192 224 Z "
       id="path8"
       style="fill:#6058a0;fill-opacity:1" />
    <path
       d="M 14.996094 176 L 14.996094 208 L 223.996094 208 L 223.996094 176 Z "
       id="path10"
       style="fill:#6058a0;fill-opacity:1" />
  </g>
</svg>
