<?xml version="1.0" encoding="UTF-8" standalone="no"?>
<svg
   xmlns:dc="http://purl.org/dc/elements/1.1/"
   xmlns:cc="http://creativecommons.org/ns#"
   xmlns:rdf="http://www.w3.org/1999/02/22-rdf-syntax-ns#"
   xmlns:svg="http://www.w3.org/2000/svg"
   xmlns="http://www.w3.org/2000/svg"
   xmlns:sodipodi="http://sodipodi.sourceforge.net/DTD/sodipodi-0.dtd"
   xmlns:inkscape="http://www.inkscape.org/namespaces/inkscape"
   width="256"
   height="256"
   viewBox="0 0 256 256"
   id="svg2"
   version="1.1"
   inkscape:version="0.48.4 r9939"
   sodipodi:docname="format-text-direction-rtl.svg">
  <metadata
     id="metadata16">
    <rdf:RDF>
      <cc:Work
         rdf:about="">
        <dc:format>image/svg+xml</dc:format>
        <dc:type
           rdf:resource="http://purl.org/dc/dcmitype/StillImage" />
      </cc:Work>
    </rdf:RDF>
  </metadata>
  <defs
     id="defs14" />
  <sodipodi:namedview
     pagecolor="#ffffff"
     bordercolor="#666666"
     borderopacity="1"
     objecttolerance="10"
     gridtolerance="10"
     guidetolerance="10"
     inkscape:pageopacity="0"
     inkscape:pageshadow="2"
     inkscape:window-width="1440"
     inkscape:window-height="850"
     id="namedview12"
     showgrid="false"
     inkscape:zoom="0.921875"
     inkscape:cx="-35.79661"
     inkscape:cy="125.83051"
     inkscape:window-x="0"
     inkscape:window-y="0"
     inkscape:window-maximized="1"
     inkscape:current-layer="svg2" />
  <g
     style="fill:#6058a0;fill-opacity:1"
     id="g4">
    <path
       d="M 96.003906 0.789062 L 96.003906 32.789062 L 192.003906 32.789062 C 198.851562 32.789062 208.003906 42.613281 208.003906 48.789062 L 208.003906 64.789062 L 128.003906 64.789062 C 113.292969 64.789062 100.234375 70.929688 92.003906 80.289062 C 83.773438 89.644531 79.898438 101.257812 80.003906 112.789062 C 80.097656 124.316406 84.304688 136.03125 92.503906 145.289062 C 100.699219 154.542969 113.46875 160.789062 128.003906 160.789062 L 240.003906 160.789062 L 240.003906 48.789062 C 240.003906 22.640625 218.886719 0.789062 192.003906 0.789062 Z M 128.003906 96.789062 L 208.003906 96.789062 L 208.003906 128.789062 L 128.003906 128.789062 C 121.636719 128.789062 118.929688 127.03125 116.503906 124.289062 C 114.074219 121.542969 112.042969 117.257812 112.003906 112.789062 C 111.96875 108.316406 113.675781 103.929688 116.003906 101.289062 C 118.328125 98.644531 121.246094 96.789062 128.003906 96.789062 Z "
       id="path6"
       style="fill:#6058a0;fill-opacity:1" />
    <path
       d="M 64 240 L 48 240 C 43.753906 240 39.511719 238.511719 36.5 235.5 L 0 199 L 0 185 L 36.5 148.5 C 39.511719 145.488281 43.753906 144 48 144 L 64 144 L 64 160 C 64 164.246094 62.511719 168.488281 59.5 171.5 L 39 192 L 59.5 212.5 C 62.511719 215.511719 64 219.757812 64 224 Z "
       id="path8"
       style="fill:#6058a0;fill-opacity:1" />
    <path
       d="M 31.996094 176 L 31.996094 208 L 238.996094 208 L 238.996094 176 Z "
       id="path10"
       style="fill:#6058a0;fill-opacity:1" />
  </g>
</svg>
