<?xml version="1.0" encoding="UTF-8" standalone="no"?>
<svg
   xmlns:dc="http://purl.org/dc/elements/1.1/"
   xmlns:cc="http://creativecommons.org/ns#"
   xmlns:rdf="http://www.w3.org/1999/02/22-rdf-syntax-ns#"
   xmlns:svg="http://www.w3.org/2000/svg"
   xmlns="http://www.w3.org/2000/svg"
   xmlns:sodipodi="http://sodipodi.sourceforge.net/DTD/sodipodi-0.dtd"
   xmlns:inkscape="http://www.inkscape.org/namespaces/inkscape"
   width="256"
   height="256"
   viewBox="0 0 256 256"
   id="svg2"
   version="1.1"
   inkscape:version="0.48.4 r9939"
   sodipodi:docname="format-text-bold.svg">
  <metadata
     id="metadata10">
    <rdf:RDF>
      <cc:Work
         rdf:about="">
        <dc:format>image/svg+xml</dc:format>
        <dc:type
           rdf:resource="http://purl.org/dc/dcmitype/StillImage" />
      </cc:Work>
    </rdf:RDF>
  </metadata>
  <defs
     id="defs8" />
  <sodipodi:namedview
     pagecolor="#ffffff"
     bordercolor="#666666"
     borderopacity="1"
     objecttolerance="10"
     gridtolerance="10"
     guidetolerance="10"
     inkscape:pageopacity="0"
     inkscape:pageshadow="2"
     inkscape:window-width="1440"
     inkscape:window-height="850"
     id="namedview6"
     showgrid="false"
     inkscape:zoom="0.921875"
     inkscape:cx="-35.79661"
     inkscape:cy="125.83051"
     inkscape:window-x="0"
     inkscape:window-y="0"
     inkscape:window-maximized="1"
     inkscape:current-layer="svg2" />
  <path
     style="fill:#6058a0;fill-opacity:1"
     d="M 64 48 L 64 80 L 144 80 C 150.851562 80 160 89.828125 160 96 L 160 112 L 80 112 C 65.292969 112 52.230469 118.144531 44 127.5 C 35.769531 136.855469 31.898438 148.46875 32 160 C 32.097656 171.53125 36.304688 183.242188 44.5 192.5 C 52.695312 201.757812 65.46875 208 80 208 L 224 208 L 224 96 C 224 69.851562 202.882812 48 176 48 Z M 112 144 L 160 144 L 160 176 L 112 176 C 105.632812 176 102.929688 174.242188 100.5 171.5 C 98.070312 168.757812 96.039062 164.46875 96 160 C 95.96875 155.53125 97.675781 151.144531 100 148.5 C 102.324219 145.855469 105.242188 144 112 144 Z "
     id="path4" />
</svg>
