<?xml version="1.0" encoding="UTF-8" standalone="no"?>
<svg
   xmlns:dc="http://purl.org/dc/elements/1.1/"
   xmlns:cc="http://creativecommons.org/ns#"
   xmlns:rdf="http://www.w3.org/1999/02/22-rdf-syntax-ns#"
   xmlns:svg="http://www.w3.org/2000/svg"
   xmlns="http://www.w3.org/2000/svg"
   xmlns:sodipodi="http://sodipodi.sourceforge.net/DTD/sodipodi-0.dtd"
   xmlns:inkscape="http://www.inkscape.org/namespaces/inkscape"
   width="48"
   height="48"
   viewBox="0 0 48 48"
   id="svg2"
   version="1.1"
   inkscape:version="0.48.4 r9939"
   sodipodi:docname="mail-mark-read.svg">
  <metadata
     id="metadata22">
    <rdf:RDF>
      <cc:Work
         rdf:about="">
        <dc:format>image/svg+xml</dc:format>
        <dc:type
           rdf:resource="http://purl.org/dc/dcmitype/StillImage" />
      </cc:Work>
    </rdf:RDF>
  </metadata>
  <defs
     id="defs20" />
  <sodipodi:namedview
     pagecolor="#ffffff"
     bordercolor="#666666"
     borderopacity="1"
     objecttolerance="10"
     gridtolerance="10"
     guidetolerance="10"
     inkscape:pageopacity="0"
     inkscape:pageshadow="2"
     inkscape:window-width="1440"
     inkscape:window-height="834"
     id="namedview18"
     showgrid="false"
     inkscape:zoom="4.9166667"
     inkscape:cx="-11.491525"
     inkscape:cy="24"
     inkscape:window-x="0"
     inkscape:window-y="27"
     inkscape:window-maximized="1"
     inkscape:current-layer="svg2" />
  <path
     style="fill:#cccccc"
     d="m 6,46 36,0 c 4,0 4,0 4,-4 L 46,16 24,2.0000005 2,16 2,42 c 0,4 0,4 4,4 z"
     id="path4"
     inkscape:connector-curvature="0" />
  <path
     style="fill:#d35f5f"
     d="M 8,8.0000005 8,40 40,40 40,8.0000005 z"
     id="path8"
     inkscape:connector-curvature="0" />
  <g
     style="fill:#b3b3b3"
     id="g10">
    <path
       d="m 6,46 36,0 c 4,0 4,0 4,-4 L 46,18 2,42 c 0,4 0,4 4,4 z"
       id="path12"
       inkscape:connector-curvature="0"
       style="fill:#b3b3b3" />
    <path
       d="M 42,46 6,46 C 2,46 2,46 2,42 L 2,18 46,42 c 0,4 0,4 -4,4 z"
       id="path14"
       inkscape:connector-curvature="0"
       style="fill:#b3b3b3" />
  </g>
  <path
     style="fill:#e6e6e6;fill-opacity:0"
     d="m 41.38983,43.966102 -36,0 c -4,0 -4,0 -4,-4 l 0,-24 44,24 c 0,4 0,4 -4,4 z"
     id="path16"
     inkscape:connector-curvature="0" />
  <path
     style="fill:none;stroke:#000000;stroke-width:0.1;stroke-linecap:butt;stroke-linejoin:miter;stroke-opacity:1"
     d="M 9.1525424,15.661017 39.254237,16.271186"
     id="path3767"
     inkscape:connector-curvature="0" />
  <path
     style="fill:none;stroke:#000000;stroke-width:0.1;stroke-linecap:butt;stroke-linejoin:miter;stroke-opacity:1"
     d="M 9.1525424,20.508475 38.644068,20.711864"
     id="path3771"
     inkscape:connector-curvature="0" />
  <path
     inkscape:connector-curvature="0"
     id="path3773"
     d="M 9.1525424,11.661017 39.254237,12.271186"
     style="fill:none;stroke:#000000;stroke-width:0.1;stroke-linecap:butt;stroke-linejoin:miter;stroke-opacity:1" />
</svg>
