<?xml version="1.0" encoding="UTF-8" standalone="no"?>
<svg
   xmlns:dc="http://purl.org/dc/elements/1.1/"
   xmlns:cc="http://creativecommons.org/ns#"
   xmlns:rdf="http://www.w3.org/1999/02/22-rdf-syntax-ns#"
   xmlns:svg="http://www.w3.org/2000/svg"
   xmlns="http://www.w3.org/2000/svg"
   xmlns:sodipodi="http://sodipodi.sourceforge.net/DTD/sodipodi-0.dtd"
   xmlns:inkscape="http://www.inkscape.org/namespaces/inkscape"
   width="48"
   height="48"
   viewBox="0 0 48 48"
   id="svg2"
   version="1.1"
   inkscape:version="0.48.4 r9939"
   sodipodi:docname="mail-reply-all.svg">
  <metadata
     id="metadata16">
    <rdf:RDF>
      <cc:Work
         rdf:about="">
        <dc:format>image/svg+xml</dc:format>
        <dc:type
           rdf:resource="http://purl.org/dc/dcmitype/StillImage" />
      </cc:Work>
    </rdf:RDF>
  </metadata>
  <defs
     id="defs14" />
  <sodipodi:namedview
     pagecolor="#ffffff"
     bordercolor="#666666"
     borderopacity="1"
     objecttolerance="10"
     gridtolerance="10"
     guidetolerance="10"
     inkscape:pageopacity="0"
     inkscape:pageshadow="2"
     inkscape:window-width="640"
     inkscape:window-height="480"
     id="namedview12"
     showgrid="false"
     inkscape:zoom="4.9166667"
     inkscape:cx="24"
     inkscape:cy="24"
     inkscape:window-x="0"
     inkscape:window-y="27"
     inkscape:window-maximized="0"
     inkscape:current-layer="svg2" />
  <g
     style="fill-rule:evenodd"
     id="g4">
    <path
       style="fill:#859900"
       d="M 24.085938 17.707031 L 10.335938 28.707031 C 7.578125 31.464844 7.585938 31.457031 10.335938 34.207031 L 24.085938 45.207031 C 26 46.742188 26 46.171875 26 42.378906 C 26.039062 41.003906 26.085938 39.457031 26 37.457031 C 26.03125 37.457031 25.96875 37.457031 26 37.457031 C 39.664062 37.457031 46.085938 19.085938 46 8 C 40.585938 13.585938 34.25 25.628906 26 25.457031 C 26 23.488281 26.039062 22.785156 26 21.457031 C 26 19.457031 26 16.347656 24.085938 17.707031 Z "
       id="path6" />
    <path
       style="fill:#00d455;fill-opacity:0.10199999999999999"
       d="M 24.085938 17.707031 L 10.335938 28.707031 C 7.578125 31.464844 7.585938 31.457031 10.335938 34.207031 L 24.085938 45.207031 C 26 46.742188 26 46.171875 26 42.378906 C 26.039062 41.003906 26.085938 39.457031 26 37.457031 C 26.03125 37.457031 25.96875 37.457031 26 37.457031 C 39.664062 37.457031 46.085938 19.085938 46 8 C 40.585938 13.585938 34.25 25.628906 26 25.457031 C 26 23.488281 26.039062 22.785156 26 21.457031 C 26 19.457031 26 16.347656 24.085938 17.707031 Z "
       id="path8" />
    <path
       style="fill:#008000"
       d="M 24.085938 8.21875 L 10.335938 19.21875 C 7.578125 21.976562 7.585938 21.96875 10.335938 24.71875 L 24.085938 35.71875 C 26 37.253906 26 36.683594 26 32.890625 C 26.039062 31.515625 26.085938 29.96875 26 27.96875 C 26.03125 27.96875 25.96875 27.96875 26 27.96875 C 39.664062 27.96875 46.085938 19.21875 46 8.132812 C 40.585938 13.71875 34.25 16.140625 26 15.96875 C 26 14 26.039062 13.296875 26 11.96875 C 26 9.96875 26 6.859375 24.085938 8.21875 Z "
       id="path10" />
  </g>
</svg>
