<?xml version="1.0" encoding="UTF-8" standalone="no"?>
<svg
   xmlns:dc="http://purl.org/dc/elements/1.1/"
   xmlns:cc="http://creativecommons.org/ns#"
   xmlns:rdf="http://www.w3.org/1999/02/22-rdf-syntax-ns#"
   xmlns:svg="http://www.w3.org/2000/svg"
   xmlns="http://www.w3.org/2000/svg"
   xmlns:sodipodi="http://sodipodi.sourceforge.net/DTD/sodipodi-0.dtd"
   xmlns:inkscape="http://www.inkscape.org/namespaces/inkscape"
   width="48"
   height="48"
   viewBox="0 0 48 48"
   id="svg2"
   version="1.1"
   inkscape:version="0.48.4 r9939"
   sodipodi:docname="mail-mark-important.svg">
  <metadata
     id="metadata28">
    <rdf:RDF>
      <cc:Work
         rdf:about="">
        <dc:format>image/svg+xml</dc:format>
        <dc:type
           rdf:resource="http://purl.org/dc/dcmitype/StillImage" />
      </cc:Work>
    </rdf:RDF>
  </metadata>
  <defs
     id="defs26" />
  <sodipodi:namedview
     pagecolor="#ffffff"
     bordercolor="#666666"
     borderopacity="1"
     objecttolerance="10"
     gridtolerance="10"
     guidetolerance="10"
     inkscape:pageopacity="0"
     inkscape:pageshadow="2"
     inkscape:window-width="640"
     inkscape:window-height="480"
     id="namedview24"
     showgrid="false"
     inkscape:zoom="4.9166667"
     inkscape:cx="24"
     inkscape:cy="24"
     inkscape:window-x="0"
     inkscape:window-y="27"
     inkscape:window-maximized="0"
     inkscape:current-layer="svg2" />
  <g
     style="fill:#268bd2"
     id="g4">
    <path
       d="M 6 14 C 2 14 2 14 2 18 L 2 42 C 2 46 2 46 6 46 L 42 46 C 46 46 46 46 46 42 C 46 33.148438 46 23.117188 46 18 C 46 14 46 14 42 14 Z "
       id="path6" />
    <path
       d="M 6 46 L 42 46 C 46 46 46 46 46 42 L 46 18 L 2 42 C 2 46 2 46 6 46 Z "
       id="path8" />
  </g>
  <path
     style="fill:#000;fill-opacity:.102"
     d="M 6 46 L 42 46 C 46 46 46 46 46 42 L 46 18 L 2 42 C 2 46 2 46 6 46 Z "
     id="path10" />
  <path
     style="fill:#268bd2"
     d="M 42 46 L 6 46 C 2 46 2 46 2 42 L 2 18 L 46 42 C 46 46 46 46 42 46 Z "
     id="path12" />
  <path
     style="fill:#fff;fill-opacity:.102"
     d="M 2 18 L 24 30 L 46 18 C 46 14 46 14 42 14 L 6 14 C 2 14 2 14 2 18 Z "
     id="path14" />
  <path
     style="fill:#ffcc00;fill-rule:evenodd"
     d="M 46 14 C 46 20.628906 40.628906 26 34 26 C 27.371094 26 22 20.628906 22 14 C 22 7.371094 27.371094 2 34 2 C 40.628906 2 46 7.371094 46 14 Z "
     id="path16" />
  <g
     style="fill:#ffffff;fill-opacity:0.90200000000000002"
     id="g18">
    <path
       d="M 32 6 L 36 6 L 36 18 L 32 18 Z "
       id="path20"
       style="fill:#ffffff" />
    <path
       d="M 32 20 L 36 20 L 36 22 L 32 22 Z "
       id="path22"
       style="fill:#ffffff" />
  </g>
</svg>
