<?xml version="1.0" encoding="UTF-8" standalone="no"?>
<svg
   xmlns:dc="http://purl.org/dc/elements/1.1/"
   xmlns:cc="http://creativecommons.org/ns#"
   xmlns:rdf="http://www.w3.org/1999/02/22-rdf-syntax-ns#"
   xmlns:svg="http://www.w3.org/2000/svg"
   xmlns="http://www.w3.org/2000/svg"
   xmlns:sodipodi="http://sodipodi.sourceforge.net/DTD/sodipodi-0.dtd"
   xmlns:inkscape="http://www.inkscape.org/namespaces/inkscape"
   width="48"
   height="48"
   viewBox="0 0 48 48"
   id="svg2"
   version="1.1"
   inkscape:version="0.48.4 r9939"
   sodipodi:docname="mail-mark-important.svg">
  <metadata
     id="metadata28">
    <rdf:RDF>
      <cc:Work
         rdf:about="">
        <dc:format>image/svg+xml</dc:format>
        <dc:type
           rdf:resource="http://purl.org/dc/dcmitype/StillImage" />
      </cc:Work>
    </rdf:RDF>
  </metadata>
  <defs
     id="defs26" />
  <sodipodi:namedview
     pagecolor="#ffffff"
     bordercolor="#666666"
     borderopacity="1"
     objecttolerance="10"
     gridtolerance="10"
     guidetolerance="10"
     inkscape:pageopacity="0"
     inkscape:pageshadow="2"
     inkscape:window-width="1440"
     inkscape:window-height="834"
     id="namedview24"
     showgrid="false"
     inkscape:zoom="4.9166667"
     inkscape:cx="24.40678"
     inkscape:cy="24"
     inkscape:window-x="0"
     inkscape:window-y="27"
     inkscape:window-maximized="1"
     inkscape:current-layer="svg2" />
  <g
     style="fill:#006680"
     id="g4">
    <path
       d="M 6 14 C 2 14 2 14 2 18 L 2 42 C 2 46 2 46 6 46 L 42 46 C 46 46 46 46 46 42 C 46 33.148438 46 23.117188 46 18 C 46 14 46 14 42 14 Z "
       id="path6"
       style="fill:#006680" />
    <path
       d="M 6 46 L 42 46 C 46 46 46 46 46 42 L 46 18 L 2 42 C 2 46 2 46 6 46 Z "
       id="path8"
       style="fill:#006680" />
  </g>
  <path
     style="fill:#000000;fill-opacity:0.10199998"
     d="m 6.2033895,45.59322 35.9999995,0 c 4,0 4,0 4,-4 l 0,-24 -43.9999995,24 c 0,4 0,4 4,4 z"
     id="path10"
     inkscape:connector-curvature="0" />
  <path
     style="fill:#2c89a0"
     d="m 42,46.203389 -36.0000005,0 c -4,0 -4,0 -4,-4 l 0,-24 44.0000005,24 c 0,4 0,4 -4,4 z"
     id="path12"
     inkscape:connector-curvature="0" />
  <path
     style="fill:#ffffff;fill-opacity:0.10199998"
     d="m 1.5438707,17.928091 22.0000003,12 22,-12 c 0,-4 0,-4 -4,-4 l -36.0000013,0 c -3.999999,0 -3.999999,0 -3.999999,4 z"
     id="path14"
     inkscape:connector-curvature="0" />
  <g
     id="g2991"
     transform="translate(-49.661017,15.898305)">
    <path
       inkscape:connector-curvature="0"
       id="path16"
       d="m 97.661017,-3.8983051 c 0,6.628906 -5.371094,12 -12,12 -6.628906,0 -12,-5.371094 -12,-12 0,-6.6289059 5.371094,-11.9999999 12,-11.9999999 6.628906,0 12,5.371094 12,11.9999999 z"
       style="fill:#ffcc00;fill-rule:evenodd" />
    <g
       transform="translate(51.661017,-17.898305)"
       id="g18"
       style="fill:#ffffff;fill-opacity:0.9020004">
      <path
         inkscape:connector-curvature="0"
         style="fill:#ffffff"
         id="path20"
         d="m 32,6 4,0 0,12 -4,0 z" />
      <path
         inkscape:connector-curvature="0"
         style="fill:#ffffff"
         id="path22"
         d="m 32,20 4,0 0,2 -4,0 z" />
    </g>
  </g>
</svg>
