<?xml version="1.0" encoding="UTF-8" standalone="no"?>
<svg
   xmlns:dc="http://purl.org/dc/elements/1.1/"
   xmlns:cc="http://creativecommons.org/ns#"
   xmlns:rdf="http://www.w3.org/1999/02/22-rdf-syntax-ns#"
   xmlns:svg="http://www.w3.org/2000/svg"
   xmlns="http://www.w3.org/2000/svg"
   xmlns:sodipodi="http://sodipodi.sourceforge.net/DTD/sodipodi-0.dtd"
   xmlns:inkscape="http://www.inkscape.org/namespaces/inkscape"
   width="48"
   height="48"
   viewBox="0 0 48 48"
   id="svg2"
   version="1.1"
   inkscape:version="0.48.4 r9939"
   sodipodi:docname="object-rotate-right.svg">
  <metadata
     id="metadata14">
    <rdf:RDF>
      <cc:Work
         rdf:about="">
        <dc:format>image/svg+xml</dc:format>
        <dc:type
           rdf:resource="http://purl.org/dc/dcmitype/StillImage" />
      </cc:Work>
    </rdf:RDF>
  </metadata>
  <defs
     id="defs12" />
  <sodipodi:namedview
     pagecolor="#ffffff"
     bordercolor="#666666"
     borderopacity="1"
     objecttolerance="10"
     gridtolerance="10"
     guidetolerance="10"
     inkscape:pageopacity="0"
     inkscape:pageshadow="2"
     inkscape:window-width="1440"
     inkscape:window-height="834"
     id="namedview10"
     showgrid="false"
     inkscape:zoom="4.9166667"
     inkscape:cx="24.40678"
     inkscape:cy="24"
     inkscape:window-x="0"
     inkscape:window-y="27"
     inkscape:window-maximized="1"
     inkscape:current-layer="svg2" />
  <g
     style="fill:#333333"
     id="g4">
    <path
       style="fill-rule:evenodd;fill:#333333"
       d="M 20 6 C 29.941406 6 38 14.058594 38 24 L 34 24 C 34 16.269531 27.730469 10 20 10 C 12.269531 10 6 16.269531 6 24 C 6 31.730469 12.269531 38 20 38 L 20 42 C 10.058594 42 2 33.941406 2 24 C 2 14.058594 10.058594 6 20 6 Z "
       id="path6" />
    <path
       d="M 46 24 L 26 24 L 36 34 Z "
       id="path8"
       style="fill:#333333" />
  </g>
  <g
     id="g2991"
     style="fill:#008080"
     transform="translate(1,0)">
    <path
       id="path2993"
       d="m 20,6 c 9.941406,0 18,8.058594 18,18 l -4,0 C 34,16.269531 27.730469,10 20,10 12.269531,10 6,16.269531 6,24 c 0,7.730469 6.269531,14 14,14 l 0,4 C 10.058594,42 2,33.941406 2,24 2,14.058594 10.058594,6 20,6 z"
       style="fill-rule:evenodd;fill:#008080"
       inkscape:connector-curvature="0" />
    <path
       id="path2995"
       d="M 46,24 26,24 36,34 z"
       inkscape:connector-curvature="0"
       style="fill:#008080" />
  </g>
</svg>
