<?xml version="1.0" encoding="UTF-8" standalone="no"?>
<svg
   xmlns:dc="http://purl.org/dc/elements/1.1/"
   xmlns:cc="http://creativecommons.org/ns#"
   xmlns:rdf="http://www.w3.org/1999/02/22-rdf-syntax-ns#"
   xmlns:svg="http://www.w3.org/2000/svg"
   xmlns="http://www.w3.org/2000/svg"
   xmlns:sodipodi="http://sodipodi.sourceforge.net/DTD/sodipodi-0.dtd"
   xmlns:inkscape="http://www.inkscape.org/namespaces/inkscape"
   width="48"
   height="48"
   viewBox="0 0 48 48"
   id="svg2"
   version="1.1"
   inkscape:version="0.48.4 r9939"
   sodipodi:docname="system-logout.svg">
  <metadata
     id="metadata16">
    <rdf:RDF>
      <cc:Work
         rdf:about="">
        <dc:format>image/svg+xml</dc:format>
        <dc:type
           rdf:resource="http://purl.org/dc/dcmitype/StillImage" />
      </cc:Work>
    </rdf:RDF>
  </metadata>
  <defs
     id="defs14" />
  <sodipodi:namedview
     pagecolor="#ffffff"
     bordercolor="#666666"
     borderopacity="1"
     objecttolerance="10"
     gridtolerance="10"
     guidetolerance="10"
     inkscape:pageopacity="0"
     inkscape:pageshadow="2"
     inkscape:window-width="1440"
     inkscape:window-height="834"
     id="namedview12"
     showgrid="false"
     inkscape:zoom="4.9166667"
     inkscape:cx="-1.4237288"
     inkscape:cy="24"
     inkscape:window-x="0"
     inkscape:window-y="27"
     inkscape:window-maximized="1"
     inkscape:current-layer="svg2" />
  <g
     style="fill-rule:evenodd"
     id="g4">
    <path
       style="fill:#008000"
       d="M 24 4 C 35.046875 4 44 12.957031 44 24 C 44 35.050781 35.046875 44.007812 24 44 C 12.953125 44.007812 4 35.050781 4 24 C 4 12.957031 12.953125 4 24 4 Z "
       id="path6" />
    <path
       style="fill:#ffffff;fill-opacity:0.90200022"
       d="m 23.610053,13.491938 c -4.412566,0 -8.170942,2.71424 -9.728167,6.567539 l 2.914345,0 c 1.362252,-2.355079 3.896911,-3.940524 6.813822,-3.940524 4.35356,0 7.881045,3.527487 7.881045,7.881047 0,4.35356 -3.527486,7.881046 -7.881046,7.881046 -2.916911,0 -5.45157,-1.585444 -6.813822,-3.940523 l -2.914345,0 c 1.557225,3.853299 5.315602,6.567539 9.728167,6.567539 5.803036,0 10.508062,-4.705025 10.508062,-10.508062 0,-5.803037 -4.705026,-10.508062 -10.508062,-10.508062 z"
       id="path8"
       inkscape:connector-curvature="0" />
  </g>
  <path
     style="fill:#ffffff;fill-opacity:0.90200016"
     d="m 24,22.61017 0,2.779661 -12.135593,0 0,-2.779661 z"
     id="path10"
     inkscape:connector-curvature="0" />
</svg>
