<?xml version="1.0" encoding="UTF-8" standalone="no"?>
<svg
   xmlns:dc="http://purl.org/dc/elements/1.1/"
   xmlns:cc="http://creativecommons.org/ns#"
   xmlns:rdf="http://www.w3.org/1999/02/22-rdf-syntax-ns#"
   xmlns:svg="http://www.w3.org/2000/svg"
   xmlns="http://www.w3.org/2000/svg"
   xmlns:sodipodi="http://sodipodi.sourceforge.net/DTD/sodipodi-0.dtd"
   xmlns:inkscape="http://www.inkscape.org/namespaces/inkscape"
   width="48"
   height="48"
   viewBox="0 0 48 48"
   id="svg2"
   version="1.1"
   inkscape:version="0.48.4 r9939"
   sodipodi:docname="system-lock-screen.svg">
  <metadata
     id="metadata12">
    <rdf:RDF>
      <cc:Work
         rdf:about="">
        <dc:format>image/svg+xml</dc:format>
        <dc:type
           rdf:resource="http://purl.org/dc/dcmitype/StillImage" />
      </cc:Work>
    </rdf:RDF>
  </metadata>
  <defs
     id="defs10" />
  <sodipodi:namedview
     pagecolor="#ffffff"
     bordercolor="#666666"
     borderopacity="1"
     objecttolerance="10"
     gridtolerance="10"
     guidetolerance="10"
     inkscape:pageopacity="0"
     inkscape:pageshadow="2"
     inkscape:window-width="1440"
     inkscape:window-height="834"
     id="namedview8"
     showgrid="false"
     inkscape:zoom="4.9166667"
     inkscape:cx="24.81356"
     inkscape:cy="24"
     inkscape:window-x="0"
     inkscape:window-y="27"
     inkscape:window-maximized="1"
     inkscape:current-layer="svg2" />
  <path
     style="fill:#c83737"
     d="M 24 4 C 30 4 38 4 38 14 L 38 20 C 40 20 44 19.996094 44 24 L 44 40 C 44 44 40.15625 44 38 44 L 10 44 C 7.84375 44 4 44 4 40 L 4 24 C 4 19.996094 8 20 10 20 L 10 14 C 10 4 18 4 24 4 Z M 24 10 C 22 10 16 10 16 16 L 16 20 L 32 20 L 32 16 C 32 10 26 10 24 10 Z "
     id="path4" />
  <path
     style="fill:#ffffff;fill-opacity:1;opacity:1"
     d="m 24,21.898305 c -3.174543,0 -5.743341,2.568799 -5.743341,5.743341 0,2.12571 1.155399,3.942939 2.87167,4.935685 l 0,9.422669 5.743342,0 0,-9.422669 c 1.716271,-0.992746 2.87167,-2.809975 2.87167,-4.935685 0,-3.174542 -2.568798,-5.743341 -5.743341,-5.743341 z"
     id="path6"
     inkscape:connector-curvature="0" />
</svg>
