<?xml version="1.0" encoding="UTF-8" standalone="no"?>
<svg
   xmlns:dc="http://purl.org/dc/elements/1.1/"
   xmlns:cc="http://creativecommons.org/ns#"
   xmlns:rdf="http://www.w3.org/1999/02/22-rdf-syntax-ns#"
   xmlns:svg="http://www.w3.org/2000/svg"
   xmlns="http://www.w3.org/2000/svg"
   xmlns:sodipodi="http://sodipodi.sourceforge.net/DTD/sodipodi-0.dtd"
   xmlns:inkscape="http://www.inkscape.org/namespaces/inkscape"
   width="48"
   height="48"
   viewBox="0 0 48 48"
   id="svg2"
   version="1.1"
   inkscape:version="0.48.4 r9939"
   sodipodi:docname="system-shutdown.svg">
  <metadata
     id="metadata16">
    <rdf:RDF>
      <cc:Work
         rdf:about="">
        <dc:format>image/svg+xml</dc:format>
        <dc:type
           rdf:resource="http://purl.org/dc/dcmitype/StillImage" />
      </cc:Work>
    </rdf:RDF>
  </metadata>
  <defs
     id="defs14" />
  <sodipodi:namedview
     pagecolor="#ffffff"
     bordercolor="#666666"
     borderopacity="1"
     objecttolerance="10"
     gridtolerance="10"
     guidetolerance="10"
     inkscape:pageopacity="0"
     inkscape:pageshadow="2"
     inkscape:window-width="644"
     inkscape:window-height="480"
     id="namedview12"
     showgrid="false"
     inkscape:zoom="4.9166667"
     inkscape:cx="24"
     inkscape:cy="24"
     inkscape:window-x="0"
     inkscape:window-y="27"
     inkscape:window-maximized="0"
     inkscape:current-layer="svg2" />
  <g
     style="fill-rule:evenodd"
     id="g4">
    <path
       style="fill:#dc322f"
       d="M 44 24 C 44 35.046875 35.042969 44 24 44 C 12.949219 44 3.992188 35.046875 4 24 C 3.992188 12.953125 12.949219 4 24 4 C 35.042969 4 44 12.953125 44 24 Z "
       id="path6" />
    <path
       style="fill:#ffffff;fill-opacity:0.90200016"
       d="m 35.036133,23.590456 c 0,-4.634314 -2.850641,-8.581563 -6.897583,-10.217045 l 0,3.060803 c 2.47343,1.430709 4.13855,4.092745 4.13855,7.156242 0,4.572343 -3.704757,8.2771 -8.2771,8.2771 -4.572343,0 -8.2771,-3.704757 -8.2771,-8.2771 0,-3.063497 1.66512,-5.725533 4.13855,-7.156242 l 0,-3.060803 c -4.046942,1.635482 -6.897583,5.582731 -6.897583,10.217045 0,6.094662 4.941471,11.036133 11.036133,11.036133 6.094662,0 11.036133,-4.941471 11.036133,-11.036133 z"
       id="path8"
       inkscape:connector-curvature="0" />
  </g>
  <path
     style="fill:#ffffff;fill-opacity:0.90200016"
     d="m 25.38983,24 -2.779661,0 0,-11.118644 2.779661,0 z"
     id="path10"
     inkscape:connector-curvature="0" />
</svg>
