<?xml version="1.0" encoding="UTF-8" standalone="no"?>
<svg
   xmlns:dc="http://purl.org/dc/elements/1.1/"
   xmlns:cc="http://creativecommons.org/ns#"
   xmlns:rdf="http://www.w3.org/1999/02/22-rdf-syntax-ns#"
   xmlns:svg="http://www.w3.org/2000/svg"
   xmlns="http://www.w3.org/2000/svg"
   xmlns:sodipodi="http://sodipodi.sourceforge.net/DTD/sodipodi-0.dtd"
   xmlns:inkscape="http://www.inkscape.org/namespaces/inkscape"
   width="48"
   height="48"
   viewBox="0 0 48 48"
   id="svg2"
   version="1.1"
   inkscape:version="0.48.4 r9939"
   sodipodi:docname="system-run.svg">
  <metadata
     id="metadata18">
    <rdf:RDF>
      <cc:Work
         rdf:about="">
        <dc:format>image/svg+xml</dc:format>
        <dc:type
           rdf:resource="http://purl.org/dc/dcmitype/StillImage" />
      </cc:Work>
    </rdf:RDF>
  </metadata>
  <defs
     id="defs16" />
  <sodipodi:namedview
     pagecolor="#ffffff"
     bordercolor="#666666"
     borderopacity="1"
     objecttolerance="10"
     gridtolerance="10"
     guidetolerance="10"
     inkscape:pageopacity="0"
     inkscape:pageshadow="2"
     inkscape:window-width="1440"
     inkscape:window-height="834"
     id="namedview14"
     showgrid="false"
     inkscape:zoom="4.9166667"
     inkscape:cx="-1.0169491"
     inkscape:cy="24"
     inkscape:window-x="0"
     inkscape:window-y="27"
     inkscape:window-maximized="1"
     inkscape:current-layer="svg2" />
  <path
     style="fill:#916f6f"
     d="m 10.234789,12.671964 c -0.3409698,0 -0.6355938,0.297934 -0.6355938,0.635593 l 0,1.588983 c -0.751456,0.195312 -1.4168429,0.566075 -2.0656776,0.95339 L 6.3417804,14.578744 c -0.2383475,-0.238348 -0.6355933,-0.238348 -0.8739407,0 l -2.065678,2.065678 c -0.2383475,0.238347 -0.2383475,0.635593 0,0.87394 L 4.6733481,18.7101 C 4.2827227,19.362245 3.915271,20.027632 3.7199583,20.775778 l -1.5889831,0 c -0.3409695,0 -0.6355932,0.297934 -0.6355932,0.635594 l 0,2.860169 c 0,0.34097 0.2946237,0.635593 0.6355932,0.635593 l 1.5889831,0 c 0.1953127,0.751456 0.5627644,1.416844 0.9533898,2.065678 L 3.4021617,28.16455 c -0.2383475,0.238347 -0.2383475,0.635593 0,0.87394 l 2.065678,2.065678 c 0.2383474,0.238348 0.6355932,0.238348 0.8739407,0 l 1.1917372,-1.271186 c 0.6488347,0.390624 1.3142216,0.761387 2.0656776,0.95339 l 0,1.588983 c 0,0.340969 0.294624,0.635593 0.6355938,0.635593 l 2.860168,0 c 0.34097,0 0.635593,-0.294624 0.635593,-0.635593 l 0,-1.588983 c 0.751457,-0.192003 1.416844,-0.562766 2.065678,-0.95339 l 1.191738,1.271186 c 0.238347,0.238348 0.635593,0.238348 0.87394,0 l 2.065678,-2.065678 c 0.238348,-0.238347 0.238348,-0.635593 0,-0.87394 l -1.271186,-1.191738 c 0.390625,-0.648834 0.758077,-1.314222 0.95339,-2.065678 l 1.588983,0 c 0.340969,0 0.635593,-0.294623 0.635593,-0.635593 l 0,-2.860169 c 0,-0.33766 -0.294624,-0.635594 -0.635593,-0.635594 l -1.588983,0 C 19.414475,20.027632 19.047023,19.362245 18.656398,18.7101 l 1.271186,-1.191738 c 0.238348,-0.238347 0.238348,-0.635593 0,-0.87394 l -2.065678,-2.065678 c -0.238347,-0.238348 -0.635593,-0.238348 -0.87394,0 L 15.796228,15.84993 C 15.147394,15.462615 14.482007,15.091852 13.73055,14.89654 l 0,-1.588983 c 0,-0.337659 -0.294623,-0.635593 -0.635593,-0.635593 z m 1.430083,7.627119 c 1.400292,0 2.542373,1.142082 2.542373,2.542373 0,1.403602 -1.142081,2.542373 -2.542373,2.542373 -1.40029,0 -2.5423718,-1.138771 -2.5423718,-2.542373 0,-1.400291 1.1420818,-2.542373 2.5423718,-2.542373 z"
     id="path4"
     inkscape:connector-curvature="0" />
  <path
     style="fill:#483737"
     d="m 31.339897,10.474265 c -0.09879,-0.01829 -0.147903,0.02111 -0.256445,0.05773 l -3.713675,1.015036 c -0.424765,0.128872 -0.66083,0.681604 -0.540144,1.112937 l 0.518589,2.147362 c -0.890124,0.525802 -1.526491,1.120496 -2.215116,1.851314 l -1.969429,-1.138021 c -0.386741,-0.217863 -0.994176,-0.02317 -1.212848,0.370956 l -1.780807,3.235363 c -0.211294,0.394928 -0.0068,0.913835 0.379855,1.131697 l 1.969833,1.134338 c -0.244482,0.969907 -0.359052,1.946594 -0.326837,2.980441 l -2.168849,0.680486 c -0.424763,0.128871 -0.633727,0.434463 -0.513042,0.865795 l 0.934291,3.701089 c 0.128063,0.432142 0.688172,0.669016 1.112936,0.540144 l 2.15995,-0.599335 c 0.526207,0.886435 1.193152,1.612853 1.92397,2.301476 l -1.134336,1.969833 c -0.211294,0.394928 -0.100637,0.985682 0.286116,1.203546 l 3.405446,1.795725 c 0.394119,0.218671 0.75401,5.56e-4 0.965304,-0.394369 l 1.134337,-1.969834 c 0.980164,0.253074 1.95766,0.360267 2.980441,0.326838 l 0.603024,2.160354 c 0.128063,0.432142 0.688172,0.669016 1.112936,0.540144 l 3.538788,-0.952089 c 0.432142,-0.128063 0.749358,-0.671896 0.624983,-1.103633 l -0.684175,-2.169253 c 0.886436,-0.526207 1.614615,-1.1071 2.295862,-1.838727 l 2.059883,1.062086 c 0.394119,0.218672 0.829949,0.09101 1.037556,-0.30432 l 1.880159,-3.392454 c 0.218672,-0.394118 0.0809,-0.737733 -0.313219,-0.956404 l -2.050983,-1.143235 c 0.249384,-0.98057 0.366834,-1.949474 0.326838,-2.980442 l 2.168848,-0.680487 c 0.432142,-0.128062 0.722255,-0.424754 0.594192,-0.856896 l -1.10028,-3.719287 c -0.116998,-0.430929 -0.586652,-0.743744 -1.018794,-0.61568 l -2.169253,0.684175 c -0.522519,-0.886032 -1.10422,-1.606833 -1.842415,-2.296267 l 1.155823,-2.13173 c 0.214984,-0.394523 0.0049,-0.828186 -0.389159,-1.046858 l -3.239456,-1.777523 c -0.386741,-0.217863 -0.993772,-0.02685 -1.212443,0.367267 l -1.056875,1.978329 c -0.969098,-0.25186 -1.946595,-0.359053 -2.980441,-0.326837 l -0.680486,-2.16885 c -0.09553,-0.320317 -0.2996,-0.604007 -0.600453,-0.65193 z m 2.190698,8.277431 c 2.928801,0.321175 5.040922,2.949392 4.720153,5.874503 -0.320771,2.925111 -2.952272,5.033139 -5.881073,4.711965 -2.917733,-0.319961 -5.037231,-2.948987 -4.716461,-5.874098 0.32077,-2.925111 2.959649,-5.032331 5.877381,-4.71237 z"
     id="path12"
     inkscape:connector-curvature="0" />
</svg>
