<?xml version="1.0" encoding="UTF-8" standalone="no"?>
<svg
   xmlns:dc="http://purl.org/dc/elements/1.1/"
   xmlns:cc="http://creativecommons.org/ns#"
   xmlns:rdf="http://www.w3.org/1999/02/22-rdf-syntax-ns#"
   xmlns:svg="http://www.w3.org/2000/svg"
   xmlns="http://www.w3.org/2000/svg"
   xmlns:sodipodi="http://sodipodi.sourceforge.net/DTD/sodipodi-0.dtd"
   xmlns:inkscape="http://www.inkscape.org/namespaces/inkscape"
   width="48"
   height="48"
   viewBox="0 0 48 48"
   id="svg2"
   version="1.1"
   inkscape:version="0.48.4 r9939"
   sodipodi:docname="view-sort-ascending.svg">
  <metadata
     id="metadata18">
    <rdf:RDF>
      <cc:Work
         rdf:about="">
        <dc:format>image/svg+xml</dc:format>
        <dc:type
           rdf:resource="http://purl.org/dc/dcmitype/StillImage" />
      </cc:Work>
    </rdf:RDF>
  </metadata>
  <defs
     id="defs16" />
  <sodipodi:namedview
     pagecolor="#ffffff"
     bordercolor="#666666"
     borderopacity="1"
     objecttolerance="10"
     gridtolerance="10"
     guidetolerance="10"
     inkscape:pageopacity="0"
     inkscape:pageshadow="2"
     inkscape:window-width="640"
     inkscape:window-height="480"
     id="namedview14"
     showgrid="false"
     inkscape:zoom="4.9166667"
     inkscape:cx="24"
     inkscape:cy="24"
     inkscape:window-x="798"
     inkscape:window-y="202"
     inkscape:window-maximized="0"
     inkscape:current-layer="svg2" />
  <path
     style="fill:#dc322f"
     d="m 34,42 c 0.609375,0 1.191406,-0.261719 1.625,-0.6875 l 7.6875,-7.4375 c 0.425781,-0.402344 0.667969,-0.976562 0.6875,-1.5625 0.02734,-0.929688 -0.5,-1.761719 -1.375,-2.125 -0.878906,-0.363281 -1.902344,-0.167969 -2.5625,0.5 L 36,34.625 36,6 32,6 32,34.625 27.9375,30.6875 c -0.902344,-0.875 -2.351562,-0.875 -3.25,0 -0.902344,0.875 -0.902344,2.3125 0,3.1875 l 7.6875,7.4375 C 32.804688,41.738281 33.386719,42 34,42 z"
     id="path6"
     inkscape:connector-curvature="0" />
  <rect
     style="fill:#3496da;fill-opacity:1;fill-rule:nonzero;stroke:none"
     id="rect3769"
     width="20.338984"
     height="5.0847459"
     x="4.7118645"
     y="25.254238" />
  <rect
     y="17.254238"
     x="4.7118645"
     height="5.0847459"
     width="20.338984"
     id="rect3771"
     style="fill:#3496da;fill-opacity:1;fill-rule:nonzero;stroke:none" />
  <rect
     style="fill:#3496da;fill-opacity:1;fill-rule:nonzero;stroke:none"
     id="rect3773"
     width="20.338984"
     height="5.0847459"
     x="4.7118645"
     y="9.2542372" />
</svg>
