<?xml version="1.0" encoding="UTF-8" standalone="no"?>
<svg
   xmlns:dc="http://purl.org/dc/elements/1.1/"
   xmlns:cc="http://creativecommons.org/ns#"
   xmlns:rdf="http://www.w3.org/1999/02/22-rdf-syntax-ns#"
   xmlns:svg="http://www.w3.org/2000/svg"
   xmlns="http://www.w3.org/2000/svg"
   xmlns:sodipodi="http://sodipodi.sourceforge.net/DTD/sodipodi-0.dtd"
   xmlns:inkscape="http://www.inkscape.org/namespaces/inkscape"
   width="48"
   height="48"
   viewBox="0 0 48 48"
   id="svg2"
   version="1.1"
   inkscape:version="0.48.4 r9939"
   sodipodi:docname="view-refresh.svg">
  <metadata
     id="metadata16">
    <rdf:RDF>
      <cc:Work
         rdf:about="">
        <dc:format>image/svg+xml</dc:format>
        <dc:type
           rdf:resource="http://purl.org/dc/dcmitype/StillImage" />
      </cc:Work>
    </rdf:RDF>
  </metadata>
  <defs
     id="defs14" />
  <sodipodi:namedview
     pagecolor="#ffffff"
     bordercolor="#666666"
     borderopacity="1"
     objecttolerance="10"
     gridtolerance="10"
     guidetolerance="10"
     inkscape:pageopacity="0"
     inkscape:pageshadow="2"
     inkscape:window-width="1440"
     inkscape:window-height="834"
     id="namedview12"
     showgrid="false"
     inkscape:zoom="4.9166667"
     inkscape:cx="-1.4237288"
     inkscape:cy="24"
     inkscape:window-x="0"
     inkscape:window-y="27"
     inkscape:window-maximized="1"
     inkscape:current-layer="svg2" />
  <path
     style="fill:#859900;fill-rule:evenodd"
     d="M 47.5,24 C 47.5,36.975489 36.975489,47.5 24,47.5 11.024511,47.5 0.5,36.975489 0.5,24 0.5,11.024511 11.024511,0.5 24,0.5 36.975489,0.5 47.5,11.024511 47.5,24 z"
     id="path4"
     inkscape:connector-curvature="0" />
  <g
     style="fill:#fff;fill-opacity:.902"
     id="g6">
    <path
       d="M 35.367188 19.214844 C 33.398438 14.824219 28.992188 12 24.027344 12 C 18.949219 12 14.300781 15.089844 12.472656 19.675781 L 16.324219 21.121094 C 17.542969 18.054688 20.640625 16.003906 24.027344 16.003906 C 27.292969 16.003906 30.183594 17.835938 31.523438 20.699219 L 28.714844 21.789062 L 35.898438 25.808594 L 38 18.199219 Z "
       id="path8" />
    <path
       d="M 24.027344 32.003906 C 20.785156 32.003906 17.835938 30.109375 16.515625 27.265625 L 19.28125 26.230469 L 12.175781 22.296875 L 10 29.707031 L 12.652344 28.710938 C 14.582031 33.089844 19.09375 36 24.027344 36 C 29.125 36 33.636719 33.035156 35.527344 28.445312 L 31.695312 26.964844 C 30.4375 30.027344 27.425781 32.003906 24.027344 32.003906 Z "
       id="path10" />
  </g>
</svg>
