<?xml version="1.0" encoding="UTF-8" standalone="no"?>
<svg
   xmlns:dc="http://purl.org/dc/elements/1.1/"
   xmlns:cc="http://creativecommons.org/ns#"
   xmlns:rdf="http://www.w3.org/1999/02/22-rdf-syntax-ns#"
   xmlns:svg="http://www.w3.org/2000/svg"
   xmlns="http://www.w3.org/2000/svg"
   xmlns:sodipodi="http://sodipodi.sourceforge.net/DTD/sodipodi-0.dtd"
   xmlns:inkscape="http://www.inkscape.org/namespaces/inkscape"
   width="256"
   height="256"
   viewBox="0 0 256 256"
   id="svg2"
   version="1.1"
   inkscape:version="0.48.4 r9939"
   sodipodi:docname="bookmark-missing.svg">
  <metadata
     id="metadata10">
    <rdf:RDF>
      <cc:Work
         rdf:about="">
        <dc:format>image/svg+xml</dc:format>
        <dc:type
           rdf:resource="http://purl.org/dc/dcmitype/StillImage" />
        <dc:title />
      </cc:Work>
    </rdf:RDF>
  </metadata>
  <defs
     id="defs8" />
  <sodipodi:namedview
     pagecolor="#ffffff"
     bordercolor="#666666"
     borderopacity="1"
     objecttolerance="10"
     gridtolerance="10"
     guidetolerance="10"
     inkscape:pageopacity="0"
     inkscape:pageshadow="2"
     inkscape:window-width="1440"
     inkscape:window-height="850"
     id="namedview6"
     showgrid="false"
     inkscape:zoom="2.0526122"
     inkscape:cx="53.800322"
     inkscape:cy="126.63901"
     inkscape:window-x="0"
     inkscape:window-y="0"
     inkscape:window-maximized="1"
     inkscape:current-layer="svg2" />
  <path
     style="opacity:0.6;fill:#ffcc00;fill-opacity:1"
     d="m 128.00002,9.6969384 c -0.37413,0 -0.63817,0.08767 -1.01228,0.175777 -1.18831,0.08767 -2.2886,0.4619306 -3.36689,0.9902266 0,0 -0.11003,0.08767 -0.19809,0.175778 -3.0148,1.166311 -4.84129,2.970769 -6.29368,4.665289 -2.11256,2.442604 -4.02707,5.215372 -5.94158,8.362182 -3.93906,6.381683 -7.94412,14.457886 -12.059217,22.556051 -4.115098,8.164179 -8.2302,16.328315 -11.531075,22.622022 -1.62844,3.146853 -3.190851,5.743493 -4.379171,7.548038 -0.264061,0.527858 -0.638169,0.814231 -0.924243,1.166312 -0.440149,0.175777 -0.814218,0.264323 -1.452395,0.439969 -2.090536,0.461931 -5.127342,1.166312 -8.692292,1.716482 -7.107898,1.166311 -16.350364,2.156538 -25.482801,3.49889 -9.242466,1.342352 -18.198857,2.882793 -25.59283,4.489249 -3.652972,0.814187 -6.953855,1.540397 -9.880635,2.706708 -1.5404084,0.616142 -3.0148032,1.254288 -4.5552171,2.332621 -1.5624128,1.07829 -3.6529721,2.59669 -4.7532683,6.0076 -1.18831426,3.498927 -0.4621223,6.029597 0.1760447,7.812047 0.6381688,1.80455 1.3643669,3.1469 2.2005872,4.48925 1.6504418,2.61865 3.8290244,5.21538 6.2936825,8.0101 5.039343,5.56754 11.6191,11.94923 18.198852,18.22089 6.66778,6.38168 13.335561,12.49934 18.462925,17.51663 2.552682,2.53071 4.753271,4.86338 6.117636,6.46974 0.462119,0.46194 0.55017,0.72622 0.814218,1.16632 0,0.46193 0,0.81418 0,1.34235 -0.176041,2.06856 -0.440145,5.03937 -0.990263,8.53831 -1.100296,7.01983 -2.838756,15.99824 -4.401176,24.97665 -1.540415,8.89039 -3.014801,17.8688 -3.740998,25.24071 -0.374086,3.67502 -0.638169,6.82187 -0.374086,9.96868 0.110025,1.51839 0.374086,3.23487 1.012267,5.01737 0.550148,1.80446 1.364366,4.13708 4.291147,6.29366 3.014805,2.06852 5.677517,2.15658 7.592031,2.06852 1.82648,0 3.3889,-0.17578 4.929315,-0.52786 3.102825,-0.81418 6.227656,-2.06852 9.68258,-3.52094 6.95385,-2.94872 15.360098,-6.9098 23.590297,-11.13495 8.230185,-4.22514 16.262335,-8.62628 22.754065,-11.86115 3.19085,-1.60642 6.11763,-2.86075 8.14217,-3.67498 0.55017,-0.26432 0.90224,-0.26432 1.36437,-0.35199 0.46211,0.0877 0.81421,0.0877 1.36436,0.35199 2.02454,0.81423 4.95132,2.06856 8.14217,3.67498 6.49174,3.23487 14.52388,7.63601 22.75407,11.86115 8.2302,4.22515 16.63645,8.18623 23.5903,11.13495 3.45492,1.45242 6.57975,2.70676 9.68258,3.52094 1.54041,0.352 3.10283,0.52786 4.92932,0.52786 1.91451,0.0877 4.57722,0 7.59203,-2.06852 2.92677,-2.15658 3.74099,-4.4892 4.29114,-6.29366 0.63817,-1.7825 0.90224,-3.49898 1.01227,-5.01737 0.26406,-3.14681 0,-6.29366 -0.37413,-9.96868 -0.7262,-7.37191 -2.20058,-16.35032 -3.741,-25.24071 -1.56242,-8.97841 -3.30088,-17.95682 -4.40117,-24.97665 -0.55017,-3.49894 -0.81422,-6.46975 -0.99026,-8.53831 0,-0.52786 0,-0.88025 0,-1.34235 0.26406,-0.43997 0.35208,-0.70421 0.81421,-1.16632 1.36437,-1.60636 3.56496,-3.93903 6.11764,-6.46974 5.12736,-5.01729 11.79514,-11.13495 18.46293,-17.51663 6.57975,-6.27166 13.1595,-12.65335 18.19885,-18.22089 2.46465,-2.79472 4.64324,-5.39145 6.29368,-8.0101 0.83622,-1.34235 1.56242,-2.6847 2.20058,-4.48925 0.63817,-1.78245 1.36437,-4.31312 0.17605,-7.812047 -1.1003,-3.41091 -3.19086,-4.92931 -4.75327,-6.0076 -1.54039,-1.078333 -3.01479,-1.716479 -4.5552,-2.332621 -2.92678,-1.166311 -6.22766,-1.892521 -9.88063,-2.706708 -7.39398,-1.606456 -16.35037,-3.146897 -25.59283,-4.489249 -9.13244,-1.342352 -18.37491,-2.332579 -25.48281,-3.49889 -3.56495,-0.55039 -6.60175,-1.254376 -8.69231,-1.716482 -0.55017,-0.175777 -1.01228,-0.264323 -1.45239,-0.439969 -0.28607,-0.351993 -0.66017,-0.638191 -0.92425,-1.166312 -1.18831,-1.804458 -2.75073,-4.401185 -4.37916,-7.547994 -3.30088,-6.293751 -7.41598,-14.457887 -11.53108,-22.622066 -4.1151,-8.098165 -8.12017,-16.174368 -12.05922,-22.556051 -1.91451,-3.14624 -3.82902,-5.919008 -5.94158,-8.361612 -2.00254,-2.420687 -3.56496,-6.0076406 -10.8709,-6.0076406 z"
     id="path4"
     inkscape:connector-curvature="0" />
</svg>
