<?xml version="1.0" encoding="UTF-8" standalone="no"?>
<!-- Created with Inkscape (http://www.inkscape.org/) -->

<svg
   xmlns:dc="http://purl.org/dc/elements/1.1/"
   xmlns:cc="http://creativecommons.org/ns#"
   xmlns:rdf="http://www.w3.org/1999/02/22-rdf-syntax-ns#"
   xmlns:svg="http://www.w3.org/2000/svg"
   xmlns="http://www.w3.org/2000/svg"
   xmlns:sodipodi="http://sodipodi.sourceforge.net/DTD/sodipodi-0.dtd"
   xmlns:inkscape="http://www.inkscape.org/namespaces/inkscape"
   width="256"
   height="256"
   id="svg3356"
   version="1.1"
   inkscape:version="0.48.4 r9939"
   sodipodi:docname="folder-saved.svg">
  <defs
     id="defs3358" />
  <sodipodi:namedview
     id="base"
     pagecolor="#ffffff"
     bordercolor="#666666"
     borderopacity="1.0"
     inkscape:pageopacity="0.0"
     inkscape:pageshadow="2"
     inkscape:zoom="1.979899"
     inkscape:cx="23.644169"
     inkscape:cy="125.58885"
     inkscape:document-units="px"
     inkscape:current-layer="layer2"
     showgrid="true"
     inkscape:window-width="1440"
     inkscape:window-height="850"
     inkscape:window-x="0"
     inkscape:window-y="0"
     inkscape:window-maximized="1">
    <inkscape:grid
       type="xygrid"
       id="grid3006" />
  </sodipodi:namedview>
  <metadata
     id="metadata3361">
    <rdf:RDF>
      <cc:Work
         rdf:about="">
        <dc:format>image/svg+xml</dc:format>
        <dc:type
           rdf:resource="http://purl.org/dc/dcmitype/StillImage" />
        <dc:title></dc:title>
      </cc:Work>
    </rdf:RDF>
  </metadata>
  <g
     inkscape:label="Layer 1"
     inkscape:groupmode="layer"
     id="layer1"
     transform="translate(0,-796.36218)">
    <path
       inkscape:connector-curvature="0"
       id="path4038-3"
       style="fill:#4d4d4d;fill-opacity:1;fill-rule:nonzero;stroke:none"
       d="m 250.24339,1013.0637 c 0,18.8424 -15.20223,34.116 -33.95641,34.116 l -176.573858,0 c -18.754182,0 -33.9565123,-15.2736 -33.9565123,-34.116 l 0,-177.4031 c 0,-18.84232 15.2023303,-34.11598 33.9565123,-34.11598 l 176.573858,0 c 18.75418,0 33.95641,15.27366 33.95641,34.11598 l 0,177.4031 z" />
    <rect
       style="fill:#ffffff;fill-opacity:1;stroke:none"
       id="rect4024-4"
       width="220.4465"
       height="149.68689"
       x="17.776749"
       y="824.84424" />
    <path
       style="fill:#4d4d4d;fill-opacity:1;stroke:#494949;stroke-width:0.52633744;stroke-linecap:butt;stroke-linejoin:miter;stroke-opacity:1"
       d="m 5.8654321,1002.6691 244.2691279,0"
       id="path2988"
       inkscape:connector-curvature="0" />
    <path
       style="fill:#4d4d4d;fill-opacity:1;stroke:#494949;stroke-width:0.52633715;stroke-linecap:butt;stroke-linejoin:miter;stroke-opacity:1"
       d="m 5.8655685,1011.8521 244.2688615,0"
       id="path2988-1"
       inkscape:connector-curvature="0" />
    <rect
       y="837.28986"
       x="25.634943"
       height="149.68689"
       width="204.73012"
       id="rect3022"
       style="fill:#f4d7d7;fill-opacity:1;stroke:none" />
    <rect
       style="fill:#e9afaf;fill-opacity:1;stroke:none"
       id="rect3024"
       width="182.72716"
       height="149.68689"
       x="36.636421"
       y="849.73547" />
    <rect
       y="864.88776"
       x="45.222717"
       height="146.65643"
       width="158.98857"
       id="rect2999"
       style="fill:#ff8080;fill-opacity:1;stroke:none" />
  </g>
  <g
     inkscape:groupmode="layer"
     id="layer2"
     inkscape:label="Layer"
     transform="translate(0,-244)">
    <g
       id="g3018"
       transform="matrix(0.52083697,0,0,0.53567495,119.05588,216.56774)">
      <path
         style="fill:#ac9d93;fill-opacity:1;stroke:none"
         d="m -22.40887,216.54377 -56.23752,-79.03641 -139.83373,0 0,86.63614 197.59114,0 z"
         id="path4008-9-0"
         inkscape:connector-curvature="0" />
      <path
         inkscape:connector-curvature="0"
         style="fill:#ac9d93;fill-opacity:1;fill-rule:nonzero;stroke:none"
         d="m -218.53893,206.42134 0,258.21873 c 0,28.9071 29.31336,52.3804 65.47545,52.3804 l 340.4723,0 c 36.16209,0 65.47529,-23.4733 65.47529,-52.3804 l 0,-258.21873 -471.42304,0 z"
         id="path4003-9-1" />
    </g>
    <path
       id="path3002"
       d="m 120.12963,350.08122 c -2.77311,0 -5.0926,2.20375 -5.0926,4.9775 v 6.48125 c -1.75332,0.59375 -3.45463,1.2725 -5.09258,2.0825 l -4.51408,-4.51313 c -1.96088,-1.96062 -5.09925,-1.96062 -7.05999,0 l -11.3426,11.22625 c -1.960894,1.96125 -1.960894,5.1 0,7.06 l 4.514069,4.51438 c -0.830888,1.66625 -1.483819,3.42187 -2.083331,5.2075 h -6.365919 c -2.773125,0 -5.0926,2.20437 -5.0926,4.9775 v 15.9725 c 0,2.77312 2.319475,4.9775 5.0926,4.9775 h 6.365919 c 0.599437,1.78563 1.252481,3.54125 2.083331,5.2075 l -4.514069,4.51438 c -1.960894,1.96125 -1.960894,5.09875 0,7.06 l 11.3426,11.22625 c 1.96089,1.96062 5.09926,1.96062 7.05999,0 l 4.51408,-4.51313 c 1.63795,0.8125 3.33926,1.49313 5.09258,2.0825 v 6.48125 c 0,2.77375 2.31953,4.9775 5.0926,4.9775 h 15.85629 c 2.77311,0 4.97704,-2.20375 4.97704,-4.9775 v -6.48125 c 1.78638,-0.6 3.54193,-1.2525 5.20815,-2.0825 l 4.51408,4.51313 c 1.96088,1.96062 5.09927,1.96062 7.06,0 l 11.3426,-11.22625 c 1.96088,-1.96126 1.96084,-5.1 0,-7.06 l -4.62963,-4.62938 c 0.81143,-1.63812 1.49488,-3.33937 2.08333,-5.0925 h 6.48148 c 2.77311,0 4.97703,-2.20438 4.97703,-4.9775 v -15.9725 c 1e-5,-2.77313 -2.20378,-4.9775 -4.97703,-4.9775 h -6.48148 c -0.58844,-1.75313 -1.27189,-3.45438 -2.08333,-5.0925 l 4.62963,-4.62938 c 1.96088,-1.96125 1.96088,-5.09875 0,-7.06 l -11.3426,-11.22625 c -1.9609,-1.96062 -5.09927,-1.96062 -7.06,0 l -4.51408,4.51313 c -1.6664,-0.8325 -3.42197,-1.4825 -5.20815,-2.0825 v -6.48125 c 0,-2.77375 -2.20377,-4.9775 -4.97704,-4.9775 h -15.85629 z m 7.87036,37.03625 c 7.15556,0 12.96297,5.80813 12.96297,12.96438 0,7.15499 -5.80741,12.96312 -12.96297,12.96312 -7.15556,0 -12.96296,-5.80813 -12.96296,-12.96312 0,-7.15625 5.8074,-12.96438 12.96296,-12.96438 z"
       style="line-height:normal;opacity:0.8;color:#000000;fill:#ffffff;fill-opacity:1;display:block"
       inkscape:connector-curvature="0" />
  </g>
  <g
     inkscape:groupmode="layer"
     id="layer3"
     inkscape:label="Inserts" />
</svg>
