<?xml version="1.0" encoding="UTF-8" standalone="no"?>
<!-- Created with Inkscape (http://www.inkscape.org/) -->

<svg
   xmlns:dc="http://purl.org/dc/elements/1.1/"
   xmlns:cc="http://creativecommons.org/ns#"
   xmlns:rdf="http://www.w3.org/1999/02/22-rdf-syntax-ns#"
   xmlns:svg="http://www.w3.org/2000/svg"
   xmlns="http://www.w3.org/2000/svg"
   xmlns:sodipodi="http://sodipodi.sourceforge.net/DTD/sodipodi-0.dtd"
   xmlns:inkscape="http://www.inkscape.org/namespaces/inkscape"
   width="256"
   height="256"
   id="svg2"
   version="1.1"
   inkscape:version="0.48.4 r9939"
   sodipodi:docname="folder-open.svg"
   inkscape:export-filename="/media/Data/Main/Visuals/Icons/Numix/Desktop/repos/numix-wiki/Gjorgi/Numix-folders/48/New/folder-144.png"
   inkscape:export-xdpi="270"
   inkscape:export-ydpi="270">
  <defs
     id="defs4" />
  <sodipodi:namedview
     id="base"
     pagecolor="#f9f9f9"
     bordercolor="#666666"
     borderopacity="1.0"
     inkscape:pageopacity="1"
     inkscape:pageshadow="2"
     inkscape:zoom="2.3618288"
     inkscape:cx="86.512483"
     inkscape:cy="117.93216"
     inkscape:document-units="px"
     inkscape:current-layer="layer1"
     showgrid="true"
     inkscape:window-width="1440"
     inkscape:window-height="850"
     inkscape:window-x="0"
     inkscape:window-y="0"
     inkscape:window-maximized="1"
     showguides="true"
     inkscape:guide-bbox="true">
    <inkscape:grid
       type="xygrid"
       id="grid2985"
       empspacing="5"
       visible="true"
       enabled="true"
       snapvisiblegridlinesonly="true" />
  </sodipodi:namedview>
  <metadata
     id="metadata7">
    <rdf:RDF>
      <cc:Work
         rdf:about="">
        <dc:format>image/svg+xml</dc:format>
        <dc:type
           rdf:resource="http://purl.org/dc/dcmitype/StillImage" />
        <dc:title />
      </cc:Work>
    </rdf:RDF>
  </metadata>
  <g
     inkscape:label="Layer 1"
     inkscape:groupmode="layer"
     id="layer1"
     transform="translate(0,-796.3622)">
    <rect
       style="fill:#483e37;fill-opacity:1;stroke:none"
       id="rect2993"
       width="201.94896"
       height="118.7935"
       x="27.025522"
       y="832.41791"
       rx="5.9396749"
       ry="5.9397783" />
    <rect
       style="fill:#ac9d93;fill-opacity:1;stroke:none"
       id="rect2990"
       width="249.46635"
       height="118.7935"
       x="3.2668228"
       y="921.513"
       rx="5.9396749"
       ry="5.9397783" />
    <path
       style="opacity:0.1;fill:#ffffff;fill-opacity:1;stroke:none"
       d="m 15.146173,921.51311 c -6.58116,0 -11.8793502,5.29819 -11.8793502,11.87935 l 0,5.93968 c 0,-6.58116 5.2981902,-11.87935 11.8793502,-11.87935 l 225.707647,0 c 6.58116,0 11.87935,5.29819 11.87935,11.87935 l 0,-5.93968 c 0,-6.58116 -5.29819,-11.87935 -11.87935,-11.87935 l -225.707647,0 z"
       id="rect2991"
       inkscape:connector-curvature="0" />
    <path
       style="opacity:0.05;fill:#000000;fill-opacity:1;stroke:none"
       d="m 38.904874,832.41799 c -6.58116,0 -11.879351,5.29819 -11.879351,11.87935 l 0,5.93967 c 0,-6.58116 5.298191,-11.87935 11.879351,-11.87935 l 178.190246,0 c 6.58116,0 11.87935,5.29819 11.87935,11.87935 l 0,-5.93967 c 0,-6.58116 -5.29819,-11.87935 -11.87935,-11.87935 l -178.190246,0 z"
       id="rect3763"
       inkscape:connector-curvature="0" />
  </g>
</svg>
