<?xml version="1.0" encoding="UTF-8" standalone="no"?>
<!-- Created with Inkscape (http://www.inkscape.org/) -->

<svg
   xmlns:dc="http://purl.org/dc/elements/1.1/"
   xmlns:cc="http://creativecommons.org/ns#"
   xmlns:rdf="http://www.w3.org/1999/02/22-rdf-syntax-ns#"
   xmlns:svg="http://www.w3.org/2000/svg"
   xmlns="http://www.w3.org/2000/svg"
   xmlns:sodipodi="http://sodipodi.sourceforge.net/DTD/sodipodi-0.dtd"
   xmlns:inkscape="http://www.inkscape.org/namespaces/inkscape"
   width="256"
   height="256"
   id="svg3356"
   version="1.1"
   inkscape:version="0.48.4 r9939"
   sodipodi:docname="folder-pictures.svg">
  <defs
     id="defs3358" />
  <sodipodi:namedview
     id="base"
     pagecolor="#ffffff"
     bordercolor="#666666"
     borderopacity="1.0"
     inkscape:pageopacity="0.0"
     inkscape:pageshadow="2"
     inkscape:zoom="1.979899"
     inkscape:cx="23.644169"
     inkscape:cy="125.58885"
     inkscape:document-units="px"
     inkscape:current-layer="layer2"
     showgrid="true"
     inkscape:window-width="1440"
     inkscape:window-height="850"
     inkscape:window-x="0"
     inkscape:window-y="0"
     inkscape:window-maximized="1">
    <inkscape:grid
       type="xygrid"
       id="grid3006" />
  </sodipodi:namedview>
  <metadata
     id="metadata3361">
    <rdf:RDF>
      <cc:Work
         rdf:about="">
        <dc:format>image/svg+xml</dc:format>
        <dc:type
           rdf:resource="http://purl.org/dc/dcmitype/StillImage" />
        <dc:title></dc:title>
      </cc:Work>
    </rdf:RDF>
  </metadata>
  <g
     inkscape:label="Layer 1"
     inkscape:groupmode="layer"
     id="layer1"
     transform="translate(0,-796.36218)">
    <path
       inkscape:connector-curvature="0"
       id="path4038-3"
       style="fill:#4d4d4d;fill-opacity:1;fill-rule:nonzero;stroke:none"
       d="m 250.24339,1013.0637 c 0,18.8424 -15.20223,34.116 -33.95641,34.116 l -176.573858,0 c -18.754182,0 -33.9565123,-15.2736 -33.9565123,-34.116 l 0,-177.4031 c 0,-18.84232 15.2023303,-34.11598 33.9565123,-34.11598 l 176.573858,0 c 18.75418,0 33.95641,15.27366 33.95641,34.11598 l 0,177.4031 z" />
    <rect
       style="fill:#ffffff;fill-opacity:1;stroke:none"
       id="rect4024-4"
       width="220.4465"
       height="149.68689"
       x="17.776749"
       y="824.84424" />
    <path
       style="fill:#4d4d4d;fill-opacity:1;stroke:#494949;stroke-width:0.52633744;stroke-linecap:butt;stroke-linejoin:miter;stroke-opacity:1"
       d="m 5.8654321,1002.6691 244.2691279,0"
       id="path2988"
       inkscape:connector-curvature="0" />
    <path
       style="fill:#4d4d4d;fill-opacity:1;stroke:#494949;stroke-width:0.52633715;stroke-linecap:butt;stroke-linejoin:miter;stroke-opacity:1"
       d="m 5.8655685,1011.8521 244.2688615,0"
       id="path2988-1"
       inkscape:connector-curvature="0" />
    <rect
       y="837.28986"
       x="25.634943"
       height="149.68689"
       width="204.73012"
       id="rect3022"
       style="fill:#f4d7d7;fill-opacity:1;stroke:none" />
    <rect
       style="fill:#e9afaf;fill-opacity:1;stroke:none"
       id="rect3024"
       width="182.72716"
       height="149.68689"
       x="36.636421"
       y="849.73547" />
    <rect
       y="864.88776"
       x="45.222717"
       height="146.65643"
       width="158.98857"
       id="rect2999"
       style="fill:#ff8080;fill-opacity:1;stroke:none" />
  </g>
  <g
     inkscape:groupmode="layer"
     id="layer2"
     inkscape:label="Layer"
     transform="translate(0,-244)">
    <g
       id="g3018"
       transform="matrix(0.52083697,0,0,0.53567495,119.05588,216.56774)">
      <path
         style="fill:#ac9d93;fill-opacity:1;stroke:none"
         d="m -22.40887,216.54377 -56.23752,-79.03641 -139.83373,0 0,86.63614 197.59114,0 z"
         id="path4008-9-0"
         inkscape:connector-curvature="0" />
      <path
         inkscape:connector-curvature="0"
         style="fill:#ac9d93;fill-opacity:1;fill-rule:nonzero;stroke:none"
         d="m -218.53893,206.42134 0,258.21873 c 0,28.9071 29.31336,52.3804 65.47545,52.3804 l 340.4723,0 c 36.16209,0 65.47529,-23.4733 65.47529,-52.3804 l 0,-258.21873 -471.42304,0 z"
         id="path4003-9-1" />
    </g>
    <path
       id="path4054"
       d="m 141.77953,349.73351 c -10.03111,0 -18.30709,8.41926 -18.30709,18.95449 0.0741,3.61493 0.25563,8.19407 2.16536,17.86549 l 0.19685,0 c 0.38532,1.27934 0.97747,2.55171 1.9685,3.92169 0.887,1.22705 2.06309,2.62492 3.14961,3.92169 0.33386,2.73368 0.38557,5.12365 0,8.06161 -2.9786,2.5036 -8.34985,4.83919 -13.18898,6.97189 -2.52188,1.11132 -4.85332,2.13898 -6.69291,3.48595 -1.75506,1.28492 -3.02668,3.03417 -3.14961,5.22892 -0.006,0.10458 -0.19729,0.11155 -0.19685,0.21613 l -2.16535,18.51945 0,0.21613 c 0,2.29515 1.38168,4.17268 3.34645,5.66466 1.96478,1.49269 4.63159,2.66257 7.87402,3.70417 6.48486,2.0832 15.28153,3.26773 25,3.26773 9.71847,0 18.51514,-1.18453 25,-3.26773 3.24243,-1.0416 5.90924,-2.21148 7.87401,-3.70417 C 176.61831,441.26963 178,439.3921 178,437.09695 l 0,-0.21613 -2.3622,-18.51945 c -3.6e-4,-0.0697 0.004,-0.14641 0,-0.21613 -0.0586,-1.04857 -0.40038,-2.07902 -0.98426,-2.83268 -0.62337,-0.80525 -1.44586,-1.32745 -2.3622,-1.9605 -1.83268,-1.26679 -4.17017,-2.33558 -6.69291,-3.48594 -4.89967,-2.2338 -10.26123,-4.76042 -13.18898,-7.40764 -0.21965,-2.52732 -0.23017,-5.09995 0,-7.62586 1.05691,-1.38323 2.24572,-2.81038 3.14961,-4.13922 1.0065,-1.48013 1.76834,-2.82222 2.16535,-4.13991 2.15331,-10.07091 2.24887,-14.18014 2.3622,-17.86549 0,-10.53523 -8.27596,-18.95449 -18.30708,-18.95449 z m -34.05512,3.48595 c -8.239192,0 -14.960628,7.04161 -14.960628,15.68676 0.06047,2.96236 0.204598,6.44343 1.771653,14.37954 l 0,0.21613 c 0.319244,1.06043 0.946117,1.911 1.771654,3.0502 0.722746,0.99629 1.685379,2.22404 2.559055,3.26843 0.264378,2.19057 0.298582,4.40415 0,6.75368 -2.433493,2.06647 -6.841569,3.92099 -10.826772,5.66466 -2.065827,0.90356 -3.807301,1.73321 -5.314961,2.83268 -1.424818,1.03881 -2.438683,2.58309 -2.559055,4.35744 -0.0069,0.10458 -0.197291,0.11155 -0.19685,0.21613 l -1.968504,15.0335 0,0.21613 c 0,1.41529 0.611024,2.63677 1.574803,3.70416 0.963754,1.0674 2.3016,2.04486 3.937008,2.83199 3.225556,1.55334 7.82303,2.63328 13.385827,3.26842 l 0.19685,0 c 0.302362,7e-4 0.603402,-0.0906 0.787402,-0.21613 0.227842,-0.16035 0.493543,-0.28584 0.590551,-0.43225 0.194079,-0.2998 0.31011,-0.59959 0.393701,-0.87149 0.146645,-0.47409 0.176567,-1.03951 0.19685,-1.52475 0.0028,-0.0697 0,-0.14641 0,-0.21613 l 2.165356,-18.51875 c -0.003,-0.75785 0.47105,-1.66768 1.5748,-2.61447 1.10374,-0.94748 2.77479,-1.89775 4.72441,-2.83268 3.89925,-1.87056 8.84234,-3.60726 12.79528,-5.88219 l 2.16535,-1.30723 -2.16535,-1.0897 c -1.56205,-0.83942 -2.75683,-1.7611 -3.74016,-2.61446 -0.19087,-2.15083 -0.20252,-4.3923 0,-6.53616 0.007,-0.0697 -0.007,-0.14641 0,-0.21613 1.50103,-2.23728 2.6432,-4.55892 3.14961,-5.88288 l 0.19685,-0.43226 -0.19685,-0.43226 c -0.1709,-1.08204 -0.11433,-1.90402 -0.3937,-2.83198 -1.88695,-9.55638 -2.09369,-13.49759 -2.16536,-16.994 0,-1.46967 0.31162,-3.18127 0.7874,-4.79318 l 0.3937,-0.87148 -0.7874,-0.43226 c -2.62872,-2.32513 -6.10854,-3.92169 -9.84252,-3.92169 z"
       style="line-height:normal;opacity:0.8;color:#000000;fill:#ffffff;fill-opacity:1"
       inkscape:connector-curvature="0" />
  </g>
  <g
     inkscape:groupmode="layer"
     id="layer3"
     inkscape:label="Inserts" />
</svg>
