<?xml version="1.0" encoding="UTF-8" standalone="no"?>
<!-- Created with Inkscape (http://www.inkscape.org/) -->

<svg
   xmlns:dc="http://purl.org/dc/elements/1.1/"
   xmlns:cc="http://creativecommons.org/ns#"
   xmlns:rdf="http://www.w3.org/1999/02/22-rdf-syntax-ns#"
   xmlns:svg="http://www.w3.org/2000/svg"
   xmlns="http://www.w3.org/2000/svg"
   xmlns:sodipodi="http://sodipodi.sourceforge.net/DTD/sodipodi-0.dtd"
   xmlns:inkscape="http://www.inkscape.org/namespaces/inkscape"
   width="256"
   height="256"
   id="svg2"
   version="1.1"
   inkscape:version="0.48.4 r9939"
   sodipodi:docname="network.svg"
   inkscape:export-filename="/media/Data/Main/Visuals/Icons/Numix/Desktop/repos/numix-wiki/Gjorgi/Numix-folders/48/New/folder-144.png"
   inkscape:export-xdpi="270"
   inkscape:export-ydpi="270">
  <defs
     id="defs4" />
  <sodipodi:namedview
     id="base"
     pagecolor="#ffffff"
     bordercolor="#666666"
     borderopacity="1.0"
     inkscape:pageopacity="0.0"
     inkscape:pageshadow="2"
     inkscape:zoom="1.2310204"
     inkscape:cx="-124.44701"
     inkscape:cy="21.558199"
     inkscape:document-units="px"
     inkscape:current-layer="layer1"
     showgrid="true"
     inkscape:window-width="1440"
     inkscape:window-height="850"
     inkscape:window-x="0"
     inkscape:window-y="0"
     inkscape:window-maximized="1"
     showguides="true"
     inkscape:guide-bbox="true">
    <inkscape:grid
       type="xygrid"
       id="grid2985"
       empspacing="5"
       visible="true"
       enabled="true"
       snapvisiblegridlinesonly="true" />
  </sodipodi:namedview>
  <metadata
     id="metadata7">
    <rdf:RDF>
      <cc:Work
         rdf:about="">
        <dc:format>image/svg+xml</dc:format>
        <dc:type
           rdf:resource="http://purl.org/dc/dcmitype/StillImage" />
        <dc:title />
      </cc:Work>
    </rdf:RDF>
  </metadata>
  <g
     inkscape:label="Layer 1"
     inkscape:groupmode="layer"
     id="layer1"
     transform="translate(0,-796.3622)">
    <path
       style="fill:#483737;fill-opacity:1;stroke:none"
       d="m 25.900826,859.27022 204.198344,0 c 5.37364,0 11.34436,5.97071 11.34436,11.94142 l 0,23.88285 c 0,6.61555 -5.05959,11.94142 -11.34436,11.94142 l -204.198344,0 c -6.284771,0 -11.344352,-5.32587 -11.344352,-11.94142 l 0,-35.82427 z"
       id="path3811"
       inkscape:connector-curvature="0" />
    <path
       style="fill:#483737;fill-opacity:1;stroke:none"
       d="m 14.556474,865.24093 c 0,-11.94142 0,-17.91214 10.85584,-17.91214 l 37.995438,0 c 10.855841,0 10.855841,5.97072 10.855841,17.91214 z"
       id="rect3760"
       inkscape:connector-curvature="0"
       sodipodi:nodetypes="csscc" />
    <path
       style="opacity:0.02999998;fill:#483737;fill-opacity:1;stroke:none"
       d="m 14.556474,883.15307 0,29.85355 226.887056,0 0,-29.85355 z"
       id="path3807"
       inkscape:connector-curvature="0" />
    <rect
       style="fill:#916f6f;fill-opacity:1;stroke:none"
       id="rect2990"
       width="250.7699"
       height="149.26779"
       x="2.6150501"
       y="895.09436"
       rx="11.941423"
       ry="11.941423" />
    <path
       style="opacity:0.05;fill:#483737;fill-opacity:1;stroke:none"
       d="m 74.263593,859.27022 0,5.97071 11.381669,0 144.416598,0 c 5.37364,0 11.38167,5.97071 11.38167,11.94142 l 0,-5.97071 c 0,-5.97071 -6.00803,-11.94142 -11.38167,-11.94142 l -144.416598,0 z"
       id="path3813"
       inkscape:connector-curvature="0"
       sodipodi:nodetypes="cccscsscc" />
    <path
       style="opacity:0.05;fill:#483737;fill-opacity:1;stroke:none"
       d="m 25.378389,847.32879 c -10.85584,0 -10.821915,5.97072 -10.821915,17.91214 l 0.186585,0 c 0.318943,-7.82462 1.847636,-11.94142 10.63533,-11.94142 l 38.063288,0 c 8.787694,0 10.316387,4.1168 10.635331,11.94142 l 0.186585,0 c 0,-11.94142 0.03403,-17.91214 -10.821916,-17.91214 l -38.063288,0 z"
       id="path3818"
       inkscape:connector-curvature="0" />
    <path
       style="opacity:0.1;fill:#483737;fill-opacity:1;stroke:none"
       d="m 14.556474,895.09449 c -6.615549,0 -11.941424,5.32587 -11.941424,11.94142 l 0,5.97071 c 0,-6.61554 5.325875,-11.94142 11.941424,-11.94142 l 226.887056,0 c 6.61554,0 11.94142,5.32588 11.94142,11.94142 l 0,-5.97071 c 0,-6.61555 -5.32588,-11.94142 -11.94142,-11.94142 l -226.887056,0 z"
       id="rect2991"
       inkscape:connector-curvature="0" />
    <path
       id="path4139"
       d="m 122.031,924.94805 c -20.37372,0 -41.796695,21.42411 -41.796695,47.76629 0,26.34159 21.423005,47.76506 41.796695,47.76506 32.31168,0 53.73469,-21.42347 53.73469,-47.76506 0,-26.34218 -21.42297,-47.76629 -47.76569,-47.76629 z m 9.84996,6.71824 c 4.45221,0.41198 8.76594,1.4282 12.68777,3.13463 -0.30188,0.37615 -0.53522,0.70812 -0.74633,1.34341 -1.20626,3.61765 -3.00657,1.89331 -0.89562,6.41672 2.11096,4.52282 3.8749,5.69248 4.47803,3.58183 0.60318,-2.10945 -1.51692,-5.08704 0.89561,-3.88036 2.41254,1.20608 4.19769,-0.32839 2.38828,2.39007 -1.8094,2.71369 -1.76999,4.18487 -3.88095,3.58124 -2.11097,-0.60424 -2.06853,3.57705 -4.17951,4.18009 -2.11095,0.60424 -2.83608,-0.91053 -2.83608,0.59767 0,1.50701 1.19717,0.12538 0.89562,2.53755 -0.0919,0.73858 -0.0651,0.87053 -0.14927,1.19414 -1.98152,-0.56721 -2.86528,-0.88187 -4.32876,-0.3045 -1.50784,0.60423 -3.28389,4.47863 -3.28389,4.47863 1.88358,1.88376 2.7575,3.23971 3.43315,3.88156 -0.42159,0.20897 -0.92876,0.29853 -1.34341,0.59767 -3.01567,2.11184 -5.36455,2.50889 -6.26924,5.52231 -0.90472,3.01819 -0.59701,0.25674 -0.59701,3.88096 0,3.61945 -0.91382,1.16071 0.89561,4.47923 1.80939,3.31733 6.24802,4.90673 8.35898,6.71645 2.11098,1.80853 4.28634,-3.93589 8.50827,1.49328 4.22193,5.42737 4.4932,3.25284 2.98536,6.26984 -1.50784,3.01581 -2.9793,4.01769 -3.58242,5.22378 -0.60318,1.20611 1.17292,5.36531 3.28389,6.26861 0.0442,0 0.10198,0 0.14927,0 -0.11237,0.2568 -0.18713,0.4896 -0.2986,0.7482 -2.73359,1.2413 -6.08459,2.9543 -6.71706,3.134 -1.49268,0.4299 -6.75969,1.3207 -10.59801,2.3877 -0.47981,0.1373 -0.85749,0.1373 -1.04487,0.1552 0.47718,-0.5194 4.25003,-2.4922 6.11997,-3.5812 2.55889,-1.4957 -0.14927,-1.344 -0.14927,-1.344 0,0 -4.07288,-0.4538 -12.38921,-0.4538 -4.15819,0 -5.96005,0.1851 -6.86633,0.4538 -0.45311,0.1373 -0.67571,0.2687 -0.89561,0.4478 -0.2199,0.1851 -0.37317,0.3821 -0.74633,0.5971 -1.49269,0.8526 0.87425,1.7482 -1.04487,2.387 -1.43936,0.4777 -1.60662,0 -2.83608,-0.8997 0.87702,-0.8724 2.08726,-1.9226 3.58242,-3.7323 2.7141,-3.2833 3.57334,-2.6857 4.47803,-5.67101 0.90472,-2.98655 -7.61264,-2.08916 -7.61264,-3.88097 0,-1.79121 -1.46541,-2.98476 -4.1795,-4.1795 -2.7141,-1.19473 -0.86534,-1.79181 -3.88097,-2.68741 -3.01566,-0.89203 -6.409417,4.47743 -7.314118,2.68741 -0.904718,-1.79181 2.836089,-1.79181 2.836089,-3.88036 0,-2.0396 -4.301086,1.53925 -5.075117,-1.04488 -0.0203,-0.0955 -0.134162,-0.0955 -0.149268,-0.15523 -0.07571,-0.37616 -0.02687,-0.59767 0,-0.89203 0.189749,-2.14707 2.676216,-2.98476 3.731701,-5.0757 1.206274,-2.3859 0.581905,1.793 2.089753,3.88216 1.50783,2.08975 0.90472,-2.68682 0,-5.37364 -0.904716,-2.68802 0.57587,-2.68682 2.68682,-6.26925 2.11097,-3.58303 2.08975,-5.67218 2.08975,-8.3596 0,-2.68622 1.46237,-2.98296 4.47803,-5.67217 1.38218,-1.22997 2.46658,-2.3035 3.28389,-3.2833 0.19757,-0.0955 0.39717,-0.0955 0.59707,-0.15523 3.19861,-1.28013 4.54201,-3.19852 7.31412,-8.95667 2.77213,-5.75636 -1.08751,-0.38213 -1.94048,-0.59767 -0.85297,-0.20897 -2.08975,-1.72673 -5.07511,-3.43316 -0.61572,-0.35227 -1.16516,-0.51945 -1.64194,-0.5911 l 5.52292,-9.10533 c 1.76909,-0.47766 3.66848,-0.80486 5.5229,-1.04548 0.67849,3.86067 0.29859,7.46399 0.29859,7.46399 0,0 -1.04487,1.23654 -1.04487,2.08975 0,0.85322 5.71482,-7.03648 6.56778,-7.46339 0.85298,-0.42989 3.00667,2.26051 3.43316,-1.79121 0.0239,-0.23286 -0.0269,-0.23883 0,-0.44781 z m 8.06046,16.12033 c -0.30624,-0.0955 -0.66795,-6e-4 -1.04487,0.15524 0,1.05562 -0.40857,1.82345 -0.59701,2.23842 -0.11213,-0.19107 -0.44786,-0.44781 -0.44786,-0.44781 -0.45228,0.83411 -1.42791,1.5697 -0.44786,1.34341 0.98009,-0.22091 1.7234,0.38213 1.04488,-0.4478 -0.13046,-0.15524 -0.069,-0.0896 -0.14927,-0.15524 0.12712,0.0955 0.36786,0.15524 0.89561,0.15524 0.59379,0 0.91296,0 1.34341,0 -0.72803,0.53736 -1.52213,0.76664 -0.44787,1.04488 1.43244,0.37615 2.08975,0.45377 2.08975,0.15523 0,-0.29853 -0.44774,-1.34341 -0.44774,-1.34341 0.27985,-0.11344 0.53981,-0.25674 0.29859,-0.74753 -0.45234,-0.90038 -1.17092,-1.79898 -2.08976,-1.93988 z m 22.83798,2.53636 c 0.74584,1.15891 1.46031,2.35007 2.08975,3.58302 -0.4152,2.40859 -1.46967,4.03083 0.2986,4.03083 0.49437,0 0.93537,-0.10747 1.34341,-0.15524 0.0555,0.1433 0.0958,0.30451 0.14926,0.4478 -3.01567,0 -4.46288,0.90158 -5.97071,0.59708 -1.50784,-0.30451 -5.69945,-0.57319 -2.98536,-3.2833 1.58628,-1.58701 3.56782,-4.10725 5.07511,-5.22557 z m -18.80775,5.5247 c 0.27794,0.0896 0.52023,0.37615 0.74633,0.89023 0.90472,2.11184 2.40041,3.87857 1.19415,4.18069 -1.20628,0.29854 -1.79123,0.59767 -1.79123,0.59767 0,0 4.17647,2.71548 4.47804,-0.29853 0.30158,-3.01701 -1.19414,-4.77837 -1.19414,-4.77837 0,0 2.0837,2.07841 2.68682,3.28509 0.60317,1.20608 0.58191,0 2.08976,1.49328 1.50782,1.50641 1.17292,-5.99281 3.28389,-3.88156 2.11097,2.11064 3.43922,2.07482 2.83608,3.58242 -0.60318,1.50701 3.88098,-1.82166 3.88098,1.19355 0,2.90714 1.85411,4.08695 -1.79122,5.5235 -1.38016,-0.0955 -2.47255,-0.32839 -2.68683,-0.74813 -0.60317,-1.20489 -4.03023,-0.29853 -4.03023,-0.29853 -9.02125,-2.25454 -12.93769,-2.96924 -15.52385,-2.53696 0.049,-0.0955 0.0964,-0.0955 0.14927,-0.15524 1.31935,-2.37634 3.8017,-5.67576 2.98535,-6.86632 1.14978,-0.66215 2.05108,-1.38819 2.68682,-1.19533 z m 25.37553,15.07485 c 0.0269,0.60364 0,1.17922 0,1.79181 0,1.69747 -0.1018,3.43137 -0.2986,5.07451 -2.71315,-2.41396 -6.56778,-2.38769 -6.56778,-2.38769 0,0 2.35494,-2.67488 5.67218,-3.88156 0.41472,-0.15524 0.85901,-0.35227 1.19414,-0.59707 z"
       style="line-height:normal;opacity:0.70192308;color:#000000;fill:#ffffff;fill-opacity:1"
       inkscape:connector-curvature="0" />
  </g>
</svg>
