<?xml version="1.0" encoding="UTF-8" standalone="no"?>
<!-- Created with Inkscape (http://www.inkscape.org/) -->

<svg
   xmlns:dc="http://purl.org/dc/elements/1.1/"
   xmlns:cc="http://creativecommons.org/ns#"
   xmlns:rdf="http://www.w3.org/1999/02/22-rdf-syntax-ns#"
   xmlns:svg="http://www.w3.org/2000/svg"
   xmlns="http://www.w3.org/2000/svg"
   xmlns:sodipodi="http://sodipodi.sourceforge.net/DTD/sodipodi-0.dtd"
   xmlns:inkscape="http://www.inkscape.org/namespaces/inkscape"
   width="48"
   height="48"
   id="svg2"
   version="1.1"
   inkscape:version="0.48.4 r9939"
   sodipodi:docname="accessories-calculator.svg">
  <defs
     id="defs4" />
  <sodipodi:namedview
     id="base"
     pagecolor="#ffffff"
     bordercolor="#666666"
     borderopacity="1.0"
     inkscape:pageopacity="0.0"
     inkscape:pageshadow="2"
     inkscape:zoom="11.835812"
     inkscape:cx="18.345434"
     inkscape:cy="25.751448"
     inkscape:document-units="px"
     inkscape:current-layer="layer1"
     showgrid="false"
     inkscape:window-width="1440"
     inkscape:window-height="850"
     inkscape:window-x="0"
     inkscape:window-y="0"
     inkscape:window-maximized="1" />
  <metadata
     id="metadata7">
    <rdf:RDF>
      <cc:Work
         rdf:about="">
        <dc:format>image/svg+xml</dc:format>
        <dc:type
           rdf:resource="http://purl.org/dc/dcmitype/StillImage" />
        <dc:title />
      </cc:Work>
    </rdf:RDF>
  </metadata>
  <g
     inkscape:label="Capa 1"
     inkscape:groupmode="layer"
     id="layer1"
     transform="translate(0,-1004.3622)">
    <g
       id="g4194">
      <rect
         y="1008.3621"
         x="4"
         height="40"
         width="40"
         id="rect4034"
         style="fill:#008080;fill-opacity:1;stroke:none"
         ry="4.2244673" />
      <rect
         style="fill:#303339;fill-opacity:1;stroke:none"
         id="rect4036"
         width="34"
         height="9.3947029"
         x="7"
         y="1011.9674"
         ry="4.6973515" />
      <rect
         y="1023.3621"
         x="7"
         height="9"
         width="9"
         id="rect3330"
         style="fill:#ffd5d5;fill-opacity:1;stroke:none"
         ry="4.5" />
      <rect
         style="fill:#f4d7d7;fill-opacity:1;stroke:none"
         id="rect3324"
         width="9"
         height="9"
         x="7"
         y="1035.3621"
         ry="4.5" />
      <rect
         y="1035.3621"
         x="18"
         height="9"
         width="9"
         id="rect3328"
         style="fill:#f4d7d7;fill-opacity:1;stroke:none"
         ry="4.5" />
      <g
         transform="matrix(1.0027217,0,0,1.0027217,0.78600029,-3.0180589)"
         id="text4056"
         style="font-size:24.8214283px;font-style:normal;font-variant:normal;font-weight:500;font-stretch:normal;text-align:start;line-height:125%;letter-spacing:0px;word-spacing:0px;writing-mode:lr-tb;text-anchor:start;fill:#ffffff;fill-opacity:1;stroke:none;font-family:Helvetica 65 Medium;-inkscape-font-specification:'Helvetica 65 Medium, Medium'">
        <path
           inkscape:connector-curvature="0"
           id="path4061"
           style="font-weight:normal;font-family:Game Over;-inkscape-font-specification:Game Over"
           d="m 35.603989,1019.0681 0,-3.7585 -1.073866,0 0,3.7585 1.073866,0 z m -1.610799,0.537 0,-0.537 -0.536933,0 0,-3.7585 0.536933,0 0,-0.5369 2.147732,0 0,0.5369 0.536933,0 0,3.7585 -0.536933,0 0,0.537 -2.147732,0 z" />
      </g>
      <path
         id="rect3334"
         d="m 11,1025.8622 0,1.5 -1.5,0 0,1 1.5,0 0,1.5 1,0 0,-1.5 1.5,0 0,-1 -1.5,0 0,-1.5 -1,0 z"
         style="fill:#ffffff;fill-opacity:1;stroke:none"
         inkscape:connector-curvature="0" />
      <rect
         style="fill:#f4d7d7;fill-opacity:1;stroke:none"
         id="rect3338"
         width="9"
         height="9"
         x="18"
         y="1023.3621"
         ry="4.5" />
      <rect
         style="fill:#ffffff;fill-opacity:1;stroke:none"
         id="rect3344"
         width="1"
         height="4"
         x="1027.3621"
         y="-24.5"
         transform="matrix(0,1,-1,0,0,0)" />
      <path
         id="rect3346"
         d="m 11.5,1037.8622 a 0.50001538,0.50034642 0 0 0 -0.5,0.5 0.50001538,0.50034642 0 0 0 0.5,0.5 0.50001538,0.50034642 0 0 0 0.5,-0.5 0.50001538,0.50034642 0 0 0 -0.5,-0.5 z m -2,1.5 0,1 4,0 0,-1 -4,0 z m 2,1.5 a 0.50001538,0.50034642 0 0 0 -0.5,0.5 0.50001538,0.50034642 0 0 0 0.5,0.5 0.50001538,0.50034642 0 0 0 0.5,-0.5 0.50001538,0.50034642 0 0 0 -0.5,-0.5 z"
         style="fill:#ffffff;fill-opacity:1;stroke:none"
         inkscape:connector-curvature="0" />
      <path
         id="rect3358"
         d="m 33.5,1032.8622 0,1 4,0 0,-1 -4,0 z m 0,3 0,1 4,0 0,-1 -4,0 z"
         style="fill:#ffffff;fill-opacity:1;stroke:none"
         inkscape:connector-curvature="0" />
      <path
         id="rect3372"
         d="m 21.207031,1037.8622 -0.707031,0.707 1.292969,1.293 -1.292969,1.293 0.707031,0.707 1.292969,-1.293 1.292969,1.293 0.707031,-0.707 -1.292969,-1.293 1.292969,-1.293 -0.707031,-0.707 -1.292969,1.293 -1.292969,-1.293 z"
         style="fill:#ffffff;fill-opacity:1;stroke:none"
         inkscape:connector-curvature="0" />
    </g>
    <rect
       style="fill:#ffd5d5;stroke:none"
       id="rect2997"
       width="8.7024021"
       height="16.559912"
       x="30.838612"
       y="1026.424"
       ry="4.3512011" />
    <rect
       style="fill:#ffffff;fill-opacity:1;stroke:none"
       id="rect3344-4"
       width="1"
       height="4"
       x="1032.5986"
       y="-37.232056"
       transform="matrix(0,1,-1,0,0,0)" />
    <rect
       transform="matrix(0,1,-1,0,0,0)"
       y="-37.232056"
       x="1034.5986"
       height="4"
       width="1"
       id="rect3039"
       style="fill:#ffffff;fill-opacity:1;stroke:none" />
  </g>
</svg>
