<?xml version="1.0" encoding="UTF-8" standalone="no"?>
<svg
   xmlns:dc="http://purl.org/dc/elements/1.1/"
   xmlns:cc="http://creativecommons.org/ns#"
   xmlns:rdf="http://www.w3.org/1999/02/22-rdf-syntax-ns#"
   xmlns:svg="http://www.w3.org/2000/svg"
   xmlns="http://www.w3.org/2000/svg"
   xmlns:sodipodi="http://sodipodi.sourceforge.net/DTD/sodipodi-0.dtd"
   xmlns:inkscape="http://www.inkscape.org/namespaces/inkscape"
   width="48"
   height="48"
   viewBox="0 0 48 48"
   id="svg2"
   version="1.1"
   inkscape:version="0.48.4 r9939"
   sodipodi:docname="bookmark-missing.svg">
  <metadata
     id="metadata10">
    <rdf:RDF>
      <cc:Work
         rdf:about="">
        <dc:format>image/svg+xml</dc:format>
        <dc:type
           rdf:resource="http://purl.org/dc/dcmitype/StillImage" />
        <dc:title />
      </cc:Work>
    </rdf:RDF>
  </metadata>
  <defs
     id="defs8" />
  <sodipodi:namedview
     pagecolor="#ffffff"
     bordercolor="#666666"
     borderopacity="1"
     objecttolerance="10"
     gridtolerance="10"
     guidetolerance="10"
     inkscape:pageopacity="0"
     inkscape:pageshadow="2"
     inkscape:window-width="1440"
     inkscape:window-height="834"
     id="namedview6"
     showgrid="false"
     inkscape:zoom="2.0526122"
     inkscape:cx="-87.483063"
     inkscape:cy="125.66464"
     inkscape:window-x="0"
     inkscape:window-y="27"
     inkscape:window-maximized="1"
     inkscape:current-layer="svg2" />
  <path
     style="opacity:1;fill:#ffcc00;fill-opacity:1"
     d="m 24.000012,1.9486805 c -0.06509,0 -0.111024,0.016355 -0.176109,0.032801 -0.206734,0.016355 -0.398154,0.086092 -0.585747,0.1845691 0,0 -0.01914,0.016355 -0.03447,0.032801 -0.524493,0.2173979 -0.842253,0.553744 -1.094929,0.8696008 -0.367529,0.4552851 -0.700601,0.9721207 -1.033674,1.5586752 -0.685289,1.1895278 -1.382062,2.6949033 -2.097976,4.2043677 -0.715915,1.5217747 -1.431832,3.0435417 -2.006094,4.2166607 -0.283305,0.586563 -0.555122,1.07057 -0.761858,1.406925 -0.04594,0.0984 -0.111023,0.151777 -0.160793,0.217398 -0.07657,0.0328 -0.141652,0.04925 -0.252677,0.08205 -0.363696,0.08609 -0.892018,0.217398 -1.512223,0.319946 -1.236581,0.217397 -2.84452,0.401967 -4.433316,0.652175 -1.6079382,0.250217 -3.1661073,0.537343 -4.4524579,0.836781 -0.635518,0.151768 -1.209782,0.287126 -1.7189623,0.504524 -0.2679892,0.11485 -0.5244939,0.233798 -0.7924841,0.434796 -0.2718175,0.200988 -0.6355181,0.484006 -0.8269397,1.11979 -0.2067344,0.652185 -0.080397,1.123898 0.030627,1.456137 0.111024,0.336365 0.2373627,0.586573 0.3828424,0.836781 0.2871321,0.488105 0.6661463,0.97213 1.0949299,1.493055 0.876709,1.037769 2.0214081,2.227297 3.1661064,3.396308 1.1600128,1.189518 2.3200257,2.329835 3.2120479,3.265038 0.4440974,0.471714 0.8269404,0.90652 1.0643024,1.205939 0.08039,0.08609 0.09572,0.135357 0.141653,0.217398 0,0.08609 0,0.151759 0,0.250208 -0.03062,0.385567 -0.07657,0.93932 -0.17228,1.591504 -0.191421,1.308476 -0.493866,2.98202 -0.765685,4.655564 -0.2679904,1.657134 -0.5244936,3.330678 -0.6508322,4.704775 -0.065081,0.685012 -0.111024,1.271568 -0.065081,1.858122 0.019141,0.283028 0.065081,0.602974 0.176107,0.935222 0.095711,0.336346 0.2373627,0.771142 0.7465442,1.173118 0.524494,0.385566 0.987734,0.401976 1.320807,0.385566 0.317758,0 0.589577,-0.0328 0.857568,-0.09839 0.539808,-0.151759 1.083443,-0.385567 1.684506,-0.656292 1.209781,-0.549628 2.67224,-1.287959 4.104071,-2.075511 1.431829,-0.787551 2.829206,-1.607914 3.958591,-2.210878 0.555121,-0.299428 1.064301,-0.533236 1.416516,-0.685004 0.09571,-0.04925 0.156965,-0.04925 0.237363,-0.0656 0.08039,0.01635 0.14165,0.01635 0.237362,0.0656 0.352215,0.151768 0.861395,0.385576 1.416516,0.685004 1.129387,0.602964 2.526762,1.423327 3.958592,2.210878 1.43183,0.787552 2.894289,1.525883 4.104071,2.075511 0.601063,0.270725 1.144698,0.504533 1.684507,0.656292 0.267989,0.0656 0.539807,0.09839 0.857567,0.09839 0.333073,0.01635 0.796312,0 1.320807,-0.385566 0.509178,-0.401976 0.650831,-0.836772 0.746542,-1.173118 0.111024,-0.332248 0.156965,-0.652194 0.176108,-0.935222 0.04594,-0.586554 0,-1.173109 -0.06509,-1.858122 -0.126339,-1.374097 -0.382841,-3.047641 -0.650832,-4.704775 -0.271819,-1.673544 -0.574264,-3.347088 -0.765684,-4.655564 -0.09572,-0.652184 -0.141652,-1.205937 -0.172279,-1.591504 0,-0.09839 0,-0.164079 0,-0.250208 0.04594,-0.08205 0.06126,-0.131269 0.14165,-0.217398 0.237364,-0.299419 0.620207,-0.734224 1.064304,-1.205938 0.892022,-0.935204 2.052034,-2.07552 3.212049,-3.265038 1.144698,-1.169012 2.289395,-2.358539 3.166106,-3.396309 0.428782,-0.520924 0.807797,-1.00495 1.09493,-1.493055 0.145479,-0.250208 0.271818,-0.500416 0.382841,-0.836781 0.111023,-0.332239 0.237362,-0.803951 0.03062,-1.456137 -0.191422,-0.635784 -0.555123,-0.918802 -0.826939,-1.11979 -0.267987,-0.200998 -0.524492,-0.319946 -0.792481,-0.434796 -0.509181,-0.217398 -1.083444,-0.352756 -1.718962,-0.504524 -1.286352,-0.299438 -2.844521,-0.586564 -4.452458,-0.836781 -1.588797,-0.250208 -3.196735,-0.434778 -4.433317,-0.652175 -0.620205,-0.102594 -1.148525,-0.233808 -1.512226,-0.319946 -0.09571,-0.0328 -0.176106,-0.04925 -0.252673,-0.08205 -0.04977,-0.0656 -0.114852,-0.118957 -0.160795,-0.217398 C 31.584119,14.118745 31.3123,13.63472 31.028998,13.048166 30.454734,11.875038 29.738819,10.353271 29.022902,8.8314953 28.306987,7.3220314 27.610214,5.8166559 26.924926,4.6271281 26.591852,4.0406839 26.25878,3.5238482 25.891252,3.0685539 25.542865,2.6173483 25.271045,1.948754 24.00001,1.948754 z"
     id="path4"
     inkscape:connector-curvature="0" />
</svg>
