<?xml version="1.0" encoding="UTF-8" standalone="no"?>
<!-- Created with Inkscape (http://www.inkscape.org/) -->

<svg
   xmlns:dc="http://purl.org/dc/elements/1.1/"
   xmlns:cc="http://creativecommons.org/ns#"
   xmlns:rdf="http://www.w3.org/1999/02/22-rdf-syntax-ns#"
   xmlns:svg="http://www.w3.org/2000/svg"
   xmlns="http://www.w3.org/2000/svg"
   xmlns:sodipodi="http://sodipodi.sourceforge.net/DTD/sodipodi-0.dtd"
   xmlns:inkscape="http://www.inkscape.org/namespaces/inkscape"
   width="48"
   height="48"
   id="svg3356"
   version="1.1"
   inkscape:version="0.48.4 r9939"
   sodipodi:docname="folder-pictures.svg">
  <defs
     id="defs3358" />
  <sodipodi:namedview
     id="base"
     pagecolor="#ffffff"
     bordercolor="#666666"
     borderopacity="1.0"
     inkscape:pageopacity="0.0"
     inkscape:pageshadow="2"
     inkscape:zoom="7.919596"
     inkscape:cx="1.5537"
     inkscape:cy="18.75007"
     inkscape:document-units="px"
     inkscape:current-layer="layer3"
     showgrid="true"
     inkscape:window-width="1440"
     inkscape:window-height="850"
     inkscape:window-x="0"
     inkscape:window-y="0"
     inkscape:window-maximized="1">
    <inkscape:grid
       type="xygrid"
       id="grid3006"
       empspacing="5"
       visible="true"
       enabled="true"
       snapvisiblegridlinesonly="true" />
  </sodipodi:namedview>
  <metadata
     id="metadata3361">
    <rdf:RDF>
      <cc:Work
         rdf:about="">
        <dc:format>image/svg+xml</dc:format>
        <dc:type
           rdf:resource="http://purl.org/dc/dcmitype/StillImage" />
        <dc:title />
      </cc:Work>
    </rdf:RDF>
  </metadata>
  <g
     inkscape:label="Layer 1"
     inkscape:groupmode="layer"
     id="layer1"
     transform="translate(0,-1004.3622)">
    <path
       inkscape:connector-curvature="0"
       id="path4038-3"
       style="fill:#4d4d4d;fill-opacity:1;fill-rule:nonzero;stroke:none"
       d="m 43.914666,1042.8056 c 0,3.0681 -2.476594,5.5552 -5.531838,5.5552 l -28.7656394,0 c -3.0552431,0 -5.5318542,-2.4871 -5.5318542,-5.5552 l 0,-28.8869 c 0,-3.0681 2.4766111,-5.5551 5.5318542,-5.5551 l 28.7656394,0 c 3.055244,0 5.531838,2.487 5.531838,5.5551 l 0,28.8869 z" />
    <rect
       style="fill:#ffffff;fill-opacity:1;stroke:none"
       id="rect4024-4"
       width="35.91293"
       height="24.373791"
       x="6.0435352"
       y="1012.1577" />
    <path
       style="fill:#4d4d4d;fill-opacity:1;stroke:#494949;stroke-width:0.08572505;stroke-linecap:butt;stroke-linejoin:miter;stroke-opacity:1"
       d="m 4.1030627,1041.1131 39.7938713,0"
       id="path2988"
       inkscape:connector-curvature="0" />
    <path
       style="fill:#4d4d4d;fill-opacity:1;stroke:#494949;stroke-width:0.08572499;stroke-linecap:butt;stroke-linejoin:miter;stroke-opacity:1"
       d="m 4.1030849,1042.6083 39.7938301,0"
       id="path2988-1"
       inkscape:connector-curvature="0" />
    <rect
       y="1014.1841"
       x="7.3237123"
       height="24.373791"
       width="33.352577"
       id="rect3022"
       style="fill:#f4d7d7;fill-opacity:1;stroke:none" />
    <rect
       style="fill:#e9afaf;fill-opacity:1;stroke:none"
       id="rect3024"
       width="29.768072"
       height="24.373791"
       x="9.115963"
       y="1016.2106" />
    <rect
       y="1018.6779"
       x="10.514756"
       height="23.880335"
       width="25.900822"
       id="rect2999"
       style="fill:#ff8080;fill-opacity:1;stroke:none" />
  </g>
  <g
     inkscape:groupmode="layer"
     id="layer2"
     inkscape:label="Layer"
     transform="translate(0,-452)">
    <g
       id="g3018"
       transform="matrix(0.08484953,0,0,0.08722492,22.542914,450.69068)">
      <path
         style="fill:#ac9d93;fill-opacity:1;stroke:none"
         d="m -22.40887,216.54377 -56.23752,-79.03641 -139.83373,0 0,86.63614 197.59114,0 z"
         id="path4008-9-0"
         inkscape:connector-curvature="0" />
      <path
         inkscape:connector-curvature="0"
         style="fill:#ac9d93;fill-opacity:1;fill-rule:nonzero;stroke:none"
         d="m -218.53893,206.42134 0,258.21873 c 0,28.9071 29.31336,52.3804 65.47545,52.3804 l 340.4723,0 c 36.16209,0 65.47529,-23.4733 65.47529,-52.3804 l 0,-258.21873 -471.42304,0 z"
         id="path4003-9-1" />
    </g>
  </g>
  <g
     inkscape:groupmode="layer"
     id="layer3"
     inkscape:label="Inserts"
     transform="translate(0,-208)">
    <g
       id="g3034"
       transform="matrix(1.0181872,0,0,1.0955282,15.854502,228.27479)"
       style="opacity:0.8;fill:#ffffff;fill-opacity:1">
      <path
         sodipodi:nodetypes="ssssssssssssss"
         inkscape:connector-curvature="0"
         id="rect3029"
         d="M 2,3 C 0.892,3 0,3.892 0,5 l 0,8 c 0,1.108 0.892,2 2,2 l 12,0 c 1.108,0 2,-0.892 2,-2 L 16,5 C 16,3.892 15.108,3 14,3 z m 6,2 c 2.209139,0 4,1.790861 4,4 0,2.209139 -1.790861,4 -4,4 C 5.790861,13 4,11.209139 4,9 4,6.790861 5.790861,5 8,5 z"
         style="fill:#ffffff;fill-opacity:1;stroke:none" />
      <path
         transform="matrix(1.1511927,0,0,0.85624514,18.66312,1.5813038)"
         d="M -7.5253428,8.6642199 C -7.5253428,9.9542353 -8.3031714,11 -9.2626715,11 -10.222172,11 -11,9.9542353 -11,8.6642199 c 0,-1.2900155 0.777828,-2.3357797 1.7373285,-2.3357797 0.9595001,0 1.7373287,1.0457642 1.7373287,2.3357797 z"
         sodipodi:ry="2.3357797"
         sodipodi:rx="1.7373286"
         sodipodi:cy="8.6642199"
         sodipodi:cx="-9.2626715"
         id="path3031"
         style="fill:#ffffff;fill-opacity:1;stroke:none"
         sodipodi:type="arc" />
      <path
         sodipodi:nodetypes="ccccccccc"
         inkscape:connector-curvature="0"
         id="path3807"
         d="M 5,1 C 4,1 4.3333333,2.3333333 4,3 L 2,3 2,4 14,4 14,3 12,3 C 11.666667,2.3333333 12,1 11,1 z"
         style="fill:#ffffff;fill-opacity:1;stroke:none" />
    </g>
  </g>
</svg>
