<?xml version="1.0" encoding="UTF-8" standalone="no"?>
<!-- Created with Inkscape (http://www.inkscape.org/) -->

<svg
   xmlns:dc="http://purl.org/dc/elements/1.1/"
   xmlns:cc="http://creativecommons.org/ns#"
   xmlns:rdf="http://www.w3.org/1999/02/22-rdf-syntax-ns#"
   xmlns:svg="http://www.w3.org/2000/svg"
   xmlns="http://www.w3.org/2000/svg"
   xmlns:sodipodi="http://sodipodi.sourceforge.net/DTD/sodipodi-0.dtd"
   xmlns:inkscape="http://www.inkscape.org/namespaces/inkscape"
   width="48"
   height="48"
   id="svg3356"
   version="1.1"
   inkscape:version="0.48.4 r9939"
   sodipodi:docname="folder-recent.svg">
  <defs
     id="defs3358" />
  <sodipodi:namedview
     id="base"
     pagecolor="#ffffff"
     bordercolor="#666666"
     borderopacity="1.0"
     inkscape:pageopacity="0.0"
     inkscape:pageshadow="2"
     inkscape:zoom="1.979899"
     inkscape:cx="-34.187064"
     inkscape:cy="103.4093"
     inkscape:document-units="px"
     inkscape:current-layer="layer2"
     showgrid="true"
     inkscape:window-width="1440"
     inkscape:window-height="850"
     inkscape:window-x="0"
     inkscape:window-y="0"
     inkscape:window-maximized="1">
    <inkscape:grid
       type="xygrid"
       id="grid3006"
       empspacing="5"
       visible="true"
       enabled="true"
       snapvisiblegridlinesonly="true" />
  </sodipodi:namedview>
  <metadata
     id="metadata3361">
    <rdf:RDF>
      <cc:Work
         rdf:about="">
        <dc:format>image/svg+xml</dc:format>
        <dc:type
           rdf:resource="http://purl.org/dc/dcmitype/StillImage" />
        <dc:title />
      </cc:Work>
    </rdf:RDF>
  </metadata>
  <g
     inkscape:label="Layer 1"
     inkscape:groupmode="layer"
     id="layer1"
     transform="translate(0,-1004.3622)">
    <path
       inkscape:connector-curvature="0"
       id="path4038-3"
       style="fill:#4d4d4d;fill-opacity:1;fill-rule:nonzero;stroke:none"
       d="m 43.914663,1042.8067 c 0,3.0683 -2.476594,5.5555 -5.531836,5.5555 l -28.765637,0 c -3.0552423,0 -5.5318531,-2.4872 -5.5318531,-5.5555 l 0,-28.889 c 0,-3.0683 2.4766108,-5.5555 5.5318531,-5.5555 l 28.765637,0 c 3.055242,0 5.531836,2.4872 5.531836,5.5555 l 0,28.889 z" />
    <rect
       style="fill:#ffffff;fill-opacity:1;stroke:none"
       id="rect4024-4"
       width="35.912926"
       height="24.375504"
       x="6.0435367"
       y="1012.1564" />
    <path
       style="fill:#4d4d4d;fill-opacity:1;stroke:#494949;stroke-width:0.08572805;stroke-linecap:butt;stroke-linejoin:miter;stroke-opacity:1"
       d="m 4.1030653,1041.1139 39.7938687,0"
       id="path2988"
       inkscape:connector-curvature="0" />
    <path
       style="fill:#4d4d4d;fill-opacity:1;stroke:#494949;stroke-width:0.085728;stroke-linecap:butt;stroke-linejoin:miter;stroke-opacity:1"
       d="m 4.1030875,1042.6093 39.7938255,0"
       id="path2988-1"
       inkscape:connector-curvature="0" />
    <rect
       y="1014.183"
       x="7.3237152"
       height="24.375504"
       width="33.35257"
       id="rect3022"
       style="fill:#f4d7d7;fill-opacity:1;stroke:none" />
    <rect
       style="fill:#e9afaf;fill-opacity:1;stroke:none"
       id="rect3024"
       width="29.76807"
       height="24.375504"
       x="9.1159658"
       y="1016.2097" />
    <rect
       y="1018.6772"
       x="10.514758"
       height="23.882015"
       width="25.900818"
       id="rect2999"
       style="fill:#ff8080;fill-opacity:1;stroke:none" />
  </g>
  <g
     inkscape:groupmode="layer"
     id="layer2"
     inkscape:label="Layer"
     transform="translate(0,-452)">
    <g
       id="g3018"
       transform="matrix(0.08484952,0,0,0.08723106,22.542914,450.6889)">
      <path
         style="fill:#ac9d93;fill-opacity:1;stroke:none"
         d="m -22.40887,216.54377 -56.23752,-79.03641 -139.83373,0 0,86.63614 197.59114,0 z"
         id="path4008-9-0"
         inkscape:connector-curvature="0" />
      <path
         inkscape:connector-curvature="0"
         style="fill:#ac9d93;fill-opacity:1;fill-rule:nonzero;stroke:none"
         d="m -218.53893,206.42134 0,258.21873 c 0,28.9071 29.31336,52.3804 65.47545,52.3804 l 340.4723,0 c 36.16209,0 65.47529,-23.4733 65.47529,-52.3804 l 0,-258.21873 -471.42304,0 z"
         id="path4003-9-1" />
    </g>
    <path
       id="path2985"
       d="m 24.000001,472.32363 c -4.498635,0 -8.145498,3.64535 -8.145498,8.14217 0,4.49681 3.646863,8.14216 8.145498,8.14216 4.498633,0 8.145496,-3.64535 8.145496,-8.14216 0,-4.49682 -3.646863,-8.14217 -8.145496,-8.14217 z m 0,2.03554 c 0.564074,0 1.018186,0.45393 1.018186,1.01778 l 0,4.07107 0,0.41353 3.022743,1.74924 c 0.488504,0.28192 0.663859,0.91111 0.38182,1.39943 -0.282036,0.48833 -0.911503,0.66359 -1.400007,0.38167 l -3.531837,-2.03554 c -0.32595,-0.18808 -0.507536,-0.54095 -0.509093,-0.89055 l 0,-0.12722 0,-0.89056 0,-4.07107 c 0,-0.56385 0.454112,-1.01778 1.018188,-1.01778 z"
       style="opacity:0.8;fill:#ffffff;fill-opacity:1;stroke:none"
       inkscape:connector-curvature="0" />
  </g>
  <g
     inkscape:groupmode="layer"
     id="layer3"
     inkscape:label="Inserts"
     transform="translate(0,-208)" />
</svg>
