<?xml version="1.0" encoding="UTF-8" standalone="no"?>
<!-- Created with Inkscape (http://www.inkscape.org/) -->

<svg
   xmlns:dc="http://purl.org/dc/elements/1.1/"
   xmlns:cc="http://creativecommons.org/ns#"
   xmlns:rdf="http://www.w3.org/1999/02/22-rdf-syntax-ns#"
   xmlns:svg="http://www.w3.org/2000/svg"
   xmlns="http://www.w3.org/2000/svg"
   xmlns:sodipodi="http://sodipodi.sourceforge.net/DTD/sodipodi-0.dtd"
   xmlns:inkscape="http://www.inkscape.org/namespaces/inkscape"
   width="48"
   height="48"
   id="svg3356"
   version="1.1"
   inkscape:version="0.48.4 r9939"
   sodipodi:docname="folder-documents.svg">
  <defs
     id="defs3358" />
  <sodipodi:namedview
     id="base"
     pagecolor="#ffffff"
     bordercolor="#666666"
     borderopacity="1.0"
     inkscape:pageopacity="0.0"
     inkscape:pageshadow="2"
     inkscape:zoom="5.6"
     inkscape:cx="3.8507502"
     inkscape:cy="30.68232"
     inkscape:document-units="px"
     inkscape:current-layer="layer3"
     showgrid="true"
     inkscape:window-width="1440"
     inkscape:window-height="850"
     inkscape:window-x="0"
     inkscape:window-y="0"
     inkscape:window-maximized="1">
    <inkscape:grid
       type="xygrid"
       id="grid3006"
       empspacing="5"
       visible="true"
       enabled="true"
       snapvisiblegridlinesonly="true" />
  </sodipodi:namedview>
  <metadata
     id="metadata3361">
    <rdf:RDF>
      <cc:Work
         rdf:about="">
        <dc:format>image/svg+xml</dc:format>
        <dc:type
           rdf:resource="http://purl.org/dc/dcmitype/StillImage" />
        <dc:title />
      </cc:Work>
    </rdf:RDF>
  </metadata>
  <g
     inkscape:label="Layer 1"
     inkscape:groupmode="layer"
     id="layer1"
     transform="translate(0,-1004.3622)">
    <path
       inkscape:connector-curvature="0"
       id="path4038-3"
       style="fill:#4d4d4d;fill-opacity:1;fill-rule:nonzero;stroke:none"
       d="m 43.914663,1042.8066 c 0,3.0684 -2.476595,5.5556 -5.531837,5.5556 l -28.7656358,0 c -3.0552413,0 -5.5318521,-2.4872 -5.5318521,-5.5556 l 0,-28.8888 c 0,-3.0684 2.4766108,-5.5556 5.5318521,-5.5556 l 28.7656358,0 c 3.055242,0 5.531837,2.4872 5.531837,5.5556 l 0,28.8888 z" />
    <rect
       style="fill:#ffffff;fill-opacity:1;stroke:none"
       id="rect4024-4"
       width="35.912922"
       height="24.375521"
       x="6.0435381"
       y="1012.1564" />
    <path
       style="fill:#4d4d4d;fill-opacity:1;stroke:#494949;stroke-width:0.08572809;stroke-linecap:butt;stroke-linejoin:miter;stroke-opacity:1"
       d="m 4.1030664,1041.114 39.7938656,0"
       id="path2988"
       inkscape:connector-curvature="0" />
    <path
       style="fill:#4d4d4d;fill-opacity:1;stroke:#494949;stroke-width:0.08572803;stroke-linecap:butt;stroke-linejoin:miter;stroke-opacity:1"
       d="m 4.1030886,1042.6092 39.7938224,0"
       id="path2988-1"
       inkscape:connector-curvature="0" />
    <rect
       y="1014.183"
       x="7.3237166"
       height="24.375521"
       width="33.352566"
       id="rect3022"
       style="fill:#f4d7d7;fill-opacity:1;stroke:none" />
    <rect
       style="fill:#e9afaf;fill-opacity:1;stroke:none"
       id="rect3024"
       width="29.76807"
       height="24.375521"
       x="9.1159649"
       y="1016.2097" />
    <rect
       y="1018.6769"
       x="10.514759"
       height="23.882032"
       width="25.900816"
       id="rect2999"
       style="fill:#ff8080;fill-opacity:1;stroke:none" />
  </g>
  <g
     inkscape:groupmode="layer"
     id="layer2"
     inkscape:label="Layer"
     transform="translate(0,-452)">
    <g
       id="g3018"
       transform="matrix(0.08484951,0,0,0.08723114,22.542914,450.68887)">
      <path
         style="fill:#ac9d93;fill-opacity:1;stroke:none"
         d="m -22.40887,216.54377 -56.23752,-79.03641 -139.83373,0 0,86.63614 197.59114,0 z"
         id="path4008-9-0"
         inkscape:connector-curvature="0" />
      <path
         inkscape:connector-curvature="0"
         style="fill:#ac9d93;fill-opacity:1;fill-rule:nonzero;stroke:none"
         d="m -218.53893,206.42134 0,258.21873 c 0,28.9071 29.31336,52.3804 65.47545,52.3804 l 340.4723,0 c 36.16209,0 65.47529,-23.4733 65.47529,-52.3804 l 0,-258.21873 -471.42304,0 z"
         id="path4003-9-1" />
    </g>
  </g>
  <g
     inkscape:groupmode="layer"
     id="layer3"
     inkscape:label="Inserts"
     transform="translate(0,-208)">
    <g
       id="g3035"
       transform="matrix(1.1636424,0,0,1.0177712,14.690862,228.41745)"
       style="opacity:0.8;fill:#ffffff;fill-opacity:1">
      <path
         sodipodi:nodetypes="sssssscccssssssssssssssssssssss"
         inkscape:connector-curvature="0"
         id="rect2986"
         d="M 3,0 C 1.892,0 1,0.892 1,2 l 0,12 c 0,1.108 0.892,2 2,2 l 10,0 c 1.108,0 2,-0.892 2,-2 l 0,-8 -5,0 0,-6 z m 0.5,3 4,0 C 7.777,3 8,3.223 8,3.5 8,3.777 7.777,4 7.5,4 l -4,0 C 3.223,4 3,3.777 3,3.5 3,3.223 3.223,3 3.5,3 z m 0.024053,5 9,0 c 0.276999,0 0.5,0.223 0.5,0.5 0,0.277 -0.223001,0.5 -0.5,0.5 L 3.5240535,9 c -0.277,0 -0.5,-0.223 -0.5,-0.5 0,-0.277 0.223,-0.5 0.5,-0.5 z M 3.5,12 l 9,0 c 0.277,0 0.5,0.223 0.5,0.5 0,0.277 -0.223,0.5 -0.5,0.5 l -9,0 C 3.223,13 3,12.777 3,12.5 3,12.223 3.223,12 3.5,12 z"
         style="fill:#ffffff;fill-opacity:1;stroke:none" />
      <path
         sodipodi:nodetypes="cccc"
         inkscape:connector-curvature="0"
         id="path3018"
         d="m 11,0 0,5 4,0 z"
         style="fill:#ffffff;fill-opacity:1;stroke:none" />
    </g>
  </g>
</svg>
