<?xml version="1.0" encoding="UTF-8" standalone="no"?>
<!-- Created with Inkscape (http://www.inkscape.org/) -->

<svg
   xmlns:dc="http://purl.org/dc/elements/1.1/"
   xmlns:cc="http://creativecommons.org/ns#"
   xmlns:rdf="http://www.w3.org/1999/02/22-rdf-syntax-ns#"
   xmlns:svg="http://www.w3.org/2000/svg"
   xmlns="http://www.w3.org/2000/svg"
   xmlns:sodipodi="http://sodipodi.sourceforge.net/DTD/sodipodi-0.dtd"
   xmlns:inkscape="http://www.inkscape.org/namespaces/inkscape"
   width="48"
   height="48"
   id="svg3356"
   version="1.1"
   inkscape:version="0.48.4 r9939"
   sodipodi:docname="folder-music.svg">
  <defs
     id="defs3358" />
  <sodipodi:namedview
     id="base"
     pagecolor="#ffffff"
     bordercolor="#666666"
     borderopacity="1.0"
     inkscape:pageopacity="0.0"
     inkscape:pageshadow="2"
     inkscape:zoom="1.4"
     inkscape:cx="-59.06504"
     inkscape:cy="125.08377"
     inkscape:document-units="px"
     inkscape:current-layer="layer3"
     showgrid="true"
     inkscape:window-width="1440"
     inkscape:window-height="850"
     inkscape:window-x="0"
     inkscape:window-y="0"
     inkscape:window-maximized="1">
    <inkscape:grid
       type="xygrid"
       id="grid3006"
       empspacing="5"
       visible="true"
       enabled="true"
       snapvisiblegridlinesonly="true" />
  </sodipodi:namedview>
  <metadata
     id="metadata3361">
    <rdf:RDF>
      <cc:Work
         rdf:about="">
        <dc:format>image/svg+xml</dc:format>
        <dc:type
           rdf:resource="http://purl.org/dc/dcmitype/StillImage" />
        <dc:title />
      </cc:Work>
    </rdf:RDF>
  </metadata>
  <g
     inkscape:label="Layer 1"
     inkscape:groupmode="layer"
     id="layer1"
     transform="translate(0,-1004.3622)">
    <path
       inkscape:connector-curvature="0"
       id="path4038-3"
       style="fill:#4d4d4d;fill-opacity:1;fill-rule:nonzero;stroke:none"
       d="m 43.914881,1042.7882 c 0,3.0644 -2.476621,5.5484 -5.531897,5.5484 l -28.765951,0 c -3.0552765,0 -5.5319142,-2.484 -5.5319142,-5.5484 l 0,-28.852 c 0,-3.0644 2.4766377,-5.5484 5.5319142,-5.5484 l 28.765951,0 c 3.055276,0 5.531897,2.484 5.531897,5.5484 l 0,28.852 z" />
    <rect
       style="fill:#ffffff;fill-opacity:1;stroke:none"
       id="rect4024-4"
       width="35.913319"
       height="24.344288"
       x="6.0433402"
       y="1012.1771" />
    <path
       style="fill:#4d4d4d;fill-opacity:1;stroke:#494949;stroke-width:0.08567362;stroke-linecap:butt;stroke-linejoin:miter;stroke-opacity:1"
       d="m 4.1028472,1041.0976 39.7943038,0"
       id="path2988"
       inkscape:connector-curvature="0" />
    <path
       style="fill:#4d4d4d;fill-opacity:1;stroke:#494949;stroke-width:0.08567356;stroke-linecap:butt;stroke-linejoin:miter;stroke-opacity:1"
       d="m 4.1028694,1042.5911 39.7942606,0"
       id="path2988-1"
       inkscape:connector-curvature="0" />
    <rect
       y="1014.2012"
       x="7.3235321"
       height="24.344288"
       width="33.352936"
       id="rect3022"
       style="fill:#f4d7d7;fill-opacity:1;stroke:none" />
    <rect
       style="fill:#e9afaf;fill-opacity:1;stroke:none"
       id="rect3024"
       width="29.768396"
       height="24.344288"
       x="9.1158018"
       y="1016.2253" />
    <rect
       y="1018.6896"
       x="10.51461"
       height="23.851429"
       width="25.901102"
       id="rect2999"
       style="fill:#ff8080;fill-opacity:1;stroke:none" />
  </g>
  <g
     inkscape:groupmode="layer"
     id="layer2"
     inkscape:label="Layer"
     transform="translate(0,-452)">
    <g
       id="g3018"
       transform="matrix(0.08485045,0,0,0.08711936,22.542898,450.72134)">
      <path
         style="fill:#ac9d93;fill-opacity:1;stroke:none"
         d="m -22.40887,216.54377 -56.23752,-79.03641 -139.83373,0 0,86.63614 197.59114,0 z"
         id="path4008-9-0"
         inkscape:connector-curvature="0" />
      <path
         inkscape:connector-curvature="0"
         style="fill:#ac9d93;fill-opacity:1;fill-rule:nonzero;stroke:none"
         d="m -218.53893,206.42134 0,258.21873 c 0,28.9071 29.31336,52.3804 65.47545,52.3804 l 340.4723,0 c 36.16209,0 65.47529,-23.4733 65.47529,-52.3804 l 0,-258.21873 -471.42304,0 z"
         id="path4003-9-1" />
    </g>
  </g>
  <g
     inkscape:groupmode="layer"
     id="layer3"
     inkscape:label="Inserts"
     transform="translate(0,-208)">
    <g
       style="opacity:0.8;fill:#ffffff;fill-opacity:1"
       transform="matrix(0.19172882,0,0,0.17972324,14.832159,227.77812)"
       id="g3000">
      <path
         sodipodi:nodetypes="ccccccsccccsccccccccccccccccccscc"
         style="fill:#ffffff;fill-opacity:1"
         inkscape:connector-curvature="0"
         d="m 87.116637,54.778 c -2.018,-2.314 -2.034672,-4.167 -4.690672,-5.52 2.048,-8.299 1.894,-22.688767 -4.016,-31.251767 0.671,-1.838 -2.125328,-3.976 -3.622328,-5.425 -6.332,-6.1280003 -15.669,-9.236 -27.096,-9.236 l 0,0 c -11.427,0 -20.764,3.1079997 -27.096,9.237 -1.497,1.449 -4.293606,3.587 -3.622606,5.425 -5.909,8.563 -6.064834,22.952767 -4.017834,31.251767 -2.656,1.352 -2.673394,3.205 -4.6903942,5.52 -2.7893925,8.894022 -3.2203925,8.645806 -2.7893925,14.926806 0.842,12.312 8.2082267,24.131194 20.5362267,24.131194 0.541,0 1.083,-0.02 1.63,-0.056 0.81,-0.056 1.563166,-0.431 2.099166,-1.046 0.533,-0.61 0.802,-1.412 0.746,-2.223 l -2.802,-40.911 c -0.116,-1.689 -3.973606,-2.953 -5.650606,-2.849 -1.108,0.076 -2.191,0.254 -3.259,0.477 -1.517,-6.714 -1.378166,-19.181767 3.344834,-25.902767 1.449394,0.146046 4.678606,-0.532 5.578606,-1.403 4.362,-4.221 11.309,-6.361 19.992,-6.361 l 0,0 c 8.683,0 15.63,2.14 19.992,6.361 0.899,0.87 4.129935,1.549046 5.577328,1.404 4.724,6.72 4.859,19.188767 3.343,25.901767 -1.067,-0.223 -4.534328,-0.401 -5.642328,-0.477 -1.676,-0.106 -3.151,1.159 -3.267,2.849 l -2.802,40.911 c -0.056,0.811 0.213,1.612 0.746,2.223 0.535,0.615 1.291,0.99 2.102,1.046 0.547,0.036 1.09,0.056 1.63,0.056 12.329,0 19.689281,-9.646 20.531281,-21.959 0.434,-6.281 1.352719,-12.354 -2.784281,-17.1 z"
         id="path2984" />
      <g
         style="fill:#ffffff;fill-opacity:1"
         id="g2986" />
      <g
         style="fill:#ffffff;fill-opacity:1"
         id="g2990" />
    </g>
  </g>
</svg>
