<?xml version="1.0" encoding="UTF-8" standalone="no"?>
<!-- Created with Inkscape (http://www.inkscape.org/) -->

<svg
   xmlns:dc="http://purl.org/dc/elements/1.1/"
   xmlns:cc="http://creativecommons.org/ns#"
   xmlns:rdf="http://www.w3.org/1999/02/22-rdf-syntax-ns#"
   xmlns:svg="http://www.w3.org/2000/svg"
   xmlns="http://www.w3.org/2000/svg"
   xmlns:sodipodi="http://sodipodi.sourceforge.net/DTD/sodipodi-0.dtd"
   xmlns:inkscape="http://www.inkscape.org/namespaces/inkscape"
   width="48"
   height="48"
   id="svg3356"
   version="1.1"
   inkscape:version="0.48.4 r9939"
   sodipodi:docname="folder-saved-search.svg">
  <defs
     id="defs3358" />
  <sodipodi:namedview
     id="base"
     pagecolor="#ffffff"
     bordercolor="#666666"
     borderopacity="1.0"
     inkscape:pageopacity="0.0"
     inkscape:pageshadow="2"
     inkscape:zoom="1.4"
     inkscape:cx="-58.559964"
     inkscape:cy="124.5787"
     inkscape:document-units="px"
     inkscape:current-layer="layer2"
     showgrid="true"
     inkscape:window-width="1440"
     inkscape:window-height="850"
     inkscape:window-x="0"
     inkscape:window-y="0"
     inkscape:window-maximized="1">
    <inkscape:grid
       type="xygrid"
       id="grid3006"
       empspacing="5"
       visible="true"
       enabled="true"
       snapvisiblegridlinesonly="true" />
  </sodipodi:namedview>
  <metadata
     id="metadata3361">
    <rdf:RDF>
      <cc:Work
         rdf:about="">
        <dc:format>image/svg+xml</dc:format>
        <dc:type
           rdf:resource="http://purl.org/dc/dcmitype/StillImage" />
        <dc:title />
      </cc:Work>
    </rdf:RDF>
  </metadata>
  <g
     inkscape:label="Layer 1"
     inkscape:groupmode="layer"
     id="layer1"
     transform="translate(0,-1004.3622)">
    <path
       inkscape:connector-curvature="0"
       id="path4038-3"
       style="fill:#4d4d4d;fill-opacity:1;fill-rule:nonzero;stroke:none"
       d="m 43.914664,1042.8067 c 0,3.0684 -2.476595,5.5555 -5.531838,5.5555 l -28.765636,0 c -3.0552422,0 -5.5318529,-2.4871 -5.5318529,-5.5555 l 0,-28.889 c 0,-3.0684 2.4766107,-5.5555 5.5318529,-5.5555 l 28.765636,0 c 3.055243,0 5.531838,2.4871 5.531838,5.5555 l 0,28.889 z" />
    <rect
       style="fill:#ffffff;fill-opacity:1;stroke:none"
       id="rect4024-4"
       width="35.912926"
       height="24.375599"
       x="6.0435371"
       y="1012.1564" />
    <path
       style="fill:#4d4d4d;fill-opacity:1;stroke:#494949;stroke-width:0.08572822;stroke-linecap:butt;stroke-linejoin:miter;stroke-opacity:1"
       d="m 4.1030653,1041.114 39.7938687,0"
       id="path2988"
       inkscape:connector-curvature="0" />
    <path
       style="fill:#4d4d4d;fill-opacity:1;stroke:#494949;stroke-width:0.08572817;stroke-linecap:butt;stroke-linejoin:miter;stroke-opacity:1"
       d="m 4.1030875,1042.6094 39.7938255,0"
       id="path2988-1"
       inkscape:connector-curvature="0" />
    <rect
       y="1014.183"
       x="7.3237152"
       height="24.375599"
       width="33.35257"
       id="rect3022"
       style="fill:#f4d7d7;fill-opacity:1;stroke:none" />
    <rect
       style="fill:#e9afaf;fill-opacity:1;stroke:none"
       id="rect3024"
       width="29.76807"
       height="24.375599"
       x="9.1159658"
       y="1016.2097" />
    <rect
       y="1018.6772"
       x="10.514758"
       height="23.882109"
       width="25.90082"
       id="rect2999"
       style="fill:#ff8080;fill-opacity:1;stroke:none" />
  </g>
  <g
     inkscape:groupmode="layer"
     id="layer2"
     inkscape:label="Layer"
     transform="translate(0,-452)">
    <g
       id="g3018"
       transform="matrix(0.08484952,0,0,0.08723141,22.542914,450.68882)">
      <path
         style="fill:#ac9d93;fill-opacity:1;stroke:none"
         d="m -22.40887,216.54377 -56.23752,-79.03641 -139.83373,0 0,86.63614 197.59114,0 z"
         id="path4008-9-0"
         inkscape:connector-curvature="0" />
      <path
         inkscape:connector-curvature="0"
         style="fill:#ac9d93;fill-opacity:1;fill-rule:nonzero;stroke:none"
         d="m -218.53893,206.42134 0,258.21873 c 0,28.9071 29.31336,52.3804 65.47545,52.3804 l 340.4723,0 c 36.16209,0 65.47529,-23.4733 65.47529,-52.3804 l 0,-258.21873 -471.42304,0 z"
         id="path4003-9-1" />
    </g>
    <path
       sodipodi:nodetypes="cccccsssccccccssscs"
       style="opacity:0.8;fill:#ffffff;fill-opacity:1;stroke:none"
       inkscape:connector-curvature="0"
       d="m 31.632049,485.73182 -2.411903,-2.41162 c -0.444001,-0.44457 -1.067244,-0.6003 -1.637276,-0.46777 l -0.900658,-0.89952 c 0.722354,-0.98917 1.149086,-2.20806 1.149086,-3.5269 4.89e-4,-3.30655 -2.681283,-5.98707 -5.988632,-5.98707 -3.307337,0 -5.988163,2.68052 -5.988163,5.98707 0,3.30747 2.680877,5.98809 5.988224,5.98809 1.323114,0 2.545885,-0.4295 3.537101,-1.1562 l 0.896026,0.89524 c -0.135807,0.572 0.01925,1.19874 0.465658,1.64503 l 2.41237,2.41213 c 0.685057,0.68405 1.793169,0.68405 2.478227,0 0.684528,-0.68496 0.684528,-1.79434 -6e-5,-2.47848 z m -9.791256,-3.11511 c -2.289792,0 -3.949916,-1.90222 -3.949916,-4.19222 0,-2.28959 1.659758,-3.94999 3.949549,-3.94999 2.288915,0 4.19595,1.81958 4.19595,4.10814 6e-5,2.2896 -1.906668,4.03407 -4.195583,4.03407 z"
       id="path2987" />
  </g>
  <g
     inkscape:groupmode="layer"
     id="layer3"
     inkscape:label="Inserts"
     transform="translate(0,-208)" />
</svg>
