<?xml version="1.0" encoding="UTF-8" standalone="no"?>
<!-- Created with Inkscape (http://www.inkscape.org/) -->

<svg
   xmlns:dc="http://purl.org/dc/elements/1.1/"
   xmlns:cc="http://creativecommons.org/ns#"
   xmlns:rdf="http://www.w3.org/1999/02/22-rdf-syntax-ns#"
   xmlns:svg="http://www.w3.org/2000/svg"
   xmlns="http://www.w3.org/2000/svg"
   xmlns:sodipodi="http://sodipodi.sourceforge.net/DTD/sodipodi-0.dtd"
   xmlns:inkscape="http://www.inkscape.org/namespaces/inkscape"
   width="48"
   height="48"
   id="svg2"
   version="1.1"
   inkscape:version="0.48.4 r9939"
   sodipodi:docname="folder-ubuntu.svg"
   inkscape:export-filename="/media/Data/Main/Visuals/Icons/Numix/Desktop/repos/numix-wiki/Gjorgi/Numix-folders/48/New/folder-144.png"
   inkscape:export-xdpi="270"
   inkscape:export-ydpi="270">
  <defs
     id="defs4" />
  <sodipodi:namedview
     id="base"
     pagecolor="#ffffff"
     bordercolor="#666666"
     borderopacity="1.0"
     inkscape:pageopacity="0.0"
     inkscape:pageshadow="2"
     inkscape:zoom="9.848163"
     inkscape:cx="-2.5161143"
     inkscape:cy="24.234416"
     inkscape:document-units="px"
     inkscape:current-layer="layer1"
     showgrid="true"
     inkscape:window-width="1375"
     inkscape:window-height="876"
     inkscape:window-x="65"
     inkscape:window-y="24"
     inkscape:window-maximized="1"
     showguides="true"
     inkscape:guide-bbox="true">
    <inkscape:grid
       type="xygrid"
       id="grid2985"
       empspacing="5"
       visible="true"
       enabled="true"
       snapvisiblegridlinesonly="true" />
  </sodipodi:namedview>
  <metadata
     id="metadata7">
    <rdf:RDF>
      <cc:Work
         rdf:about="">
        <dc:format>image/svg+xml</dc:format>
        <dc:type
           rdf:resource="http://purl.org/dc/dcmitype/StillImage" />
        <dc:title />
      </cc:Work>
    </rdf:RDF>
  </metadata>
  <g
     inkscape:label="Layer 1"
     inkscape:groupmode="layer"
     id="layer1"
     transform="translate(0,-1004.3622)">
    <g
       id="g3010"
       transform="translate(-3.621086e-7,1004.3622)">
      <g
         transform="translate(0,-1004.3622)"
         id="layer1-2"
         inkscape:label="Layer 1">
        <path
           d="m 43.914668,1042.8044 c 0,3.0679 -2.476596,5.5547 -5.531839,5.5547 l -28.7656404,0 c -3.0552439,0 -5.5318551,-2.4868 -5.5318551,-5.5547 l 0,-28.8844 c 0,-3.0678 2.4766112,-5.5547 5.5318551,-5.5547 l 28.7656404,0 c 3.055243,0 5.531839,2.4869 5.531839,5.5547 l 0,28.8844 z"
           style="fill:#4d4d4d;fill-opacity:1;fill-rule:nonzero;stroke:none"
           id="path4038-3"
           inkscape:connector-curvature="0" />
        <rect
           y="1012.159"
           x="6.0435343"
           height="24.371679"
           width="35.912933"
           id="rect4024-4"
           style="fill:#ffffff;fill-opacity:1;stroke:none" />
        <path
           inkscape:connector-curvature="0"
           id="path2988"
           d="m 4.1030618,1041.112 39.7938762,0"
           style="fill:#4d4d4d;fill-opacity:1;stroke:#494949;stroke-width:0.08572134;stroke-linecap:butt;stroke-linejoin:miter;stroke-opacity:1" />
        <path
           inkscape:connector-curvature="0"
           id="path2988-1"
           d="m 4.103084,1042.6071 39.793833,0"
           style="fill:#4d4d4d;fill-opacity:1;stroke:#494949;stroke-width:0.08572129;stroke-linecap:butt;stroke-linejoin:miter;stroke-opacity:1" />
        <rect
           style="fill:#f4d7d7;fill-opacity:1;stroke:none"
           id="rect3022"
           width="33.352577"
           height="24.371679"
           x="7.3237123"
           y="1014.1852" />
        <rect
           y="1016.2117"
           x="9.115962"
           height="24.371679"
           width="29.768076"
           id="rect3024"
           style="fill:#e9afaf;fill-opacity:1;stroke:none" />
        <rect
           style="fill:#ff8080;fill-opacity:1;stroke:none"
           id="rect2999"
           width="25.900822"
           height="23.878269"
           x="10.514756"
           y="1018.6788" />
      </g>
      <g
         transform="translate(0,-452)"
         inkscape:label="Layer"
         id="layer2">
        <g
           transform="matrix(0.08484954,0,0,0.08721739,22.542914,450.69292)"
           id="g3018">
          <path
             inkscape:connector-curvature="0"
             id="path4008-9-0"
             d="m -22.40887,216.54377 -56.23752,-79.03641 -139.83373,0 0,86.63614 197.59114,0 z"
             style="fill:#ac9d93;fill-opacity:1;stroke:none" />
          <path
             id="path4003-9-1"
             d="m -218.53893,206.42134 0,258.21873 c 0,28.9071 29.31336,52.3804 65.47545,52.3804 l 340.4723,0 c 36.16209,0 65.47529,-23.4733 65.47529,-52.3804 l 0,-258.21873 -471.42304,0 z"
             style="fill:#ac9d93;fill-opacity:1;fill-rule:nonzero;stroke:none"
             inkscape:connector-curvature="0" />
        </g>
      </g>
      <g
         transform="translate(0,-208)"
         inkscape:label="Inserts"
         id="layer3" />
    </g>
    <path
       id="path3872-5"
       d="m 17.13892,1031.3264 c -0.899471,0 -1.628307,0.7186 -1.628307,1.6055 0,0.8865 0.728836,1.6052 1.628307,1.6052 0.899126,0 1.628048,-0.7187 1.628048,-1.6052 0,-0.8869 -0.728835,-1.6055 -1.628048,-1.6055 z m 11.625833,7.2965 c -0.778831,0.4433 -1.045411,1.4247 -0.595976,2.1922 0.449692,0.7679 1.445021,1.0309 2.223852,0.5877 0.778572,-0.4433 1.045325,-1.4247 0.595718,-2.1925 -0.44952,-0.7675 -1.445022,-1.0306 -2.223594,-0.5874 z m -8.089043,-5.6913 c 0,-1.5866 0.799654,-2.988 2.022497,-3.8365 l -1.190403,-1.966 c -1.424974,0.9386 -2.484926,2.3736 -2.925239,4.0543 0.514316,0.4133 0.842937,1.0428 0.842937,1.7484 0,0.7054 -0.328621,1.3349 -0.843024,1.7481 0.440228,1.6809 1.500267,3.1159 2.925241,4.0545 l 1.190488,-1.9662 c -1.222843,-0.8484 -2.022497,-2.2497 -2.022497,-3.8366 z m 4.756362,-4.6895 c 2.484839,0 4.523083,1.8784 4.736744,4.2736 l 2.320571,-0.033 c -0.114188,-1.7684 -0.897664,-3.3564 -2.101748,-4.5236 -0.619038,0.2306 -1.334191,0.1956 -1.952282,-0.1563 -0.618865,-0.3522 -1.007205,-0.9464 -1.113562,-1.5913 -0.601654,-0.1642 -1.23489,-0.2537 -1.889637,-0.2537 -1.126038,0 -2.189863,0.2606 -3.134854,0.7222 l 1.131201,1.9988 c 0.60897,-0.2794 1.287552,-0.4363 2.003567,-0.4363 z m 0,9.3792 c -0.716101,0 -1.394597,-0.157 -2.003653,-0.4364 l -1.131373,1.999 c 0.945077,0.4614 2.008987,0.7221 3.135026,0.7221 0.654747,0 1.287982,-0.09 1.889723,-0.2537 0.106357,-0.6448 0.494782,-1.2391 1.113734,-1.5916 0.618091,-0.3517 1.333245,-0.3867 1.952282,-0.156 1.203998,-1.1672 1.987475,-2.7553 2.10149,-4.5237 l -2.320572,-0.033 c -0.213487,2.3955 -2.251818,4.2736 -4.736657,4.2736 z m 3.332423,-10.381 c 0.778744,0.4434 1.774246,0.1804 2.223679,-0.5872 0.449693,-0.7679 0.183113,-1.7493 -0.595717,-2.1927 -0.778659,-0.4432 -1.774074,-0.1802 -2.223767,0.5877 -0.44952,0.7675 -0.182768,1.7491 0.595805,2.1922 z"
       style="line-height:normal;opacity:0.8;color:#000000;fill:#ffffff;fill-opacity:1"
       inkscape:connector-curvature="0" />
  </g>
</svg>
