<?xml version="1.0" encoding="UTF-8" standalone="no"?>
<svg
   xmlns:dc="http://purl.org/dc/elements/1.1/"
   xmlns:cc="http://creativecommons.org/ns#"
   xmlns:rdf="http://www.w3.org/1999/02/22-rdf-syntax-ns#"
   xmlns:svg="http://www.w3.org/2000/svg"
   xmlns="http://www.w3.org/2000/svg"
   xmlns:sodipodi="http://sodipodi.sourceforge.net/DTD/sodipodi-0.dtd"
   xmlns:inkscape="http://www.inkscape.org/namespaces/inkscape"
   width="48"
   viewBox="0 0 48 48"
   height="48"
   id="svg2"
   version="1.1"
   inkscape:version="0.48.4 r9939"
   sodipodi:docname="folder-copy.svg">
  <metadata
     id="metadata22">
    <rdf:RDF>
      <cc:Work
         rdf:about="">
        <dc:format>image/svg+xml</dc:format>
        <dc:type
           rdf:resource="http://purl.org/dc/dcmitype/StillImage" />
      </cc:Work>
    </rdf:RDF>
  </metadata>
  <defs
     id="defs20" />
  <sodipodi:namedview
     pagecolor="#ffffff"
     bordercolor="#666666"
     borderopacity="1"
     objecttolerance="10"
     gridtolerance="10"
     guidetolerance="10"
     inkscape:pageopacity="0"
     inkscape:pageshadow="2"
     inkscape:window-width="1440"
     inkscape:window-height="850"
     id="namedview18"
     showgrid="true"
     inkscape:zoom="8.2104488"
     inkscape:cx="1.5286348"
     inkscape:cy="21.929468"
     inkscape:window-x="0"
     inkscape:window-y="0"
     inkscape:window-maximized="1"
     inkscape:current-layer="svg2">
    <inkscape:grid
       type="xygrid"
       id="grid3018"
       empspacing="5"
       visible="true"
       enabled="true"
       snapvisiblegridlinesonly="true" />
  </sodipodi:namedview>
  <path
     sodipodi:nodetypes="csssssscc"
     inkscape:connector-curvature="0"
     id="path3020"
     d="m 3.7963509,9.7591393 22.2175171,0 c 0.584671,0 1.24513,0.6497637 1.234307,1.2992677 l -0.06496,3.897812 c -0.01195,0.719667 -0.5505,1.299271 -1.234305,1.299271 l -22.2175182,0 c -0.683806,0 -1.2433037,-0.579475 -1.2343064,-1.299271 l 0.064962,-5.1970797 z"
     style="fill:#e3dbdb;fill-opacity:1;stroke:none" />
  <path
     sodipodi:nodetypes="csscc"
     inkscape:connector-curvature="0"
     id="path3022"
     d="m 2.5620438,10.408774 c 0,-1.2992707 0,-1.9489057 1.1811538,-1.9489057 l 4.1340422,0 c 1.1811545,0 1.1811545,0.649635 1.1811545,1.9489057 z"
     style="fill:#e3dbdb;fill-opacity:1;stroke:none" />
  <rect
     ry="1.29927"
     rx="1.29927"
     y="14.306558"
     x="1.262774"
     height="16.240875"
     width="27.28467"
     id="rect3026"
     style="fill:#483737;fill-opacity:1;stroke:none" />
  <path
     style="fill:#c8b7b7;fill-opacity:1;stroke:none"
     d="m 21.98613,22.751839 22.217519,0 c 0.584669,0 1.24513,0.649766 1.234305,1.299271 l -0.06496,3.897811 c -0.01195,0.719665 -0.550502,1.299269 -1.234307,1.299269 l -22.217516,0 c -0.683807,0 -1.243305,-0.579473 -1.234307,-1.299269 l 0.06496,-5.197082 z"
     id="path3811"
     inkscape:connector-curvature="0"
     sodipodi:nodetypes="csssssscc" />
  <path
     style="fill:#c8b7b7;fill-opacity:1;stroke:none"
     d="m 20.751824,23.401475 c 0,-1.299269 0,-1.948905 1.181155,-1.948905 l 4.134041,0 c 1.181155,0 1.181155,0.649636 1.181155,1.948905 z"
     id="rect3760"
     inkscape:connector-curvature="0"
     sodipodi:nodetypes="csscc" />
  <path
     style="opacity:0.02999998;fill:#c8b7b7;fill-opacity:1;stroke:none"
     d="m 20.751824,25.350381 0,3.897809 24.68613,0 0,-3.897809 z"
     id="path3807"
     inkscape:connector-curvature="0"
     sodipodi:nodetypes="ccccc" />
  <rect
     style="fill:#6c5353;fill-opacity:1;stroke:none"
     id="rect2990"
     width="27.28467"
     height="16.240875"
     x="19.452557"
     y="27.299257"
     rx="1.29927"
     ry="1.29927" />
  <path
     style="opacity:0.05;fill:#c8b7b7;fill-opacity:1;stroke:none"
     d="m 27.248175,22.751839 0,0.649636 1.238366,0 15.713047,0 c 0.584671,0 1.238366,0.649635 1.238366,1.299271 l 0,-0.649636 c 0,-0.649635 -0.653695,-1.299271 -1.238366,-1.299271 l -15.713047,0 z"
     id="path3813"
     inkscape:connector-curvature="0"
     sodipodi:nodetypes="cccscsscc" />
  <path
     style="opacity:0.05;fill:#c8b7b7;fill-opacity:1;stroke:none"
     d="m 21.929289,21.45257 c -1.181154,0 -1.177465,0.649636 -1.177465,1.948905 l 0.02031,0 c 0.0347,-0.851412 0.201029,-1.299269 1.157162,-1.299269 l 4.141422,0 c 0.956133,0 1.122462,0.447857 1.157162,1.299269 l 0.02031,0 c 0,-1.299269 0.0036,-1.948905 -1.177463,-1.948905 l -4.141425,0 z"
     id="path3818"
     inkscape:connector-curvature="0" />
  <path
     style="opacity:0.1;fill:#c8b7b7;fill-opacity:1;stroke:none"
     d="m 20.751824,27.299285 c -0.719794,0 -1.29927,0.579475 -1.29927,1.299271 l 0,0.649634 c 0,-0.719794 0.579476,-1.299269 1.29927,-1.299269 l 24.68613,0 c 0.719796,0 1.299271,0.579475 1.299271,1.299269 l 0,-0.649634 c 0,-0.719796 -0.579475,-1.299271 -1.299271,-1.299271 l -24.68613,0 z"
     id="rect2991"
     inkscape:connector-curvature="0" />
</svg>
