<?xml version="1.0" encoding="UTF-8" standalone="no"?>
<!-- Created with Inkscape (http://www.inkscape.org/) -->

<svg
   xmlns:dc="http://purl.org/dc/elements/1.1/"
   xmlns:cc="http://creativecommons.org/ns#"
   xmlns:rdf="http://www.w3.org/1999/02/22-rdf-syntax-ns#"
   xmlns:svg="http://www.w3.org/2000/svg"
   xmlns="http://www.w3.org/2000/svg"
   xmlns:sodipodi="http://sodipodi.sourceforge.net/DTD/sodipodi-0.dtd"
   xmlns:inkscape="http://www.inkscape.org/namespaces/inkscape"
   width="48"
   height="48"
   id="svg3356"
   version="1.1"
   inkscape:version="0.48.4 r9939"
   sodipodi:docname="folder-video.svg">
  <defs
     id="defs3358" />
  <sodipodi:namedview
     id="base"
     pagecolor="#ffffff"
     bordercolor="#666666"
     borderopacity="1.0"
     inkscape:pageopacity="0.0"
     inkscape:pageshadow="2"
     inkscape:zoom="1.979899"
     inkscape:cx="-34.187064"
     inkscape:cy="124.5787"
     inkscape:document-units="px"
     inkscape:current-layer="layer2"
     showgrid="true"
     inkscape:window-width="1440"
     inkscape:window-height="850"
     inkscape:window-x="0"
     inkscape:window-y="0"
     inkscape:window-maximized="1">
    <inkscape:grid
       type="xygrid"
       id="grid3006"
       empspacing="5"
       visible="true"
       enabled="true"
       snapvisiblegridlinesonly="true" />
  </sodipodi:namedview>
  <metadata
     id="metadata3361">
    <rdf:RDF>
      <cc:Work
         rdf:about="">
        <dc:format>image/svg+xml</dc:format>
        <dc:type
           rdf:resource="http://purl.org/dc/dcmitype/StillImage" />
        <dc:title />
      </cc:Work>
    </rdf:RDF>
  </metadata>
  <g
     inkscape:label="Layer 1"
     inkscape:groupmode="layer"
     id="layer1"
     transform="translate(0,-1004.3622)">
    <path
       inkscape:connector-curvature="0"
       id="path4038-3"
       style="fill:#4d4d4d;fill-opacity:1;fill-rule:nonzero;stroke:none"
       d="m 43.914668,1042.8044 c 0,3.0679 -2.476596,5.5547 -5.531839,5.5547 l -28.7656404,0 c -3.0552439,0 -5.5318551,-2.4868 -5.5318551,-5.5547 l 0,-28.8844 c 0,-3.0678 2.4766112,-5.5547 5.5318551,-5.5547 l 28.7656404,0 c 3.055243,0 5.531839,2.4869 5.531839,5.5547 l 0,28.8844 z" />
    <rect
       style="fill:#ffffff;fill-opacity:1;stroke:none"
       id="rect4024-4"
       width="35.912933"
       height="24.371679"
       x="6.0435343"
       y="1012.159" />
    <path
       style="fill:#4d4d4d;fill-opacity:1;stroke:#494949;stroke-width:0.08572134;stroke-linecap:butt;stroke-linejoin:miter;stroke-opacity:1"
       d="m 4.1030618,1041.112 39.7938762,0"
       id="path2988"
       inkscape:connector-curvature="0" />
    <path
       style="fill:#4d4d4d;fill-opacity:1;stroke:#494949;stroke-width:0.08572129;stroke-linecap:butt;stroke-linejoin:miter;stroke-opacity:1"
       d="m 4.103084,1042.6071 39.793833,0"
       id="path2988-1"
       inkscape:connector-curvature="0" />
    <rect
       y="1014.1852"
       x="7.3237123"
       height="24.371679"
       width="33.352577"
       id="rect3022"
       style="fill:#f4d7d7;fill-opacity:1;stroke:none" />
    <rect
       style="fill:#e9afaf;fill-opacity:1;stroke:none"
       id="rect3024"
       width="29.768076"
       height="24.371679"
       x="9.115962"
       y="1016.2117" />
    <rect
       y="1018.6788"
       x="10.514756"
       height="23.878269"
       width="25.900822"
       id="rect2999"
       style="fill:#ff8080;fill-opacity:1;stroke:none" />
  </g>
  <g
     inkscape:groupmode="layer"
     id="layer2"
     inkscape:label="Layer"
     transform="translate(0,-452)">
    <g
       id="g3018"
       transform="matrix(0.08484954,0,0,0.08721739,22.542914,450.69292)">
      <path
         style="fill:#ac9d93;fill-opacity:1;stroke:none"
         d="m -22.40887,216.54377 -56.23752,-79.03641 -139.83373,0 0,86.63614 197.59114,0 z"
         id="path4008-9-0"
         inkscape:connector-curvature="0" />
      <path
         inkscape:connector-curvature="0"
         style="fill:#ac9d93;fill-opacity:1;fill-rule:nonzero;stroke:none"
         d="m -218.53893,206.42134 0,258.21873 c 0,28.9071 29.31336,52.3804 65.47545,52.3804 l 340.4723,0 c 36.16209,0 65.47529,-23.4733 65.47529,-52.3804 l 0,-258.21873 -471.42304,0 z"
         id="path4003-9-1" />
    </g>
    <path
       sodipodi:nodetypes="ssssssssscccccccccccccccccccccccccccccccccc"
       inkscape:connector-curvature="0"
       id="rect3007"
       d="m 17.890877,472.38995 c -1.128151,0 -2.036374,0.90771 -2.036374,2.03522 l 0,12.21134 c 0,1.12751 0.908223,2.03522 2.036374,2.03522 l 12.218247,0 c 1.128152,0 2.036375,-0.90771 2.036375,-2.03522 l 0,-12.21134 c 0,-1.12751 -0.908223,-2.03522 -2.036375,-2.03522 z m 0,2.03522 2.036374,0 0,2.03523 -2.036374,0 z m 10.181872,0 2.036375,0 0,2.03523 -2.036375,0 z m -6.109123,2.03523 5.090937,4.07045 -5.090937,4.07044 z m -4.072749,3.05283 2.036374,0 0,2.03522 -2.036374,0 z m 10.181872,0 2.036375,0 0,2.03522 -2.036375,0 z m -10.181872,5.08806 2.036374,0 0,2.03522 -2.036374,0 z m 10.181872,0 2.036375,0 0,2.03522 -2.036375,0 z"
       style="opacity:0.8;fill:#ffffff;fill-opacity:1" />
  </g>
  <g
     inkscape:groupmode="layer"
     id="layer3"
     inkscape:label="Inserts"
     transform="translate(0,-208)" />
</svg>
