<?xml version="1.0" encoding="UTF-8" standalone="no"?>
<!-- Created with Inkscape (http://www.inkscape.org/) -->

<svg
   xmlns:dc="http://purl.org/dc/elements/1.1/"
   xmlns:cc="http://creativecommons.org/ns#"
   xmlns:rdf="http://www.w3.org/1999/02/22-rdf-syntax-ns#"
   xmlns:svg="http://www.w3.org/2000/svg"
   xmlns="http://www.w3.org/2000/svg"
   xmlns:sodipodi="http://sodipodi.sourceforge.net/DTD/sodipodi-0.dtd"
   xmlns:inkscape="http://www.inkscape.org/namespaces/inkscape"
   width="48"
   height="48"
   id="svg2"
   version="1.1"
   inkscape:version="0.48.4 r9939"
   sodipodi:docname="folder-open.svg"
   inkscape:export-filename="/media/Data/Main/Visuals/Icons/Numix/Desktop/repos/numix-wiki/Gjorgi/Numix-folders/48/New/folder-144.png"
   inkscape:export-xdpi="270"
   inkscape:export-ydpi="270">
  <defs
     id="defs4" />
  <sodipodi:namedview
     id="base"
     pagecolor="#f9f9f9"
     bordercolor="#666666"
     borderopacity="1.0"
     inkscape:pageopacity="1"
     inkscape:pageshadow="2"
     inkscape:zoom="9.4473152"
     inkscape:cx="17.601527"
     inkscape:cy="33.883033"
     inkscape:document-units="px"
     inkscape:current-layer="layer1"
     showgrid="true"
     inkscape:window-width="1440"
     inkscape:window-height="850"
     inkscape:window-x="0"
     inkscape:window-y="0"
     inkscape:window-maximized="1"
     showguides="true"
     inkscape:guide-bbox="true">
    <inkscape:grid
       type="xygrid"
       id="grid2985"
       empspacing="5"
       visible="true"
       enabled="true"
       snapvisiblegridlinesonly="true" />
  </sodipodi:namedview>
  <metadata
     id="metadata7">
    <rdf:RDF>
      <cc:Work
         rdf:about="">
        <dc:format>image/svg+xml</dc:format>
        <dc:type
           rdf:resource="http://purl.org/dc/dcmitype/StillImage" />
        <dc:title />
      </cc:Work>
    </rdf:RDF>
  </metadata>
  <g
     inkscape:label="Layer 1"
     inkscape:groupmode="layer"
     id="layer1"
     transform="translate(0,-1004.3622)">
    <rect
       style="fill:#483e37;fill-opacity:1;stroke:none"
       id="rect2993"
       width="32.380955"
       height="22.857147"
       x="7.8095236"
       y="1016.3622"
       rx="0.9523809"
       ry="1.1428772" />
    <rect
       style="fill:#ac9d93;fill-opacity:1;stroke:none"
       id="rect2990"
       width="40"
       height="22.857147"
       x="4"
       y="1025.505"
       rx="0.9523809"
       ry="1.1428772" />
    <path
       style="opacity:0.1;fill:#ffffff;fill-opacity:1;stroke:none"
       d="M 5.9047619,1025.5051 C 4.8495238,1025.5051 4,1026.5245 4,1027.7908 l 0,1.1429 c 0,-1.2663 0.8495238,-2.2858 1.9047619,-2.2858 l 36.1904751,0 c 1.055238,0 1.904762,1.0195 1.904762,2.2858 l 0,-1.1429 c 0,-1.2663 -0.849524,-2.2857 -1.904762,-2.2857 l -36.1904751,0 z"
       id="rect2991"
       inkscape:connector-curvature="0" />
    <path
       style="opacity:0.05;fill:#000000;fill-opacity:1;stroke:none"
       d="m 9.7142858,1016.3622 c -1.0552381,0 -1.904762,1.0194 -1.904762,2.2857 l 0,1.1429 c 0,-1.2663 0.8495239,-2.2857 1.904762,-2.2857 l 28.5714272,0 c 1.055238,0 1.904762,1.0194 1.904762,2.2857 l 0,-1.1429 c 0,-1.2663 -0.849524,-2.2857 -1.904762,-2.2857 l -28.5714272,0 z"
       id="rect3763"
       inkscape:connector-curvature="0" />
  </g>
</svg>
