<?xml version="1.0" encoding="UTF-8" standalone="no"?>
<!-- Created with Inkscape (http://www.inkscape.org/) -->

<svg
   xmlns:dc="http://purl.org/dc/elements/1.1/"
   xmlns:cc="http://creativecommons.org/ns#"
   xmlns:rdf="http://www.w3.org/1999/02/22-rdf-syntax-ns#"
   xmlns:svg="http://www.w3.org/2000/svg"
   xmlns="http://www.w3.org/2000/svg"
   xmlns:sodipodi="http://sodipodi.sourceforge.net/DTD/sodipodi-0.dtd"
   xmlns:inkscape="http://www.inkscape.org/namespaces/inkscape"
   width="48"
   height="48"
   id="svg2"
   version="1.1"
   inkscape:version="0.48.4 r9939"
   sodipodi:docname="network.svg"
   inkscape:export-filename="/media/Data/Main/Visuals/Icons/Numix/Desktop/repos/numix-wiki/Gjorgi/Numix-folders/48/New/folder-144.png"
   inkscape:export-xdpi="270"
   inkscape:export-ydpi="270">
  <defs
     id="defs4" />
  <sodipodi:namedview
     id="base"
     pagecolor="#ffffff"
     bordercolor="#666666"
     borderopacity="1.0"
     inkscape:pageopacity="0.0"
     inkscape:pageshadow="2"
     inkscape:zoom="6.963703"
     inkscape:cx="-0.67156771"
     inkscape:cy="19.933531"
     inkscape:document-units="px"
     inkscape:current-layer="layer1"
     showgrid="false"
     inkscape:window-width="1440"
     inkscape:window-height="834"
     inkscape:window-x="0"
     inkscape:window-y="27"
     inkscape:window-maximized="1"
     showguides="true"
     inkscape:guide-bbox="true">
    <inkscape:grid
       type="xygrid"
       id="grid2985"
       empspacing="5"
       visible="true"
       enabled="true"
       snapvisiblegridlinesonly="true" />
  </sodipodi:namedview>
  <metadata
     id="metadata7">
    <rdf:RDF>
      <cc:Work
         rdf:about="">
        <dc:format>image/svg+xml</dc:format>
        <dc:type
           rdf:resource="http://purl.org/dc/dcmitype/StillImage" />
        <dc:title />
      </cc:Work>
    </rdf:RDF>
  </metadata>
  <g
     inkscape:label="Layer 1"
     inkscape:groupmode="layer"
     id="layer1"
     transform="translate(0,-1004.3622)">
    <path
       style="fill:#4d4d4d;fill-opacity:1;stroke:none"
       d="m 7.8524392,1019.0162 32.2951198,0 c 0.84987,0 1.794173,0.9615 1.794173,1.9229 l 0,3.8459 c 0,1.0654 -0.800202,1.923 -1.794173,1.923 l -32.2951198,0 c -0.9939719,0 -1.7941731,-0.8576 -1.7941731,-1.923 l 0,-5.7688 z"
       id="path3811"
       inkscape:connector-curvature="0" />
    <path
       style="fill:#4d4d4d;fill-opacity:1;stroke:none"
       d="m 6.0582661,1019.9777 c 0,-1.923 0,-2.8844 1.7169122,-2.8844 l 6.0091927,0 c 1.716913,0 1.716913,0.9614 1.716913,2.8844 z"
       id="rect3760"
       inkscape:connector-curvature="0"
       sodipodi:nodetypes="csscc" />
    <path
       style="opacity:0.02999998000000000;fill:#4d4d4d;fill-opacity:1;stroke:none"
       d="m 6.0582661,1022.8621 0,4.8074 35.8834659,0 0,-4.8074 z"
       id="path3807"
       inkscape:connector-curvature="0" />
    <rect
       style="fill:#ac9d93;fill-opacity:1;stroke:none"
       id="rect2990"
       width="39.660675"
       height="24.036808"
       x="4.1696625"
       y="1024.7848"
       rx="1.8886034"
       ry="1.9229447" />
    <path
       style="opacity:0.05000000000000000;fill:#4d4d4d;fill-opacity:1;stroke:none"
       d="m 15.501284,1019.0162 0,0.9615 1.800075,0 22.840298,0 c 0.849872,0 1.800075,0.9614 1.800075,1.923 l 0,-0.9616 c 0,-0.9614 -0.950203,-1.9229 -1.800075,-1.9229 l -22.840298,0 z"
       id="path3813"
       inkscape:connector-curvature="0"
       sodipodi:nodetypes="cccscsscc" />
    <path
       style="opacity:0.05;fill:#483737;fill-opacity:1;stroke:none"
       d="m 7.7698129,1017.0933 c -1.7169123,0 -1.7115468,0.9614 -1.7115468,2.8844 l 0.02951,0 c 0.050443,-1.26 0.292214,-1.923 1.6820374,-1.923 l 6.0199225,0 c 1.389823,0 1.631595,0.663 1.682038,1.923 l 0.02951,0 c 0,-1.923 0.0054,-2.8844 -1.711547,-2.8844 l -6.019923,0 z"
       id="path3818"
       inkscape:connector-curvature="0" />
    <path
       style="opacity:0.1;fill:#483737;fill-opacity:1;stroke:none"
       d="m 6.0582661,1024.785 c -1.0462865,0 -1.8886036,0.8577 -1.8886036,1.923 l 0,0.9615 c 0,-1.0653 0.8423171,-1.923 1.8886036,-1.923 l 35.8834659,0 c 1.046285,0 1.888603,0.8577 1.888603,1.923 l 0,-0.9615 c 0,-1.0653 -0.842318,-1.923 -1.888603,-1.923 l -35.8834659,0 z"
       id="rect2991"
       inkscape:connector-curvature="0" />
    <path
       id="path4139"
       d="m 23.055968,1029.5924 c -3.222219,0 -6.610384,3.45 -6.610384,7.6919 0,4.2418 3.38817,7.6917 6.610384,7.6917 5.110274,0 8.498444,-3.4499 8.498444,-7.6917 0,-4.2419 -3.388164,-7.6919 -7.554413,-7.6919 z m 1.557826,1.0819 c 0.704142,0.067 1.386384,0.23 2.006643,0.5048 -0.04774,0.06 -0.08465,0.1139 -0.118037,0.2163 -0.190777,0.5826 -0.475505,0.3048 -0.141647,1.0333 0.333861,0.7283 0.612837,0.9166 0.708226,0.5767 0.0954,-0.3396 -0.239909,-0.8191 0.141646,-0.6248 0.381557,0.1942 0.663888,-0.053 0.37772,0.3848 -0.286167,0.4371 -0.279935,0.6739 -0.613795,0.5768 -0.333861,-0.097 -0.327149,0.576 -0.661013,0.6731 -0.333858,0.097 -0.448542,-0.1467 -0.448542,0.096 0,0.2426 0.189339,0.02 0.141647,0.4086 -0.01454,0.1189 -0.0103,0.1401 -0.02361,0.1923 -0.313388,-0.091 -0.45316,-0.1421 -0.684617,-0.049 -0.238474,0.097 -0.519367,0.7212 -0.519367,0.7212 0.2979,0.3033 0.436115,0.5217 0.542973,0.6251 -0.06668,0.033 -0.146889,0.048 -0.212467,0.096 -0.476946,0.34 -0.848435,0.404 -0.991516,0.8893 -0.143087,0.486 -0.09442,0.041 -0.09442,0.625 0,0.5828 -0.144526,0.1868 0.141646,0.7213 0.286165,0.5341 0.988159,0.7901 1.32202,1.0815 0.333863,0.2912 0.677908,-0.6338 1.345631,0.2404 0.667721,0.874 0.710625,0.5239 0.472151,1.0097 -0.238474,0.4856 -0.471193,0.647 -0.56658,0.8412 -0.0954,0.1942 0.185504,0.8639 0.519366,1.0094 0.007,0 0.01613,0 0.02361,0 -0.01777,0.041 -0.0296,0.079 -0.04723,0.1206 -0.432333,0.1998 -0.962312,0.4757 -1.062341,0.5046 -0.236076,0.069 -1.069083,0.2127 -1.676136,0.3845 -0.07589,0.022 -0.135616,0.022 -0.165251,0.025 0.07547,-0.084 0.672165,-0.4014 0.967907,-0.5768 0.404703,-0.2408 -0.02361,-0.2164 -0.02361,-0.2164 0,0 -0.644149,-0.073 -1.959424,-0.073 -0.657641,0 -0.942616,0.03 -1.085948,0.073 -0.07166,0.022 -0.106868,0.044 -0.141646,0.072 -0.03478,0.03 -0.05902,0.062 -0.118037,0.096 -0.236077,0.1373 0.138268,0.2815 -0.165251,0.3844 -0.227643,0.077 -0.254096,0 -0.448543,-0.1449 0.138706,-0.1405 0.330113,-0.3096 0.56658,-0.601 0.429251,-0.5287 0.565144,-0.4325 0.708226,-0.9132 0.143087,-0.481 -1.203982,-0.3364 -1.203982,-0.625 0,-0.2884 -0.231763,-0.4806 -0.661011,-0.673 -0.429251,-0.1924 -0.136859,-0.2886 -0.613797,-0.4328 -0.476944,-0.1436 -1.013686,0.7211 -1.15677,0.4328 -0.143086,-0.2886 0.448543,-0.2886 0.448543,-0.6248 0,-0.3285 -0.68024,0.2478 -0.802657,-0.1683 -0.0032,-0.015 -0.02122,-0.015 -0.02361,-0.025 -0.01198,-0.06 -0.0043,-0.096 0,-0.1437 0.03001,-0.3457 0.423258,-0.4806 0.59019,-0.8174 0.190779,-0.3841 0.09203,0.2888 0.330505,0.6253 0.238472,0.3364 0.143087,-0.4327 0,-0.8654 -0.143086,-0.4328 0.09108,-0.4326 0.424936,-1.0096 0.333862,-0.5769 0.330506,-0.9133 0.330506,-1.3461 0,-0.4326 0.231282,-0.4804 0.708225,-0.9134 0.2186,-0.198 0.390104,-0.3709 0.519366,-0.5287 0.03124,-0.015 0.06281,-0.015 0.09443,-0.025 0.505877,-0.2061 0.718343,-0.5151 1.156768,-1.4424 0.438429,-0.9269 -0.171995,-0.062 -0.306898,-0.096 -0.134902,-0.033 -0.330505,-0.278 -0.802657,-0.5528 -0.09738,-0.057 -0.184277,-0.084 -0.259682,-0.095 l 0.873481,-1.4662 c 0.279792,-0.077 0.580191,-0.1296 0.873478,-0.1684 0.107307,0.6217 0.04723,1.202 0.04723,1.202 0,0 -0.165252,0.1991 -0.165252,0.3365 0,0.1374 0.903831,-1.1332 1.038731,-1.2019 0.134904,-0.069 0.475522,0.364 0.542974,-0.2884 0.0038,-0.037 -0.0043,-0.038 0,-0.072 z m 1.274807,2.5958 c -0.04843,-0.015 -0.105639,-10e-5 -0.165252,0.025 0,0.17 -0.06462,0.2937 -0.09442,0.3605 -0.01774,-0.031 -0.07083,-0.072 -0.07083,-0.072 -0.07153,0.1343 -0.225832,0.2527 -0.07083,0.2163 0.155007,-0.036 0.272565,0.062 0.165254,-0.072 -0.02063,-0.025 -0.01091,-0.014 -0.02361,-0.025 0.02011,0.015 0.05818,0.025 0.141645,0.025 0.09391,0 0.14439,0 0.212469,0 -0.115143,0.087 -0.240734,0.1235 -0.07083,0.1683 0.226549,0.06 0.330506,0.073 0.330506,0.025 0,-0.048 -0.07081,-0.2164 -0.07081,-0.2164 0.04426,-0.018 0.08537,-0.041 0.04723,-0.1204 -0.07154,-0.145 -0.185187,-0.2896 -0.330508,-0.3123 z m 3.611955,0.4085 c 0.11796,0.1866 0.230957,0.3784 0.330506,0.577 -0.06566,0.3878 -0.232436,0.649 0.04723,0.649 0.07819,0 0.147935,-0.017 0.212468,-0.025 0.0088,0.023 0.01515,0.049 0.02361,0.072 -0.476944,0 -0.70583,0.1452 -0.944301,0.096 -0.238473,-0.049 -0.9014,-0.092 -0.472151,-0.5287 0.250879,-0.2556 0.56427,-0.6615 0.802656,-0.8415 z m -2.974551,0.8896 c 0.04396,0.014 0.08228,0.06 0.118037,0.1434 0.143086,0.34 0.379638,0.6246 0.188861,0.6732 -0.19078,0.048 -0.283293,0.096 -0.283293,0.096 0,0 0.660532,0.4372 0.708227,-0.048 0.0477,-0.4859 -0.18886,-0.7695 -0.18886,-0.7695 0,0 0.32955,0.3347 0.424937,0.529 0.09539,0.1942 0.09203,0 0.330506,0.2405 0.23847,0.2425 0.185504,-0.9651 0.519366,-0.6251 0.333862,0.3399 0.543932,0.3341 0.448542,0.5768 -0.0954,0.2428 0.613799,-0.2933 0.613799,0.1923 0,0.4682 0.293238,0.6581 -0.283292,0.8894 -0.21828,-0.015 -0.391048,-0.053 -0.424937,-0.1204 -0.09539,-0.1941 -0.637403,-0.048 -0.637403,-0.048 -1.426762,-0.3631 -2.04617,-0.4782 -2.455185,-0.4085 0.0078,-0.015 0.01525,-0.015 0.02361,-0.025 0.208663,-0.3827 0.601261,-0.914 0.47215,-1.1058 0.181845,-0.1066 0.324391,-0.2235 0.424936,-0.1924 z m 4.013284,2.4276 c 0.0043,0.097 0,0.1898 0,0.2885 0,0.2733 -0.0161,0.5525 -0.04723,0.8171 -0.4291,-0.3886 -1.038732,-0.3844 -1.038732,-0.3844 0,0 0.372447,-0.4308 0.897087,-0.6251 0.06559,-0.025 0.135857,-0.057 0.188861,-0.096 z"
       style="line-height:normal;opacity:0.70192309;color:#000000;fill:#ffffff;fill-opacity:1"
       inkscape:connector-curvature="0" />
  </g>
</svg>
