<?xml version="1.0" encoding="UTF-8" standalone="no"?>
<svg
   xmlns:dc="http://purl.org/dc/elements/1.1/"
   xmlns:cc="http://creativecommons.org/ns#"
   xmlns:rdf="http://www.w3.org/1999/02/22-rdf-syntax-ns#"
   xmlns:svg="http://www.w3.org/2000/svg"
   xmlns="http://www.w3.org/2000/svg"
   xmlns:sodipodi="http://sodipodi.sourceforge.net/DTD/sodipodi-0.dtd"
   xmlns:inkscape="http://www.inkscape.org/namespaces/inkscape"
   viewBox="0 0 254 36"
   id="svg2"
   version="1.1"
   inkscape:version="0.48.4 r9939"
   width="100%"
   height="100%"
   sodipodi:docname="process-working.svg">
  <metadata
     id="metadata138">
    <rdf:RDF>
      <cc:Work
         rdf:about="">
        <dc:format>image/svg+xml</dc:format>
        <dc:type
           rdf:resource="http://purl.org/dc/dcmitype/StillImage" />
      </cc:Work>
    </rdf:RDF>
  </metadata>
  <defs
     id="defs136" />
  <sodipodi:namedview
     pagecolor="#ffffff"
     bordercolor="#666666"
     borderopacity="1"
     objecttolerance="10"
     gridtolerance="10"
     guidetolerance="10"
     inkscape:pageopacity="0"
     inkscape:pageshadow="2"
     inkscape:window-width="640"
     inkscape:window-height="480"
     id="namedview134"
     showgrid="false"
     inkscape:zoom="2.8616351"
     inkscape:cx="48.48996"
     inkscape:cy="18"
     inkscape:window-x="65"
     inkscape:window-y="24"
     inkscape:window-maximized="0"
     inkscape:current-layer="svg2" />
  <g
     style="fill:#888;fill-opacity:.078"
     id="g4">
    <g
       transform="matrix(1.25526 0 0 1.25526 -4.10757 -42.5273)"
       id="g6">
      <path
         d="M 22,11.5625 C 22,13.184836 20.684836,14.5 19.0625,14.5 17.440164,14.5 16.125,13.184836 16.125,11.5625 16.125,9.9401635 17.440164,8.625 19.0625,8.625 20.684836,8.625 22,9.9401635 22,11.5625 z"
         transform="matrix(1.15957 0 0 1.15957 -4.33876 27.43617)"
         id="path8" />
      <path
         d="M 22,11.5625 C 22,13.184836 20.684836,14.5 19.0625,14.5 17.440164,14.5 16.125,13.184836 16.125,11.5625 16.125,9.9401635 17.440164,8.625 19.0625,8.625 20.684836,8.625 22,9.9401635 22,11.5625 z"
         transform="matrix(1.15957 0 0 1.15957 -4.33876 42.18617)"
         id="path10" />
    </g>
    <g
       transform="matrix(.62763 1.08709 -1.08709 .62763 59.46088 -31.57651)"
       id="g12">
      <path
         d="M 22,11.5625 C 22,13.184836 20.684836,14.5 19.0625,14.5 17.440164,14.5 16.125,13.184836 16.125,11.5625 16.125,9.9401635 17.440164,8.625 19.0625,8.625 20.684836,8.625 22,9.9401635 22,11.5625 z"
         transform="matrix(1.15957 0 0 1.15957 -4.33876 27.43617)"
         id="path14" />
      <path
         d="M 22,11.5625 C 22,13.184836 20.684836,14.5 19.0625,14.5 17.440164,14.5 16.125,13.184836 16.125,11.5625 16.125,9.9401635 17.440164,8.625 19.0625,8.625 20.684836,8.625 22,9.9401635 22,11.5625 z"
         transform="matrix(1.15957 0 0 1.15957 -4.33876 42.18617)"
         id="path16" />
    </g>
    <g
       transform="matrix(-.62763 1.08709 -1.08709 -.62763 81.76145 28.95079)"
       id="g18">
      <path
         d="M 22,11.5625 C 22,13.184836 20.684836,14.5 19.0625,14.5 17.440164,14.5 16.125,13.184836 16.125,11.5625 16.125,9.9401635 17.440164,8.625 19.0625,8.625 20.684836,8.625 22,9.9401635 22,11.5625 z"
         transform="matrix(1.15957 0 0 1.15957 -4.33876 27.43617)"
         id="path20" />
      <path
         d="M 22,11.5625 C 22,13.184836 20.684836,14.5 19.0625,14.5 17.440164,14.5 16.125,13.184836 16.125,11.5625 16.125,9.9401635 17.440164,8.625 19.0625,8.625 20.684836,8.625 22,9.9401635 22,11.5625 z"
         transform="matrix(1.15957 0 0 1.15957 -4.33876 42.18617)"
         id="path22" />
    </g>
  </g>
  <g
     transform="translate(.57137 -32.97083)"
     id="g24"
     style="fill:#ff5555">
    <path
       style="fill:#ff5555;fill-opacity:0.78400000000000003"
       d="M 22,11.5625 C 22,13.184836 20.684836,14.5 19.0625,14.5 17.440164,14.5 16.125,13.184836 16.125,11.5625 16.125,9.9401635 17.440164,8.625 19.0625,8.625 20.684836,8.625 22,9.9401635 22,11.5625 z"
       transform="matrix(1.45557 0 0 1.45557 26.14377 24.88319)"
       id="path26" />
  </g>
  <g
     style="fill:#888;fill-opacity:.078"
     transform="translate(.57137 -32.97083)"
     id="g28">
    <path
       d="M 22,11.5625 C 22,13.184836 20.684836,14.5 19.0625,14.5 17.440164,14.5 16.125,13.184836 16.125,11.5625 16.125,9.9401635 17.440164,8.625 19.0625,8.625 20.684836,8.625 22,9.9401635 22,11.5625 z"
       transform="matrix(1.45557 0 0 1.45557 26.14377 43.39834)"
       id="path30" />
    <path
       d="M 22,11.5625 C 22,13.184836 20.684836,14.5 19.0625,14.5 17.440164,14.5 16.125,13.184836 16.125,11.5625 16.125,9.9401635 17.440164,8.625 19.0625,8.625 20.684836,8.625 22,9.9401635 22,11.5625 z"
       transform="matrix(.72779 1.26056 -1.26056 .72779 62.60975 13.89752)"
       id="path32" />
    <path
       d="M 22,11.5625 C 22,13.184836 20.684836,14.5 19.0625,14.5 17.440164,14.5 16.125,13.184836 16.125,11.5625 16.125,9.9401635 17.440164,8.625 19.0625,8.625 20.684836,8.625 22,9.9401635 22,11.5625 z"
       transform="matrix(.72779 1.26056 -1.26056 .72779 46.57516 23.1551)"
       id="path34" />
    <path
       d="M 22,11.5625 C 22,13.184836 20.684836,14.5 19.0625,14.5 17.440164,14.5 16.125,13.184836 16.125,11.5625 16.125,9.9401635 17.440164,8.625 19.0625,8.625 20.684836,8.625 22,9.9401635 22,11.5625 z"
       transform="matrix(-.72779 1.26056 -1.26056 -.72779 90.35661 39.98516)"
       id="path36" />
  </g>
  <g
     transform="translate(.57137 -32.97083)"
     id="g38"
     style="fill:#ff8080">
    <path
       style="fill:#ff8080;fill-opacity:0.39200000000000002"
       d="M 22,11.5625 C 22,13.184836 20.684836,14.5 19.0625,14.5 17.440164,14.5 16.125,13.184836 16.125,11.5625 16.125,9.9401635 17.440164,8.625 19.0625,8.625 20.684836,8.625 22,9.9401635 22,11.5625 z"
       transform="matrix(-.72779 1.26056 -1.26056 -.72779 74.32202 30.72758)"
       id="path40" />
  </g>
  <g
     transform="translate(2.19214 -32.97083)"
     id="g42"
     style="fill:#ff5555">
    <path
       style="fill:#ff5555;fill-opacity:0.39200000000000002"
       d="M 22,11.5625 C 22,13.184836 20.684836,14.5 19.0625,14.5 17.440164,14.5 16.125,13.184836 16.125,11.5625 16.125,9.9401635 17.440164,8.625 19.0625,8.625 20.684836,8.625 22,9.9401635 22,11.5625 z"
       transform="matrix(1.45557 0 0 1.45557 60.792 24.88319)"
       id="path44" />
    <path
       style="fill:#ff5555;fill-opacity:0.07800000000000000"
       d="M 22,11.5625 C 22,13.184836 20.684836,14.5 19.0625,14.5 17.440164,14.5 16.125,13.184836 16.125,11.5625 16.125,9.9401635 17.440164,8.625 19.0625,8.625 20.684836,8.625 22,9.9401635 22,11.5625 z"
       transform="matrix(1.45557 0 0 1.45557 60.792 43.39834)"
       id="path46" />
    <path
       style="fill:#ff5555;fill-opacity:0.78400000000000003"
       d="M 22,11.5625 C 22,13.184836 20.684836,14.5 19.0625,14.5 17.440164,14.5 16.125,13.184836 16.125,11.5625 16.125,9.9401635 17.440164,8.625 19.0625,8.625 20.684836,8.625 22,9.9401635 22,11.5625 z"
       transform="matrix(.72779 1.26056 -1.26056 .72779 97.25799 13.89752)"
       id="path48" />
  </g>
  <g
     style="fill:#888;fill-opacity:.078"
     id="g50">
    <g
       transform="translate(2.19214 -32.97083)"
       id="g52">
      <path
         d="M 22,11.5625 C 22,13.184836 20.684836,14.5 19.0625,14.5 17.440164,14.5 16.125,13.184836 16.125,11.5625 16.125,9.9401635 17.440164,8.625 19.0625,8.625 20.684836,8.625 22,9.9401635 22,11.5625 z"
         transform="matrix(.72779 1.26056 -1.26056 .72779 81.22339 23.1551)"
         id="path54" />
      <path
         d="M 22,11.5625 C 22,13.184836 20.684836,14.5 19.0625,14.5 17.440164,14.5 16.125,13.184836 16.125,11.5625 16.125,9.9401635 17.440164,8.625 19.0625,8.625 20.684836,8.625 22,9.9401635 22,11.5625 z"
         transform="matrix(-.72779 1.26056 -1.26056 -.72779 125.00484 39.98516)"
         id="path56" />
      <path
         d="M 22,11.5625 C 22,13.184836 20.684836,14.5 19.0625,14.5 17.440164,14.5 16.125,13.184836 16.125,11.5625 16.125,9.9401635 17.440164,8.625 19.0625,8.625 20.684836,8.625 22,9.9401635 22,11.5625 z"
         transform="matrix(-.72779 1.26056 -1.26056 -.72779 108.97025 30.72758)"
         id="path58" />
    </g>
    <g
       transform="translate(2.39869 -32.97083)"
       id="g60">
      <path
         d="M 22,11.5625 C 22,13.184836 20.684836,14.5 19.0625,14.5 17.440164,14.5 16.125,13.184836 16.125,11.5625 16.125,9.9401635 17.440164,8.625 19.0625,8.625 20.684836,8.625 22,9.9401635 22,11.5625 z"
         transform="matrix(1.45557 0 0 1.45557 96.85445 24.88319)"
         id="path62" />
      <path
         d="M 22,11.5625 C 22,13.184836 20.684836,14.5 19.0625,14.5 17.440164,14.5 16.125,13.184836 16.125,11.5625 16.125,9.9401635 17.440164,8.625 19.0625,8.625 20.684836,8.625 22,9.9401635 22,11.5625 z"
         transform="matrix(1.45557 0 0 1.45557 96.85445 43.39834)"
         id="path64" />
    </g>
  </g>
  <g
     transform="translate(2.39869 -32.97083)"
     id="g66"
     style="fill:#ff5555">
    <path
       style="fill:#ff5555;fill-opacity:0.39200000000000002"
       d="M 22,11.5625 C 22,13.184836 20.684836,14.5 19.0625,14.5 17.440164,14.5 16.125,13.184836 16.125,11.5625 16.125,9.9401635 17.440164,8.625 19.0625,8.625 20.684836,8.625 22,9.9401635 22,11.5625 z"
       transform="matrix(.72779 1.26056 -1.26056 .72779 133.32043 13.89752)"
       id="path68" />
    <path
       style="fill:#ff5555;fill-opacity:0.07800000000000000"
       d="M 22,11.5625 C 22,13.184836 20.684836,14.5 19.0625,14.5 17.440164,14.5 16.125,13.184836 16.125,11.5625 16.125,9.9401635 17.440164,8.625 19.0625,8.625 20.684836,8.625 22,9.9401635 22,11.5625 z"
       transform="matrix(.72779 1.26056 -1.26056 .72779 117.28584 23.1551)"
       id="path70" />
    <path
       style="fill:#ff5555;fill-opacity:0.78400000000000003"
       d="M 22,11.5625 C 22,13.184836 20.684836,14.5 19.0625,14.5 17.440164,14.5 16.125,13.184836 16.125,11.5625 16.125,9.9401635 17.440164,8.625 19.0625,8.625 20.684836,8.625 22,9.9401635 22,11.5625 z"
       transform="matrix(-.72779 1.26056 -1.26056 -.72779 161.06729 39.98516)"
       id="path72" />
    <path
       style="fill:#ff5555;fill-opacity:0.07800000000000000"
       d="M 22,11.5625 C 22,13.184836 20.684836,14.5 19.0625,14.5 17.440164,14.5 16.125,13.184836 16.125,11.5625 16.125,9.9401635 17.440164,8.625 19.0625,8.625 20.684836,8.625 22,9.9401635 22,11.5625 z"
       transform="matrix(-.72779 1.26056 -1.26056 -.72779 145.0327 30.72758)"
       id="path74" />
  </g>
  <g
     transform="translate(3.13557 -32.97083)"
     id="g76"
     style="fill:#ff5555">
    <path
       style="fill:#ff5555;fill-opacity:0.07800000000000000"
       d="M 22,11.5625 C 22,13.184836 20.684836,14.5 19.0625,14.5 17.440164,14.5 16.125,13.184836 16.125,11.5625 16.125,9.9401635 17.440164,8.625 19.0625,8.625 20.684836,8.625 22,9.9401635 22,11.5625 z"
       transform="matrix(1.45557 0 0 1.45557 132.38656 24.88319)"
       id="path78" />
    <path
       style="fill:#ff5555;fill-opacity:0.78400000000000003"
       d="M 22,11.5625 C 22,13.184836 20.684836,14.5 19.0625,14.5 17.440164,14.5 16.125,13.184836 16.125,11.5625 16.125,9.9401635 17.440164,8.625 19.0625,8.625 20.684836,8.625 22,9.9401635 22,11.5625 z"
       transform="matrix(1.45557 0 0 1.45557 132.38656 43.39834)"
       id="path80" />
  </g>
  <g
     style="fill:#888;fill-opacity:.078"
     transform="translate(3.13557 -32.97083)"
     id="g82">
    <path
       d="M 22,11.5625 C 22,13.184836 20.684836,14.5 19.0625,14.5 17.440164,14.5 16.125,13.184836 16.125,11.5625 16.125,9.9401635 17.440164,8.625 19.0625,8.625 20.684836,8.625 22,9.9401635 22,11.5625 z"
       transform="matrix(.72779 1.26056 -1.26056 .72779 168.85255 13.89752)"
       id="path84" />
    <path
       d="M 22,11.5625 C 22,13.184836 20.684836,14.5 19.0625,14.5 17.440164,14.5 16.125,13.184836 16.125,11.5625 16.125,9.9401635 17.440164,8.625 19.0625,8.625 20.684836,8.625 22,9.9401635 22,11.5625 z"
       transform="matrix(.72779 1.26056 -1.26056 .72779 152.81796 23.1551)"
       id="path86" />
  </g>
  <g
     transform="translate(3.13557 -32.97083)"
     id="g88"
     style="fill:#ff8080">
    <path
       style="fill:#ff8080;fill-opacity:0.39200000000000002"
       d="M 22,11.5625 C 22,13.184836 20.684836,14.5 19.0625,14.5 17.440164,14.5 16.125,13.184836 16.125,11.5625 16.125,9.9401635 17.440164,8.625 19.0625,8.625 20.684836,8.625 22,9.9401635 22,11.5625 z"
       transform="matrix(-.72779 1.26056 -1.26056 -.72779 196.59941 39.98516)"
       id="path90" />
    <path
       style="fill:#ff8080;fill-opacity:0.07800000000000000"
       d="M 22,11.5625 C 22,13.184836 20.684836,14.5 19.0625,14.5 17.440164,14.5 16.125,13.184836 16.125,11.5625 16.125,9.9401635 17.440164,8.625 19.0625,8.625 20.684836,8.625 22,9.9401635 22,11.5625 z"
       transform="matrix(-.72779 1.26056 -1.26056 -.72779 180.56482 30.72758)"
       id="path92" />
  </g>
  <g
     transform="translate(1.22081 -32.97083)"
     id="g94">
    <path
       style="fill:#888;fill-opacity:.078"
       d="M 22,11.5625 C 22,13.184836 20.684836,14.5 19.0625,14.5 17.440164,14.5 16.125,13.184836 16.125,11.5625 16.125,9.9401635 17.440164,8.625 19.0625,8.625 20.684836,8.625 22,9.9401635 22,11.5625 z"
       transform="matrix(1.45557 0 0 1.45557 170.57033 24.88319)"
       id="path96" />
  </g>
  <g
     style="fill:#888;fill-opacity:.078"
     transform="translate(1.22081 -32.97083)"
     id="g98">
    <path
       d="M 22,11.5625 C 22,13.184836 20.684836,14.5 19.0625,14.5 17.440164,14.5 16.125,13.184836 16.125,11.5625 16.125,9.9401635 17.440164,8.625 19.0625,8.625 20.684836,8.625 22,9.9401635 22,11.5625 z"
       transform="matrix(1.45557 0 0 1.45557 170.57033 43.39834)"
       id="path100" />
    <path
       d="M 22,11.5625 C 22,13.184836 20.684836,14.5 19.0625,14.5 17.440164,14.5 16.125,13.184836 16.125,11.5625 16.125,9.9401635 17.440164,8.625 19.0625,8.625 20.684836,8.625 22,9.9401635 22,11.5625 z"
       transform="matrix(.72779 1.26056 -1.26056 .72779 207.03632 13.89752)"
       id="path102" />
  </g>
  <g
     transform="translate(1.22081 -32.97083)"
     id="g104"
     style="fill:#ff5555">
    <path
       style="fill:#ff5555;fill-opacity:0.39200000000000002"
       d="M 22,11.5625 C 22,13.184836 20.684836,14.5 19.0625,14.5 17.440164,14.5 16.125,13.184836 16.125,11.5625 16.125,9.9401635 17.440164,8.625 19.0625,8.625 20.684836,8.625 22,9.9401635 22,11.5625 z"
       transform="matrix(.72779 1.26056 -1.26056 .72779 191.00173 23.1551)"
       id="path106" />
    <path
       style="fill:#ff5555;fill-opacity:0.07800000000000000"
       d="M 22,11.5625 C 22,13.184836 20.684836,14.5 19.0625,14.5 17.440164,14.5 16.125,13.184836 16.125,11.5625 16.125,9.9401635 17.440164,8.625 19.0625,8.625 20.684836,8.625 22,9.9401635 22,11.5625 z"
       transform="matrix(-.72779 1.26056 -1.26056 -.72779 234.78318 39.98516)"
       id="path108" />
    <path
       style="fill:#ff5555;fill-opacity:0.78400000000000003"
       d="M 22,11.5625 C 22,13.184836 20.684836,14.5 19.0625,14.5 17.440164,14.5 16.125,13.184836 16.125,11.5625 16.125,9.9401635 17.440164,8.625 19.0625,8.625 20.684836,8.625 22,9.9401635 22,11.5625 z"
       transform="matrix(-.72779 1.26056 -1.26056 -.72779 218.74859 30.72758)"
       id="path110" />
  </g>
  <g
     transform="translate(1.42737 -32.97083)"
     id="g112"
     style="fill:#ff5555">
    <path
       style="fill:#ff5555;fill-opacity:0.78400000000000003"
       d="M 22,11.5625 C 22,13.184836 20.684836,14.5 19.0625,14.5 17.440164,14.5 16.125,13.184836 16.125,11.5625 16.125,9.9401635 17.440164,8.625 19.0625,8.625 20.684836,8.625 22,9.9401635 22,11.5625 z"
       transform="matrix(1.45557 0 0 1.45557 206.63278 24.88319)"
       id="path114" />
  </g>
  <g
     style="fill:#888;fill-opacity:.078"
     transform="translate(1.42737 -32.97083)"
     id="g116">
    <path
       d="M 22,11.5625 C 22,13.184836 20.684836,14.5 19.0625,14.5 17.440164,14.5 16.125,13.184836 16.125,11.5625 16.125,9.9401635 17.440164,8.625 19.0625,8.625 20.684836,8.625 22,9.9401635 22,11.5625 z"
       transform="matrix(1.45557 0 0 1.45557 206.63278 43.39834)"
       id="path118" />
    <path
       d="M 22,11.5625 C 22,13.184836 20.684836,14.5 19.0625,14.5 17.440164,14.5 16.125,13.184836 16.125,11.5625 16.125,9.9401635 17.440164,8.625 19.0625,8.625 20.684836,8.625 22,9.9401635 22,11.5625 z"
       transform="matrix(.72779 1.26056 -1.26056 .72779 243.09877 13.89752)"
       id="path120" />
    <path
       d="M 22,11.5625 C 22,13.184836 20.684836,14.5 19.0625,14.5 17.440164,14.5 16.125,13.184836 16.125,11.5625 16.125,9.9401635 17.440164,8.625 19.0625,8.625 20.684836,8.625 22,9.9401635 22,11.5625 z"
       transform="matrix(.72779 1.26056 -1.26056 .72779 227.06418 23.1551)"
       id="path122" />
    <path
       d="M 22,11.5625 C 22,13.184836 20.684836,14.5 19.0625,14.5 17.440164,14.5 16.125,13.184836 16.125,11.5625 16.125,9.9401635 17.440164,8.625 19.0625,8.625 20.684836,8.625 22,9.9401635 22,11.5625 z"
       transform="matrix(-.72779 1.26056 -1.26056 -.72779 270.84563 39.98516)"
       id="path124" />
  </g>
  <g
     transform="translate(1.42737 -32.97083)"
     id="g126"
     style="fill:#ff8080">
    <path
       style="fill:#ff8080;fill-opacity:0.39200000000000002"
       d="M 22,11.5625 C 22,13.184836 20.684836,14.5 19.0625,14.5 17.440164,14.5 16.125,13.184836 16.125,11.5625 16.125,9.9401635 17.440164,8.625 19.0625,8.625 20.684836,8.625 22,9.9401635 22,11.5625 z"
       transform="matrix(-.72779 1.26056 -1.26056 -.72779 254.81104 30.72758)"
       id="path128" />
  </g>
  <g
     transform="translate(0 -1016.3622)"
     id="g130">
    <rect
       width="254"
       x="0"
       y="1016.362"
       height="36"
       style="fill:none"
       id="rect132" />
  </g>
</svg>
