<?xml version="1.0" encoding="UTF-8" standalone="no"?>
<svg
   xmlns:dc="http://purl.org/dc/elements/1.1/"
   xmlns:cc="http://creativecommons.org/ns#"
   xmlns:rdf="http://www.w3.org/1999/02/22-rdf-syntax-ns#"
   xmlns:svg="http://www.w3.org/2000/svg"
   xmlns="http://www.w3.org/2000/svg"
   xmlns:sodipodi="http://sodipodi.sourceforge.net/DTD/sodipodi-0.dtd"
   xmlns:inkscape="http://www.inkscape.org/namespaces/inkscape"
   width="47.5"
   height="47.5"
   viewBox="0 0 38 38"
   id="svg2"
   version="1.1"
   inkscape:version="0.48.4 r9939"
   sodipodi:docname="applications-chat.svg">
  <metadata
     id="metadata14">
    <rdf:RDF>
      <cc:Work
         rdf:about="">
        <dc:format>image/svg+xml</dc:format>
        <dc:type
           rdf:resource="http://purl.org/dc/dcmitype/StillImage" />
      </cc:Work>
    </rdf:RDF>
  </metadata>
  <defs
     id="defs12" />
  <sodipodi:namedview
     pagecolor="#ffffff"
     bordercolor="#666666"
     borderopacity="1"
     objecttolerance="10"
     gridtolerance="10"
     guidetolerance="10"
     inkscape:pageopacity="0"
     inkscape:pageshadow="2"
     inkscape:window-width="1440"
     inkscape:window-height="848"
     id="namedview10"
     showgrid="false"
     inkscape:zoom="4.9684211"
     inkscape:cx="-8.2521186"
     inkscape:cy="23.347458"
     inkscape:window-x="0"
     inkscape:window-y="0"
     inkscape:window-maximized="1"
     inkscape:current-layer="svg2" />
  <g
     style="fill:#8ccd7c"
     id="g4">
    <path
       d="M 11.136719 12.039062 C 7.28125 12.039062 4.15625 15.183594 4.15625 19.058594 C 4.15625 19.300781 4.160156 19.539062 4.183594 19.773438 C 4.242188 21.277344 4.15625 23.449219 5.902344 28.714844 C 7.386719 33.195312 8.519531 33.101562 8.519531 33.101562 L 10.261719 32.222656 C 10.261719 32.222656 9.390625 30.46875 9.390625 28.714844 C 9.390625 27.871094 9.589844 26.832031 9.800781 25.972656 C 10.230469 26.054688 10.683594 26.082031 11.136719 26.082031 C 14.988281 26.082031 18.113281 22.9375 18.113281 19.058594 C 18.113281 15.183594 14.988281 12.039062 11.136719 12.039062 Z "
       id="path6" />
    <path
       d="M 26.863281 25.960938 C 30.71875 25.960938 33.84375 22.816406 33.84375 18.941406 C 33.84375 18.699219 33.839844 18.460938 33.816406 18.226562 C 33.757812 16.722656 33.84375 14.550781 32.097656 9.285156 C 30.613281 4.804688 29.480469 4.898438 29.480469 4.898438 L 27.738281 5.777344 C 27.738281 5.777344 28.609375 7.53125 28.609375 9.285156 C 28.609375 10.128906 28.410156 11.167969 28.199219 12.027344 C 27.769531 11.945312 27.316406 11.917969 26.863281 11.917969 C 23.011719 11.917969 19.886719 15.0625 19.886719 18.941406 C 19.886719 22.816406 23.011719 25.960938 26.863281 25.960938 Z "
       id="path8" />
  </g>
  <path
     sodipodi:type="arc"
     style="fill:#8ccd7c;fill-opacity:1;stroke:#ffffff;stroke-width:1;stroke-opacity:1"
     id="path2991"
     sodipodi:cx="-43.977753"
     sodipodi:cy="27.674788"
     sodipodi:rx="22.643009"
     sodipodi:ry="22.643009"
     d="m -21.334743,27.674788 a 22.643009,22.643009 0 1 1 -45.286019,0 22.643009,22.643009 0 1 1 45.286019,0 z"
     transform="matrix(0.82962418,0,0,0.82962418,55.485007,-3.9596729)" />
  <g
     id="g3761"
     style="fill:#ffffff">
    <path
       id="path3763"
       d="M 11.136719 12.039062 C 7.28125 12.039062 4.15625 15.183594 4.15625 19.058594 C 4.15625 19.300781 4.160156 19.539062 4.183594 19.773438 C 4.242188 21.277344 4.15625 23.449219 5.902344 28.714844 C 7.386719 33.195312 8.519531 33.101562 8.519531 33.101562 L 10.261719 32.222656 C 10.261719 32.222656 9.390625 30.46875 9.390625 28.714844 C 9.390625 27.871094 9.589844 26.832031 9.800781 25.972656 C 10.230469 26.054688 10.683594 26.082031 11.136719 26.082031 C 14.988281 26.082031 18.113281 22.9375 18.113281 19.058594 C 18.113281 15.183594 14.988281 12.039062 11.136719 12.039062 Z "
       style="fill:#ffffff" />
    <path
       id="path3765"
       d="M 26.863281 25.960938 C 30.71875 25.960938 33.84375 22.816406 33.84375 18.941406 C 33.84375 18.699219 33.839844 18.460938 33.816406 18.226562 C 33.757812 16.722656 33.84375 14.550781 32.097656 9.285156 C 30.613281 4.804688 29.480469 4.898438 29.480469 4.898438 L 27.738281 5.777344 C 27.738281 5.777344 28.609375 7.53125 28.609375 9.285156 C 28.609375 10.128906 28.410156 11.167969 28.199219 12.027344 C 27.769531 11.945312 27.316406 11.917969 26.863281 11.917969 C 23.011719 11.917969 19.886719 15.0625 19.886719 18.941406 C 19.886719 22.816406 23.011719 25.960938 26.863281 25.960938 Z "
       style="fill:#ffffff" />
  </g>
</svg>
