<?xml version="1.0" encoding="UTF-8" standalone="no"?>
<svg
   xmlns:dc="http://purl.org/dc/elements/1.1/"
   xmlns:cc="http://creativecommons.org/ns#"
   xmlns:rdf="http://www.w3.org/1999/02/22-rdf-syntax-ns#"
   xmlns:svg="http://www.w3.org/2000/svg"
   xmlns="http://www.w3.org/2000/svg"
   xmlns:sodipodi="http://sodipodi.sourceforge.net/DTD/sodipodi-0.dtd"
   xmlns:inkscape="http://www.inkscape.org/namespaces/inkscape"
   width="47.5"
   height="47.5"
   viewBox="0 0 38 38"
   id="svg2"
   version="1.1"
   inkscape:version="0.48.4 r9939"
   sodipodi:docname="applications-astronomy.svg">
  <metadata
     id="metadata24">
    <rdf:RDF>
      <cc:Work
         rdf:about="">
        <dc:format>image/svg+xml</dc:format>
        <dc:type
           rdf:resource="http://purl.org/dc/dcmitype/StillImage" />
      </cc:Work>
    </rdf:RDF>
  </metadata>
  <defs
     id="defs22" />
  <sodipodi:namedview
     pagecolor="#ffffff"
     bordercolor="#666666"
     borderopacity="1"
     objecttolerance="10"
     gridtolerance="10"
     guidetolerance="10"
     inkscape:pageopacity="0"
     inkscape:pageshadow="2"
     inkscape:window-width="1440"
     inkscape:window-height="848"
     id="namedview20"
     showgrid="false"
     inkscape:zoom="4.9684211"
     inkscape:cx="-8.2521186"
     inkscape:cy="23.347458"
     inkscape:window-x="0"
     inkscape:window-y="0"
     inkscape:window-maximized="1"
     inkscape:current-layer="svg2" />
  <g
     style="fill:#ffffff"
     id="g4">
    <path
       d="M 18.566406 4.15625 C 9.777344 4.15625 3.355469 10.9375 4.238281 19.257812 C 4.980469 26.273438 10.679688 32.164062 17.714844 33.84375 C 16.511719 31.878906 15.734375 29.667969 15.488281 27.34375 C 14.605469 19.023438 21.03125 12.304688 29.820312 12.304688 C 31.203125 12.304688 32.527344 12.476562 33.84375 12.789062 C 30.746094 7.707031 24.910156 4.15625 18.566406 4.15625 Z M 18.566406 7.269531 C 21.320312 7.269531 23.972656 8.121094 26.25 9.527344 C 17.675781 11.1875 11.511719 18.765625 12.410156 27.621094 C 9.675781 25.355469 7.675781 22.296875 7.316406 18.921875 C 6.621094 12.351562 11.371094 7.269531 18.566406 7.269531 Z "
       id="path6"
       style="fill:#ffffff" />
    <path
       d="M 11.265625 9.78125 C 12.816406 9.78125 14.070312 11.289062 14.070312 13.152344 L 14.070312 25.09375 C 14.070312 26.957031 12.816406 28.464844 11.265625 28.464844 C 9.714844 28.464844 8.457031 26.957031 8.457031 25.09375 L 8.457031 13.152344 C 8.457031 11.289062 9.714844 9.78125 11.265625 9.78125 Z "
       id="path8"
       style="fill:#ffffff" />
    <path
       d="M 9.417969 11.855469 C 10.925781 11.855469 12.148438 13.367188 12.148438 15.230469 L 12.148438 21.632812 C 12.148438 23.496094 10.925781 25.003906 9.417969 25.003906 C 7.910156 25.003906 6.691406 23.496094 6.691406 21.632812 L 6.691406 15.230469 C 6.691406 13.367188 7.910156 11.855469 9.417969 11.855469 Z "
       id="path10"
       style="fill:#ffffff" />
    <path
       d="M 12.957031 8.242188 C 14.507812 8.242188 15.761719 9.753906 15.761719 11.613281 L 15.761719 16.25 C 15.761719 18.113281 14.507812 19.625 12.957031 19.625 C 11.40625 19.625 10.148438 18.113281 10.148438 16.25 L 10.148438 11.613281 C 10.148438 9.753906 11.40625 8.242188 12.957031 8.242188 Z "
       id="path12"
       style="fill:#ffffff" />
    <path
       d="M 14.289062 5.550781 L 18.3125 5.550781 C 20.171875 5.550781 21.683594 7.0625 21.683594 8.925781 L 21.683594 11.40625 C 21.683594 13.269531 20.171875 14.777344 18.3125 14.777344 L 14.289062 14.777344 C 12.429688 14.777344 10.917969 13.269531 10.917969 11.40625 L 10.917969 8.925781 C 10.917969 7.0625 12.429688 5.550781 14.289062 5.550781 Z "
       id="path14"
       style="fill:#ffffff" />
    <path
       d="M 15.878906 11.089844 C 16.960938 11.089844 17.839844 12.550781 17.839844 14.355469 C 17.839844 16.160156 16.960938 17.625 15.878906 17.625 C 14.792969 17.625 13.917969 16.160156 13.917969 14.355469 C 13.917969 12.550781 14.792969 11.089844 15.878906 11.089844 Z "
       id="path16"
       style="fill:#ffffff" />
    <path
       d="M 22.363281 7.011719 L 23 7.011719 C 24.863281 7.011719 26.375 8.082031 26.375 9.398438 C 26.375 10.714844 24.863281 11.78125 23 11.78125 L 22.363281 11.78125 C 20.5 11.78125 18.992188 10.714844 18.992188 9.398438 C 18.992188 8.082031 20.5 7.011719 22.363281 7.011719 Z "
       id="path18"
       style="fill:#ffffff" />
  </g>
  <path
     sodipodi:type="arc"
     style="fill:#a98bc7;fill-opacity:1;stroke:none"
     id="path3001"
     sodipodi:cx="-28.690025"
     sodipodi:cy="26.970339"
     sodipodi:rx="37.125652"
     sodipodi:ry="22.944916"
     d="m 8.435627,26.970339 a 37.125652,22.944916 0 1 1 -74.251305,0 37.125652,22.944916 0 1 1 74.251305,0 z"
     transform="matrix(0.51716263,0,0,0.83678668,33.837409,-3.5684203)" />
  <g
     id="g3771"
     style="fill:#ffffff">
    <path
       style="fill:#ffffff"
       id="path3773"
       d="M 18.566406 4.15625 C 9.777344 4.15625 3.355469 10.9375 4.238281 19.257812 C 4.980469 26.273438 10.679688 32.164062 17.714844 33.84375 C 16.511719 31.878906 15.734375 29.667969 15.488281 27.34375 C 14.605469 19.023438 21.03125 12.304688 29.820312 12.304688 C 31.203125 12.304688 32.527344 12.476562 33.84375 12.789062 C 30.746094 7.707031 24.910156 4.15625 18.566406 4.15625 Z M 18.566406 7.269531 C 21.320312 7.269531 23.972656 8.121094 26.25 9.527344 C 17.675781 11.1875 11.511719 18.765625 12.410156 27.621094 C 9.675781 25.355469 7.675781 22.296875 7.316406 18.921875 C 6.621094 12.351562 11.371094 7.269531 18.566406 7.269531 Z " />
    <path
       style="fill:#ffffff"
       id="path3775"
       d="M 11.265625 9.78125 C 12.816406 9.78125 14.070312 11.289062 14.070312 13.152344 L 14.070312 25.09375 C 14.070312 26.957031 12.816406 28.464844 11.265625 28.464844 C 9.714844 28.464844 8.457031 26.957031 8.457031 25.09375 L 8.457031 13.152344 C 8.457031 11.289062 9.714844 9.78125 11.265625 9.78125 Z " />
    <path
       style="fill:#ffffff"
       id="path3777"
       d="M 9.417969 11.855469 C 10.925781 11.855469 12.148438 13.367188 12.148438 15.230469 L 12.148438 21.632812 C 12.148438 23.496094 10.925781 25.003906 9.417969 25.003906 C 7.910156 25.003906 6.691406 23.496094 6.691406 21.632812 L 6.691406 15.230469 C 6.691406 13.367188 7.910156 11.855469 9.417969 11.855469 Z " />
    <path
       style="fill:#ffffff"
       id="path3779"
       d="M 12.957031 8.242188 C 14.507812 8.242188 15.761719 9.753906 15.761719 11.613281 L 15.761719 16.25 C 15.761719 18.113281 14.507812 19.625 12.957031 19.625 C 11.40625 19.625 10.148438 18.113281 10.148438 16.25 L 10.148438 11.613281 C 10.148438 9.753906 11.40625 8.242188 12.957031 8.242188 Z " />
    <path
       style="fill:#ffffff"
       id="path3781"
       d="M 14.289062 5.550781 L 18.3125 5.550781 C 20.171875 5.550781 21.683594 7.0625 21.683594 8.925781 L 21.683594 11.40625 C 21.683594 13.269531 20.171875 14.777344 18.3125 14.777344 L 14.289062 14.777344 C 12.429688 14.777344 10.917969 13.269531 10.917969 11.40625 L 10.917969 8.925781 C 10.917969 7.0625 12.429688 5.550781 14.289062 5.550781 Z " />
    <path
       style="fill:#ffffff"
       id="path3783"
       d="M 15.878906 11.089844 C 16.960938 11.089844 17.839844 12.550781 17.839844 14.355469 C 17.839844 16.160156 16.960938 17.625 15.878906 17.625 C 14.792969 17.625 13.917969 16.160156 13.917969 14.355469 C 13.917969 12.550781 14.792969 11.089844 15.878906 11.089844 Z " />
    <path
       style="fill:#ffffff"
       id="path3785"
       d="M 22.363281 7.011719 L 23 7.011719 C 24.863281 7.011719 26.375 8.082031 26.375 9.398438 C 26.375 10.714844 24.863281 11.78125 23 11.78125 L 22.363281 11.78125 C 20.5 11.78125 18.992188 10.714844 18.992188 9.398438 C 18.992188 8.082031 20.5 7.011719 22.363281 7.011719 Z " />
  </g>
</svg>
