<?xml version="1.0" encoding="UTF-8" standalone="no"?>
<svg
   xmlns:dc="http://purl.org/dc/elements/1.1/"
   xmlns:cc="http://creativecommons.org/ns#"
   xmlns:rdf="http://www.w3.org/1999/02/22-rdf-syntax-ns#"
   xmlns:svg="http://www.w3.org/2000/svg"
   xmlns="http://www.w3.org/2000/svg"
   xmlns:sodipodi="http://sodipodi.sourceforge.net/DTD/sodipodi-0.dtd"
   xmlns:inkscape="http://www.inkscape.org/namespaces/inkscape"
   viewBox="0 0 48 48"
   id="svg2"
   version="1.1"
   inkscape:version="0.48.4 r9939"
   width="100%"
   height="100%"
   sodipodi:docname="applications-office.svg">
  <metadata
     id="metadata12">
    <rdf:RDF>
      <cc:Work
         rdf:about="">
        <dc:format>image/svg+xml</dc:format>
        <dc:type
           rdf:resource="http://purl.org/dc/dcmitype/StillImage" />
      </cc:Work>
    </rdf:RDF>
  </metadata>
  <defs
     id="defs10" />
  <sodipodi:namedview
     pagecolor="#ffffff"
     bordercolor="#666666"
     borderopacity="1"
     objecttolerance="10"
     gridtolerance="10"
     guidetolerance="10"
     inkscape:pageopacity="0"
     inkscape:pageshadow="2"
     inkscape:window-width="1440"
     inkscape:window-height="848"
     id="namedview8"
     showgrid="false"
     inkscape:zoom="4.9166667"
     inkscape:cx="-8.3389831"
     inkscape:cy="23.59322"
     inkscape:window-x="0"
     inkscape:window-y="0"
     inkscape:window-maximized="1"
     inkscape:current-layer="svg2" />
  <g
     style="fill:#ffffff"
     transform="matrix(.75 0 0 .75 6.00001 18)"
     id="g4">
    <path
       style="opacity:0.80000000000000004;line-height:normal;color:#000;fill:#ffffff"
       d="m 12.157227,-12.000025 c 0,0 -2.8239014,0 -2.8239014,2.6666685 l 0,34.6666885 C 9.3333256,28 11.999994,28 11.999994,28 l 24.000015,0 c 2.666668,0 2.666668,-2.666668 2.666668,-2.666668 l 0,-32.0000202 -5.333336,-5.3333368 -21.176114,0 -0.157233,0 z m 1.176101,4.0000027 16.00001,0 0,4.0000025 5.333337,0 0,28.0000178 -21.333347,0 z"
       id="path6" />
  </g>
  <path
     sodipodi:type="arc"
     style="fill:#d29217;fill-opacity:1;stroke:none"
     id="path2989"
     sodipodi:cx="-22.983051"
     sodipodi:cy="24.40678"
     sodipodi:rx="16.677965"
     sodipodi:ry="16.677965"
     d="m -6.3050861,24.40678 a 16.677965,16.677965 0 1 1 -33.3559299,0 16.677965,16.677965 0 1 1 33.3559299,0 z"
     transform="matrix(1.4390245,0,0,1.4390245,57.073174,-11.121955)" />
  <g
     id="g3759"
     transform="matrix(.75 0 0 .75 6.00001 18)"
     style="fill:#ffffff;opacity:1">
    <path
       id="path3761"
       d="m 12.157227,-12.000025 c 0,0 -2.8239014,0 -2.8239014,2.6666685 l 0,34.6666885 C 9.3333256,28 11.999994,28 11.999994,28 l 24.000015,0 c 2.666668,0 2.666668,-2.666668 2.666668,-2.666668 l 0,-32.0000202 -5.333336,-5.3333368 -21.176114,0 -0.157233,0 z m 1.176101,4.0000027 16.00001,0 0,4.0000025 5.333337,0 0,28.0000178 -21.333347,0 z"
       style="opacity:0.80000000000000004;line-height:normal;color:#000;fill:#ffffff" />
  </g>
</svg>
