<?xml version="1.0" encoding="UTF-8" standalone="no"?>
<svg
   xmlns:dc="http://purl.org/dc/elements/1.1/"
   xmlns:cc="http://creativecommons.org/ns#"
   xmlns:rdf="http://www.w3.org/1999/02/22-rdf-syntax-ns#"
   xmlns:svg="http://www.w3.org/2000/svg"
   xmlns="http://www.w3.org/2000/svg"
   xmlns:sodipodi="http://sodipodi.sourceforge.net/DTD/sodipodi-0.dtd"
   xmlns:inkscape="http://www.inkscape.org/namespaces/inkscape"
   width="47.5"
   height="47.5"
   viewBox="0 0 38 38"
   id="svg2"
   version="1.1"
   inkscape:version="0.48.4 r9939"
   sodipodi:docname="applications-ruby.svg">
  <metadata
     id="metadata38">
    <rdf:RDF>
      <cc:Work
         rdf:about="">
        <dc:format>image/svg+xml</dc:format>
        <dc:type
           rdf:resource="http://purl.org/dc/dcmitype/StillImage" />
      </cc:Work>
    </rdf:RDF>
  </metadata>
  <defs
     id="defs36" />
  <sodipodi:namedview
     pagecolor="#ffffff"
     bordercolor="#666666"
     borderopacity="1"
     objecttolerance="10"
     gridtolerance="10"
     guidetolerance="10"
     inkscape:pageopacity="0"
     inkscape:pageshadow="2"
     inkscape:window-width="1440"
     inkscape:window-height="848"
     id="namedview34"
     showgrid="false"
     inkscape:zoom="4.9684211"
     inkscape:cx="0.90572034"
     inkscape:cy="23.347458"
     inkscape:window-x="0"
     inkscape:window-y="0"
     inkscape:window-maximized="1"
     inkscape:current-layer="svg2" />
  <g
     style="stroke-linejoin:round;stroke-linecap:round;stroke:#df4747;fill:none"
     id="g4">
    <g
       id="g6">
      <path
         style="stroke-width:4.23"
         d="M 107.289474 -150.684211 L 125.868421 -100.394737 L 149.631579 -160.026316 "
         transform="matrix(.14844 0 0 .14844 0 30.875)"
         id="path8" />
      <path
         style="stroke-width:4.553"
         d="M 102.342105 -150.078947 L 64.710526 -98.263158 L 72.605263 -146.552632 "
         transform="matrix(.14844 0 0 .14844 0 30.875)"
         id="path10" />
    </g>
    <g
       style="stroke-width:4.336"
       id="g12">
      <path
         d="M 150.710526 -155.815789 L 195.552632 -114 L 186.605263 -161.078947 "
         transform="matrix(.14844 0 0 .14844 0 30.875)"
         id="path14" />
      <path
         d="M 30.789474 -96.026316 C 28.394737 -101.078947 141.736842 1.921053 141.736842 1.921053 L 94.736842 -97.5 Z "
         transform="matrix(.14844 0 0 .14844 0 30.875)"
         id="path16" />
      <path
         d="M 30.157895 -96.842105 L 72.578947 -147.5 L 106.210526 -153.789474 L 91.578947 -97.736842 Z "
         transform="matrix(.14844 0 0 .14844 0 30.875)"
         id="path18" />
      <path
         d="M 149.131579 -160.763158 L 185.631579 -161.921053 L 225.210526 -122.973684 L 160.921053 -105.315789 Z "
         transform="matrix(.14844 0 0 .14844 0 30.875)"
         id="path20" />
      <path
         d="M 105.157895 -153.526316 L 148.894737 -160.736842 L 161.605263 -104.763158 L 91.657895 -97.105263 Z "
         transform="matrix(.14844 0 0 .14844 0 30.875)"
         id="path22" />
      <path
         d="M 142.315789 1.236842 L 225.842105 -123.052632 L 161.605263 -104.763158 Z "
         transform="matrix(.14844 0 0 .14844 0 30.875)"
         id="path24" />
    </g>
    <g
       style="stroke-width:2.168"
       id="g26">
      <path
         d="M 195.157895 -114.184211 L 144.263158 -1.447368 "
         transform="matrix(.14844 0 0 .14844 0 30.875)"
         id="path28" />
      <path
         d="M 124.315789 -101.052632 L 142.789474 -1.447368 L 139.210526 -3.894737 "
         transform="matrix(.14844 0 0 .14844 0 30.875)"
         id="path30" />
      <path
         d="M 58.894737 -97.026316 L 140.026316 -1.263158 "
         transform="matrix(.14844 0 0 .14844 0 30.875)"
         id="path32" />
    </g>
  </g>
  <path
     sodipodi:type="arc"
     style="fill:#ff5555;fill-opacity:1;stroke:none"
     id="path3015"
     sodipodi:cx="-38.241524"
     sodipodi:cy="24.353813"
     sodipodi:rx="16.302965"
     sodipodi:ry="16.302965"
     d="m -21.938559,24.353813 a 16.302965,16.302965 0 1 1 -32.60593,0 16.302965,16.302965 0 1 1 32.60593,0 z"
     transform="matrix(1.1776999,0,0,1.1776999,64.037039,-9.6814833)" />
  <g
     id="g3017"
     style="stroke-linejoin:round;stroke-linecap:round;stroke:#ffffff;fill:none;stroke-opacity:1">
    <g
       id="g3019"
       style="stroke:#ffffff;stroke-opacity:1">
      <path
         id="path3021"
         transform="matrix(.14844 0 0 .14844 0 30.875)"
         d="M 107.289474 -150.684211 L 125.868421 -100.394737 L 149.631579 -160.026316 "
         style="stroke-width:4.23000000000000043;stroke:#ffffff;stroke-opacity:1" />
      <path
         id="path3023"
         transform="matrix(.14844 0 0 .14844 0 30.875)"
         d="M 102.342105 -150.078947 L 64.710526 -98.263158 L 72.605263 -146.552632 "
         style="stroke-width:4.55299999999999994;stroke:#ffffff;stroke-opacity:1" />
    </g>
    <g
       id="g3025"
       style="stroke-width:4.33600000000000030;stroke:#ffffff;stroke-opacity:1">
      <path
         id="path3027"
         transform="matrix(.14844 0 0 .14844 0 30.875)"
         d="M 150.710526 -155.815789 L 195.552632 -114 L 186.605263 -161.078947 "
         style="stroke:#ffffff;stroke-opacity:1" />
      <path
         id="path3029"
         transform="matrix(.14844 0 0 .14844 0 30.875)"
         d="M 30.789474 -96.026316 C 28.394737 -101.078947 141.736842 1.921053 141.736842 1.921053 L 94.736842 -97.5 Z "
         style="stroke:#ffffff;stroke-opacity:1" />
      <path
         id="path3031"
         transform="matrix(.14844 0 0 .14844 0 30.875)"
         d="M 30.157895 -96.842105 L 72.578947 -147.5 L 106.210526 -153.789474 L 91.578947 -97.736842 Z "
         style="stroke:#ffffff;stroke-opacity:1" />
      <path
         id="path3033"
         transform="matrix(.14844 0 0 .14844 0 30.875)"
         d="M 149.131579 -160.763158 L 185.631579 -161.921053 L 225.210526 -122.973684 L 160.921053 -105.315789 Z "
         style="stroke:#ffffff;stroke-opacity:1" />
      <path
         id="path3035"
         transform="matrix(.14844 0 0 .14844 0 30.875)"
         d="M 105.157895 -153.526316 L 148.894737 -160.736842 L 161.605263 -104.763158 L 91.657895 -97.105263 Z "
         style="stroke:#ffffff;stroke-opacity:1" />
      <path
         id="path3037"
         transform="matrix(.14844 0 0 .14844 0 30.875)"
         d="M 142.315789 1.236842 L 225.842105 -123.052632 L 161.605263 -104.763158 Z "
         style="stroke:#ffffff;stroke-opacity:1" />
    </g>
    <g
       id="g3039"
       style="stroke-width:2.16800000000000015;stroke:#ffffff;stroke-opacity:1">
      <path
         id="path3041"
         transform="matrix(.14844 0 0 .14844 0 30.875)"
         d="M 195.157895 -114.184211 L 144.263158 -1.447368 "
         style="stroke:#ffffff;stroke-opacity:1" />
      <path
         id="path3043"
         transform="matrix(.14844 0 0 .14844 0 30.875)"
         d="M 124.315789 -101.052632 L 142.789474 -1.447368 L 139.210526 -3.894737 "
         style="stroke:#ffffff;stroke-opacity:1" />
      <path
         id="path3045"
         transform="matrix(.14844 0 0 .14844 0 30.875)"
         d="M 58.894737 -97.026316 L 140.026316 -1.263158 "
         style="stroke:#ffffff;stroke-opacity:1" />
    </g>
  </g>
</svg>
