<?xml version="1.0" encoding="UTF-8" standalone="no"?>
<svg
   xmlns:dc="http://purl.org/dc/elements/1.1/"
   xmlns:cc="http://creativecommons.org/ns#"
   xmlns:rdf="http://www.w3.org/1999/02/22-rdf-syntax-ns#"
   xmlns:svg="http://www.w3.org/2000/svg"
   xmlns="http://www.w3.org/2000/svg"
   xmlns:sodipodi="http://sodipodi.sourceforge.net/DTD/sodipodi-0.dtd"
   xmlns:inkscape="http://www.inkscape.org/namespaces/inkscape"
   width="47.5"
   height="47.5"
   viewBox="0 0 38 38"
   id="svg2"
   version="1.1"
   inkscape:version="0.48.4 r9939"
   sodipodi:docname="applications-interfacedesign.svg">
  <metadata
     id="metadata54">
    <rdf:RDF>
      <cc:Work
         rdf:about="">
        <dc:format>image/svg+xml</dc:format>
        <dc:type
           rdf:resource="http://purl.org/dc/dcmitype/StillImage" />
      </cc:Work>
    </rdf:RDF>
  </metadata>
  <defs
     id="defs52" />
  <sodipodi:namedview
     pagecolor="#ffffff"
     bordercolor="#666666"
     borderopacity="1"
     objecttolerance="10"
     gridtolerance="10"
     guidetolerance="10"
     inkscape:pageopacity="0"
     inkscape:pageshadow="2"
     inkscape:window-width="1440"
     inkscape:window-height="848"
     id="namedview50"
     showgrid="false"
     inkscape:zoom="4.9684211"
     inkscape:cx="0.90572034"
     inkscape:cy="23.347458"
     inkscape:window-x="0"
     inkscape:window-y="0"
     inkscape:window-maximized="1"
     inkscape:current-layer="svg2" />
  <path
     sodipodi:type="arc"
     style="fill:#b7c8b7;fill-opacity:1;stroke:none"
     id="path3056"
     sodipodi:cx="-63.702332"
     sodipodi:cy="24.856991"
     sodipodi:rx="20.026484"
     sodipodi:ry="20.026484"
     d="m -43.675848,24.856991 a 20.026484,20.026484 0 1 1 -40.052967,0 20.026484,20.026484 0 1 1 40.052967,0 z"
     transform="matrix(0.95873047,0,0,0.95873047,80.073366,-4.8311545)" />
  <g
     id="g3120"
     transform="translate(0.4830513,-0.64406776)">
    <rect
       ry="0"
       rx="0"
       y="8.5338984"
       x="7.4067793"
       height="22.220339"
       width="22.220339"
       id="rect3108"
       style="fill:none;stroke:#ffffff;stroke-opacity:1" />
    <rect
       y="11.110169"
       x="11.754237"
       height="3.381356"
       width="13.525424"
       id="rect3110"
       style="fill:none;stroke:#ffffff;stroke-opacity:1" />
    <path
       transform="matrix(0.8,0,0,0.8,-0.3220339,-2.898305)"
       d="m 31.398305,27.070974 c 0,1.16717 -0.946178,2.113348 -2.113347,2.113348 -1.16717,0 -2.113348,-0.946178 -2.113348,-2.113348 0,-1.167169 0.946178,-2.113347 2.113348,-2.113347 1.167169,0 2.113347,0.946178 2.113347,2.113347 z"
       sodipodi:ry="2.1133475"
       sodipodi:rx="2.1133475"
       sodipodi:cy="27.070974"
       sodipodi:cx="29.284958"
       id="path3112"
       style="fill:none;stroke:#ffffff;stroke-opacity:1"
       sodipodi:type="arc" />
    <rect
       y="16.906778"
       x="13.042373"
       height="3.7033896"
       width="3.7033896"
       id="rect3114"
       style="fill:none;stroke:#ffffff;stroke-opacity:1" />
    <path
       sodipodi:type="arc"
       style="fill:#ffffff;fill-opacity:1;stroke:#ffffff;stroke-opacity:1"
       id="path3116"
       sodipodi:cx="29.284958"
       sodipodi:cy="27.070974"
       sodipodi:rx="2.1133475"
       sodipodi:ry="2.1133475"
       d="m 31.398305,27.070974 c 0,1.16717 -0.946178,2.113348 -2.113347,2.113348 -1.16717,0 -2.113348,-0.946178 -2.113348,-2.113348 0,-1.167169 0.946178,-2.113347 2.113348,-2.113347 1.167169,0 2.113347,0.946178 2.113347,2.113347 z"
       transform="matrix(0.8,0,0,0.8,-0.48305084,3.0593221)" />
    <rect
       style="fill:#ffffff;fill-opacity:1;stroke:none"
       id="rect3118"
       width="3.7033896"
       height="3.7033896"
       x="12.881356"
       y="23.025423" />
  </g>
</svg>
