<?xml version="1.0" encoding="UTF-8" standalone="no"?>
<svg
   xmlns:dc="http://purl.org/dc/elements/1.1/"
   xmlns:cc="http://creativecommons.org/ns#"
   xmlns:rdf="http://www.w3.org/1999/02/22-rdf-syntax-ns#"
   xmlns:svg="http://www.w3.org/2000/svg"
   xmlns="http://www.w3.org/2000/svg"
   xmlns:sodipodi="http://sodipodi.sourceforge.net/DTD/sodipodi-0.dtd"
   xmlns:inkscape="http://www.inkscape.org/namespaces/inkscape"
   width="47.5"
   height="47.5"
   viewBox="0 0 38 38"
   id="svg2"
   version="1.1"
   inkscape:version="0.48.4 r9939"
   sodipodi:docname="applications-puzzles.svg">
  <metadata
     id="metadata10">
    <rdf:RDF>
      <cc:Work
         rdf:about="">
        <dc:format>image/svg+xml</dc:format>
        <dc:type
           rdf:resource="http://purl.org/dc/dcmitype/StillImage" />
      </cc:Work>
    </rdf:RDF>
  </metadata>
  <defs
     id="defs8" />
  <sodipodi:namedview
     pagecolor="#ffffff"
     bordercolor="#666666"
     borderopacity="1"
     objecttolerance="10"
     gridtolerance="10"
     guidetolerance="10"
     inkscape:pageopacity="0"
     inkscape:pageshadow="2"
     inkscape:window-width="1440"
     inkscape:window-height="848"
     id="namedview6"
     showgrid="false"
     inkscape:zoom="4.9684211"
     inkscape:cx="-8.2521186"
     inkscape:cy="23.347458"
     inkscape:window-x="0"
     inkscape:window-y="0"
     inkscape:window-maximized="1"
     inkscape:current-layer="svg2" />
  <path
     sodipodi:type="arc"
     style="fill:#61c66c;fill-opacity:1;stroke:none"
     id="path2987"
     sodipodi:cx="-46.246494"
     sodipodi:cy="12.478813"
     sodipodi:rx="18.562826"
     sodipodi:ry="11.472458"
     d="m -27.683668,12.478813 a 18.562826,11.472458 0 1 1 -37.125652,0 18.562826,11.472458 0 1 1 37.125652,0 z"
     transform="matrix(1.0343253,0,0,1.6735734,66.833919,-1.8842098)" />
  <path
     id="path3757"
     d="m 16.080437,6.2995154 c -1.097294,0.041538 -2.329587,0.4084574 -2.987271,1.19768 -0.958834,2.0353636 1.367291,1.0972963 1.640749,2.5061276 0.273458,1.408832 -1.367291,1.488446 -1.367291,1.488446 l -7.0683749,0 c 0,0 0.00692,7.00262 0.00692,7.00262 0,0 0.079615,1.640752 1.4884433,1.367294 1.1492166,-0.221537 0.7407601,-1.799982 1.640749,-1.869211 0.2076897,-0.01385 0.4880709,0.04846 0.8688356,0.228459 0.789222,0.657685 1.15614,1.88998 1.197678,2.987276 0.01385,0.404996 -0.02077,0.785761 -0.09,1.121527 -0.0035,0.01385 -0.0035,0.02769 -0.0069,0.045 -0.121152,0.94499 -0.488071,1.907289 -1.156141,2.461129 -2.0388311,0.95537 -1.0973042,-1.363836 -2.506133,-1.637295 -1.0280642,-0.200767 -1.3465219,0.612686 -1.4434437,1.069604 l 0,7.435308 c 0,0 7.0926057,-0.05885 7.0926057,-0.05885 0,0 1.640749,-0.07615 1.36729,-1.488447 -0.273458,-1.408831 -2.596122,-0.467302 -1.640748,-2.506128 0.657683,-0.785761 1.889976,-1.156141 2.990732,-1.194218 0.404995,-0.01731 0.785759,0.02077 1.118063,0.09 0.01731,0 0.03115,0.0035 0.045,0.0069 0.94845,0.121152 1.914207,0.488071 2.468047,1.15268 0.958834,2.035363 -1.367292,1.097296 -1.640749,2.506128 -0.273459,1.408832 1.36729,1.488446 1.36729,1.488446 l 7.030298,0 0,-7.373001 c 0.100383,-0.46038 0.418842,-1.263448 1.439982,-1.062681 1.412291,0.269998 0.470764,2.592665 2.509585,1.637291 0.664608,-0.55384 1.031526,-1.516139 1.15614,-2.46459 0,-0.01385 0.0035,-0.02769 0.0035,-0.045 0.07269,-0.332304 0.107307,-0.71307 0.09346,-1.118066 -0.04154,-1.097296 -0.411919,-2.329591 -1.197678,-2.987276 -2.038821,-0.955375 -1.097294,1.367293 -2.509585,1.640752 -1.41229,0.269997 -1.488443,-1.367294 -1.488443,-1.367294 l -0.0069,-7.068388 -7.386831,0 C 18.645466,11.384444 17.880475,11.059063 18.074319,10.058688 18.347777,8.6463953 20.67044,9.587924 19.715068,7.5525604 19.157766,6.887952 18.195471,6.5210326 17.247021,6.39988 17.233171,6.39642 17.215861,6.39296 17.202021,6.39296 16.869661,6.320287 16.488897,6.285672 16.080441,6.299518 z"
     style="fill:#ffffff;fill-rule:evenodd;stroke:#ffffff;stroke-width:0.90349442;stroke-linejoin:round;stroke-opacity:1"
     inkscape:connector-curvature="0" />
</svg>
