<?xml version="1.0" encoding="UTF-8" standalone="no"?>
<svg
   xmlns:dc="http://purl.org/dc/elements/1.1/"
   xmlns:cc="http://creativecommons.org/ns#"
   xmlns:rdf="http://www.w3.org/1999/02/22-rdf-syntax-ns#"
   xmlns:svg="http://www.w3.org/2000/svg"
   xmlns="http://www.w3.org/2000/svg"
   xmlns:sodipodi="http://sodipodi.sourceforge.net/DTD/sodipodi-0.dtd"
   xmlns:inkscape="http://www.inkscape.org/namespaces/inkscape"
   width="47.5"
   height="47.5"
   viewBox="0 0 38 38"
   id="svg2"
   version="1.1"
   inkscape:version="0.48.4 r9939"
   sodipodi:docname="applications-cardgames.svg">
  <metadata
     id="metadata14">
    <rdf:RDF>
      <cc:Work
         rdf:about="">
        <dc:format>image/svg+xml</dc:format>
        <dc:type
           rdf:resource="http://purl.org/dc/dcmitype/StillImage" />
      </cc:Work>
    </rdf:RDF>
  </metadata>
  <defs
     id="defs12" />
  <sodipodi:namedview
     pagecolor="#ffffff"
     bordercolor="#666666"
     borderopacity="1"
     objecttolerance="10"
     gridtolerance="10"
     guidetolerance="10"
     inkscape:pageopacity="0"
     inkscape:pageshadow="2"
     inkscape:window-width="1440"
     inkscape:window-height="848"
     id="namedview10"
     showgrid="false"
     inkscape:zoom="4.9684211"
     inkscape:cx="-8.2521186"
     inkscape:cy="23.347458"
     inkscape:window-x="0"
     inkscape:window-y="0"
     inkscape:window-maximized="1"
     inkscape:current-layer="svg2" />
  <g
     style="fill:#ffffff"
     id="g4">
    <path
       d="M 5.183594 5.640625 C 4.621094 5.640625 4.15625 6.109375 4.15625 6.671875 L 4.15625 28.03125 C 4.15625 28.59375 4.621094 29.0625 5.183594 29.0625 L 17.957031 29.0625 C 18.519531 29.0625 18.984375 28.59375 18.984375 28.03125 L 18.984375 6.671875 C 18.984375 6.109375 18.519531 5.640625 17.957031 5.640625 Z M 8.425781 12.894531 C 9.117188 12.847656 9.898438 13.070312 10.511719 13.324219 C 10.972656 13.519531 11.570312 14.390625 11.570312 14.390625 C 11.570312 14.390625 12.167969 13.519531 12.628906 13.324219 C 13.605469 12.917969 15.058594 12.574219 15.804688 13.324219 C 16.804688 14.328125 16.347656 16.273438 15.804688 17.585938 C 15.042969 19.4375 11.570312 21.84375 11.570312 21.84375 C 11.570312 21.84375 8.097656 19.4375 7.332031 17.585938 C 6.792969 16.273438 6.335938 14.328125 7.332031 13.324219 C 7.613281 13.042969 8.007812 12.921875 8.425781 12.894531 Z "
       id="path6"
       style="fill:#ffffff" />
    <path
       d="M 20.746094 6.378906 C 20.203125 6.230469 19.632812 6.5625 19.488281 7.105469 L 13.988281 27.738281 C 13.84375 28.28125 14.171875 28.855469 14.714844 29 L 27.054688 32.324219 C 27.597656 32.472656 28.164062 32.140625 28.308594 31.59375 L 33.808594 10.964844 C 33.953125 10.417969 33.625 9.847656 33.082031 9.699219 Z M 25.269531 14.210938 L 26.96875 20.175781 L 22.527344 24.492188 L 20.832031 18.523438 Z "
       id="path8"
       style="fill:#ffffff" />
  </g>
  <path
     sodipodi:type="arc"
     style="fill:#f9b082;fill-opacity:1;stroke:#ffffff;stroke-width:1;stroke-opacity:1"
     id="path2991"
     sodipodi:cx="-37.43644"
     sodipodi:cy="24.152542"
     sodipodi:rx="15.900424"
     sodipodi:ry="15.900424"
     d="m -21.536016,24.152542 a 15.900424,15.900424 0 1 1 -31.800848,0 15.900424,15.900424 0 1 1 31.800848,0 z"
     transform="matrix(1.1707014,0,0,1.1707014,62.826892,-9.2754149)" />
  <g
     id="g3761"
     style="fill:#ffffff"
     transform="matrix(0.91864126,0,0,0.91864126,2.8344225,2.1897527)">
    <path
       style="fill:#ffffff"
       id="path3763"
       d="m 5.183594,5.640625 c -0.5625,0 -1.027344,0.46875 -1.027344,1.03125 l 0,21.359375 c 0,0.5625 0.464844,1.03125 1.027344,1.03125 l 12.773437,0 c 0.5625,0 1.027344,-0.46875 1.027344,-1.03125 l 0,-21.359375 c 0,-0.5625 -0.464844,-1.03125 -1.027344,-1.03125 z m 3.242187,7.253906 c 0.691407,-0.04687 1.472657,0.175781 2.085938,0.429688 0.460937,0.195312 1.058593,1.066406 1.058593,1.066406 0,0 0.597657,-0.871094 1.058594,-1.066406 0.976563,-0.40625 2.429688,-0.75 3.175782,0 1,1.003906 0.542968,2.949219 0,4.261719 -0.761719,1.851562 -4.234376,4.257812 -4.234376,4.257812 0,0 -3.472656,-2.40625 -4.238281,-4.257812 -0.539062,-1.3125 -0.996093,-3.257813 0,-4.261719 0.28125,-0.28125 0.675781,-0.402344 1.09375,-0.429688 z"
       inkscape:connector-curvature="0" />
    <path
       style="fill:#ffffff"
       id="path3765"
       d="M 20.746094,6.378906 C 20.203125,6.230469 19.632812,6.5625 19.488281,7.105469 l -5.5,20.632812 C 13.84375,28.28125 14.171875,28.855469 14.714844,29 l 12.339844,3.324219 c 0.542968,0.148437 1.109374,-0.183594 1.253906,-0.730469 l 5.5,-20.628906 C 33.953125,10.417969 33.625,9.847656 33.082031,9.699219 z m 4.523437,7.832032 1.699219,5.964843 -4.441406,4.316407 -1.695313,-5.96875 z"
       inkscape:connector-curvature="0" />
  </g>
</svg>
