<?xml version="1.0" encoding="UTF-8" standalone="no"?>
<svg
   xmlns:dc="http://purl.org/dc/elements/1.1/"
   xmlns:cc="http://creativecommons.org/ns#"
   xmlns:rdf="http://www.w3.org/1999/02/22-rdf-syntax-ns#"
   xmlns:svg="http://www.w3.org/2000/svg"
   xmlns="http://www.w3.org/2000/svg"
   xmlns:sodipodi="http://sodipodi.sourceforge.net/DTD/sodipodi-0.dtd"
   xmlns:inkscape="http://www.inkscape.org/namespaces/inkscape"
   width="47.5"
   height="47.5"
   viewBox="0 0 38 38"
   id="svg2"
   version="1.1"
   inkscape:version="0.48.4 r9939"
   sodipodi:docname="applications-boardgames.svg">
  <metadata
     id="metadata20">
    <rdf:RDF>
      <cc:Work
         rdf:about="">
        <dc:format>image/svg+xml</dc:format>
        <dc:type
           rdf:resource="http://purl.org/dc/dcmitype/StillImage" />
      </cc:Work>
    </rdf:RDF>
  </metadata>
  <defs
     id="defs18" />
  <sodipodi:namedview
     pagecolor="#ffffff"
     bordercolor="#666666"
     borderopacity="1"
     objecttolerance="10"
     gridtolerance="10"
     guidetolerance="10"
     inkscape:pageopacity="0"
     inkscape:pageshadow="2"
     inkscape:window-width="1440"
     inkscape:window-height="848"
     id="namedview16"
     showgrid="false"
     inkscape:zoom="4.9684211"
     inkscape:cx="0.90572034"
     inkscape:cy="23.347458"
     inkscape:window-x="0"
     inkscape:window-y="0"
     inkscape:window-maximized="1"
     inkscape:current-layer="svg2" />
  <g
     style="stroke:#ff4545"
     id="g4">
    <g
       id="g6">
      <path
         style="fill:none;stroke-width:8"
         d="M 65.105263 39.131579 L 198.157895 39.131579 C 210.710526 39.131579 220.868421 49.289474 220.868421 61.842105 L 220.868421 194.157895 C 220.868421 206.684211 210.710526 216.868421 198.157895 216.868421 L 65.105263 216.868421 C 52.578947 216.868421 42.394737 206.684211 42.394737 194.157895 L 42.394737 61.842105 C 42.394737 49.289474 52.578947 39.131579 65.105263 39.131579 Z "
         transform="scale(.14844)"
         id="path8" />
    </g>
    <g
       style="stroke-dasharray:0,159;stroke-linecap:round"
       id="g10">
      <path
         style="stroke-width:119"
         d="M 436.962653 117.014821 L -0.01181 117.014821 M 436.962653 439.986881 L -0.01181 439.986881 "
         transform="matrix(.04816 0 0 .04797 6.12557 5.64099)"
         id="path12" />
      <path
         style="stroke-width:109"
         d="M 436.962653 117.014821 L -0.01181 117.014821 M 436.962653 439.986881 L -0.01181 439.986881 "
         transform="matrix(.04816 0 0 .04797 6.12557 5.64099)"
         id="path14" />
    </g>
  </g>
  <path
     sodipodi:type="arc"
     style="fill:#782121;fill-opacity:1;stroke:none"
     id="path2997"
     sodipodi:cx="-10.566737"
     sodipodi:cy="25.058262"
     sodipodi:rx="11.170551"
     sodipodi:ry="11.170551"
     d="m 0.60381413,25.058262 a 11.170551,11.170551 0 1 1 -22.34110213,0 11.170551,11.170551 0 1 1 22.34110213,0 z"
     transform="matrix(1.7188051,0,0,1.7188051,37.162162,-24.070268)" />
  <g
     id="g2999"
     style="fill:none;stroke:#ffffff;stroke-opacity:1"
     transform="matrix(0.93583774,0,0,0.93583774,0.88719493,1.2187835)">
    <g
       id="g3001"
       style="fill:none;stroke:#ffffff;stroke-opacity:1">
      <path
         id="path3003"
         transform="scale(0.14844,0.14844)"
         d="m 65.105263,39.131579 133.052627,0 c 12.55264,0 22.71053,10.157895 22.71053,22.710526 l 0,132.315785 c 0,12.52632 -10.15789,22.71053 -22.71053,22.71053 l -133.052627,0 c -12.526316,0 -22.710526,-10.18421 -22.710526,-22.71053 l 0,-132.315785 c 0,-12.552631 10.18421,-22.710526 22.710526,-22.710526 z"
         style="fill:none;stroke-width:8;stroke:#ffffff;stroke-opacity:1"
         inkscape:connector-curvature="0" />
    </g>
    <g
       id="g3005"
       style="fill:none;stroke-linecap:round;stroke-dasharray:0, 159;stroke:#ffffff;stroke-opacity:1">
      <path
         id="path3007"
         transform="matrix(0.04816,0,0,0.04797,6.12557,5.64099)"
         d="m 436.96265,117.01482 -436.97446,0 m 436.97446,322.97206 -436.97446,0"
         style="fill:none;stroke-width:119;stroke:#ffffff;stroke-opacity:1"
         inkscape:connector-curvature="0" />
      <path
         id="path3009"
         transform="matrix(0.04816,0,0,0.04797,6.12557,5.64099)"
         d="m 436.96265,117.01482 -436.97446,0 m 436.97446,322.97206 -436.97446,0"
         style="fill:none;stroke-width:109;stroke:#ffffff;stroke-opacity:1"
         inkscape:connector-curvature="0" />
    </g>
  </g>
</svg>
