<?xml version="1.0" encoding="UTF-8" standalone="no"?>
<svg
   xmlns:dc="http://purl.org/dc/elements/1.1/"
   xmlns:cc="http://creativecommons.org/ns#"
   xmlns:rdf="http://www.w3.org/1999/02/22-rdf-syntax-ns#"
   xmlns:svg="http://www.w3.org/2000/svg"
   xmlns="http://www.w3.org/2000/svg"
   xmlns:sodipodi="http://sodipodi.sourceforge.net/DTD/sodipodi-0.dtd"
   xmlns:inkscape="http://www.inkscape.org/namespaces/inkscape"
   width="47.5"
   height="47.5"
   viewBox="0 0 38 38"
   id="svg2"
   version="1.1"
   inkscape:version="0.48.4 r9939"
   sodipodi:docname="applications-filesharing.svg">
  <metadata
     id="metadata10">
    <rdf:RDF>
      <cc:Work
         rdf:about="">
        <dc:format>image/svg+xml</dc:format>
        <dc:type
           rdf:resource="http://purl.org/dc/dcmitype/StillImage" />
      </cc:Work>
    </rdf:RDF>
  </metadata>
  <defs
     id="defs8" />
  <sodipodi:namedview
     pagecolor="#ffffff"
     bordercolor="#666666"
     borderopacity="1"
     objecttolerance="10"
     gridtolerance="10"
     guidetolerance="10"
     inkscape:pageopacity="0"
     inkscape:pageshadow="2"
     inkscape:window-width="1440"
     inkscape:window-height="848"
     id="namedview6"
     showgrid="false"
     inkscape:zoom="4.9684211"
     inkscape:cx="-8.2521186"
     inkscape:cy="23.347458"
     inkscape:window-x="0"
     inkscape:window-y="0"
     inkscape:window-maximized="1"
     inkscape:current-layer="svg2" />
  <path
     style="fill:#62abb5"
     d="M 19 33.84375 L 8.164062 23.046875 L 14.9375 23.046875 L 14.9375 14.953125 L 8.164062 14.953125 L 19 4.15625 L 29.835938 14.953125 L 23.0625 14.953125 L 23.0625 23.046875 L 29.835938 23.046875 Z "
     id="path4" />
  <path
     sodipodi:type="arc"
     style="fill:#62abb5;fill-opacity:1;stroke:none"
     id="path2987"
     sodipodi:cx="-36.631355"
     sodipodi:cy="24.756355"
     sodipodi:rx="17.711864"
     sodipodi:ry="17.711864"
     d="m -18.919491,24.756355 a 17.711864,17.711864 0 1 1 -35.423729,0 17.711864,17.711864 0 1 1 35.423729,0 z"
     transform="matrix(1.0840191,0,0,1.0840191,58.709089,-7.836362)" />
  <path
     id="path3757"
     d="M 19 33.84375 L 8.164062 23.046875 L 14.9375 23.046875 L 14.9375 14.953125 L 8.164062 14.953125 L 19 4.15625 L 29.835938 14.953125 L 23.0625 14.953125 L 23.0625 23.046875 L 29.835938 23.046875 Z "
     style="fill:#ffffff" />
</svg>
