<?xml version="1.0" encoding="UTF-8" standalone="no"?>
<svg
   xmlns:dc="http://purl.org/dc/elements/1.1/"
   xmlns:cc="http://creativecommons.org/ns#"
   xmlns:rdf="http://www.w3.org/1999/02/22-rdf-syntax-ns#"
   xmlns:svg="http://www.w3.org/2000/svg"
   xmlns="http://www.w3.org/2000/svg"
   xmlns:sodipodi="http://sodipodi.sourceforge.net/DTD/sodipodi-0.dtd"
   xmlns:inkscape="http://www.inkscape.org/namespaces/inkscape"
   viewBox="0 0 48 48"
   id="svg2"
   version="1.1"
   inkscape:version="0.48.4 r9939"
   width="100%"
   height="100%"
   sodipodi:docname="applications-development.svg">
  <metadata
     id="metadata12">
    <rdf:RDF>
      <cc:Work
         rdf:about="">
        <dc:format>image/svg+xml</dc:format>
        <dc:type
           rdf:resource="http://purl.org/dc/dcmitype/StillImage" />
      </cc:Work>
    </rdf:RDF>
  </metadata>
  <defs
     id="defs10" />
  <sodipodi:namedview
     pagecolor="#ffffff"
     bordercolor="#666666"
     borderopacity="1"
     objecttolerance="10"
     gridtolerance="10"
     guidetolerance="10"
     inkscape:pageopacity="0"
     inkscape:pageshadow="2"
     inkscape:window-width="1440"
     inkscape:window-height="848"
     id="namedview8"
     showgrid="false"
     inkscape:zoom="4.9166667"
     inkscape:cx="-8.3389831"
     inkscape:cy="23.59322"
     inkscape:window-x="0"
     inkscape:window-y="0"
     inkscape:window-maximized="1"
     inkscape:current-layer="svg2" />
  <g
     transform="translate(0 -1004.3622)"
     id="g4">
    <path
       style="fill:#4793db"
       d="M 26.519288,1026.0609 40,1039.4425 l -4.895887,4.9197 -13.510881,-13.4114 c -8.620601,2.4448 -14.1624158,-3.0561 -13.5466578,-12.2245 l 10.0312798,6.0888 2.283863,-2.4215 -6.157573,-9.7796 c 8.004844,-1.8336 15.393931,6.7235 12.315144,13.4469 z"
       id="path6" />
  </g>
  <path
     sodipodi:type="arc"
     style="fill:#4793db;fill-opacity:1;stroke:none"
     id="path2989"
     sodipodi:cx="-29.602707"
     sodipodi:cy="22.474577"
     sodipodi:rx="22.87187"
     sodipodi:ry="14.135593"
     d="m -6.7308369,22.474577 a 22.87187,14.135593 0 1 1 -45.7437401,0 22.87187,14.135593 0 1 1 45.7437401,0 z"
     transform="matrix(1.0493239,0,0,1.6978417,55.062828,-14.158274)" />
  <g
     id="g3759"
     transform="translate(0 -1004.3622)"
     style="fill:#ffffff">
    <path
       id="path3761"
       d="M 26.519288,1026.0609 40,1039.4425 l -4.895887,4.9197 -13.510881,-13.4114 c -8.620601,2.4448 -14.1624158,-3.0561 -13.5466578,-12.2245 l 10.0312798,6.0888 2.283863,-2.4215 -6.157573,-9.7796 c 8.004844,-1.8336 15.393931,6.7235 12.315144,13.4469 z"
       style="fill:#ffffff" />
  </g>
</svg>
