<?xml version="1.0" encoding="UTF-8" standalone="no"?>
<svg
   xmlns:dc="http://purl.org/dc/elements/1.1/"
   xmlns:cc="http://creativecommons.org/ns#"
   xmlns:rdf="http://www.w3.org/1999/02/22-rdf-syntax-ns#"
   xmlns:svg="http://www.w3.org/2000/svg"
   xmlns="http://www.w3.org/2000/svg"
   xmlns:sodipodi="http://sodipodi.sourceforge.net/DTD/sodipodi-0.dtd"
   xmlns:inkscape="http://www.inkscape.org/namespaces/inkscape"
   viewBox="0 0 48 48"
   id="svg2"
   version="1.1"
   inkscape:version="0.48.4 r9939"
   width="100%"
   height="100%"
   sodipodi:docname="applications-viewers.svg">
  <metadata
     id="metadata14">
    <rdf:RDF>
      <cc:Work
         rdf:about="">
        <dc:format>image/svg+xml</dc:format>
        <dc:type
           rdf:resource="http://purl.org/dc/dcmitype/StillImage" />
      </cc:Work>
    </rdf:RDF>
  </metadata>
  <defs
     id="defs12" />
  <sodipodi:namedview
     pagecolor="#ffffff"
     bordercolor="#666666"
     borderopacity="1"
     objecttolerance="10"
     gridtolerance="10"
     guidetolerance="10"
     inkscape:pageopacity="0"
     inkscape:pageshadow="2"
     inkscape:window-width="1440"
     inkscape:window-height="848"
     id="namedview10"
     showgrid="false"
     inkscape:zoom="4.9166667"
     inkscape:cx="-8.3389831"
     inkscape:cy="23.59322"
     inkscape:window-x="0"
     inkscape:window-y="0"
     inkscape:window-maximized="1"
     inkscape:current-layer="svg2" />
  <g
     transform="translate(0 -1004.3622)"
     id="g4">
    <path
       style="fill:#ffffff;line-height:normal;color:#000;fill-opacity:1"
       d="m 23.990858,1017.3624 c -0.375583,0 -0.735317,0.035 -1.097368,0.049 -4.42116,0.1727 -7.84104,1.3335 -10.210298,2.5527 -2.563276,1.3185 -4.0554887,2.7982 -4.0554887,2.7982 -0.840922,0.8758 -0.836222,2.4575 0.0099,3.3282 0.84611,0.8704 2.3832977,0.8752 3.2345047,0.017 0,0 0.634793,-0.6434 2.051601,-1.4727 -0.41616,1.1707 -0.620253,2.4193 -0.620253,3.731 0,6.0456 4.812046,10.9964 10.687414,10.9964 5.87537,0 10.687416,-4.9511 10.687416,-10.9964 0,-1.3119 -0.204094,-2.5604 -0.620251,-3.731 1.416807,0.8293 2.0516,1.4727 2.0516,1.4727 0.847466,0.8825 2.401496,0.8874 3.254156,0.017 0.852662,-0.8775 0.847998,-2.4766 -0.0097,-3.3485 0,0 -1.492216,-1.4797 -4.055495,-2.7982 -2.369256,-1.2191 -5.789137,-2.38 -10.210298,-2.5528 -0.358125,-0.038 -0.730156,-0.049 -1.097367,-0.049 z m 0,3.4559 c 3.399983,0 8.108094,1.6025 8.108094,7.5408 0,5.1988 -3.207362,8.2796 -8.108094,8.2796 -4.829264,0 -8.036629,-3.1549 -8.036629,-8.2796 0,-5.2729 4.636648,-7.5408 8.036629,-7.5408 z"
       id="path6" />
    <path
       style="fill:none;stroke:#ffffff;stroke-linejoin:round;stroke-linecap:round;stroke-width:3.18599999999999994;stroke-opacity:1"
       d="m 25,24 a 1,1 0 1 1 -2,0 1,1 0 1 1 2,0 z"
       transform="matrix(1.52677 0 0 1.57095 -12.6517 990.65615)"
       id="path8" />
  </g>
  <path
     sodipodi:type="arc"
     style="fill:#008080;fill-opacity:1;stroke:none"
     id="path2991"
     sodipodi:cx="-50.64407"
     sodipodi:cy="27.762712"
     sodipodi:rx="20.135593"
     sodipodi:ry="18.61017"
     d="m -30.508476,27.762712 a 20.135593,18.61017 0 1 1 -40.271187,0 20.135593,18.61017 0 1 1 40.271187,0 z"
     transform="matrix(1.1919192,0,0,1.2896174,84.363639,-11.803277)" />
  <g
     id="g3761"
     transform="translate(0 -1004.3622)">
    <path
       id="path3763"
       d="m 23.990858,1017.3624 c -0.375583,0 -0.735317,0.035 -1.097368,0.049 -4.42116,0.1727 -7.84104,1.3335 -10.210298,2.5527 -2.563276,1.3185 -4.0554887,2.7982 -4.0554887,2.7982 -0.840922,0.8758 -0.836222,2.4575 0.0099,3.3282 0.84611,0.8704 2.3832977,0.8752 3.2345047,0.017 0,0 0.634793,-0.6434 2.051601,-1.4727 -0.41616,1.1707 -0.620253,2.4193 -0.620253,3.731 0,6.0456 4.812046,10.9964 10.687414,10.9964 5.87537,0 10.687416,-4.9511 10.687416,-10.9964 0,-1.3119 -0.204094,-2.5604 -0.620251,-3.731 1.416807,0.8293 2.0516,1.4727 2.0516,1.4727 0.847466,0.8825 2.401496,0.8874 3.254156,0.017 0.852662,-0.8775 0.847998,-2.4766 -0.0097,-3.3485 0,0 -1.492216,-1.4797 -4.055495,-2.7982 -2.369256,-1.2191 -5.789137,-2.38 -10.210298,-2.5528 -0.358125,-0.038 -0.730156,-0.049 -1.097367,-0.049 z m 0,3.4559 c 3.399983,0 8.108094,1.6025 8.108094,7.5408 0,5.1988 -3.207362,8.2796 -8.108094,8.2796 -4.829264,0 -8.036629,-3.1549 -8.036629,-8.2796 0,-5.2729 4.636648,-7.5408 8.036629,-7.5408 z"
       style="fill:#ffffff;line-height:normal;color:#000;fill-opacity:1" />
    <path
       id="path3765"
       transform="matrix(1.52677 0 0 1.57095 -12.6517 990.65615)"
       d="m 25,24 a 1,1 0 1 1 -2,0 1,1 0 1 1 2,0 z"
       style="fill:none;stroke:#ffffff;stroke-linejoin:round;stroke-linecap:round;stroke-width:3.18599999999999994;stroke-opacity:1" />
  </g>
</svg>
