<?xml version="1.0" encoding="UTF-8" standalone="no"?>
<svg
   xmlns:dc="http://purl.org/dc/elements/1.1/"
   xmlns:cc="http://creativecommons.org/ns#"
   xmlns:rdf="http://www.w3.org/1999/02/22-rdf-syntax-ns#"
   xmlns:svg="http://www.w3.org/2000/svg"
   xmlns="http://www.w3.org/2000/svg"
   xmlns:sodipodi="http://sodipodi.sourceforge.net/DTD/sodipodi-0.dtd"
   xmlns:inkscape="http://www.inkscape.org/namespaces/inkscape"
   viewBox="0 0 48 48"
   id="svg2"
   version="1.1"
   inkscape:version="0.48.4 r9939"
   width="100%"
   height="100%"
   sodipodi:docname="applications-python.svg">
  <metadata
     id="metadata14">
    <rdf:RDF>
      <cc:Work
         rdf:about="">
        <dc:format>image/svg+xml</dc:format>
        <dc:type
           rdf:resource="http://purl.org/dc/dcmitype/StillImage" />
      </cc:Work>
    </rdf:RDF>
  </metadata>
  <defs
     id="defs12" />
  <sodipodi:namedview
     pagecolor="#ffffff"
     bordercolor="#666666"
     borderopacity="1"
     objecttolerance="10"
     gridtolerance="10"
     guidetolerance="10"
     inkscape:pageopacity="0"
     inkscape:pageshadow="2"
     inkscape:window-width="1440"
     inkscape:window-height="848"
     id="namedview10"
     showgrid="false"
     inkscape:zoom="4.9166667"
     inkscape:cx="-8.3389831"
     inkscape:cy="23.59322"
     inkscape:window-x="0"
     inkscape:window-y="0"
     inkscape:window-maximized="1"
     inkscape:current-layer="svg2" />
  <g
     style="fill:#658db6"
     transform="matrix(.28473 0 0 .28473 57.54818 -282.92519)"
     id="g4">
    <path
       d="m -118.48833,1021.7754 c -4.58366,0.021 -8.96094,0.4122 -12.8125,1.0937 -11.34622,2.0045 -13.40625,6.2001 -13.40625,13.9375 l 0,10.2188 26.8125,0 0,3.4062 -26.8125,0 -10.0625,0 c -7.79246,0 -14.61576,4.6837 -16.75,13.5938 -2.46182,10.2129 -2.57102,16.586 0,27.25 1.90592,7.9378 6.45754,13.5937 14.25,13.5937 l 7.90169,0 0,-13.5671 c 0,-8.8499 7.65714,-16.6562 16.75,-16.6562 l 28.09831,0 c 7.454947,0 14.503795,-6.1382 14.503795,-13.625 l 0,-24.2142 c 0,-7.2663 -7.227529,-12.7248 -14.503795,-13.9375 -4.60599,-0.7667 -9.3851,-1.115 -13.96875,-1.0937 z m -14.5,8.2187 c 2.76954,0 5.03125,2.2987 5.03125,5.125 -10e-6,2.8164 -2.26171,5.0938 -5.03125,5.0938 -2.77948,0 -5.03125,-2.2774 -5.03125,-5.0938 0,-2.8263 2.25177,-5.125 5.03125,-5.125 z"
       id="path6" />
    <path
       d="m -86.233016,1050.4316 0,11.9063 c 0,9.2307 -7.825895,15.9025 -16.749994,15.9025 l -29.41537,0 c -7.33584,0 -13.40625,7.376 -13.40625,14.7225 l 0,25.5312 c 0,7.2664 6.31858,11.5403 13.40625,13.625 8.48733,2.4956 17.72378,2.9467 27.8788,0 6.750151,-1.9544 13.406249,-5.8876 13.406246,-13.625 l 0,-10.2187 -26.781246,0 0,-3.4063 26.781246,0 13.406254,0 c 7.79246,0 10.69625,-5.4354 13.40624,-13.5937 2.79933,-8.3989 2.68022,-16.4758 0,-27.25 -1.92578,-7.7575 -5.60387,-13.5938 -13.40624,-13.5938 z m -16.599064,64.6563 c 2.77947,0 5.031246,2.2774 5.031246,5.0937 -2e-6,2.8264 -2.251776,5.125 -5.031246,5.125 -2.76955,0 -5.03125,-2.2986 -5.03125,-5.125 0,-2.8163 2.26169,-5.0937 5.03125,-5.0937 z"
       id="path8" />
  </g>
  <path
     sodipodi:type="arc"
     style="fill:#658db6;fill-opacity:1;stroke:none"
     id="path2991"
     sodipodi:cx="-33.457626"
     sodipodi:cy="23.898306"
     sodipodi:rx="20.237288"
     sodipodi:ry="20.237288"
     d="m -13.220339,23.898306 a 20.237288,20.237288 0 1 1 -40.474575,0 20.237288,20.237288 0 1 1 40.474575,0 z"
     transform="matrix(1.1859297,0,0,1.1859297,63.678393,-4.3417107)" />
  <g
     id="g3767"
     transform="matrix(.28473 0 0 .28473 57.54818 -282.92519)"
     style="fill:#ffffff">
    <path
       id="path3769"
       d="m -118.48833,1021.7754 c -4.58366,0.021 -8.96094,0.4122 -12.8125,1.0937 -11.34622,2.0045 -13.40625,6.2001 -13.40625,13.9375 l 0,10.2188 26.8125,0 0,3.4062 -26.8125,0 -10.0625,0 c -7.79246,0 -14.61576,4.6837 -16.75,13.5938 -2.46182,10.2129 -2.57102,16.586 0,27.25 1.90592,7.9378 6.45754,13.5937 14.25,13.5937 l 7.90169,0 0,-13.5671 c 0,-8.8499 7.65714,-16.6562 16.75,-16.6562 l 28.09831,0 c 7.454947,0 14.503795,-6.1382 14.503795,-13.625 l 0,-24.2142 c 0,-7.2663 -7.227529,-12.7248 -14.503795,-13.9375 -4.60599,-0.7667 -9.3851,-1.115 -13.96875,-1.0937 z m -14.5,8.2187 c 2.76954,0 5.03125,2.2987 5.03125,5.125 -10e-6,2.8164 -2.26171,5.0938 -5.03125,5.0938 -2.77948,0 -5.03125,-2.2774 -5.03125,-5.0938 0,-2.8263 2.25177,-5.125 5.03125,-5.125 z"
       style="fill:#ffffff" />
    <path
       id="path3771"
       d="m -86.233016,1050.4316 0,11.9063 c 0,9.2307 -7.825895,15.9025 -16.749994,15.9025 l -29.41537,0 c -7.33584,0 -13.40625,7.376 -13.40625,14.7225 l 0,25.5312 c 0,7.2664 6.31858,11.5403 13.40625,13.625 8.48733,2.4956 17.72378,2.9467 27.8788,0 6.750151,-1.9544 13.406249,-5.8876 13.406246,-13.625 l 0,-10.2187 -26.781246,0 0,-3.4063 26.781246,0 13.406254,0 c 7.79246,0 10.69625,-5.4354 13.40624,-13.5937 2.79933,-8.3989 2.68022,-16.4758 0,-27.25 -1.92578,-7.7575 -5.60387,-13.5938 -13.40624,-13.5938 z m -16.599064,64.6563 c 2.77947,0 5.031246,2.2774 5.031246,5.0937 -2e-6,2.8264 -2.251776,5.125 -5.031246,5.125 -2.76955,0 -5.03125,-2.2986 -5.03125,-5.125 0,-2.8163 2.26169,-5.0937 5.03125,-5.0937 z"
       style="fill:#ffffff" />
  </g>
</svg>
