<?xml version="1.0" encoding="UTF-8" standalone="no"?>
<svg
   xmlns:dc="http://purl.org/dc/elements/1.1/"
   xmlns:cc="http://creativecommons.org/ns#"
   xmlns:rdf="http://www.w3.org/1999/02/22-rdf-syntax-ns#"
   xmlns:svg="http://www.w3.org/2000/svg"
   xmlns="http://www.w3.org/2000/svg"
   xmlns:sodipodi="http://sodipodi.sourceforge.net/DTD/sodipodi-0.dtd"
   xmlns:inkscape="http://www.inkscape.org/namespaces/inkscape"
   width="47.5"
   height="47.5"
   viewBox="0 0 38 38"
   id="svg2"
   version="1.1"
   inkscape:version="0.48.4 r9939"
   sodipodi:docname="applications-lisp.svg">
  <metadata
     id="metadata14">
    <rdf:RDF>
      <cc:Work
         rdf:about="">
        <dc:format>image/svg+xml</dc:format>
        <dc:type
           rdf:resource="http://purl.org/dc/dcmitype/StillImage" />
      </cc:Work>
    </rdf:RDF>
  </metadata>
  <defs
     id="defs12" />
  <sodipodi:namedview
     pagecolor="#ffffff"
     bordercolor="#666666"
     borderopacity="1"
     objecttolerance="10"
     gridtolerance="10"
     guidetolerance="10"
     inkscape:pageopacity="0"
     inkscape:pageshadow="2"
     inkscape:window-width="1440"
     inkscape:window-height="848"
     id="namedview10"
     showgrid="false"
     inkscape:zoom="4.9684211"
     inkscape:cx="-8.2521186"
     inkscape:cy="23.347458"
     inkscape:window-x="0"
     inkscape:window-y="0"
     inkscape:window-maximized="1"
     inkscape:current-layer="svg2" />
  <g
     style="fill:#d17d86;fill-rule:evenodd"
     id="g4">
    <path
       d="M 27.738281 24.460938 C 27.738281 26.585938 24.683594 26.683594 24.683594 24.578125 L 24.742188 19.136719 C 24.742188 17.246094 26.734375 15.183594 29.4375 15.152344 C 31.441406 15.152344 31.503906 12.039062 29.4375 12.039062 L 14.183594 12.039062 C 12.679688 12.039062 12.007812 12.925781 12.039062 14.03125 L 12.039062 23.058594 C 12.039062 25.183594 8.984375 25.152344 8.984375 23.058594 C 8.984375 23.058594 8.925781 16.179688 8.925781 13.855469 C 8.925781 11.589844 10.710938 8.859375 14.089844 8.859375 C 17.527344 8.859375 29.367188 8.859375 29.367188 8.859375 C 32.332031 8.886719 33.871094 11.15625 33.84375 13.367188 C 33.832031 16.417969 31.492188 18.253906 29.6875 18.253906 C 28.347656 18.253906 27.78125 19.003906 27.78125 20.257812 Z "
       id="path6" />
    <path
       d="M 4.183594 13.6875 L 4.15625 24.367188 C 4.316406 27.371094 6.453125 29.085938 8.78125 29.144531 L 18.703125 29.046875 C 21.0625 29.046875 22.972656 27.085938 22.972656 24.5 C 22.972656 22.085938 21.386719 20.035156 18.394531 19.953125 C 16.210938 19.953125 16.242188 16.835938 18.394531 16.835938 L 22.886719 16.835938 C 24.929688 16.835938 24.878906 13.597656 22.886719 13.597656 L 18.09375 13.65625 C 15.734375 13.65625 13.589844 15.644531 13.617188 18.214844 C 13.640625 20.789062 15.40625 23.019531 18.183594 23.019531 C 20.347656 23.019531 20.296875 26.117188 18.207031 26.117188 L 9.394531 26.117188 C 8.199219 26.117188 7.304688 25.46875 7.304688 24.011719 L 7.246094 13.710938 C 7.246094 11.402344 4.183594 11.4375 4.183594 13.6875 Z "
       id="path8" />
  </g>
  <path
     sodipodi:type="arc"
     style="fill:#d17d86;fill-opacity:1;stroke:none"
     id="path2991"
     sodipodi:cx="-42.266949"
     sodipodi:cy="17.242023"
     sodipodi:rx="9.6610174"
     sodipodi:ry="15.631854"
     d="m -32.605931,17.242023 a 9.6610174,15.631854 0 1 1 -19.322035,0 9.6610174,15.631854 0 1 1 19.322035,0 z"
     transform="matrix(1.9873683,0,0,1.2282612,102.99999,-2.1777084)" />
  <g
     id="g3761"
     style="fill:#ffffff;fill-rule:evenodd;fill-opacity:1">
    <path
       id="path3763"
       d="M 27.738281 24.460938 C 27.738281 26.585938 24.683594 26.683594 24.683594 24.578125 L 24.742188 19.136719 C 24.742188 17.246094 26.734375 15.183594 29.4375 15.152344 C 31.441406 15.152344 31.503906 12.039062 29.4375 12.039062 L 14.183594 12.039062 C 12.679688 12.039062 12.007812 12.925781 12.039062 14.03125 L 12.039062 23.058594 C 12.039062 25.183594 8.984375 25.152344 8.984375 23.058594 C 8.984375 23.058594 8.925781 16.179688 8.925781 13.855469 C 8.925781 11.589844 10.710938 8.859375 14.089844 8.859375 C 17.527344 8.859375 29.367188 8.859375 29.367188 8.859375 C 32.332031 8.886719 33.871094 11.15625 33.84375 13.367188 C 33.832031 16.417969 31.492188 18.253906 29.6875 18.253906 C 28.347656 18.253906 27.78125 19.003906 27.78125 20.257812 Z "
       style="fill:#ffffff;fill-opacity:1" />
    <path
       id="path3765"
       d="M 4.183594 13.6875 L 4.15625 24.367188 C 4.316406 27.371094 6.453125 29.085938 8.78125 29.144531 L 18.703125 29.046875 C 21.0625 29.046875 22.972656 27.085938 22.972656 24.5 C 22.972656 22.085938 21.386719 20.035156 18.394531 19.953125 C 16.210938 19.953125 16.242188 16.835938 18.394531 16.835938 L 22.886719 16.835938 C 24.929688 16.835938 24.878906 13.597656 22.886719 13.597656 L 18.09375 13.65625 C 15.734375 13.65625 13.589844 15.644531 13.617188 18.214844 C 13.640625 20.789062 15.40625 23.019531 18.183594 23.019531 C 20.347656 23.019531 20.296875 26.117188 18.207031 26.117188 L 9.394531 26.117188 C 8.199219 26.117188 7.304688 25.46875 7.304688 24.011719 L 7.246094 13.710938 C 7.246094 11.402344 4.183594 11.4375 4.183594 13.6875 Z "
       style="fill:#ffffff;fill-opacity:1" />
  </g>
</svg>
