<?xml version="1.0" encoding="UTF-8" standalone="no"?>
<svg
   xmlns:dc="http://purl.org/dc/elements/1.1/"
   xmlns:cc="http://creativecommons.org/ns#"
   xmlns:rdf="http://www.w3.org/1999/02/22-rdf-syntax-ns#"
   xmlns:svg="http://www.w3.org/2000/svg"
   xmlns="http://www.w3.org/2000/svg"
   xmlns:sodipodi="http://sodipodi.sourceforge.net/DTD/sodipodi-0.dtd"
   xmlns:inkscape="http://www.inkscape.org/namespaces/inkscape"
   viewBox="0 0 48 48"
   id="svg2"
   version="1.1"
   inkscape:version="0.48.4 r9939"
   width="100%"
   height="100%"
   sodipodi:docname="applications-multimedia.svg">
  <metadata
     id="metadata12">
    <rdf:RDF>
      <cc:Work
         rdf:about="">
        <dc:format>image/svg+xml</dc:format>
        <dc:type
           rdf:resource="http://purl.org/dc/dcmitype/StillImage" />
      </cc:Work>
    </rdf:RDF>
  </metadata>
  <defs
     id="defs10" />
  <sodipodi:namedview
     pagecolor="#ffffff"
     bordercolor="#666666"
     borderopacity="1"
     objecttolerance="10"
     gridtolerance="10"
     guidetolerance="10"
     inkscape:pageopacity="0"
     inkscape:pageshadow="2"
     inkscape:window-width="1440"
     inkscape:window-height="848"
     id="namedview8"
     showgrid="false"
     inkscape:zoom="4.9166667"
     inkscape:cx="-8.3389831"
     inkscape:cy="23.59322"
     inkscape:window-x="0"
     inkscape:window-y="0"
     inkscape:window-maximized="1"
     inkscape:current-layer="svg2" />
  <g
     transform="translate(0 -1004.3622)"
     id="g4">
    <path
       style="fill:#4c7686"
       d="m 20.496999,1012.3622 0,19.2036 c -1.348641,-0.528 -3.111019,-0.6182 -4.92972,-0.1255 -3.398977,0.9195 -5.677943,3.5007 -5.079109,5.757 0.598839,2.2564 3.840477,3.3441 7.239452,2.4246 2.887749,-0.7812 4.956515,-2.7619 5.148054,-4.7228 l 0.02298,0 0,-14.1227 12.307065,1.5284 0,13.6744 c -1.348641,-0.5281 -3.111018,-0.6184 -4.92972,-0.1255 -3.398977,0.9195 -5.677945,3.5009 -5.079108,5.7571 0.598837,2.2563 3.840475,3.3441 7.239451,2.4246 2.88775,-0.7812 4.956517,-2.7618 5.148054,-4.7228 l 0.02297,0 0,-24.6735 -17.110383,-2.2753 z m 2.40166,4.6214 12.307063,1.7351 0,1.5514 -12.307063,-1.5282 0,-1.7583 z"
       id="path6" />
  </g>
  <path
     sodipodi:type="arc"
     style="fill:#4c7686;fill-opacity:1;stroke:none"
     id="path2989"
     sodipodi:cx="-29.288136"
     sodipodi:cy="29.19746"
     sodipodi:rx="13.016949"
     sodipodi:ry="21.061867"
     d="m -16.271187,29.19746 a 13.016949,21.061867 0 1 1 -26.033897,0 13.016949,21.061867 0 1 1 26.033897,0 z"
     transform="matrix(1.8437501,0,0,1.1395001,78.000003,-9.2705088)" />
  <g
     id="g3759"
     transform="translate(0 -1004.3622)"
     style="fill:#ffffff">
    <path
       id="path3761"
       d="m 20.496999,1012.3622 0,19.2036 c -1.348641,-0.528 -3.111019,-0.6182 -4.92972,-0.1255 -3.398977,0.9195 -5.677943,3.5007 -5.079109,5.757 0.598839,2.2564 3.840477,3.3441 7.239452,2.4246 2.887749,-0.7812 4.956515,-2.7619 5.148054,-4.7228 l 0.02298,0 0,-14.1227 12.307065,1.5284 0,13.6744 c -1.348641,-0.5281 -3.111018,-0.6184 -4.92972,-0.1255 -3.398977,0.9195 -5.677945,3.5009 -5.079108,5.7571 0.598837,2.2563 3.840475,3.3441 7.239451,2.4246 2.88775,-0.7812 4.956517,-2.7618 5.148054,-4.7228 l 0.02297,0 0,-24.6735 -17.110383,-2.2753 z m 2.40166,4.6214 12.307063,1.7351 0,1.5514 -12.307063,-1.5282 0,-1.7583 z"
       style="fill:#ffffff" />
  </g>
</svg>
