<?xml version="1.0" encoding="UTF-8" standalone="no"?>
<svg
   xmlns:dc="http://purl.org/dc/elements/1.1/"
   xmlns:cc="http://creativecommons.org/ns#"
   xmlns:rdf="http://www.w3.org/1999/02/22-rdf-syntax-ns#"
   xmlns:svg="http://www.w3.org/2000/svg"
   xmlns="http://www.w3.org/2000/svg"
   xmlns:sodipodi="http://sodipodi.sourceforge.net/DTD/sodipodi-0.dtd"
   xmlns:inkscape="http://www.inkscape.org/namespaces/inkscape"
   width="47.5"
   height="47.5"
   viewBox="0 0 38 38"
   id="svg2"
   version="1.1"
   inkscape:version="0.48.4 r9939"
   sodipodi:docname="applications-photography.svg">
  <metadata
     id="metadata18">
    <rdf:RDF>
      <cc:Work
         rdf:about="">
        <dc:format>image/svg+xml</dc:format>
        <dc:type
           rdf:resource="http://purl.org/dc/dcmitype/StillImage" />
      </cc:Work>
    </rdf:RDF>
  </metadata>
  <defs
     id="defs16" />
  <sodipodi:namedview
     pagecolor="#ffffff"
     bordercolor="#666666"
     borderopacity="1"
     objecttolerance="10"
     gridtolerance="10"
     guidetolerance="10"
     inkscape:pageopacity="0"
     inkscape:pageshadow="2"
     inkscape:window-width="1440"
     inkscape:window-height="848"
     id="namedview14"
     showgrid="false"
     inkscape:zoom="4.9684211"
     inkscape:cx="0.90572034"
     inkscape:cy="23.347458"
     inkscape:window-x="0"
     inkscape:window-y="0"
     inkscape:window-maximized="1"
     inkscape:current-layer="svg2" />
  <path
     style="fill:none;stroke:#ffffff;stroke-linejoin:round;stroke-linecap:round;stroke-width:12.50300000000000011;stroke-opacity:1"
     d="M 43.421053 -139.315789 L 212.578947 -139.315789 C 217.631579 -139.315789 221.736842 -135.210526 221.736842 -130.131579 L 221.736842 -23.421053 C 221.736842 -18.368421 217.631579 -14.263158 212.578947 -14.263158 L 43.421053 -14.263158 C 38.368421 -14.263158 34.263158 -18.368421 34.263158 -23.421053 L 34.263158 -130.131579 C 34.263158 -135.210526 38.368421 -139.315789 43.421053 -139.315789 Z "
     transform="matrix(.14844 0 0 .14844 0 30.875)"
     id="path4" />
  <g
     style="fill:#ffffff;fill-opacity:1"
     id="g6">
    <path
       d="M 8.796875 8.3125 L 12.503906 8.3125 C 13.019531 8.3125 13.433594 8.726562 13.433594 9.242188 C 13.433594 9.753906 13.019531 10.167969 12.503906 10.167969 L 8.796875 10.167969 C 8.28125 10.167969 7.867188 9.753906 7.867188 9.242188 C 7.867188 8.726562 8.28125 8.3125 8.796875 8.3125 Z "
       id="path8"
       style="fill:#ffffff;fill-opacity:1" />
    <path
       d="M 29.207031 12.023438 L 30.132812 12.023438 C 30.644531 12.023438 31.058594 12.441406 31.058594 12.953125 L 31.058594 13.882812 C 31.058594 14.394531 30.644531 14.808594 30.132812 14.808594 L 29.207031 14.808594 C 28.691406 14.808594 28.277344 14.394531 28.277344 13.882812 L 28.277344 12.953125 C 28.277344 12.441406 28.691406 12.023438 29.207031 12.023438 Z "
       id="path10"
       style="fill:#ffffff;fill-opacity:1" />
  </g>
  <path
     style="fill:none;stroke:#ffffff;stroke-width:2;stroke-opacity:1"
     d="M 31.001126 26.499921 C 31.001126 30.089972 28.091615 32.998208 24.49999 32.998208 C 20.908365 32.998208 17.998855 30.089972 17.998855 26.499921 C 17.998855 22.90987 20.908365 20.001634 24.49999 20.001634 C 28.091615 20.001634 31.001126 22.90987 31.001126 26.499921 Z "
     transform="matrix(.92772 0 0 .92813 -3.72919 -4.68129)"
     id="path12" />
  <path
     sodipodi:type="arc"
     style="fill:#ffd5d5;fill-opacity:1;stroke:none"
     id="path2995"
     sodipodi:cx="-30.291313"
     sodipodi:cy="15.799788"
     sodipodi:rx="18.013771"
     sodipodi:ry="18.013771"
     d="m -12.277542,15.799788 a 18.013771,18.013771 0 1 1 -36.027542,0 18.013771,18.013771 0 1 1 36.027542,0 z"
     transform="matrix(1.0658512,0,0,1.0658512,51.286032,2.1597765)" />
  <path
     id="path2997"
     transform="matrix(.14844 0 0 .14844 0 30.875)"
     d="M 43.421053 -139.315789 L 212.578947 -139.315789 C 217.631579 -139.315789 221.736842 -135.210526 221.736842 -130.131579 L 221.736842 -23.421053 C 221.736842 -18.368421 217.631579 -14.263158 212.578947 -14.263158 L 43.421053 -14.263158 C 38.368421 -14.263158 34.263158 -18.368421 34.263158 -23.421053 L 34.263158 -130.131579 C 34.263158 -135.210526 38.368421 -139.315789 43.421053 -139.315789 Z "
     style="fill:none;stroke:#ffffff;stroke-linejoin:round;stroke-linecap:round;stroke-width:12.50300000000000011;stroke-opacity:1" />
  <g
     id="g2999"
     style="fill:#ffffff;fill-opacity:1">
    <path
       style="fill:#ffffff;fill-opacity:1"
       id="path3001"
       d="M 8.796875 8.3125 L 12.503906 8.3125 C 13.019531 8.3125 13.433594 8.726562 13.433594 9.242188 C 13.433594 9.753906 13.019531 10.167969 12.503906 10.167969 L 8.796875 10.167969 C 8.28125 10.167969 7.867188 9.753906 7.867188 9.242188 C 7.867188 8.726562 8.28125 8.3125 8.796875 8.3125 Z " />
    <path
       style="fill:#ffffff;fill-opacity:1"
       id="path3003"
       d="M 29.207031 12.023438 L 30.132812 12.023438 C 30.644531 12.023438 31.058594 12.441406 31.058594 12.953125 L 31.058594 13.882812 C 31.058594 14.394531 30.644531 14.808594 30.132812 14.808594 L 29.207031 14.808594 C 28.691406 14.808594 28.277344 14.394531 28.277344 13.882812 L 28.277344 12.953125 C 28.277344 12.441406 28.691406 12.023438 29.207031 12.023438 Z " />
  </g>
  <path
     id="path3005"
     transform="matrix(.92772 0 0 .92813 -3.72919 -4.68129)"
     d="M 31.001126 26.499921 C 31.001126 30.089972 28.091615 32.998208 24.49999 32.998208 C 20.908365 32.998208 17.998855 30.089972 17.998855 26.499921 C 17.998855 22.90987 20.908365 20.001634 24.49999 20.001634 C 28.091615 20.001634 31.001126 22.90987 31.001126 26.499921 Z "
     style="fill:none;stroke:#ffffff;stroke-width:2;stroke-opacity:1" />
</svg>
