<?xml version="1.0" encoding="UTF-8" standalone="no"?>
<svg
   xmlns:dc="http://purl.org/dc/elements/1.1/"
   xmlns:cc="http://creativecommons.org/ns#"
   xmlns:rdf="http://www.w3.org/1999/02/22-rdf-syntax-ns#"
   xmlns:svg="http://www.w3.org/2000/svg"
   xmlns="http://www.w3.org/2000/svg"
   xmlns:sodipodi="http://sodipodi.sourceforge.net/DTD/sodipodi-0.dtd"
   xmlns:inkscape="http://www.inkscape.org/namespaces/inkscape"
   width="47.5"
   height="47.5"
   viewBox="0 0 38 38"
   id="svg2"
   version="1.1"
   inkscape:version="0.48.4 r9939"
   sodipodi:docname="applications-roleplaying.svg">
  <metadata
     id="metadata28">
    <rdf:RDF>
      <cc:Work
         rdf:about="">
        <dc:format>image/svg+xml</dc:format>
        <dc:type
           rdf:resource="http://purl.org/dc/dcmitype/StillImage" />
      </cc:Work>
    </rdf:RDF>
  </metadata>
  <defs
     id="defs26" />
  <sodipodi:namedview
     pagecolor="#ffffff"
     bordercolor="#666666"
     borderopacity="1"
     objecttolerance="10"
     gridtolerance="10"
     guidetolerance="10"
     inkscape:pageopacity="0"
     inkscape:pageshadow="2"
     inkscape:window-width="1440"
     inkscape:window-height="848"
     id="namedview24"
     showgrid="false"
     inkscape:zoom="4.9684211"
     inkscape:cx="-8.2521186"
     inkscape:cy="23.347458"
     inkscape:window-x="0"
     inkscape:window-y="0"
     inkscape:window-maximized="1"
     inkscape:current-layer="svg2" />
  <g
     style="stroke:#559ca5;stroke-width:4.545;fill:#559ca5"
     id="g4">
    <g
       id="g6">
      <path
         d="M 69.157895 106.236842 C 70.789474 113.789474 71.710526 119.473684 70.368421 127.026316 C 60.078947 135.394737 33.763158 139.157895 33.815789 147.815789 L 30.263158 173.789474 C 30.263158 182.394737 54.815789 189.368421 85.078947 189.368421 C 115.342105 189.368421 139.868421 182.394737 139.868421 173.789474 L 136.342105 147.815789 C 136.289474 140.394737 109.815789 135.684211 99.657895 127.026316 C 98.789474 120.026316 99.473684 113.236842 100.973684 106.236842 Z "
         transform="scale(.14844)"
         id="path8" />
      <path
         d="M 84.815789 57.552632 C 72.263158 57.552632 62.078947 67.342105 62.078947 79.394737 C 62.184211 83.868421 62.552632 89.184211 65.131579 101.263158 C 66.631579 105.947368 80.157895 119.368421 80.263158 120.921053 C 83.210526 122.473684 87.842105 122.473684 90.868421 120.921053 C 90.868421 119.368421 103 105.947368 104.526316 101.263158 C 107.394737 88.710526 107.394737 84.105263 107.552632 79.394737 C 107.552632 67.342105 97.368421 57.552632 84.815789 57.552632 Z "
         transform="scale(.14844)"
         id="path10" />
    </g>
    <g
       style="stroke-linejoin:round"
       id="g12">
      <path
         d="M 132.736842 71.184211 C 125.078947 66.631579 112.631579 34.947368 114.552632 48.447368 L 119.105263 80.263158 Z "
         transform="scale(.14844)"
         id="path14" />
      <path
         d="M 178 71.184211 C 185.684211 66.631579 198.105263 34.947368 196.184211 48.447368 L 191.631579 80.263158 Z "
         transform="scale(.14844)"
         id="path16" />
    </g>
    <g
       id="g18">
      <path
         d="M 134.815789 107.552632 C 136.921053 117.447368 138.078947 124.921053 136.368421 134.815789 C 123.157895 145.789474 89.315789 150.736842 89.368421 162.078947 L 84.815789 196.184211 C 84.815789 207.473684 116.368421 216.631579 155.263158 216.631579 C 194.184211 216.631579 225.736842 207.473684 225.736842 196.184211 L 221.184211 162.078947 C 221.131579 152.368421 187.078947 146.184211 174.026316 134.815789 C 172.894737 125.631579 173.789474 116.736842 175.736842 107.552632 Z "
         transform="scale(.14844)"
         id="path20" />
      <path
         d="M 155.263158 39.368421 C 136.447368 39.368421 121.184211 53.605263 121.184211 71.184211 C 121.342105 77.684211 121.894737 85.421053 125.736842 103 C 128 109.815789 148.263158 128 148.447368 130.263158 C 152.868421 132.552632 159.815789 132.552632 164.368421 130.263158 C 164.368421 128 182.552632 109.815789 184.815789 103 C 189.131579 84.710526 189.131579 78 189.368421 71.184211 C 189.368421 53.605263 174.105263 39.368421 155.263158 39.368421 Z "
         transform="scale(.14844)"
         id="path22" />
    </g>
  </g>
  <path
     sodipodi:type="arc"
     style="fill:#559ca5;fill-opacity:1;stroke:none"
     id="path3005"
     sodipodi:cx="-20.026484"
     sodipodi:cy="22.643009"
     sodipodi:rx="18.818855"
     sodipodi:ry="18.818855"
     d="m -1.2076283,22.643009 a 18.818855,18.818855 0 1 1 -37.6377107,0 18.818855,18.818855 0 1 1 37.6377107,0 z"
     transform="matrix(1.0202533,0,0,1.0202533,39.432086,-4.1016048)" />
  <g
     id="g3775"
     style="stroke:#ffffff;stroke-width:4.54499999999999993;fill:#ffffff;stroke-opacity:1">
    <g
       id="g3777"
       style="fill:#ffffff;stroke:#ffffff;stroke-opacity:1">
      <path
         id="path3779"
         transform="scale(.14844)"
         d="M 69.157895 106.236842 C 70.789474 113.789474 71.710526 119.473684 70.368421 127.026316 C 60.078947 135.394737 33.763158 139.157895 33.815789 147.815789 L 30.263158 173.789474 C 30.263158 182.394737 54.815789 189.368421 85.078947 189.368421 C 115.342105 189.368421 139.868421 182.394737 139.868421 173.789474 L 136.342105 147.815789 C 136.289474 140.394737 109.815789 135.684211 99.657895 127.026316 C 98.789474 120.026316 99.473684 113.236842 100.973684 106.236842 Z "
         style="fill:#ffffff;stroke:#ffffff;stroke-opacity:1" />
      <path
         id="path3781"
         transform="scale(.14844)"
         d="M 84.815789 57.552632 C 72.263158 57.552632 62.078947 67.342105 62.078947 79.394737 C 62.184211 83.868421 62.552632 89.184211 65.131579 101.263158 C 66.631579 105.947368 80.157895 119.368421 80.263158 120.921053 C 83.210526 122.473684 87.842105 122.473684 90.868421 120.921053 C 90.868421 119.368421 103 105.947368 104.526316 101.263158 C 107.394737 88.710526 107.394737 84.105263 107.552632 79.394737 C 107.552632 67.342105 97.368421 57.552632 84.815789 57.552632 Z "
         style="fill:#ffffff;stroke:#ffffff;stroke-opacity:1" />
    </g>
    <g
       id="g3783"
       style="stroke-linejoin:round;fill:#ffffff;stroke:#ffffff;stroke-opacity:1">
      <path
         id="path3785"
         transform="scale(.14844)"
         d="M 132.736842 71.184211 C 125.078947 66.631579 112.631579 34.947368 114.552632 48.447368 L 119.105263 80.263158 Z "
         style="fill:#ffffff;stroke:#ffffff;stroke-opacity:1" />
      <path
         id="path3787"
         transform="scale(.14844)"
         d="M 178 71.184211 C 185.684211 66.631579 198.105263 34.947368 196.184211 48.447368 L 191.631579 80.263158 Z "
         style="fill:#ffffff;stroke:#ffffff;stroke-opacity:1" />
    </g>
    <g
       id="g3789"
       style="fill:#ffffff;stroke:#ffffff;stroke-opacity:1">
      <path
         id="path3791"
         transform="scale(.14844)"
         d="M 134.815789 107.552632 C 136.921053 117.447368 138.078947 124.921053 136.368421 134.815789 C 123.157895 145.789474 89.315789 150.736842 89.368421 162.078947 L 84.815789 196.184211 C 84.815789 207.473684 116.368421 216.631579 155.263158 216.631579 C 194.184211 216.631579 225.736842 207.473684 225.736842 196.184211 L 221.184211 162.078947 C 221.131579 152.368421 187.078947 146.184211 174.026316 134.815789 C 172.894737 125.631579 173.789474 116.736842 175.736842 107.552632 Z "
         style="fill:#ffffff;stroke:#ffffff;stroke-opacity:1" />
      <path
         id="path3793"
         transform="scale(.14844)"
         d="M 155.263158 39.368421 C 136.447368 39.368421 121.184211 53.605263 121.184211 71.184211 C 121.342105 77.684211 121.894737 85.421053 125.736842 103 C 128 109.815789 148.263158 128 148.447368 130.263158 C 152.868421 132.552632 159.815789 132.552632 164.368421 130.263158 C 164.368421 128 182.552632 109.815789 184.815789 103 C 189.131579 84.710526 189.131579 78 189.368421 71.184211 C 189.368421 53.605263 174.105263 39.368421 155.263158 39.368421 Z "
         style="fill:#ffffff;stroke:#ffffff;stroke-opacity:1" />
    </g>
  </g>
</svg>
