<?xml version="1.0" encoding="UTF-8" standalone="no"?>
<svg
   xmlns:dc="http://purl.org/dc/elements/1.1/"
   xmlns:cc="http://creativecommons.org/ns#"
   xmlns:rdf="http://www.w3.org/1999/02/22-rdf-syntax-ns#"
   xmlns:svg="http://www.w3.org/2000/svg"
   xmlns="http://www.w3.org/2000/svg"
   xmlns:sodipodi="http://sodipodi.sourceforge.net/DTD/sodipodi-0.dtd"
   xmlns:inkscape="http://www.inkscape.org/namespaces/inkscape"
   width="47.5"
   height="47.5"
   viewBox="0 0 38 38"
   id="svg2"
   version="1.1"
   inkscape:version="0.48.4 r9939"
   sodipodi:docname="applications-geology.svg">
  <metadata
     id="metadata24">
    <rdf:RDF>
      <cc:Work
         rdf:about="">
        <dc:format>image/svg+xml</dc:format>
        <dc:type
           rdf:resource="http://purl.org/dc/dcmitype/StillImage" />
      </cc:Work>
    </rdf:RDF>
  </metadata>
  <defs
     id="defs22" />
  <sodipodi:namedview
     pagecolor="#ffffff"
     bordercolor="#666666"
     borderopacity="1"
     objecttolerance="10"
     gridtolerance="10"
     guidetolerance="10"
     inkscape:pageopacity="0"
     inkscape:pageshadow="2"
     inkscape:window-width="1440"
     inkscape:window-height="848"
     id="namedview20"
     showgrid="false"
     inkscape:zoom="4.9684211"
     inkscape:cx="-8.2521186"
     inkscape:cy="-0.72893798"
     inkscape:window-x="0"
     inkscape:window-y="0"
     inkscape:window-maximized="1"
     inkscape:current-layer="svg2" />
  <path
     sodipodi:type="arc"
     style="fill:#a57855;fill-opacity:1;stroke:none"
     id="path3001"
     sodipodi:cx="-50.015888"
     sodipodi:cy="20.429026"
     sodipodi:rx="11.774364"
     sodipodi:ry="11.774364"
     d="m -38.241524,20.429026 a 11.774364,11.774364 0 1 1 -23.548729,0 11.774364,11.774364 0 1 1 23.548729,0 z"
     transform="matrix(1.6306613,0,0,1.6306613,100.55897,-14.31282)" />
  <g
     id="g3771"
     style="stroke:#ffffff;stroke-opacity:1"
     transform="matrix(0.92407681,0,0,0.92407681,1.4422452,1.4422452)">
    <g
       id="g3773"
       style="fill:#a57855;fill-rule:evenodd;stroke:#ffffff;stroke-linejoin:round;stroke-opacity:1">
      <path
         id="path3775"
         transform="scale(0.14844,0.14844)"
         d="M 30.710526,148.18421 C 69,147.65789 84.5,142.94737 96.263158,139.31579 c 11.763162,-3.6579 29.210522,-11.5 29.210522,-11.5 l 44,89.8421 -138.763154,0 z"
         style="stroke:#ffffff;stroke-width:5.41800022;stroke-opacity:1"
         inkscape:connector-curvature="0" />
      <path
         id="path3777"
         transform="scale(0.14844,0.14844)"
         d="m 157.28947,182.07895 c 0,0 -19.76315,10.97368 -25.44737,13.73684 -7.86842,3.81579 -21.42105,14.10526 -45.157889,21.47368 l -55.631579,0 0,-43.89473 c 32.131579,-1 55.289473,-2 69.684208,-8.02632 14.36842,-6.02632 41.47369,-20.07895 41.47369,-20.07895 z"
         style="stroke:#ffffff;stroke-width:6.12300014;stroke-opacity:1"
         inkscape:connector-curvature="0" />
      <path
         id="path3779"
         transform="scale(0.14844,0.14844)"
         d="m 132.52632,142.18421 c 20.8421,-20.89474 14.78947,-27.15789 35.94736,-28.97368 21.1579,-1.81579 56.81579,14.07894 56.81579,14.07894 l 0,90.31579 -55.81579,0 z"
         style="stroke:#ffffff;stroke-width:5.41800022;stroke-opacity:1"
         inkscape:connector-curvature="0" />
      <path
         id="path3781"
         transform="scale(0.14844,0.14844)"
         d="m 224.60526,184.10526 c 0,0 -4.97368,-2.63158 -11.44737,-5.36842 -6.36842,-2.65789 -11.5,-3.97368 -23.07894,-0.65789 -7.84211,2.23684 -14.36842,7.21052 -27.73685,17.26315 L 145.23684,152.31579 C 158.52632,140.3421 169,131.89474 182.36842,130.89474 c 13.39474,-1 24.42105,1.3421 31.13158,4.68421 6.68421,3.3421 10.44737,5.68421 10.44737,5.68421 z"
         style="stroke:#ffffff;stroke-width:6.12300014;stroke-opacity:1"
         inkscape:connector-curvature="0" />
    </g>
    <g
       id="g3783"
       style="stroke:#ffffff;stroke-opacity:1">
      <path
         id="path3785"
         transform="scale(0.14844,0.14844)"
         d="m 34.394737,32.026316 187.210523,0 c 1.31579,0 2.36842,1.052631 2.36842,2.368421 l 0,187.210523 c 0,1.31579 -1.05263,2.36842 -2.36842,2.36842 l -187.210523,0 c -1.31579,0 -2.368421,-1.05263 -2.368421,-2.36842 l 0,-187.210523 c 0,-1.31579 1.052631,-2.368421 2.368421,-2.368421 z"
         style="fill:none;stroke:#ffffff;stroke-width:8.07299995;stroke-linecap:round;stroke-opacity:1"
         inkscape:connector-curvature="0" />
    </g>
  </g>
  <path
     style="fill:#ffffff;fill-opacity:1;stroke:#ffffff;stroke-width:0.20127119;stroke-opacity:1"
     d="m 8.0105932,35.271155 0,-3.095494 2.5662078,-0.134409 c 3.650468,-0.191199 6.926713,-0.662283 8.368983,-1.203358 0.682944,-0.256209 2.290328,-0.965887 3.571965,-1.577062 l 2.330249,-1.111226 1.226599,2.462495 1.2266,2.462495 -3.053671,1.683409 c -6.60992,3.643877 -6.493391,3.608419 -11.859284,3.608543 l -4.3776488,1.02e-4 0,-3.095495 z"
     id="path3787"
     inkscape:connector-curvature="0"
     transform="scale(0.8,0.8)" />
  <path
     style="fill:#ffffff;fill-opacity:1;stroke:#ffffff;stroke-width:0.20127119;stroke-opacity:1"
     d="m 8.0105932,29.313019 0,-1.613742 1.1649591,0 c 1.6922797,0 5.6786707,-0.52744 7.5727717,-1.001955 1.321129,-0.330973 4.129553,-1.318768 5.960129,-2.09633 0.228303,-0.09698 0.468356,0.196884 0.936716,1.146668 l 0.629746,1.277058 -2.647521,1.234287 c -1.456137,0.678859 -3.046262,1.374921 -3.533612,1.546806 -1.056272,0.37254 -4.677241,0.836478 -7.818888,1.001798 l -2.2643008,0.119152 0,-1.613742 z"
     id="path3789"
     inkscape:connector-curvature="0"
     transform="scale(0.8,0.8)" />
  <path
     style="fill:#ffffff;fill-opacity:1;stroke:#ffffff;stroke-width:0.20127119;stroke-opacity:1"
     d="m 23.807815,36.45404 c 2.101873,-1.162048 3.870022,-2.112814 3.92922,-2.112814 0.0592,0 0.580601,0.951006 1.158673,2.113348 l 1.051038,2.113347 -4.980259,-5.43e-4 -4.980258,-5.24e-4 3.821586,-2.112814 z"
     id="path3791"
     inkscape:connector-curvature="0"
     transform="scale(0.8,0.8)" />
  <path
     style="fill:#ffffff;fill-opacity:1;stroke:#ffffff;stroke-width:0.20127119;stroke-opacity:1"
     d="M 30.586345,37.235933 C 30.225087,36.50334 29.956574,35.877105 29.98965,35.8443 c 0.413373,-0.409987 3.093755,-2.221827 3.783655,-2.557612 1.343877,-0.654086 3.144211,-0.714972 4.528451,-0.15315 l 1.107142,0.449356 0,2.492513 0,2.492514 -4.08286,0 -4.08286,0 -0.656833,-1.331988 z"
     id="path3793"
     inkscape:connector-curvature="0"
     transform="scale(0.8,0.8)" />
  <path
     style="fill:#ffffff;fill-opacity:1;stroke:#ffffff;stroke-width:0.20127119;stroke-opacity:1"
     d="m 28.652987,31.10767 -1.19553,-3.030413 0.591716,-0.494983 c 1.11999,-0.936894 2.301247,-1.712371 3.357372,-2.204064 1.812101,-0.843647 4.969404,-0.630264 7.146951,0.48302 l 0.855402,0.43733 0,2.914341 c 0,1.602888 -0.04819,2.914342 -0.1071,2.914342 -0.0589,0 -0.407775,-0.12563 -0.775266,-0.279178 -2.052651,-0.857652 -4.335335,-0.453997 -6.813744,1.204897 -0.89319,0.597846 -1.678047,1.086572 -1.744127,1.086057 -0.06608,-5.23e-4 -0.658132,-1.364622 -1.315674,-3.031349 l 0,0 z"
     id="path3795"
     inkscape:connector-curvature="0"
     transform="scale(0.8,0.8)" />
  <path
     style="fill:#ffffff;fill-opacity:1;stroke:#ffffff;stroke-width:0.20127119;stroke-opacity:1"
     d="M 7.0042373,40.379362 C 6.6083808,39.983506 6.6016949,39.708458 6.6016949,23.819273 6.6016949,9.5211827 6.6377526,7.6102469 6.9150146,7.2144 l 0.3133196,-0.4473264 16.4784478,0 c 14.712045,0 16.512352,0.033904 16.794731,0.3162833 0.282347,0.2823468 0.316284,2.0732674 0.316284,16.6911321 0,14.617865 -0.03394,16.408784 -0.316284,16.691132 -0.282351,0.282351 -2.074575,0.316283 -16.705508,0.316283 -16.1208638,0 -16.3958167,-0.0066 -16.7917677,-0.402542 z M 30.14003,38.618239 c -0.0057,-0.08302 -0.526505,-1.161339 -1.157309,-2.396254 l -1.146916,-2.245301 -2.51589,1.398277 c -1.383739,0.769053 -3.41358,1.847368 -4.510758,2.396254 l -1.994869,0.997977 5.668068,0 c 3.117436,0 5.66339,-0.06793 5.657674,-0.150953 z m 9.470139,-2.476707 0,-2.627661 -1.129433,-0.517072 c -0.972363,-0.445162 -1.329241,-0.503999 -2.566207,-0.423076 -0.987958,0.06463 -1.723874,0.24535 -2.355851,0.578524 -1.251561,0.659813 -3.796527,2.454252 -3.804404,2.68246 -0.0035,0.101871 0.278732,0.803804 0.627217,1.559851 l 0.63361,1.374634 4.297534,0 4.297534,0 0,-2.62766 0,0 z m -21.075891,1.767151 c 1.196149,-0.474907 8.158234,-4.114077 8.956735,-4.681799 0.03176,-0.02258 -0.478421,-1.130504 -1.133744,-2.462046 -0.655321,-1.331543 -1.231802,-2.541916 -1.281069,-2.689715 -0.06473,-0.194201 -0.932512,0.132509 -3.128988,1.178036 -2.926708,1.393117 -4.871467,2.068999 -5.953263,2.068999 -0.281911,0 -0.572112,0.09635 -0.644891,0.214109 -0.148536,0.240335 0.679322,0.130709 2.580035,-0.34165 1.137133,-0.282597 6.278772,-2.504053 6.646241,-2.871522 0.113105,-0.113104 0.652619,0.763746 1.382823,2.24744 1.104382,2.243985 1.1693,2.449682 0.836015,2.648938 -2.238385,1.338234 -7.883258,4.232176 -8.834004,4.528904 -0.952963,0.29742 -2.17897,0.41331 -5.585275,0.52795 l -4.3642998,0.146884 0,-3.035016 0,-3.035015 0.8554026,-0.11028 C 10.64227,32.013903 10.689312,31.98007 9.2685381,31.953381 l -1.4592161,-0.02741 0,3.320974 0,3.320975 4.532266,0 4.532266,0 1.660424,-0.659238 0,0 z m 12.537515,-4.165424 c 1.217435,-0.919171 2.805058,-1.708055 4.11041,-2.042447 0.498147,-0.12761 0.794301,-0.27196 0.658123,-0.320778 -0.479921,-0.172045 -2.388348,0.546503 -4.079733,1.536069 l -1.710805,1.00093 -0.240791,-0.459474 c -0.132434,-0.25271 -0.693153,-1.55996 -1.246041,-2.905001 l -1.005253,-2.445528 1.184875,-0.911742 c 0.651684,-0.501457 1.755836,-1.185418 2.453671,-1.519911 1.189776,-0.570295 1.400407,-0.605531 3.382141,-0.565796 1.162341,0.02331 2.249205,0.114276 2.415254,0.202158 0.166049,0.08788 0.780934,0.356696 1.366412,0.597367 l 1.064505,0.437582 -0.05815,2.840732 -0.05815,2.840729 -1.079957,-0.363268 c -0.593975,-0.1998 -1.22798,-0.334128 -1.408898,-0.298509 -0.180919,0.03562 0.21449,0.252068 0.878685,0.480997 0.664195,0.228932 1.366128,0.485819 1.559852,0.570862 0.327235,0.143651 0.352224,-0.07433 0.352224,-3.072447 l 0,-3.22707 -1.056673,-0.512824 c -1.491981,-0.724087 -2.960055,-0.98574 -4.961424,-0.884268 -1.292175,0.06551 -1.960391,0.206273 -2.636564,0.55539 -1.542804,0.796569 -3.622168,2.469119 -3.623529,2.914609 -10e-4,0.316458 2.441106,6.350876 2.570138,6.350876 0.0611,0 0.587455,-0.359657 1.169676,-0.799238 l 0,0 z M 14.652542,31.692574 c 0.350926,-0.118094 0.205399,-0.138851 -0.480951,-0.0686 -0.541272,0.0554 -1.514921,0.100728 -2.163666,0.100728 -0.670155,0 -1.179535,0.08895 -1.179535,0.205981 0,0.231379 2.980492,0.0458 3.824152,-0.238108 z m 12.327426,-1.972136 -0.747639,-1.877645 1.166084,-1.042935 c 1.298193,-1.16109 2.957764,-2.226405 4.107351,-2.636596 0.438892,-0.156603 1.605345,-0.272 2.770719,-0.274107 1.925674,-0.0035 3.075641,0.246766 4.995211,1.087018 0.32239,0.14112 0.358343,0.07045 0.301907,-0.593425 -0.06183,-0.727295 -0.10977,-0.770854 -1.37233,-1.246899 -2.838344,-1.07019 -5.128011,-1.526125 -7.215646,-1.436829 -2.257812,0.09657 -2.539447,0.231318 -3.706981,1.773562 -0.460919,0.608845 -1.184534,1.4835 -1.608033,1.943676 l -0.769999,0.836685 1.359077,2.72699 c 0.747493,1.499845 1.383566,2.702503 1.413497,2.672572 0.02993,-0.02993 -0.282017,-0.89936 -0.693218,-1.932067 l 0,0 z M 9.6207627,30.905585 c 0.2233782,-0.154741 0.053233,-0.192826 -0.6541313,-0.146422 l -0.9560382,0.06272 0,-1.552483 0,-1.552486 1.4592161,-0.06946 1.4592157,-0.06946 -1.5598513,-0.03999 -1.5598517,-0.03999 0,1.81144 0,1.811441 0.754767,-0.0031 c 0.4151218,-0.0016 0.890625,-0.0972 1.0566737,-0.212221 l 0,-2e-6 z m 6.7838843,-0.498689 c 1.380822,-0.238231 2.446753,-0.620556 4.846538,-1.738345 1.692018,-0.78812 3.109601,-1.487121 3.150184,-1.553335 0.06535,-0.106621 -0.988441,-2.597644 -1.179883,-2.789086 -0.04147,-0.04147 -1.31528,0.389234 -2.830678,0.957129 -2.766709,1.036825 -5.676621,1.799732 -6.895575,1.807849 -0.359772,0.0024 -0.654131,0.09493 -0.654131,0.205627 0,0.249507 -0.23664,0.268787 2.230202,-0.181698 1.677915,-0.306413 5.340626,-1.447882 7.463537,-2.325979 0.256829,-0.106232 0.493459,0.133408 1.017786,1.03073 l 0.683159,1.169141 -2.426686,1.075118 c -3.654398,1.619041 -4.213103,1.821214 -5.693394,2.060206 -1.352616,0.218377 -1.680825,0.254869 -4.370818,0.485969 -0.768967,0.06606 -1.448257,0.175206 -1.509534,0.242542 -0.185013,0.203304 4.274815,-0.119018 6.169293,-0.445868 z m -4.167359,-2.90889 c 0.427455,-0.136895 0.374449,-0.164165 -0.352224,-0.181209 -0.470472,-0.01103 -0.855403,0.07051 -0.855403,0.181209 0,0.231969 0.483305,0.231969 1.207627,0 z m 2.415254,-1.295805 c 1.892211,-0.326742 5.128603,-1.337545 7.220489,-2.255133 1.526151,-0.669432 1.695497,-0.62908 2.240156,0.533788 l 0.47225,1.008275 0.485269,-0.454779 c 0.266898,-0.250128 0.941895,-1.070213 1.499993,-1.822412 1.196128,-1.612125 2.059785,-2.121799 3.884133,-2.292159 2.00737,-0.187451 5.606113,0.569182 8.803113,1.850849 0.331661,0.132962 0.352224,-0.294828 0.352224,-7.327362 l 0,-7.4685673 -15.900423,0 -15.900424,0 0,9.3255653 c 0,5.12906 0.038269,9.363834 0.085043,9.410608 0.1691599,0.169159 4.890889,-0.186234 6.758177,-0.508673 z"
     id="path3797"
     inkscape:connector-curvature="0"
     transform="scale(0.8,0.8)" />
  <path
     style="fill:#ffffff;fill-opacity:1;stroke:#ffffff;stroke-width:0.20127119;stroke-opacity:1"
     d="m 25.616831,27.084396 -0.330012,-0.731837 1.52934,-1.912344 c 0.841138,-1.051789 1.769072,-2.021573 2.062077,-2.155075 1.509449,-0.687751 4.53192,-0.454341 7.870202,0.607776 1.998539,0.63586 2.66046,1.019025 2.66046,1.540055 0,0.3182 -0.12588,0.296484 -1.610169,-0.277774 -0.603827,-0.233615 -1.677226,-0.378228 -3.220339,-0.433857 -1.986451,-0.07161 -2.47275,-0.024 -3.429943,0.33583 -1.19206,0.448119 -3.046728,1.709178 -4.382348,2.979723 l -0.819256,0.779339 -0.330012,-0.731836 z"
     id="path3799"
     inkscape:connector-curvature="0"
     transform="scale(0.8,0.8)" />
  <path
     style="fill:#ffffff;fill-opacity:1;stroke:#ffffff;stroke-width:0.20127119;stroke-opacity:1"
     d="M 7.0042373,40.379362 C 6.6083808,39.983506 6.6016949,39.708458 6.6016949,23.819273 6.6016949,9.5211827 6.6377526,7.6102469 6.9150146,7.2144 l 0.3133196,-0.4473264 16.4784478,0 c 14.712045,0 16.512352,0.033904 16.794731,0.3162833 0.282347,0.2823468 0.316284,2.0732674 0.316284,16.6911321 0,14.617865 -0.03394,16.408784 -0.316284,16.691132 -0.282351,0.282351 -2.074575,0.316283 -16.705508,0.316283 -16.1208638,0 -16.3958167,-0.0066 -16.7917677,-0.402542 z M 24.514831,38.567921 c -2.490731,-0.06175 -4.401766,-0.132304 -4.246743,-0.156776 0.155023,-0.02447 1.87106,-0.913198 3.813417,-1.974945 4.038618,-2.207623 3.514415,-2.24506 4.863111,0.347303 0.453003,0.870731 0.85936,1.583147 0.903013,1.583147 0.09547,0 -0.715925,-1.854577 -1.414709,-3.233559 -0.276794,-0.546225 -0.564463,-0.993136 -0.639263,-0.993136 -0.0748,0 -1.454498,0.713792 -3.065995,1.586206 -1.611496,0.872414 -3.496068,1.870011 -4.187937,2.216881 -0.69187,0.346871 -1.257945,0.674655 -1.257945,0.728413 0,0.05375 2.196371,0.07771 4.880826,0.05324 l 4.880826,-0.04449 -4.528601,-0.112281 z m 15.095338,-2.422407 0,-2.623677 -0.956038,-0.441126 c -1.123608,-0.518446 -3.386436,-0.594742 -4.494097,-0.151529 -0.676835,0.270824 -4.129916,2.527107 -4.307631,2.814655 -0.04994,0.0808 0.219579,0.794564 0.598929,1.586135 l 0.689728,1.43922 4.234555,0 4.234554,0 0,-2.623678 z m -20.98576,1.661711 c 2.034875,-0.877329 8.767299,-4.480365 8.629404,-4.618258 -0.0509,-0.0509 -1.344634,0.590376 -2.874976,1.425048 -1.530341,0.834674 -3.664316,1.935094 -4.742165,2.445381 -1.854075,0.877775 -2.092793,0.937943 -4.427966,1.116082 -1.357532,0.103558 -3.102244,0.216484 -3.877138,0.250945 -0.774894,0.03446 0.152011,0.0804 2.05979,0.102077 l 3.468688,0.03942 1.764363,-0.760696 0,0 z m 12.449149,-4.103932 c 0.48857,-0.350864 0.888306,-0.671052 0.888306,-0.71153 0,-0.102608 -0.80213,0.327684 -1.430096,0.767157 l -0.524378,0.366976 -0.85981,-2.013621 c -0.472895,-1.107491 -0.89968,-1.97375 -0.948412,-1.925018 -0.146356,0.146356 1.582821,4.153969 1.792326,4.153969 0.106567,0 0.593496,-0.287069 1.082064,-0.637933 l 0,0 z m -4.436647,-2.24736 c -0.893061,-1.959693 -1.706164,-3.555385 -1.811686,-3.555385 -0.04695,0 -0.150519,0.113215 -0.230149,0.251589 -0.07963,0.138374 -0.07056,0.18434 0.02015,0.102147 0.09072,-0.08219 0.698122,0.936743 1.349791,2.264301 1.310163,2.669019 1.724385,3.246897 0.67189,0.937348 z M 9.402719,31.999907 c 0.046125,-0.04067 -0.2428892,-0.07393 -0.6422529,-0.07393 -0.3993639,0 -0.7856628,0.09635 -0.8584422,0.214108 -0.090102,0.145789 0.1148337,0.16938 0.642253,0.07394 0.4260184,-0.07709 0.8123174,-0.173443 0.8584421,-0.214108 l 0,0 z m 30.116391,-2.103071 0.0096,-2.298195 -0.06628,2.264301 c -0.03646,1.245366 -0.09731,2.264301 -0.135226,2.264301 -0.03792,0 -0.454005,-0.135858 -0.924638,-0.301907 -0.470632,-0.166048 -0.957523,-0.294886 -1.081979,-0.286308 -0.124456,0.0086 0.226577,0.182315 0.780073,0.386076 0.553495,0.203763 1.096928,0.347853 1.207627,0.320203 0.11878,-0.02967 0.205196,-0.992199 0.210847,-2.348471 l -2e-6,0 z m -26.728326,1.884975 c -0.304423,-0.04612 -0.802569,-0.04612 -1.106992,0 -0.304422,0.04612 -0.05535,0.08385 0.553496,0.08385 0.608845,0 0.857919,-0.03773 0.553496,-0.08385 z m 22.53818,-0.178712 c -0.06688,-0.06688 -0.240479,-0.07403 -0.38577,-0.01588 -0.16056,0.06425 -0.112869,0.111943 0.121602,0.1216 0.212172,0.0087 0.331049,-0.03883 0.264168,-0.105711 l 0,-8e-6 z M 16.208201,31.401827 c -0.06688,-0.06688 -0.240477,-0.07403 -0.38577,-0.01588 -0.160561,0.06425 -0.112868,0.111943 0.121602,0.1216 0.212173,0.0087 0.331049,-0.03883 0.264168,-0.105711 l 0,-9e-6 z M 8.8698264,30.988865 c -0.1362673,-0.05513 -0.4079834,-0.05849 -0.6038136,-0.0074 -0.1958303,0.05103 -0.084339,0.09614 0.2477584,0.100241 0.3320974,0.0041 0.4923222,-0.03765 0.3560552,-0.09278 l 0,-10e-6 z m 3.4216106,-0.201271 c -0.136268,-0.05513 -0.407984,-0.05849 -0.603814,-0.0074 -0.19583,0.05103 -0.08434,0.09614 0.247758,0.100241 0.332098,0.0041 0.492323,-0.03765 0.356056,-0.09278 l 0,-10e-6 z m 1.810377,-0.21093 c -0.247551,-0.04777 -0.700411,-0.04901 -1.006356,-0.0027 -0.305945,0.04626 -0.103403,0.08535 0.450093,0.08686 0.553496,0.0016 0.803814,-0.03634 0.556263,-0.08412 l 0,-10e-6 z m 1.708038,-0.198333 c -0.193724,-0.05062 -0.510726,-0.05062 -0.704449,0 -0.193724,0.05063 -0.03522,0.09205 0.352224,0.09205 0.387447,0 0.545948,-0.04142 0.352225,-0.09205 z m 4.277012,-0.06253 c 0.166049,-0.107309 0.211335,-0.195106 0.100636,-0.195106 -0.110699,0 -0.337129,0.0878 -0.503178,0.195106 -0.166049,0.10731 -0.211335,0.195107 -0.100636,0.195107 0.1107,0 0.33713,-0.0878 0.503178,-0.195107 z m -1.900839,-0.409705 c 0.658015,-0.225337 1.920967,-0.769947 2.80656,-1.210246 1.949147,-0.969072 1.732984,-0.911243 -1.44272,0.385964 -1.346992,0.550217 -2.660286,1.04062 -2.918432,1.089783 -0.408043,0.07771 -0.415304,0.09297 -0.05558,0.116795 0.227579,0.01507 0.952155,-0.156957 1.61017,-0.382296 l 0,0 z m 8.547847,-0.685486 c -0.54606,-1.273905 -0.523581,-1.431801 0.307767,-2.161733 2.342841,-2.057043 4.084147,-2.994094 5.926581,-3.189278 l 1.308263,-0.138596 -1.153236,-0.02858 c -0.660505,-0.01637 -1.520456,0.113786 -2.012711,0.304621 -1.195211,0.463353 -3.321432,1.893685 -4.274429,2.875454 l -0.798427,0.822533 -0.336243,-0.650222 -0.336242,-0.650222 1.1644,-1.415688 c 0.640419,-0.778628 1.495806,-1.732689 1.900858,-2.120137 l 0.736455,-0.704449 2.219168,-0.01869 c 2.283323,-0.01922 3.391931,0.190015 6.1699,1.164518 1.154175,0.404882 1.836943,0.849315 1.62712,1.059138 -0.04504,0.04504 -0.712637,-0.093 -1.483542,-0.30677 -2.031059,-0.563196 -2.502489,-0.456874 -0.605274,0.136508 2.502104,0.782571 2.515889,0.784444 2.515889,0.341844 0,-0.684042 -0.464898,-1.023332 -2.259293,-1.648868 -3.351093,-1.168211 -6.729423,-1.504804 -8.468219,-0.843715 -0.409931,0.155855 -3.100878,3.117059 -3.651201,4.017898 -0.112278,0.18379 0.161893,0.954413 0.803504,2.258441 1.005564,2.043733 1.416969,2.571142 0.698912,0.895984 l 0,0 z m -3.87497,-0.11771 c 0.805077,-0.361081 1.427616,-0.692671 1.383421,-0.736866 -0.04419,-0.04419 -0.838752,0.2869 -1.765682,0.735765 -1.963939,0.951037 -1.737202,0.951689 0.382261,0.001 l 0,9.5e-5 z m 5.102108,0.27196 c -0.237267,-0.408019 -0.294563,-0.277423 -0.10034,0.228712 0.06902,0.179876 0.167899,0.28465 0.21972,0.232829 0.05182,-0.05182 -0.0018,-0.259515 -0.11938,-0.461541 z m 0.939069,-2.368558 c 0.530512,-0.381135 1.490926,-0.969854 2.134251,-1.308262 1.090304,-0.573534 1.321955,-0.616785 3.413546,-0.637341 1.94602,-0.01912 2.12364,-0.04727 1.338141,-0.212048 -1.412934,-0.296396 -3.714188,-0.02885 -4.909145,0.570747 -0.853179,0.4281 -2.082316,1.284963 -3.031003,2.112991 -0.503186,0.439188 0.196939,0.0898 1.05421,-0.526087 l 0,0 z m -16.918573,0.370102 c -0.06688,-0.06688 -0.240477,-0.07403 -0.38577,-0.01588 -0.16056,0.06425 -0.112868,0.111943 0.121602,0.1216 0.212173,0.0087 0.331049,-0.03883 0.264168,-0.105711 l 0,-8e-6 z m 1.714998,-0.212967 c -0.138374,-0.05583 -0.364804,-0.05583 -0.503178,0 -0.138374,0.05583 -0.02516,0.101519 0.251589,0.101519 0.276748,0 0.389963,-0.04569 0.251589,-0.101519 z m -0.956038,-0.764729 c 3.243855,-0.390451 5.994871,-1.153157 9.402963,-2.606927 1.172392,-0.5001 1.437424,-0.419396 1.926137,0.586521 0.242018,0.498147 0.52376,0.905721 0.626093,0.905721 0.102334,0 0.827753,-0.80467 1.612043,-1.788155 1.871552,-2.346893 2.273974,-2.544006 5.150984,-2.523047 2.275039,0.01657 3.467895,0.248264 6.224177,1.208931 0.766517,0.26716 1.50958,0.485745 1.651251,0.485745 0.204312,0 0.260376,-1.519322 0.27109,-7.346398 l 0.01351,-7.3463983 -15.904695,0 -15.904694,0 0.00104,7.3967163 c 5.736e-4,4.068194 0.059519,8.279793 0.130992,9.35911 l 0.1299513,1.962394 1.126953,-0.0017 c 0.619824,-9.62e-4 2.2138167,-0.132571 3.5422067,-0.292464 z m 10.882017,-1.088294 c -0.332795,-0.656741 -0.613844,-0.982779 -0.789172,-0.915499 -0.199479,0.07655 -0.121453,0.265979 0.291755,0.708319 0.310232,0.332105 0.622254,0.787185 0.693382,1.011289 0.07113,0.224105 0.172429,0.364357 0.225114,0.311672 0.05269,-0.05268 -0.136801,-0.554786 -0.421079,-1.115781 z m 14.880695,0.361347 c -0.664195,-0.323265 -1.343485,-0.584591 -1.509534,-0.580724 -0.323843,0.0075 2.178891,1.170758 2.51589,1.169331 0.110699,-4.63e-4 -0.342161,-0.265342 -1.006356,-0.588607 z"
     id="path3801"
     inkscape:connector-curvature="0"
     transform="scale(0.8,0.8)" />
  <path
     style="fill:#ffffff;fill-opacity:1;stroke:#ffffff;stroke-width:0.20127119;stroke-opacity:1"
     d="M 6.9150146,40.334577 C 6.6377974,39.938795 6.6016949,38.038592 6.6016949,23.843443 c 0,-9.937318 0.074711,-16.2403115 0.1962896,-16.5600888 l 0.1962895,-0.5162806 16.595478,0 c 14.818436,0 16.629345,0.033868 16.911761,0.3162833 0.282347,0.2823468 0.316284,2.0732674 0.316284,16.6911321 0,14.617865 -0.03394,16.408784 -0.316284,16.691132 -0.282379,0.282379 -2.082686,0.316283 -16.794731,0.316283 l -16.4784478,0 -0.3133196,-0.447327 z M 39.56566,36.129633 39.621789,33.59071 38.594984,33.14899 c -0.564743,-0.242944 -1.127097,-0.408288 -1.249675,-0.367428 -0.122576,0.04086 0.268943,0.250932 0.870043,0.46683 l 1.092911,0.392541 0.05651,2.463493 0.05651,2.463495 -4.02823,0 -4.028227,0 -0.480503,-0.956038 c -0.898223,-1.787161 -0.934069,-1.678256 0.974807,-2.961539 0.945046,-0.63533 2.147275,-1.329084 2.671619,-1.541676 0.806526,-0.327004 0.847187,-0.366694 0.264001,-0.25771 -1.05014,0.196249 -4.845603,2.62331 -4.845603,3.098588 0,0.09108 0.268757,0.764605 0.597236,1.496725 l 0.597238,1.331129 4.182952,-0.05442 4.182955,-0.05442 0.05613,-2.538924 z m -22.195957,2.127083 0.603814,-0.293051 -0.743566,0.107875 c -0.408961,0.05933 -1.450539,0.158433 -2.314618,0.220225 -0.864079,0.06179 -1.608792,0.149206 -1.654916,0.194253 -0.248597,0.242789 3.576339,0.02935 4.109286,-0.229302 l 0,0 z m 3.328993,-0.09543 c 0.438387,-0.223649 0.797067,-0.45192 0.797067,-0.50727 0,-0.09018 -1.58881,0.651706 -1.794668,0.838007 -0.222781,0.201615 0.2824,0.03413 0.997601,-0.330737 z m 7.384383,-3.095289 0.478613,0.583489 -0.349176,-0.753239 -0.349173,-0.75324 -2.932202,1.528361 c -1.61271,0.840597 -3.022772,1.622886 -3.133472,1.738415 -0.110699,0.115532 1.150545,-0.495843 2.802764,-1.35861 l 3.004033,-1.568668 0.478613,0.583492 0,0 z m 8.661323,-2.271962 c -0.192433,-0.05038 -0.554722,-0.0522 -0.805085,-0.0041 -0.250363,0.04814 -0.09292,0.08936 0.349878,0.09159 0.442797,0.0022 0.64764,-0.03716 0.455207,-0.08753 l 0,4e-6 z M 8.7611671,32.005641 c -0.066881,-0.06688 -0.2404772,-0.07403 -0.3857699,-0.01588 -0.1605606,0.06425 -0.112868,0.111943 0.1216015,0.1216 0.2121732,0.0087 0.331049,-0.03883 0.2641684,-0.105712 l 0,-8e-6 z M 26.392425,28.230228 c -0.08212,-0.506058 -0.189541,-0.689343 -0.32476,-0.554125 -0.135218,0.13522 -0.116904,0.407608 0.05537,0.823515 0.327726,0.791201 0.425615,0.693313 0.26939,-0.26939 l 0,0 z m -1.204327,0.366088 c -0.06555,-0.170822 -0.16235,-0.26742 -0.215109,-0.214661 -0.05276,0.05276 -0.03622,0.192524 0.03674,0.310587 0.198464,0.32112 0.314462,0.258736 0.178366,-0.09593 l 0,0 z m 4.157241,-3.4667 c 0.497073,-0.500804 -0.924845,0.515908 -1.615376,1.155039 -0.879278,0.813827 -0.872036,0.811233 0.307113,-0.110083 0.664195,-0.518961 1.252913,-0.989191 1.308263,-1.044956 z m 0.90572,0.921431 c 0.664195,-0.41976 1.123369,-0.76406 1.020389,-0.765112 -0.211623,-0.0022 -2.731194,1.607088 -2.731194,1.744413 0,0.09983 0.03467,0.07999 1.710805,-0.979301 l 0,0 z m -16.806144,0.213641 c 2.16246,-0.289449 4.381192,-0.883378 7.108674,-1.90291 1.30834,-0.489058 2.538475,-0.889196 2.733633,-0.889196 0.213958,0 0.557933,0.369323 0.866398,0.930244 l 0.511566,0.930244 1.546736,-1.818604 c 0.905182,-1.064284 1.851998,-1.963461 2.282696,-2.16784 1.696036,-0.804822 4.8909,-0.574265 8.672606,0.625857 1.170062,0.371318 2.175742,0.626792 2.234847,0.56772 0.05911,-0.05907 0.139471,-3.361026 0.17859,-7.337677 l 0.07113,-7.2302735 -15.86817,0.051542 C 8.1218255,8.074666 7.9144441,8.0805464 7.8383106,8.4759353 7.7958854,8.6962647 7.8281769,12.896832 7.9100695,17.810528 l 0.1488957,8.933993 1.938208,-0.138889 c 1.0660148,-0.07639 2.6174988,-0.229815 3.4477418,-0.340944 z m 15.55531,-3.999733 c 0.116013,0 0.156408,-0.05452 0.08977,-0.121165 -0.06664,-0.06664 -0.299306,0.0036 -0.517033,0.156113 -0.491961,0.344583 -3.253044,3.596911 -3.253044,3.831818 0,0.09451 0.78061,-0.736856 1.734688,-1.847469 0.95408,-1.110613 1.82961,-2.019297 1.945622,-2.019297 z m -5.61501,2.71088 c -0.183596,-0.280203 -0.381368,-0.461902 -0.439493,-0.403777 -0.0968,0.0968 0.528313,0.913236 0.699223,0.913236 0.04074,0 -0.07613,-0.229257 -0.25973,-0.509459 z m 10.539043,-0.03183 c -0.193723,-0.05063 -0.510725,-0.05063 -0.704449,0 -0.193723,0.05063 -0.03522,0.09205 0.352225,0.09205 0.387447,0 0.545948,-0.04142 0.352224,-0.09205 z m 5.423512,-0.9362 c -0.205224,-0.313213 -0.776925,-0.645347 -1.574395,-0.914657 -1.478299,-0.499229 -1.822032,-0.441351 -0.431993,0.07274 1.183243,0.437611 1.866245,0.852044 1.866245,1.132406 0,0.129264 -0.256454,0.16759 -0.654131,0.09776 l -0.654132,-0.114864 0.70445,0.275756 c 0.868287,0.339891 1.177112,0.111938 0.743956,-0.54914 l 0,0 z m -3.213721,-1.461914 c -0.06688,-0.06688 -0.240479,-0.07403 -0.38577,-0.01589 -0.16056,0.06425 -0.112869,0.111943 0.121602,0.121601 0.212172,0.0087 0.331048,-0.03883 0.264168,-0.105712 l 0,1e-6 z M 34.980932,22.26495 c -0.276748,-0.08863 -0.684322,-0.161146 -0.90572,-0.161146 -0.318747,0 -0.297797,0.03355 0.100635,0.161146 0.276748,0.08863 0.684322,0.161146 0.905721,0.161146 0.318747,0 0.297797,-0.03355 -0.100636,-0.161146 z m -1.408898,-0.201271 c 0,-0.124142 -0.829137,-0.186174 -2.163665,-0.161873 l -2.163666,0.0394 2.113348,0.122475 c 1.162341,0.06736 2.13599,0.140204 2.163665,0.161873 0.02768,0.02167 0.05032,-0.05117 0.05032,-0.161873 z"
     id="path3803"
     inkscape:connector-curvature="0"
     transform="scale(0.8,0.8)" />
  <path
     style="fill:#ffffff;fill-opacity:1;stroke:#ffffff;stroke-width:0.20127119;stroke-opacity:1"
     d="M 6.9150146,40.334577 C 6.6377974,39.938795 6.6016949,38.038592 6.6016949,23.843443 c 0,-9.937318 0.074711,-16.2403115 0.1962896,-16.5600888 l 0.1962895,-0.5162806 16.595478,0 c 14.818436,0 16.629345,0.033868 16.911761,0.3162833 0.282347,0.2823468 0.316284,2.0732674 0.316284,16.6911321 0,14.617865 -0.03394,16.408784 -0.316284,16.691132 -0.282379,0.282379 -2.082686,0.316283 -16.794731,0.316283 l -16.4784478,0 -0.3133196,-0.447327 z m 8.4922944,-1.905398 c -0.193723,-0.05062 -0.510725,-0.05062 -0.704449,0 -0.193723,0.05063 -0.03522,0.09205 0.352225,0.09205 0.387447,0 0.545948,-0.04142 0.352224,-0.09205 z m 1.61017,-0.201271 c -0.193724,-0.05062 -0.510726,-0.05062 -0.704449,0 -0.193724,0.05063 -0.03522,0.09205 0.352224,0.09205 0.387447,0 0.545948,-0.04142 0.352225,-0.09205 z m 22.530162,-4.238906 c -0.05063,-0.193724 -0.09205,-0.03522 -0.09205,0.352224 0,0.387447 0.04142,0.545948 0.09205,0.352225 0.05062,-0.193724 0.05062,-0.510726 0,-0.704449 z m -13.22137,-5.786547 c 0,-0.166049 -0.08773,-0.301907 -0.194954,-0.301907 -0.107225,0 -0.142821,0.135858 -0.0791,0.301907 0.06372,0.166049 0.151448,0.301907 0.194954,0.301907 0.04351,0 0.0791,-0.135858 0.0791,-0.301907 z M 11.695154,26.393708 c 3.406923,-0.361558 5.384904,-0.819959 8.658742,-2.006681 1.387484,-0.502945 2.708317,-0.914445 2.935184,-0.914445 0.278597,0 0.5458,0.26132 0.823208,0.805085 0.225898,0.442796 0.483449,0.805085 0.572335,0.805085 0.08889,0 0.817955,-0.770812 1.620154,-1.712916 1.974922,-2.31935 2.179129,-2.414698 5.153909,-2.406436 2.18902,0.0061 2.666031,0.07895 5.092494,0.777917 1.472479,0.424166 2.711984,0.736462 2.754454,0.693992 0.04247,-0.04247 0.105722,-3.290838 0.14056,-7.218595 l 0.06334,-7.1413777 -4.226695,-0.064581 c -2.324682,-0.03552 -9.411944,-0.00204 -15.74947,0.074389 l -11.5227758,0.1389704 0,9.1002223 c 0,5.005122 0.060381,9.160604 0.1341808,9.234403 0.181783,0.181784 0.3607835,0.173463 3.55038,-0.165032 l 0,0 z"
     id="path3805"
     inkscape:connector-curvature="0"
     transform="scale(0.8,0.8)" />
  <path
     style="fill:#ffffff;fill-opacity:1;stroke:#ffffff;stroke-width:0.20127119;stroke-opacity:1"
     d="M 6.7979845,40.265623 C 6.5832,39.700697 6.5135376,8.4658052 6.7247073,7.4099568 6.8309683,6.8786514 6.9581095,6.7762449 7.6583641,6.6579376 8.1042185,6.582611 15.617128,6.5883206 24.353718,6.6706257 c 13.41101,0.1263415 15.929822,0.1947577 16.174395,0.43933 0.247316,0.2473176 0.289684,2.6845342 0.289684,16.6645333 0,14.617865 -0.03394,16.408784 -0.316284,16.691132 -0.282416,0.282415 -2.093325,0.316283 -16.911761,0.316283 l -16.595478,0 -0.1962895,-0.516281 z M 11.230932,26.398469 c 3.600464,-0.384462 5.159039,-0.729232 8.702001,-1.924958 1.631175,-0.550511 3.145552,-1.000929 3.365283,-1.000929 0.25516,0 0.565308,0.290332 0.85838,0.803535 0.252379,0.441944 0.504156,0.797501 0.559506,0.790127 0.05535,-0.0074 0.772123,-0.781887 1.59283,-1.72114 2.020418,-2.312255 2.188888,-2.390139 5.149754,-2.380765 2.0627,0.0065 2.753121,0.09952 4.729873,0.63705 1.273041,0.346172 2.461217,0.687498 2.640392,0.758503 0.22918,0.09082 0.362641,-0.0085 0.450111,-0.335143 0.06839,-0.255334 0.125577,-3.462082 0.127089,-7.126106 l 0.0027,-6.6618628 -1.962394,-0.095457 C 36.36714,8.0888212 29.325165,8.0977832 21.797622,8.1612372 L 8.1112288,8.2766075 8.0498834,15.824277 c -0.059071,7.267785 0.050687,10.871035 0.3310023,10.866488 0.073087,-0.0012 1.3556079,-0.132718 2.8500463,-0.292296 z"
     id="path3807"
     inkscape:connector-curvature="0"
     transform="scale(0.8,0.8)" />
</svg>
