<?xml version="1.0" encoding="UTF-8" standalone="no"?>
<svg
   xmlns:dc="http://purl.org/dc/elements/1.1/"
   xmlns:cc="http://creativecommons.org/ns#"
   xmlns:rdf="http://www.w3.org/1999/02/22-rdf-syntax-ns#"
   xmlns:svg="http://www.w3.org/2000/svg"
   xmlns="http://www.w3.org/2000/svg"
   xmlns:sodipodi="http://sodipodi.sourceforge.net/DTD/sodipodi-0.dtd"
   xmlns:inkscape="http://www.inkscape.org/namespaces/inkscape"
   width="47.5"
   height="47.5"
   viewBox="0 0 38 38"
   id="svg2"
   version="1.1"
   inkscape:version="0.48.4 r9939"
   sodipodi:docname="applications-mathematics.svg">
  <metadata
     id="metadata50">
    <rdf:RDF>
      <cc:Work
         rdf:about="">
        <dc:format>image/svg+xml</dc:format>
        <dc:type
           rdf:resource="http://purl.org/dc/dcmitype/StillImage" />
      </cc:Work>
    </rdf:RDF>
  </metadata>
  <defs
     id="defs48" />
  <sodipodi:namedview
     pagecolor="#ffffff"
     bordercolor="#666666"
     borderopacity="1"
     objecttolerance="10"
     gridtolerance="10"
     guidetolerance="10"
     inkscape:pageopacity="0"
     inkscape:pageshadow="2"
     inkscape:window-width="1440"
     inkscape:window-height="848"
     id="namedview46"
     showgrid="false"
     inkscape:zoom="7.0264084"
     inkscape:cx="1.2389868"
     inkscape:cy="23.347458"
     inkscape:window-x="0"
     inkscape:window-y="0"
     inkscape:window-maximized="1"
     inkscape:current-layer="svg2" />
  <g
     style="stroke:#ffffff;stroke-opacity:1"
     id="g4">
    <g
       style="fill:none;stroke-linecap:round;stroke:#ffffff;stroke-opacity:1"
       id="g6">
      <path
         style="stroke-width:8.07300000000000040;stroke:#ffffff;stroke-opacity:1"
         d="M 34.394737 32.026316 L 221.605263 32.026316 C 222.921053 32.026316 223.973684 33.078947 223.973684 34.394737 L 223.973684 221.605263 C 223.973684 222.921053 222.921053 223.973684 221.605263 223.973684 L 34.394737 223.973684 C 33.078947 223.973684 32.026316 222.921053 32.026316 221.605263 L 32.026316 34.394737 C 32.026316 33.078947 33.078947 32.026316 34.394737 32.026316 Z "
         transform="scale(.14844)"
         id="path8" />
      <path
         style="stroke-width:7.59799999999999986;stroke:#ffffff;stroke-opacity:1"
         d="M 127.078947 32.710526 L 127.105263 32.710526 C 127.473684 32.710526 127.789474 33.026316 127.789474 33.394737 L 127.789474 221.973684 C 127.789474 222.368421 127.473684 222.657895 127.105263 222.657895 L 127.078947 222.657895 C 126.710526 222.657895 126.394737 222.368421 126.394737 221.973684 L 126.394737 33.394737 C 126.394737 33.026316 126.710526 32.710526 127.078947 32.710526 Z "
         transform="scale(.14844)"
         id="path10" />
    </g>
    <g
       style="fill:#85b3b5;stroke-linejoin:round;stroke:#ffffff;stroke-opacity:1"
       id="g14">
      <g
         style="stroke-width:3;stroke:#ffffff;stroke-opacity:1"
         id="g16">
        <path
           d="M 205.078947 192.368421 L 188.578947 176.447368 L 204.447368 159.789474 L 193 149.473684 L 176.657895 165.342105 L 159.973684 149.473684 L 148.078947 160.157895 L 164.736842 176.394737 L 148.078947 192.342105 L 159.973684 203.473684 L 176.631579 186.789474 L 193.342105 203.473684 Z "
           transform="scale(.14844)"
           id="path18"
           style="stroke:#ffffff;stroke-opacity:1" />
        <path
           style="fill-rule:evenodd;stroke:#ffffff;stroke-opacity:1"
           d="M 68.868421 68.710526 L 68.868421 50.736842 L 89.657895 50.736842 L 89.657895 68.710526 L 107.657895 68.710526 L 107.657895 89.736842 L 89.657895 89.736842 L 89.657895 107.736842 L 68.842105 107.736842 L 68.763158 89.736842 L 50.657895 89.736842 L 50.657895 68.710526 Z "
           transform="scale(.14844)"
           id="path20" />
      </g>
      <g
         style="stroke-width:3.03200000000000003;stroke:#ffffff;stroke-opacity:1"
         id="g22">
        <g
           id="g24"
           style="stroke:#ffffff;stroke-opacity:1">
          <path
             d="M 187.973684 79.105263 L 204.026316 63.157895 L 192.473684 52.736842 L 175.947368 68.789474 L 163.921053 79.947368 L 147.052632 96.078947 L 159.105263 107.289474 L 175.921053 90.447368 Z "
             transform="scale(.14844)"
             id="path26"
             style="stroke:#ffffff;stroke-opacity:1" />
        </g>
        <g
           style="stroke-linecap:round;stroke-miterlimit:10;stroke:#ffffff;stroke-opacity:1"
           id="g28">
          <path
             d="M 168.289474 61.815789 C 168.289474 66.842105 164.210526 70.921053 159.184211 70.921053 C 154.157895 70.921053 150.105263 66.842105 150.105263 61.815789 C 150.105263 56.815789 154.157895 52.736842 159.184211 52.736842 C 164.210526 52.736842 168.289474 56.815789 168.289474 61.815789 Z "
             transform="scale(.14844)"
             id="path30"
             style="stroke:#ffffff;stroke-opacity:1" />
          <path
             d="M 198.605263 98.210526 C 198.605263 103.236842 194.526316 107.289474 189.5 107.289474 C 184.473684 107.289474 180.421053 103.236842 180.421053 98.210526 C 180.421053 93.184211 184.473684 89.105263 189.5 89.105263 C 194.526316 89.105263 198.605263 93.184211 198.605263 98.210526 Z "
             transform="scale(.14844)"
             id="path32"
             style="stroke:#ffffff;stroke-opacity:1" />
        </g>
      </g>
      <g
         style="stroke-width:2.72699999999999987;stroke:#ffffff;stroke-opacity:1"
         id="g34">
        <g
           id="g36"
           style="stroke:#ffffff;stroke-opacity:1">
          <path
             style="fill-rule:evenodd;stroke:#ffffff;stroke-opacity:1"
             d="M 105 170.105263 L 105 183.736842 L 53.184211 183.736842 L 53.184211 170.105263 Z "
             transform="scale(.14844)"
             id="path38" />
        </g>
        <g
           style="stroke-linecap:round;stroke-miterlimit:10;stroke:#ffffff;stroke-opacity:1"
           id="g40">
          <path
             d="M 85.921053 156.473684 C 85.921053 161 82.263158 164.657895 77.736842 164.657895 C 73.210526 164.657895 69.552632 161 69.552632 156.473684 C 69.552632 151.947368 73.210526 148.289474 77.736842 148.289474 C 82.263158 148.289474 85.921053 151.947368 85.921053 156.473684 Z "
             transform="scale(.14844)"
             id="path42"
             style="stroke:#ffffff;stroke-opacity:1" />
          <path
             d="M 85.921053 197.394737 C 85.921053 201.894737 82.263158 205.552632 77.736842 205.552632 C 73.210526 205.552632 69.552632 201.894737 69.552632 197.394737 C 69.552632 192.868421 73.210526 189.184211 77.736842 189.184211 C 82.263158 189.184211 85.921053 192.868421 85.921053 197.394737 Z "
             transform="scale(.14844)"
             id="path44"
             style="stroke:#ffffff;stroke-opacity:1" />
        </g>
      </g>
    </g>
  </g>
  <path
     sodipodi:type="arc"
     style="fill:#85b3b5;fill-opacity:1;stroke:none"
     id="path3027"
     sodipodi:cx="-22.039194"
     sodipodi:cy="21.636652"
     sodipodi:rx="16.20233"
     sodipodi:ry="16.20233"
     d="m -5.8368645,21.636652 a 16.20233,16.20233 0 1 1 -32.4046595,0 16.20233,16.20233 0 1 1 32.4046595,0 z"
     transform="matrix(1.1850148,0,0,1.1850148,45.116771,-6.6397528)" />
  <g
     id="g3797"
     style="stroke:#ffffff;stroke-opacity:1"
     transform="matrix(0.88112429,0,0,0.88112429,2.2583568,2.2583568)">
    <g
       id="g3799"
       style="fill:none;stroke:#ffffff;stroke-linecap:round;stroke-opacity:1">
      <path
         id="path3801"
         transform="scale(0.14844,0.14844)"
         d="m 34.394737,32.026316 187.210523,0 c 1.31579,0 2.36842,1.052631 2.36842,2.368421 l 0,187.210523 c 0,1.31579 -1.05263,2.36842 -2.36842,2.36842 l -187.210523,0 c -1.31579,0 -2.368421,-1.05263 -2.368421,-2.36842 l 0,-187.210523 c 0,-1.31579 1.052631,-2.368421 2.368421,-2.368421 z"
         style="stroke:#ffffff;stroke-width:8.07299995;stroke-opacity:1"
         inkscape:connector-curvature="0" />
      <path
         id="path3803"
         transform="scale(0.14844,0.14844)"
         d="m 127.07895,32.710526 0.0263,0 c 0.36842,0 0.68421,0.31579 0.68421,0.684211 l 0,188.578943 c 0,0.39474 -0.31579,0.68421 -0.68421,0.68421 l -0.0263,0 c -0.36842,0 -0.68421,-0.28947 -0.68421,-0.68421 l 0,-188.578943 c 0,-0.368421 0.31579,-0.684211 0.68421,-0.684211 z"
         style="stroke:#ffffff;stroke-width:7.59800005;stroke-opacity:1"
         inkscape:connector-curvature="0" />
    </g>
    <g
       id="g3805"
       style="fill:#85b3b5;stroke:#ffffff;stroke-linejoin:round;stroke-opacity:1">
      <g
         id="g3807"
         style="stroke:#ffffff;stroke-width:3;stroke-opacity:1">
        <path
           style="stroke:#ffffff;stroke-opacity:1"
           id="path3809"
           transform="scale(0.14844,0.14844)"
           d="m 205.07895,192.36842 -16.5,-15.92105 15.86842,-16.6579 L 193,149.47368 l -16.34211,15.86842 -16.68421,-15.86842 -11.89473,10.68421 16.65789,16.23685 -16.65789,15.94736 11.89473,11.13158 16.6579,-16.68421 16.71052,16.68421 z"
           inkscape:connector-curvature="0" />
        <path
           id="path3811"
           transform="scale(0.14844,0.14844)"
           d="m 68.868421,68.710526 0,-17.973684 20.789474,0 0,17.973684 17.999995,0 0,21.026316 -17.999995,0 0,17.999998 -20.81579,0 -0.07895,-17.999998 -18.105263,0 0,-21.026316 z"
           style="fill-rule:evenodd;stroke:#ffffff;stroke-opacity:1"
           inkscape:connector-curvature="0" />
      </g>
      <g
         id="g3813"
         style="stroke:#ffffff;stroke-width:3.03200006;stroke-opacity:1">
        <g
           style="stroke:#ffffff;stroke-opacity:1"
           id="g3815">
          <path
             style="stroke:#ffffff;stroke-opacity:1"
             id="path3817"
             transform="scale(0.14844,0.14844)"
             d="M 187.97368,79.105263 204.02632,63.157895 192.47368,52.736842 175.94737,68.789474 163.92105,79.947368 147.05263,96.078947 159.10526,107.28947 175.92105,90.447368 z"
             inkscape:connector-curvature="0" />
        </g>
        <g
           id="g3819"
           style="stroke:#ffffff;stroke-linecap:round;stroke-miterlimit:10;stroke-opacity:1">
          <path
             style="stroke:#ffffff;stroke-opacity:1"
             id="path3821"
             transform="scale(0.14844,0.14844)"
             d="m 168.28947,61.815789 c 0,5.026316 -4.07894,9.105264 -9.10526,9.105264 -5.02632,0 -9.07895,-4.078948 -9.07895,-9.105264 0,-5 4.05263,-9.078947 9.07895,-9.078947 5.02632,0 9.10526,4.078947 9.10526,9.078947 z"
             inkscape:connector-curvature="0" />
          <path
             style="stroke:#ffffff;stroke-opacity:1"
             id="path3823"
             transform="scale(0.14844,0.14844)"
             d="m 198.60526,98.210526 c 0,5.026314 -4.07894,9.078944 -9.10526,9.078944 -5.02632,0 -9.07895,-4.05263 -9.07895,-9.078944 0,-5.026315 4.05263,-9.105263 9.07895,-9.105263 5.02632,0 9.10526,4.078948 9.10526,9.105263 z"
             inkscape:connector-curvature="0" />
        </g>
      </g>
      <g
         id="g3825"
         style="stroke:#ffffff;stroke-width:2.727;stroke-opacity:1">
        <g
           style="stroke:#ffffff;stroke-opacity:1"
           id="g3827">
          <path
             id="path3829"
             transform="scale(0.14844,0.14844)"
             d="m 105,170.10526 0,13.63158 -51.815789,0 0,-13.63158 z"
             style="fill-rule:evenodd;stroke:#ffffff;stroke-opacity:1"
             inkscape:connector-curvature="0" />
        </g>
        <g
           id="g3831"
           style="stroke:#ffffff;stroke-linecap:round;stroke-miterlimit:10;stroke-opacity:1">
          <path
             style="stroke:#ffffff;stroke-opacity:1"
             id="path3833"
             transform="scale(0.14844,0.14844)"
             d="m 85.921053,156.47368 c 0,4.52632 -3.657895,8.18421 -8.184211,8.18421 -4.526316,0 -8.18421,-3.65789 -8.18421,-8.18421 0,-4.52631 3.657894,-8.18421 8.18421,-8.18421 4.526316,0 8.184211,3.6579 8.184211,8.18421 z"
             inkscape:connector-curvature="0" />
          <path
             style="stroke:#ffffff;stroke-opacity:1"
             id="path3835"
             transform="scale(0.14844,0.14844)"
             d="m 85.921053,197.39474 c 0,4.5 -3.657895,8.15789 -8.184211,8.15789 -4.526316,0 -8.18421,-3.65789 -8.18421,-8.15789 0,-4.52632 3.657894,-8.21053 8.18421,-8.21053 4.526316,0 8.184211,3.68421 8.184211,8.21053 z"
             inkscape:connector-curvature="0" />
        </g>
      </g>
    </g>
  </g>
</svg>
