<?xml version="1.0" encoding="UTF-8" standalone="no"?>
<svg
   xmlns:dc="http://purl.org/dc/elements/1.1/"
   xmlns:cc="http://creativecommons.org/ns#"
   xmlns:rdf="http://www.w3.org/1999/02/22-rdf-syntax-ns#"
   xmlns:svg="http://www.w3.org/2000/svg"
   xmlns="http://www.w3.org/2000/svg"
   xmlns:sodipodi="http://sodipodi.sourceforge.net/DTD/sodipodi-0.dtd"
   xmlns:inkscape="http://www.inkscape.org/namespaces/inkscape"
   width="47.5"
   height="47.5"
   viewBox="0 0 38 38"
   id="svg2"
   version="1.1"
   inkscape:version="0.48.4 r9939"
   sodipodi:docname="applications-ide.svg">
  <metadata
     id="metadata10">
    <rdf:RDF>
      <cc:Work
         rdf:about="">
        <dc:format>image/svg+xml</dc:format>
        <dc:type
           rdf:resource="http://purl.org/dc/dcmitype/StillImage" />
      </cc:Work>
    </rdf:RDF>
  </metadata>
  <defs
     id="defs8" />
  <sodipodi:namedview
     pagecolor="#ffffff"
     bordercolor="#666666"
     borderopacity="1"
     objecttolerance="10"
     gridtolerance="10"
     guidetolerance="10"
     inkscape:pageopacity="0"
     inkscape:pageshadow="2"
     inkscape:window-width="1440"
     inkscape:window-height="848"
     id="namedview6"
     showgrid="false"
     inkscape:zoom="4.9684211"
     inkscape:cx="-8.2521186"
     inkscape:cy="23.347458"
     inkscape:window-x="0"
     inkscape:window-y="0"
     inkscape:window-maximized="1"
     inkscape:current-layer="svg2" />
  <path
     sodipodi:type="arc"
     style="fill:#cc7d6f;fill-opacity:1;stroke:none"
     id="path2987"
     sodipodi:cx="-31.707457"
     sodipodi:cy="16.302965"
     sodipodi:rx="19.214153"
     sodipodi:ry="11.875"
     d="m -12.493303,16.302965 a 19.214153,11.875 0 1 1 -38.428307,0 19.214153,11.875 0 1 1 38.428307,0 z"
     transform="matrix(0.99926339,0,0,1.6168421,50.684101,-7.3593204)" />
  <path
     id="path3757"
     d="m 30.221421,5.6896977 c -0.406406,0.035036 -0.812813,0.2382384 -1.142143,0.5570575 l -7.332835,6.3763788 c -0.315315,0.304805 -0.490491,0.735736 -0.490491,1.17017 0,0.210211 0.04555,0.3994 0.122623,0.585085 0.0035,0.01051 -0.0035,0.02453 0,0.03153 -0.273274,0.581582 -0.185686,1.390892 -0.185686,3.142644 0,0.644645 -1.678179,1.324325 -2.095096,1.324325 -0.02102,0 -0.04204,0 -0.06306,0 -1.331331,0 -5.65816,0.1997 -6.992995,2.035536 -1.334837,1.835837 -6.3483523,10.177682 -6.3483523,11.400405 2.0005015,0 16.5400473,-7.266269 17.2862933,-7.949452 0.900401,-0.826827 0.45896,-2.494496 -0.122622,-3.605107 0.0035,-0.0035 -0.0035,-0.02452 0,-0.03153 0.01401,-0.03854 0.02102,-0.0981 -0.03153,-0.185685 -0.311811,-0.522022 -0.493994,-1.051052 -0.493994,-1.786788 0,-1.632633 0.171672,-2.533034 0.525526,-3.048049 0.784785,0.133133 1.926928,-0.248749 2.434936,-0.73924 l 6.439436,-6.1346366 c 0.655156,-0.63063 0.80931,-1.5835833 0.154155,-2.2177184 L 31.36006,6.092601 C 31.034234,5.7737818 30.624324,5.6581664 30.221421,5.693201 z"
     style="fill:#ffffff"
     inkscape:connector-curvature="0" />
</svg>
