<?xml version="1.0" encoding="UTF-8" standalone="no"?>
<svg
   xmlns:dc="http://purl.org/dc/elements/1.1/"
   xmlns:cc="http://creativecommons.org/ns#"
   xmlns:rdf="http://www.w3.org/1999/02/22-rdf-syntax-ns#"
   xmlns:svg="http://www.w3.org/2000/svg"
   xmlns="http://www.w3.org/2000/svg"
   xmlns:sodipodi="http://sodipodi.sourceforge.net/DTD/sodipodi-0.dtd"
   xmlns:inkscape="http://www.inkscape.org/namespaces/inkscape"
   viewBox="0 0 48 48"
   id="svg2"
   version="1.1"
   inkscape:version="0.48.4 r9939"
   width="100%"
   height="100%"
   sodipodi:docname="applications-accessories.svg">
  <metadata
     id="metadata76">
    <rdf:RDF>
      <cc:Work
         rdf:about="">
        <dc:format>image/svg+xml</dc:format>
        <dc:type
           rdf:resource="http://purl.org/dc/dcmitype/StillImage" />
      </cc:Work>
    </rdf:RDF>
  </metadata>
  <defs
     id="defs74" />
  <sodipodi:namedview
     pagecolor="#ffffff"
     bordercolor="#666666"
     borderopacity="1"
     objecttolerance="10"
     gridtolerance="10"
     guidetolerance="10"
     inkscape:pageopacity="0"
     inkscape:pageshadow="2"
     inkscape:window-width="1440"
     inkscape:window-height="848"
     id="namedview72"
     showgrid="false"
     inkscape:zoom="4.9166667"
     inkscape:cx="-8.3389831"
     inkscape:cy="23.59322"
     inkscape:window-x="0"
     inkscape:window-y="0"
     inkscape:window-maximized="1"
     inkscape:current-layer="svg2" />
  <path
     sodipodi:type="arc"
     style="fill:#6891b8;fill-opacity:1;stroke:none"
     id="path3053"
     sodipodi:cx="-29.898306"
     sodipodi:cy="24"
     sodipodi:rx="19.118645"
     sodipodi:ry="19.118645"
     d="m -10.779661,24 a 19.118645,19.118645 0 1 1 -38.23729,0 19.118645,19.118645 0 1 1 38.23729,0 z"
     transform="matrix(1.2553191,0,0,1.2553191,61.531914,-6.1276584)" />
  <g
     id="g3823"
     transform="translate(-0.00211665,-1004.3626)"
     style="fill:#ffffff">
    <path
       id="path3825"
       d="m 29.722665,1027.7435 c -3.602228,0.1957 -6.468973,3.3969 -6.468973,7.3058 0,4.0351 3.054295,7.3059 6.819565,7.3059 3.76527,0 6.819564,-3.2708 6.819564,-7.3059 0,-4.035 -3.054294,-7.3058 -6.819564,-7.3058 -0.117663,0 -0.234391,-0.01 -0.350592,0 z"
       style="fill:#ffffff;stroke:#6891b8;stroke-width:1.27499998"
       inkscape:connector-curvature="0" />
  </g>
  <g
     id="g3827"
     style="fill:#ffffff;stroke:#6891b8;stroke-width:0.82999998"
     transform="translate(-0.00211665,-3.8590679e-4)">
    <g
       id="g3829"
       transform="matrix(0.67911,0,0,0.34396,-89.87369,-323.12738)"
       style="fill:#ffffff">
      <path
         id="path3831"
         d="m 175.19921,1002.2507 2.85157,0 c 0.16224,0 0.29285,0.4977 0.29285,1.1161 l 0,3.4039 c 0,0.6182 -0.13061,1.116 -0.29285,1.116 l -2.85157,0 c -0.16224,0 -0.29285,-0.4978 -0.29285,-1.116 l 0,-3.4039 c 0,-0.6184 0.13061,-1.1161 0.29285,-1.1161 z"
         inkscape:connector-curvature="0"
         style="fill:#ffffff" />
      <path
         id="path3833"
         d="m 175.19921,1049.3769 2.85157,0 c 0.16224,0 0.29285,0.4978 0.29285,1.116 l 0,3.4039 c 0,0.6183 -0.13061,1.1161 -0.29285,1.1161 l -2.85157,0 c -0.16224,0 -0.29285,-0.4978 -0.29285,-1.1161 l 0,-3.4039 c 0,-0.6182 0.13061,-1.116 0.29285,-1.116 z"
         inkscape:connector-curvature="0"
         style="fill:#ffffff" />
    </g>
    <g
       id="g3835"
       transform="matrix(0.38399,0,0,0.38399,20.85747,-364.19761)"
       style="fill:#ffffff">
      <path
         id="path3837"
         transform="matrix(1.5094,0,0,1.5094,-244.861,991.76336)"
         d="m 180.875,24.25 c 0,1.518783 -1.23122,2.75 -2.75,2.75 -1.51878,0 -2.75,-1.231217 -2.75,-2.75 0,-1.518783 1.23122,-2.75 2.75,-2.75 1.51878,0 2.75,1.231217 2.75,2.75 z"
         inkscape:connector-curvature="0"
         style="fill:#ffffff" />
    </g>
    <g
       id="g3839"
       transform="matrix(0.38399,0,0,0.78931,20.85747,-781.01185)"
       style="fill:#ffffff">
      <path
         id="path3841"
         d="m 46.371442,1027.0891 0,2.5542 c 0,0.1454 -0.445819,0.2624 -0.999756,0.2624 l -3.049073,0 c -0.553758,0 -0.999667,-0.117 -0.999667,-0.2624 l 0,-2.5542 c 0,-0.1454 0.445909,-0.2624 0.999667,-0.2624 l 3.049073,0 c 0.553937,0 0.999756,0.117 0.999756,0.2624 z"
         inkscape:connector-curvature="0"
         style="fill:#ffffff" />
      <path
         id="path3843"
         d="m 6.6770503,1027.0891 0,2.5542 c 0,0.1454 -0.4459087,0.2624 -0.9996667,0.2624 l -3.0490731,0 c -0.5538476,0 -0.9997563,-0.117 -0.9997563,-0.2624 l 0,-2.5542 c 0,-0.1454 0.4459176,-0.2624 0.9997563,-0.2624 l 3.0490731,0 c 0.553758,0 0.9996667,0.117 0.9996667,0.2624 z"
         inkscape:connector-curvature="0"
         style="fill:#ffffff" />
    </g>
    <g
       id="g3845"
       transform="matrix(0.4802,0.4802,-0.24322,0.24322,195.44054,-304.31366)"
       style="fill:#ffffff">
      <path
         id="path3847"
         d="m 175.19921,1002.2507 2.85157,0 c 0.16224,0 0.29285,0.4977 0.29285,1.1161 l 0,3.4039 c 0,0.6182 -0.13061,1.116 -0.29285,1.116 l -2.85157,0 c -0.16224,0 -0.29285,-0.4978 -0.29285,-1.116 l 0,-3.4039 c 0,-0.6184 0.13061,-1.1161 0.29285,-1.1161 z"
         inkscape:connector-curvature="0"
         style="fill:#ffffff" />
      <path
         id="path3849"
         d="m 175.19921,1049.3769 2.85157,0 c 0.16224,0 0.29285,0.4978 0.29285,1.116 l 0,3.4039 c 0,0.6183 -0.13061,1.1161 -0.29285,1.1161 l -2.85157,0 c -0.16224,0 -0.29285,-0.4978 -0.29285,-1.1161 l 0,-3.4039 c 0,-0.6182 0.13061,-1.116 0.29285,-1.116 z"
         inkscape:connector-curvature="0"
         style="fill:#ffffff" />
    </g>
    <g
       id="g3851"
       transform="matrix(-0.4802,0.4802,-0.24322,-0.24322,365.07114,196.05149)"
       style="fill:#ffffff">
      <path
         id="path3853"
         d="m 175.19921,1002.2507 2.85157,0 c 0.16224,0 0.29285,0.4977 0.29285,1.1161 l 0,3.4039 c 0,0.6182 -0.13061,1.116 -0.29285,1.116 l -2.85157,0 c -0.16224,0 -0.29285,-0.4978 -0.29285,-1.116 l 0,-3.4039 c 0,-0.6184 0.13061,-1.1161 0.29285,-1.1161 z"
         inkscape:connector-curvature="0"
         style="fill:#ffffff" />
      <path
         id="path3855"
         d="m 175.19921,1049.3769 2.85157,0 c 0.16224,0 0.29285,0.4978 0.29285,1.116 l 0,3.4039 c 0,0.6183 -0.13061,1.1161 -0.29285,1.1161 l -2.85157,0 c -0.16224,0 -0.29285,-0.4978 -0.29285,-1.1161 l 0,-3.4039 c 0,-0.6182 0.13061,-1.116 0.29285,-1.116 z"
         inkscape:connector-curvature="0"
         style="fill:#ffffff" />
    </g>
  </g>
  <g
     id="g3857"
     transform="translate(-0.00211665,-1004.3626)"
     style="fill:#ffffff">
    <path
       id="path3859"
       d="m 21.685322,1015.1291 c -3.215413,-1.6356 -7.300372,-0.3018 -9.259093,3.081 -2.021928,3.492 -1.0177,7.853 2.240756,9.7397 3.258455,1.8867 7.540584,0.5866 9.562512,-2.9053 2.02189,-3.4919 1.017681,-7.853 -2.240774,-9.7397 -0.101826,-0.059 -0.199763,-0.1228 -0.303401,-0.1757 z"
       style="fill:#ffffff;stroke:#6891b8;stroke-width:1.27499998"
       inkscape:connector-curvature="0" />
  </g>
  <g
     id="g3861"
     style="fill:#ffffff;stroke:#6891b8;stroke-width:0.82999998"
     transform="translate(-0.00211665,-3.8590679e-4)">
    <g
       id="g3863"
       transform="matrix(0.5877,0.34029,-0.17236,0.29766,91.81754,-349.02884)"
       style="fill:#ffffff">
      <path
         id="path3865"
         d="m 175.19921,1002.2507 2.85157,0 c 0.16224,0 0.29285,0.4977 0.29285,1.1161 l 0,3.4039 c 0,0.6182 -0.13061,1.116 -0.29285,1.116 l -2.85157,0 c -0.16224,0 -0.29285,-0.4978 -0.29285,-1.116 l 0,-3.4039 c 0,-0.6184 0.13061,-1.1161 0.29285,-1.1161 z"
         inkscape:connector-curvature="0"
         style="fill:#ffffff" />
      <path
         id="path3867"
         d="m 175.19921,1049.3769 2.85157,0 c 0.16224,0 0.29285,0.4978 0.29285,1.116 l 0,3.4039 c 0,0.6183 -0.13061,1.1161 -0.29285,1.1161 l -2.85157,0 c -0.16224,0 -0.29285,-0.4978 -0.29285,-1.1161 l 0,-3.4039 c 0,-0.6182 0.13061,-1.116 0.29285,-1.116 z"
         inkscape:connector-curvature="0"
         style="fill:#ffffff" />
    </g>
    <g
       id="g3869"
       transform="matrix(0.3323,0.19241,-0.19241,0.3323,208.22373,-329.08509)"
       style="fill:#ffffff">
      <path
         id="path3871"
         transform="matrix(1.5094,0,0,1.5094,-244.861,991.76336)"
         d="m 180.875,24.25 c 0,1.518783 -1.23122,2.75 -2.75,2.75 -1.51878,0 -2.75,-1.231217 -2.75,-2.75 0,-1.518783 1.23122,-2.75 2.75,-2.75 1.51878,0 2.75,1.231217 2.75,2.75 z"
         inkscape:connector-curvature="0"
         style="fill:#ffffff" />
    </g>
    <g
       id="g3873"
       transform="matrix(0.3323,0.19241,-0.39551,0.68307,417.08348,-689.79509)"
       style="fill:#ffffff">
      <path
         id="path3875"
         d="m 46.371442,1027.0891 0,2.5542 c 0,0.1454 -0.445819,0.2624 -0.999756,0.2624 l -3.049073,0 c -0.553758,0 -0.999667,-0.117 -0.999667,-0.2624 l 0,-2.5542 c 0,-0.1454 0.445909,-0.2624 0.999667,-0.2624 l 3.049073,0 c 0.553937,0 0.999756,0.117 0.999756,0.2624 z"
         inkscape:connector-curvature="0"
         style="fill:#ffffff" />
      <path
         id="path3877"
         d="m 6.6770503,1027.0891 0,2.5542 c 0,0.1454 -0.4459087,0.2624 -0.9996667,0.2624 l -3.0490731,0 c -0.5538476,0 -0.9997563,-0.117 -0.9997563,-0.2624 l 0,-2.5542 c 0,-0.1454 0.4459176,-0.2624 0.9997563,-0.2624 l 3.0490731,0 c 0.553758,0 0.9996667,0.117 0.9996667,0.2624 z"
         inkscape:connector-curvature="0"
         style="fill:#ffffff" />
    </g>
    <g
       id="g3879"
       transform="matrix(0.17494,0.65619,-0.33235,0.08861,329.30048,-189.78055)"
       style="fill:#ffffff">
      <path
         id="path3881"
         d="m 175.19921,1002.2507 2.85157,0 c 0.16224,0 0.29285,0.4977 0.29285,1.1161 l 0,3.4039 c 0,0.6182 -0.13061,1.116 -0.29285,1.116 l -2.85157,0 c -0.16224,0 -0.29285,-0.4978 -0.29285,-1.116 l 0,-3.4039 c 0,-0.6184 0.13061,-1.1161 0.29285,-1.1161 z"
         inkscape:connector-curvature="0"
         style="fill:#ffffff" />
      <path
         id="path3883"
         d="m 175.19921,1049.3769 2.85157,0 c 0.16224,0 0.29285,0.4978 0.29285,1.116 l 0,3.4039 c 0,0.6183 -0.13061,1.1161 -0.29285,1.1161 l -2.85157,0 c -0.16224,0 -0.29285,-0.4978 -0.29285,-1.1161 l 0,-3.4039 c 0,-0.6182 0.13061,-1.116 0.29285,-1.116 z"
         inkscape:connector-curvature="0"
         style="fill:#ffffff" />
    </g>
    <g
       id="g3885"
       transform="matrix(-0.65619,0.17494,-0.08861,-0.33235,225.37244,328.2337)"
       style="fill:#ffffff">
      <path
         id="path3887"
         d="m 175.19921,1002.2507 2.85157,0 c 0.16224,0 0.29285,0.4977 0.29285,1.1161 l 0,3.4039 c 0,0.6182 -0.13061,1.116 -0.29285,1.116 l -2.85157,0 c -0.16224,0 -0.29285,-0.4978 -0.29285,-1.116 l 0,-3.4039 c 0,-0.6184 0.13061,-1.1161 0.29285,-1.1161 z"
         inkscape:connector-curvature="0"
         style="fill:#ffffff" />
      <path
         id="path3889"
         d="m 175.19921,1049.3769 2.85157,0 c 0.16224,0 0.29285,0.4978 0.29285,1.116 l 0,3.4039 c 0,0.6183 -0.13061,1.1161 -0.29285,1.1161 l -2.85157,0 c -0.16224,0 -0.29285,-0.4978 -0.29285,-1.1161 l 0,-3.4039 c 0,-0.6182 0.13061,-1.116 0.29285,-1.116 z"
         inkscape:connector-curvature="0"
         style="fill:#ffffff" />
    </g>
  </g>
</svg>
