<?xml version="1.0" encoding="UTF-8" standalone="no"?>
<svg
   xmlns:dc="http://purl.org/dc/elements/1.1/"
   xmlns:cc="http://creativecommons.org/ns#"
   xmlns:rdf="http://www.w3.org/1999/02/22-rdf-syntax-ns#"
   xmlns:svg="http://www.w3.org/2000/svg"
   xmlns="http://www.w3.org/2000/svg"
   xmlns:sodipodi="http://sodipodi.sourceforge.net/DTD/sodipodi-0.dtd"
   xmlns:inkscape="http://www.inkscape.org/namespaces/inkscape"
   width="47.5"
   height="47.5"
   viewBox="0 0 38 38"
   id="svg2"
   version="1.1"
   inkscape:version="0.48.4 r9939"
   sodipodi:docname="applications-sports.svg">
  <metadata
     id="metadata10">
    <rdf:RDF>
      <cc:Work
         rdf:about="">
        <dc:format>image/svg+xml</dc:format>
        <dc:type
           rdf:resource="http://purl.org/dc/dcmitype/StillImage" />
      </cc:Work>
    </rdf:RDF>
  </metadata>
  <defs
     id="defs8" />
  <sodipodi:namedview
     pagecolor="#ffffff"
     bordercolor="#666666"
     borderopacity="1"
     objecttolerance="10"
     gridtolerance="10"
     guidetolerance="10"
     inkscape:pageopacity="0"
     inkscape:pageshadow="2"
     inkscape:window-width="1440"
     inkscape:window-height="848"
     id="namedview6"
     showgrid="false"
     inkscape:zoom="4.9684211"
     inkscape:cx="-8.2521186"
     inkscape:cy="23.347458"
     inkscape:window-x="0"
     inkscape:window-y="0"
     inkscape:window-maximized="1"
     inkscape:current-layer="svg2" />
  <path
     style="fill:#9c9d38;stroke:#9c9d38;stroke-width:1.449"
     d="M 337.369081 491.214178 C 276.480017 487.04932 223.007172 438.82867 207.90851 380.444238 C 193.988836 319.958271 221.638024 251.792154 275.605283 220.192726 C 310.290371 199.406645 353.836891 196.770175 392.249105 207.621732 C 439.674878 222.25605 475.805179 264.668825 488.4698 311.934233 C 499.879368 355.531508 491.664479 405.013079 461.39109 439.363606 C 433.970094 473.637713 390.157351 493.392132 346.306576 491.634485 C 343.340088 491.596275 340.335568 491.443437 337.369081 491.214178 Z M 373.651508 484.374641 C 384.604694 483.419398 382.665068 480.056944 372.738743 479.178121 C 354.977848 475.739247 335.809773 475.662828 318.657388 481.699961 C 333.75605 488.998015 353.798859 487.08753 370.685021 484.909577 Z M 319.874409 474.707585 C 327.670947 466.721756 319.532122 447.655112 312.724413 440.08959 C 297.473623 432.2566 285.683735 419.532768 271.72603 409.903922 C 261.229227 406.044741 250.998647 413.342795 240.882163 415.826426 C 240.844131 425.875579 240.159557 437.262072 248.982956 444.254448 C 263.51114 458.621298 281.043844 471.268711 300.820429 477.000167 C 307.171756 477.267635 313.827337 476.885538 319.874409 474.707585 Z M 403.354418 475.127892 C 428.645629 464.199915 452.339499 446.62345 466.60146 422.704174 C 471.735766 415.826426 475.500923 403.752159 462.113696 407.764178 C 445.265567 418.386477 430.052809 431.530616 412.82436 441.579769 C 402.365589 449.909485 394.835274 461.334187 387.381023 472.262164 C 389.967191 478.299297 398.410272 476.847329 403.354418 475.127892 Z M 420.506803 431.186729 C 433.209456 420.717269 451.578861 413.99236 458.272475 398.135332 C 461.276995 385.640758 461.505186 372.725877 462.760239 360.002044 C 450.095618 348.730181 434.578604 341.088239 419.365846 333.866605 C 404.343248 335.051105 392.211073 348.462713 380.30709 357.136316 C 373.993795 360.6134 375.629167 368.522809 373.8797 374.559943 C 371.597786 388.697534 368.935553 402.758706 367.376246 417.010927 C 379.204165 425.76095 392.401233 433.823198 406.777289 437.223862 C 411.987659 437.262072 416.285263 433.746779 420.506803 431.186729 Z M 329.876797 433.364682 C 341.400461 428.970566 356.613219 425.646321 362.013749 413.419215 C 366.045129 396.301266 368.250979 378.76301 370.380765 361.301174 C 358.933165 350.373198 346.724927 338.872076 331.74036 333.21704 C 318.809516 332.987781 307.85633 342.158111 296.370698 347.163583 C 280.891716 351.40486 275.491187 365.504242 274.844645 380.10035 C 270.280818 394.543619 275.491187 409.368986 288.536127 417.316605 C 299.945696 425.72274 314.587975 439.172557 329.876797 433.364682 Z M 233.580039 413.151747 C 224.262225 395.842749 217.834834 376.890735 215.248665 357.365574 C 206.006915 359.23785 214.411964 381.972626 216.960101 391.219375 C 221.295737 403.752159 227.951318 415.29149 234.873123 426.525144 C 236.128176 421.90177 236.888814 417.316605 233.580039 413.151747 Z M 229.58669 336.082768 C 233.656103 330.236682 240.121525 325.651518 242.593598 318.964819 C 246.891202 298.790093 253.927103 279.303143 264.005555 261.229951 C 263.587204 249.575991 250.580296 242.468985 244.114874 255.345656 C 225.707437 279.112094 211.255316 308.113262 210.608774 338.719237 C 208.174733 349.226907 217.302388 356.830639 222.550789 344.412484 C 224.870735 341.661385 227.228712 338.872076 229.58669 336.082768 Z M 466.867683 350.564247 C 474.664222 340.285835 485.46528 328.096939 482.688952 314.150396 C 477.782837 287.747488 464.281514 262.68192 443.5161 245.487552 C 437.316901 242.851082 426.05946 233.222236 421.761856 242.316146 C 415.410529 254.581462 399.589261 266.159004 405.294045 281.404677 C 410.162128 296.459301 413.737126 312.163491 420.84909 326.339292 C 433.970094 336.579494 449.106788 344.565323 464.357578 351.290231 Z M 292.643572 343.724709 C 304.737715 337.572946 316.48957 330.809828 328.279458 324.161339 C 332.234775 310.214796 337.254985 296.61214 341.894876 282.933065 C 342.541418 268.107699 329.344351 257.4854 320.558983 247.09236 C 311.887711 233.184026 297.245431 243.844535 286.558469 248.926426 C 263.054758 261.535629 257.654228 289.237667 249.629499 312.392749 C 250.770455 321.066353 258.68109 328.287987 264.461938 334.745428 C 272.410604 342.807676 281.386131 353.506394 292.643572 343.724709 Z M 379.356293 268.871893 C 385.631555 267.99307 392.629424 268.642635 398.410272 266.846778 C 407.119576 257.4854 414.763987 246.519214 418.377017 234.177479 C 414.003349 221.759324 399.551229 216.104287 387.913469 211.86301 C 373.119062 207.468893 357.259762 205.29094 341.894876 207.048587 C 330.827595 212.703623 310.936913 229.172007 322.156322 241.972259 C 330.371212 251.792154 339.118548 261.115322 348.056043 270.323862 C 358.514814 270.438491 368.935553 269.597877 379.356293 268.871893 Z "
     transform="matrix(.10271 0 0 .10223 -16.83081 -16.42868)"
     id="path4" />
  <path
     sodipodi:type="arc"
     style="fill:#9c9d38;fill-opacity:1;stroke:none"
     id="path2987"
     sodipodi:cx="-51.827332"
     sodipodi:cy="12.579449"
     sodipodi:rx="14.592161"
     sodipodi:ry="14.592161"
     d="m -37.23517,12.579449 a 14.592161,14.592161 0 1 1 -29.184323,0 14.592161,14.592161 0 1 1 29.184323,0 z"
     transform="matrix(1.3157749,0,0,1.3157749,87.193102,2.4482771)" />
  <path
     id="path3757"
     d="M 17.81955,33.789419 C 11.565634,33.363646 6.0734376,28.434049 4.5226546,22.465408 3.0929646,16.281928 5.9328126,9.3133058 11.47579,6.0828958 c 3.562506,-2.124961 8.035169,-2.394487 11.980487,-1.285133 4.871101,1.496067 8.582045,5.8319252 9.882827,10.6638672 1.171877,4.45695 0.328126,9.515451 -2.781254,13.027105 -2.81641,3.503842 -7.316417,5.523336 -11.82033,5.343652 -0.304688,-0.0039 -0.613282,-0.01953 -0.91797,-0.04297 z m 3.726568,-0.699206 c 1.125002,-0.09765 0.925783,-0.441398 -0.09375,-0.53124 -1.824222,-0.351556 -3.792975,-0.359368 -5.554696,0.257808 1.550784,0.74608 3.60938,0.550771 5.343758,0.328119 z M 16.022672,32.10195 c 0.800783,-0.816391 -0.03516,-2.765574 -0.734376,-3.538997 -1.566409,-0.800767 -2.777348,-2.101524 -4.210944,-3.085881 -1.0781264,-0.394524 -2.1289094,0.351556 -3.1679734,0.605457 -0.0039,1.027325 -0.07422,2.191366 0.832032,2.906197 1.4921904,1.468723 3.2929744,2.761668 5.3242274,3.347595 0.652345,0.02734 1.335939,-0.01172 1.957034,-0.234371 z m 8.574232,0.04297 c 2.59766,-1.117167 5.031258,-2.914009 6.496104,-5.359277 0.527344,-0.703112 0.914063,-1.937464 -0.460939,-1.527315 -1.730471,1.085917 -3.292973,2.429643 -5.062507,3.456968 -1.074221,0.851546 -1.847659,2.019494 -2.613286,3.136661 0.265626,0.617176 1.132815,0.468741 1.640628,0.292963 z m 1.761721,-4.492105 c 1.30469,-1.070293 3.191411,-1.75778 3.878913,-3.378844 0.308594,-1.277321 0.332031,-2.597609 0.460938,-3.898366 -1.300783,-1.152323 -2.894536,-1.933559 -4.457038,-2.671826 -1.542971,0.121091 -2.789067,1.49216 -4.011725,2.378862 -0.648439,0.355463 -0.48047,1.164041 -0.660157,1.781218 -0.234376,1.445286 -0.507814,2.882759 -0.66797,4.339764 1.214845,0.894515 2.570316,1.718718 4.046881,2.066368 0.535157,0.0039 0.976564,-0.355462 1.410158,-0.617176 z m -9.308608,0.222652 c 1.183596,-0.44921 2.746098,-0.789048 3.300787,-2.039025 0.414063,-1.749968 0.640626,-3.542904 0.859376,-5.328027 -1.175783,-1.117167 -2.429691,-2.292927 -3.968756,-2.871041 -1.328127,-0.02344 -2.453129,0.914045 -3.632818,1.425755 -1.589846,0.433586 -2.144535,1.874965 -2.210941,3.367126 -0.468751,1.476535 0.06641,2.992132 1.406252,3.804617 1.171877,0.859359 2.675786,2.234334 4.2461,1.640595 z M 7.1593766,25.809099 c -0.957032,-1.769499 -1.61719,-3.706963 -1.882815,-5.703021 -0.94922,0.191403 -0.08594,2.515579 0.175782,3.460874 0.445313,1.281227 1.128907,2.460893 1.839846,3.609309 0.128907,-0.472647 0.207032,-0.941389 -0.132813,-1.367162 z m -0.410156,-7.878762 c 0.417969,-0.597645 1.082032,-1.066387 1.335939,-1.749968 0.441407,-2.062462 1.164064,-4.054613 2.1992224,-5.902235 -0.04297,-1.1913852 -1.3789084,-1.9179342 -2.0429724,-0.6015522 -1.890628,2.4296432 -3.375005,5.3944332 -3.441411,8.5232812 -0.250001,1.074199 0.687501,1.851529 1.226564,0.582021 0.238282,-0.281245 0.48047,-0.566396 0.722658,-0.851547 z m 24.3711304,1.480442 c 0.800783,-1.050762 1.91016,-2.296833 1.625003,-3.722588 -0.503907,-2.69917 -1.890628,-5.261623 -4.023444,-7.0194032 -0.636719,-0.269526 -1.792971,-1.253883 -2.234378,-0.324213 -0.652345,1.253884 -2.277347,2.4374562 -1.691409,3.9960212 0.500001,1.539034 0.867189,3.144473 1.597659,4.593666 1.347658,1.046855 2.902348,1.863247 4.468756,2.550734 z M 13.225793,18.711573 c 1.242189,-0.628895 2.449222,-1.320289 3.660162,-1.999964 0.40625,-1.425755 0.921876,-2.816354 1.398439,-4.214766 0.06641,-1.515597 -1.289064,-2.6015152 -2.191409,-3.6639952 -0.890627,-1.421849 -2.394535,-0.332025 -3.492193,0.187496 -2.414066,1.2890392 -2.9687554,4.1210182 -3.7929754,6.4881622 0.117188,0.886703 0.929689,1.624971 1.5234404,2.285115 0.816408,0.824203 1.738284,1.917933 2.894536,0.917952 z m 8.906263,-7.652204 c 0.644533,-0.08984 1.363284,-0.02344 1.957035,-0.207027 0.894532,-0.9570142 1.67969,-2.0780872 2.050784,-3.3397832 -0.449219,-1.269508 -1.933597,-1.847622 -3.128911,-2.281208 -1.519534,-0.44921 -3.148442,-0.671862 -4.72657,-0.492178 -1.13672,0.578114 -3.179692,2.261677 -2.027347,3.570247 0.843752,1.003888 1.742191,1.9569952 2.660161,2.8983842 1.07422,0.01172 2.144534,-0.07422 3.214848,-0.148435 z"
     style="fill:#ffffff;fill-opacity:1;stroke:#9c9d38;stroke-width:0.14847863"
     inkscape:connector-curvature="0" />
</svg>
