<?xml version="1.0" encoding="UTF-8" standalone="no"?>
<svg
   xmlns:dc="http://purl.org/dc/elements/1.1/"
   xmlns:cc="http://creativecommons.org/ns#"
   xmlns:rdf="http://www.w3.org/1999/02/22-rdf-syntax-ns#"
   xmlns:svg="http://www.w3.org/2000/svg"
   xmlns="http://www.w3.org/2000/svg"
   xmlns:sodipodi="http://sodipodi.sourceforge.net/DTD/sodipodi-0.dtd"
   xmlns:inkscape="http://www.inkscape.org/namespaces/inkscape"
   viewBox="0 0 48 48"
   id="svg2"
   version="1.1"
   inkscape:version="0.48.4 r9939"
   width="100%"
   height="100%"
   sodipodi:docname="applications-other.svg">
  <metadata
     id="metadata24">
    <rdf:RDF>
      <cc:Work
         rdf:about="">
        <dc:format>image/svg+xml</dc:format>
        <dc:type
           rdf:resource="http://purl.org/dc/dcmitype/StillImage" />
      </cc:Work>
    </rdf:RDF>
  </metadata>
  <defs
     id="defs22" />
  <sodipodi:namedview
     pagecolor="#ffffff"
     bordercolor="#666666"
     borderopacity="1"
     objecttolerance="10"
     gridtolerance="10"
     guidetolerance="10"
     inkscape:pageopacity="0"
     inkscape:pageshadow="2"
     inkscape:window-width="1440"
     inkscape:window-height="848"
     id="namedview20"
     showgrid="false"
     inkscape:zoom="4.9166667"
     inkscape:cx="-8.3389831"
     inkscape:cy="23.59322"
     inkscape:window-x="0"
     inkscape:window-y="0"
     inkscape:window-maximized="1"
     inkscape:current-layer="svg2" />
  <g
     style="fill:#ffffff"
     transform="matrix(.75807 0 0 .75807 5.47163 -755.21342)"
     id="g4">
    <rect
       width="28.001"
       x="10.43"
       y="1027.421"
       rx="0"
       height="19.799"
       id="rect6"
       style="fill:#ffffff" />
    <rect
       width="8.91"
       x="-617.143"
       y="828.104"
       rx="0"
       height="1.945"
       transform="matrix(.79989 -.60015 .60015 .79989 0 0)"
       id="rect8"
       style="fill:#ffffff" />
    <rect
       width="8.91"
       x="647.335"
       y="-800.711"
       rx="0"
       height="1.945"
       transform="matrix(.79989 .60015 .60015 -.79989 0 0)"
       id="rect10"
       style="fill:#ffffff" />
    <rect
       width="4.638"
       x="320.275"
       y="967.334"
       height="4.638"
       transform="rotate(17.57126)"
       id="rect12"
       style="fill:#ffffff" />
    <rect
       width="7.625"
       x="-267.613"
       y="974.776"
       height="7.625"
       transform="matrix(.95988 -.28041 .28041 .95988 0 0)"
       id="rect14"
       style="fill:#ffffff" />
    <path
       d="m 28.749998,12.500002 -2.183013,2.781089 -3.5,-0.5 -1.316987,-3.281089 2.183013,-2.781089 3.5,0.5 z"
       transform="translate(2 1009.9872)"
       id="path16"
       style="fill:#ffffff" />
    <path
       d="m 28.749998,12.500002 -2.231166,0.730878 -0.662803,2.252328 -1.384575,-1.896111 -2.346908,0.06564 1.375452,-1.90274 -0.787667,-2.211757 2.234651,0.720154 1.860104,-1.4325864 0.0056,2.3478194 z"
       transform="translate(8.375 1003.1122)"
       id="path18"
       style="fill:#ffffff" />
  </g>
  <path
     sodipodi:type="arc"
     style="fill:#cf9545;fill-opacity:1;stroke:none"
     id="path3001"
     sodipodi:cx="-25.118645"
     sodipodi:cy="15.762712"
     sodipodi:rx="15.355932"
     sodipodi:ry="15.355932"
     d="m -9.7627125,15.762712 a 15.355932,15.355932 0 1 1 -30.7118645,0 15.355932,15.355932 0 1 1 30.7118645,0 z"
     transform="matrix(1.5629139,0,0,1.5629139,63.258279,-0.63576094)" />
  <g
     id="g3771"
     transform="matrix(.75807 0 0 .75807 5.47163 -755.21342)"
     style="fill:#ffffff">
    <rect
       style="fill:#ffffff"
       id="rect3773"
       height="19.799"
       rx="0"
       y="1027.421"
       x="10.43"
       width="28.001" />
    <rect
       style="fill:#ffffff"
       id="rect3775"
       transform="matrix(.79989 -.60015 .60015 .79989 0 0)"
       height="1.945"
       rx="0"
       y="828.104"
       x="-617.143"
       width="8.91" />
    <rect
       style="fill:#ffffff"
       id="rect3777"
       transform="matrix(.79989 .60015 .60015 -.79989 0 0)"
       height="1.945"
       rx="0"
       y="-800.711"
       x="647.335"
       width="8.91" />
    <rect
       style="fill:#ffffff"
       id="rect3779"
       transform="rotate(17.57126)"
       height="4.638"
       y="967.334"
       x="320.275"
       width="4.638" />
    <rect
       style="fill:#ffffff"
       id="rect3781"
       transform="matrix(.95988 -.28041 .28041 .95988 0 0)"
       height="7.625"
       y="974.776"
       x="-267.613"
       width="7.625" />
    <path
       style="fill:#ffffff"
       id="path3783"
       transform="translate(2 1009.9872)"
       d="m 28.749998,12.500002 -2.183013,2.781089 -3.5,-0.5 -1.316987,-3.281089 2.183013,-2.781089 3.5,0.5 z" />
    <path
       style="fill:#ffffff"
       id="path3785"
       transform="translate(8.375 1003.1122)"
       d="m 28.749998,12.500002 -2.231166,0.730878 -0.662803,2.252328 -1.384575,-1.896111 -2.346908,0.06564 1.375452,-1.90274 -0.787667,-2.211757 2.234651,0.720154 1.860104,-1.4325864 0.0056,2.3478194 z" />
  </g>
</svg>
