<?xml version="1.0" encoding="UTF-8" standalone="no"?>
<svg
   xmlns:dc="http://purl.org/dc/elements/1.1/"
   xmlns:cc="http://creativecommons.org/ns#"
   xmlns:rdf="http://www.w3.org/1999/02/22-rdf-syntax-ns#"
   xmlns:svg="http://www.w3.org/2000/svg"
   xmlns="http://www.w3.org/2000/svg"
   xmlns:sodipodi="http://sodipodi.sourceforge.net/DTD/sodipodi-0.dtd"
   xmlns:inkscape="http://www.inkscape.org/namespaces/inkscape"
   width="47.5"
   height="47.5"
   viewBox="0 0 38 38"
   id="svg2"
   version="1.1"
   inkscape:version="0.48.4 r9939"
   sodipodi:docname="applications-publishing.svg">
  <metadata
     id="metadata106">
    <rdf:RDF>
      <cc:Work
         rdf:about="">
        <dc:format>image/svg+xml</dc:format>
        <dc:type
           rdf:resource="http://purl.org/dc/dcmitype/StillImage" />
      </cc:Work>
    </rdf:RDF>
  </metadata>
  <defs
     id="defs104" />
  <sodipodi:namedview
     pagecolor="#ffffff"
     bordercolor="#666666"
     borderopacity="1"
     objecttolerance="10"
     gridtolerance="10"
     guidetolerance="10"
     inkscape:pageopacity="0"
     inkscape:pageshadow="2"
     inkscape:window-width="1440"
     inkscape:window-height="848"
     id="namedview102"
     showgrid="false"
     inkscape:zoom="4.9684211"
     inkscape:cx="-21.938559"
     inkscape:cy="22.944916"
     inkscape:window-x="0"
     inkscape:window-y="0"
     inkscape:window-maximized="1"
     inkscape:current-layer="svg2" />
  <path
     style="fill:none;stroke:#ffffff;stroke-linecap:round;stroke-width:8.07300000000000040;stroke-opacity:1"
     d="M 34.394737 32.026316 L 221.605263 32.026316 C 222.921053 32.026316 223.973684 33.078947 223.973684 34.394737 L 223.973684 221.605263 C 223.973684 222.921053 222.921053 223.973684 221.605263 223.973684 L 34.394737 223.973684 C 33.078947 223.973684 32.026316 222.921053 32.026316 221.605263 L 32.026316 34.394737 C 32.026316 33.078947 33.078947 32.026316 34.394737 32.026316 Z "
     transform="scale(.14844)"
     id="path4" />
  <g
     style="fill:#ffffff"
     id="g6"
     transform="translate(0.6440678,0.48305085)">
    <g
       id="g8"
       style="fill:#ffffff">
      <path
         d="m 15.511719,9.675781 c -0.527344,1.328125 -1.050781,2.65625 -1.578125,3.988281 l 3.15625,0 z m -0.65625,-1.066406 1.316406,0 c 1.089844,2.667969 2.179687,5.339844 3.269531,8.007813 l -1.207031,0 C 17.976562,15.933594 17.714844,15.246094 17.453125,14.5625 l -3.867187,0 c -0.261719,0.683594 -0.523438,1.371094 -0.78125,2.054688 l -1.226563,0 c 1.09375,-2.667969 2.183594,-5.339844 3.277344,-8.007813 z m 8.714843,4.988281 c -0.675781,0.02734 -1.460937,-0.01953 -1.992187,0.433594 -0.546875,0.585938 -0.277344,1.699219 0.59375,1.859375 0.847656,0.222656 1.839844,-0.152344 2.195313,-0.925781 0.199218,-0.398438 0.328124,-0.984375 0.222656,-1.367188 z m 2.109376,-0.40625 0,3.425782 -1.058594,0 0,-0.910157 c -0.4375,0.734375 -1.347656,1.101563 -2.222656,1.066407 -0.933594,0.05078 -1.925782,-0.5 -2.101563,-1.394532 -0.222656,-0.863281 0.132813,-1.921875 1.078125,-2.265625 1.023438,-0.414062 2.160156,-0.257812 3.246094,-0.289062 0.07422,-0.640625 -0.378906,-1.277344 -1.058594,-1.429688 -0.957031,-0.222656 -1.992188,-0.03125 -2.851562,0.402344 0,-0.304687 0,-0.609375 0,-0.914063 1.191406,-0.417968 2.597656,-0.644531 3.777343,-0.09766 0.9375,0.453125 1.203125,1.5 1.191407,2.40625 z"
         id="path10"
         inkscape:connector-curvature="0"
         style="fill:#ffffff" />
    </g>
    <g
       style="fill-opacity:0.59999999999999998;fill:#ffffff"
       id="g12">
      <path
         d="m 11.578125,18.257812 1.867187,0 0,0.742188 -1.867187,0 z"
         id="path14"
         inkscape:connector-curvature="0"
         style="fill:#ffffff" />
      <path
         d="m 13.703125,18.257812 1.761719,0 0,0.742188 -1.761719,0 z"
         id="path16"
         inkscape:connector-curvature="0"
         style="fill:#ffffff" />
      <path
         d="m 15.71875,18.257812 1.554688,0 0,0.742188 -1.554688,0 z"
         id="path18"
         inkscape:connector-curvature="0"
         style="fill:#ffffff" />
      <path
         d="m 17.527344,18.257812 0.679687,0 0,0.742188 -0.679687,0 z"
         id="path20"
         inkscape:connector-curvature="0"
         style="fill:#ffffff" />
      <path
         d="m 18.460938,18.257812 1.527343,0 0,0.742188 -1.527343,0 z"
         id="path22"
         inkscape:connector-curvature="0"
         style="fill:#ffffff" />
      <path
         d="m 20.242188,18.257812 3.953124,0 0,0.742188 -3.953124,0 z"
         id="path24"
         inkscape:connector-curvature="0"
         style="fill:#ffffff" />
      <path
         d="m 11.578125,22.710938 1.867187,0 0,0.742187 -1.867187,0 z"
         id="path26"
         inkscape:connector-curvature="0"
         style="fill:#ffffff" />
      <path
         d="m 13.703125,22.710938 1.761719,0 0,0.742187 -1.761719,0 z"
         id="path28"
         inkscape:connector-curvature="0"
         style="fill:#ffffff" />
      <path
         d="m 15.71875,22.710938 1.554688,0 0,0.742187 -1.554688,0 z"
         id="path30"
         inkscape:connector-curvature="0"
         style="fill:#ffffff" />
      <path
         d="m 17.527344,22.710938 0.679687,0 0,0.742187 -0.679687,0 z"
         id="path32"
         inkscape:connector-curvature="0"
         style="fill:#ffffff" />
      <path
         d="m 18.460938,22.710938 1.527343,0 0,0.742187 -1.527343,0 z"
         id="path34"
         inkscape:connector-curvature="0"
         style="fill:#ffffff" />
      <path
         d="m 20.242188,22.710938 3.953124,0 0,0.742187 -3.953124,0 z"
         id="path36"
         inkscape:connector-curvature="0"
         style="fill:#ffffff" />
      <path
         d="m 11.578125,19.742188 2.816406,0 0,0.742187 -2.816406,0 z"
         id="path38"
         inkscape:connector-curvature="0"
         style="fill:#ffffff" />
      <path
         d="m 14.652344,19.742188 1.355468,0 0,0.742187 -1.355468,0 z"
         id="path40"
         inkscape:connector-curvature="0"
         style="fill:#ffffff" />
      <path
         d="m 16.265625,19.742188 0.636719,0 0,0.742187 -0.636719,0 z"
         id="path42"
         inkscape:connector-curvature="0"
         style="fill:#ffffff" />
      <path
         d="m 17.15625,19.742188 1.226562,0 0,0.742187 -1.226562,0 z"
         id="path44"
         inkscape:connector-curvature="0"
         style="fill:#ffffff" />
      <path
         d="m 18.640625,19.742188 1.226563,0 0,0.742187 -1.226563,0 z"
         id="path46"
         inkscape:connector-curvature="0"
         style="fill:#ffffff" />
      <path
         d="m 20.125,19.742188 1.96875,0 0,0.742187 -1.96875,0 z"
         id="path48"
         inkscape:connector-curvature="0"
         style="fill:#ffffff" />
      <path
         d="m 22.351562,19.742188 2.585938,0 0,0.742187 -2.585938,0 z"
         id="path50"
         inkscape:connector-curvature="0"
         style="fill:#ffffff" />
      <path
         d="m 11.578125,21.226562 3.289063,0 0,0.742188 -3.289063,0 z"
         id="path52"
         inkscape:connector-curvature="0"
         style="fill:#ffffff" />
      <path
         d="m 15.125,21.226562 3.527344,0 0,0.742188 -3.527344,0 z"
         id="path54"
         inkscape:connector-curvature="0"
         style="fill:#ffffff" />
      <path
         d="m 18.910156,21.226562 1.40625,0 0,0.742188 -1.40625,0 z"
         id="path56"
         inkscape:connector-curvature="0"
         style="fill:#ffffff" />
      <path
         d="m 20.578125,21.226562 3.316406,0 0,0.742188 -3.316406,0 z"
         id="path58"
         inkscape:connector-curvature="0"
         style="fill:#ffffff" />
      <path
         d="m 24.152344,21.226562 2.269531,0 0,0.742188 -2.269531,0 z"
         id="path60"
         inkscape:connector-curvature="0"
         style="fill:#ffffff" />
      <path
         d="m 11.578125,27.164062 3.289063,0 0,0.742188 -3.289063,0 z"
         id="path62"
         inkscape:connector-curvature="0"
         style="fill:#ffffff" />
      <path
         d="m 15.125,27.164062 3.527344,0 0,0.742188 -3.527344,0 z"
         id="path64"
         inkscape:connector-curvature="0"
         style="fill:#ffffff" />
      <path
         d="m 18.910156,27.164062 1.40625,0 0,0.742188 -1.40625,0 z"
         id="path66"
         inkscape:connector-curvature="0"
         style="fill:#ffffff" />
      <path
         d="m 20.578125,27.164062 3.316406,0 0,0.742188 -3.316406,0 z"
         id="path68"
         inkscape:connector-curvature="0"
         style="fill:#ffffff" />
      <path
         d="m 24.152344,27.164062 2.269531,0 0,0.742188 -2.269531,0 z"
         id="path70"
         inkscape:connector-curvature="0"
         style="fill:#ffffff" />
      <path
         d="m 11.578125,24.195312 2.320313,0 0,0.742188 -2.320313,0 z"
         id="path72"
         inkscape:connector-curvature="0"
         style="fill:#ffffff" />
      <path
         d="m 14.144531,24.195312 3.851563,0 0,0.742188 -3.851563,0 z"
         id="path74"
         inkscape:connector-curvature="0"
         style="fill:#ffffff" />
      <path
         d="m 18.242188,24.195312 1.859374,0 0,0.742188 -1.859374,0 z"
         id="path76"
         inkscape:connector-curvature="0"
         style="fill:#ffffff" />
      <path
         d="m 22.328125,24.195312 1.476563,0 0,0.742188 -1.476563,0 z"
         id="path78"
         inkscape:connector-curvature="0"
         style="fill:#ffffff" />
      <path
         d="m 24.050781,24.195312 2.371094,0 0,0.742188 -2.371094,0 z"
         id="path80"
         inkscape:connector-curvature="0"
         style="fill:#ffffff" />
      <path
         d="m 20.347656,24.195312 1.734375,0 0,0.742188 -1.734375,0 z"
         id="path82"
         inkscape:connector-curvature="0"
         style="fill:#ffffff" />
      <path
         d="m 11.578125,25.679688 3.058594,0 0,0.742187 -3.058594,0 z"
         id="path84"
         inkscape:connector-curvature="0"
         style="fill:#ffffff" />
      <path
         d="m 14.890625,25.679688 0.960937,0 0,0.742187 -0.960937,0 z"
         id="path86"
         inkscape:connector-curvature="0"
         style="fill:#ffffff" />
      <path
         d="m 16.105469,25.679688 2.199219,0 0,0.742187 -2.199219,0 z"
         id="path88"
         inkscape:connector-curvature="0"
         style="fill:#ffffff" />
      <path
         d="m 18.554688,25.679688 1.5,0 0,0.742187 -1.5,0 z"
         id="path90"
         inkscape:connector-curvature="0"
         style="fill:#ffffff" />
      <path
         d="m 20.308594,25.679688 1.5,0 0,0.742187 -1.5,0 z"
         id="path92"
         inkscape:connector-curvature="0"
         style="fill:#ffffff" />
      <path
         d="m 22.0625,25.679688 2.171875,0 0,0.742187 -2.171875,0 z"
         id="path94"
         inkscape:connector-curvature="0"
         style="fill:#ffffff" />
      <path
         d="m 24.484375,25.679688 0.453125,0 0,0.742187 -0.453125,0 z"
         id="path96"
         inkscape:connector-curvature="0"
         style="fill:#ffffff" />
      <path
         d="m 11.578125,28.648438 1.210937,0 0,0.742187 -1.210937,0 z"
         id="path98"
         inkscape:connector-curvature="0"
         style="fill:#ffffff" />
      <path
         d="m 13.105469,28.648438 4.410156,0 0,0.742187 -4.410156,0 z"
         id="path100"
         inkscape:connector-curvature="0"
         style="fill:#ffffff" />
    </g>
  </g>
  <path
     sodipodi:type="arc"
     style="fill:#cccccc;fill-opacity:1;stroke:none"
     id="path3181"
     sodipodi:cx="83.527542"
     sodipodi:cy="20.932203"
     sodipodi:rx="22.944916"
     sodipodi:ry="22.944916"
     d="m 106.47246,20.932203 a 22.944916,22.944916 0 1 1 -45.889834,0 22.944916,22.944916 0 1 1 45.889834,0 z"
     transform="matrix(0.83678668,0,0,0.83678668,-50.894735,1.4842111)" />
  <path
     inkscape:connector-curvature="0"
     style="fill:none;stroke:#ffffff;stroke-width:0.98389614;stroke-linecap:round;stroke-opacity:1"
     d="m 7.5918668,7.3032166 22.8162672,0 c 0.160361,0 0.28865,0.1282894 0.28865,0.2886511 l 0,22.8162643 c 0,0.160363 -0.128288,0.288651 -0.28865,0.288651 l -22.8162672,0 c -0.1603618,0 -0.2886507,-0.128288 -0.2886507,-0.288651 l 0,-22.8162643 c 0,-0.1603617 0.1282889,-0.2886511 0.2886507,-0.2886511 z"
     id="path3183" />
  <g
     style="fill:#ffffff"
     id="g3185">
    <g
       id="g3187"
       style="fill:#ffffff">
      <path
         d="m 15.511719,9.675781 c -0.527344,1.328125 -1.050781,2.65625 -1.578125,3.988281 l 3.15625,0 z m -0.65625,-1.066406 1.316406,0 c 1.089844,2.667969 2.179687,5.339844 3.269531,8.007813 l -1.207031,0 C 17.976562,15.933594 17.714844,15.246094 17.453125,14.5625 l -3.867187,0 c -0.261719,0.683594 -0.523438,1.371094 -0.78125,2.054688 l -1.226563,0 c 1.09375,-2.667969 2.183594,-5.339844 3.277344,-8.007813 z m 8.714843,4.988281 c -0.675781,0.02734 -1.460937,-0.01953 -1.992187,0.433594 -0.546875,0.585938 -0.277344,1.699219 0.59375,1.859375 0.847656,0.222656 1.839844,-0.152344 2.195313,-0.925781 0.199218,-0.398438 0.328124,-0.984375 0.222656,-1.367188 z m 2.109376,-0.40625 0,3.425782 -1.058594,0 0,-0.910157 c -0.4375,0.734375 -1.347656,1.101563 -2.222656,1.066407 -0.933594,0.05078 -1.925782,-0.5 -2.101563,-1.394532 -0.222656,-0.863281 0.132813,-1.921875 1.078125,-2.265625 1.023438,-0.414062 2.160156,-0.257812 3.246094,-0.289062 0.07422,-0.640625 -0.378906,-1.277344 -1.058594,-1.429688 -0.957031,-0.222656 -1.992188,-0.03125 -2.851562,0.402344 0,-0.304687 0,-0.609375 0,-0.914063 1.191406,-0.417968 2.597656,-0.644531 3.777343,-0.09766 0.9375,0.453125 1.203125,1.5 1.191407,2.40625 z"
         id="path3189"
         inkscape:connector-curvature="0"
         style="fill:#ffffff" />
    </g>
    <g
       style="fill:#ffffff;fill-opacity:0.6"
       id="g3191">
      <path
         d="m 11.578125,18.257812 1.867187,0 0,0.742188 -1.867187,0 z"
         id="path3193"
         inkscape:connector-curvature="0"
         style="fill:#ffffff" />
      <path
         d="m 13.703125,18.257812 1.761719,0 0,0.742188 -1.761719,0 z"
         id="path3195"
         inkscape:connector-curvature="0"
         style="fill:#ffffff" />
      <path
         d="m 15.71875,18.257812 1.554688,0 0,0.742188 -1.554688,0 z"
         id="path3197"
         inkscape:connector-curvature="0"
         style="fill:#ffffff" />
      <path
         d="m 17.527344,18.257812 0.679687,0 0,0.742188 -0.679687,0 z"
         id="path3199"
         inkscape:connector-curvature="0"
         style="fill:#ffffff" />
      <path
         d="m 18.460938,18.257812 1.527343,0 0,0.742188 -1.527343,0 z"
         id="path3201"
         inkscape:connector-curvature="0"
         style="fill:#ffffff" />
      <path
         d="m 20.242188,18.257812 3.953124,0 0,0.742188 -3.953124,0 z"
         id="path3203"
         inkscape:connector-curvature="0"
         style="fill:#ffffff" />
      <path
         d="m 11.578125,22.710938 1.867187,0 0,0.742187 -1.867187,0 z"
         id="path3205"
         inkscape:connector-curvature="0"
         style="fill:#ffffff" />
      <path
         d="m 13.703125,22.710938 1.761719,0 0,0.742187 -1.761719,0 z"
         id="path3207"
         inkscape:connector-curvature="0"
         style="fill:#ffffff" />
      <path
         d="m 15.71875,22.710938 1.554688,0 0,0.742187 -1.554688,0 z"
         id="path3209"
         inkscape:connector-curvature="0"
         style="fill:#ffffff" />
      <path
         d="m 17.527344,22.710938 0.679687,0 0,0.742187 -0.679687,0 z"
         id="path3211"
         inkscape:connector-curvature="0"
         style="fill:#ffffff" />
      <path
         d="m 18.460938,22.710938 1.527343,0 0,0.742187 -1.527343,0 z"
         id="path3213"
         inkscape:connector-curvature="0"
         style="fill:#ffffff" />
      <path
         d="m 20.242188,22.710938 3.953124,0 0,0.742187 -3.953124,0 z"
         id="path3215"
         inkscape:connector-curvature="0"
         style="fill:#ffffff" />
      <path
         d="m 11.578125,19.742188 2.816406,0 0,0.742187 -2.816406,0 z"
         id="path3217"
         inkscape:connector-curvature="0"
         style="fill:#ffffff" />
      <path
         d="m 14.652344,19.742188 1.355468,0 0,0.742187 -1.355468,0 z"
         id="path3219"
         inkscape:connector-curvature="0"
         style="fill:#ffffff" />
      <path
         d="m 16.265625,19.742188 0.636719,0 0,0.742187 -0.636719,0 z"
         id="path3221"
         inkscape:connector-curvature="0"
         style="fill:#ffffff" />
      <path
         d="m 17.15625,19.742188 1.226562,0 0,0.742187 -1.226562,0 z"
         id="path3223"
         inkscape:connector-curvature="0"
         style="fill:#ffffff" />
      <path
         d="m 18.640625,19.742188 1.226563,0 0,0.742187 -1.226563,0 z"
         id="path3225"
         inkscape:connector-curvature="0"
         style="fill:#ffffff" />
      <path
         d="m 20.125,19.742188 1.96875,0 0,0.742187 -1.96875,0 z"
         id="path3227"
         inkscape:connector-curvature="0"
         style="fill:#ffffff" />
      <path
         d="m 22.351562,19.742188 2.585938,0 0,0.742187 -2.585938,0 z"
         id="path3229"
         inkscape:connector-curvature="0"
         style="fill:#ffffff" />
      <path
         d="m 11.578125,21.226562 3.289063,0 0,0.742188 -3.289063,0 z"
         id="path3231"
         inkscape:connector-curvature="0"
         style="fill:#ffffff" />
      <path
         d="m 15.125,21.226562 3.527344,0 0,0.742188 -3.527344,0 z"
         id="path3233"
         inkscape:connector-curvature="0"
         style="fill:#ffffff" />
      <path
         d="m 18.910156,21.226562 1.40625,0 0,0.742188 -1.40625,0 z"
         id="path3235"
         inkscape:connector-curvature="0"
         style="fill:#ffffff" />
      <path
         d="m 20.578125,21.226562 3.316406,0 0,0.742188 -3.316406,0 z"
         id="path3237"
         inkscape:connector-curvature="0"
         style="fill:#ffffff" />
      <path
         d="m 24.152344,21.226562 2.269531,0 0,0.742188 -2.269531,0 z"
         id="path3239"
         inkscape:connector-curvature="0"
         style="fill:#ffffff" />
      <path
         d="m 11.578125,27.164062 3.289063,0 0,0.742188 -3.289063,0 z"
         id="path3241"
         inkscape:connector-curvature="0"
         style="fill:#ffffff" />
      <path
         d="m 15.125,27.164062 3.527344,0 0,0.742188 -3.527344,0 z"
         id="path3243"
         inkscape:connector-curvature="0"
         style="fill:#ffffff" />
      <path
         d="m 18.910156,27.164062 1.40625,0 0,0.742188 -1.40625,0 z"
         id="path3245"
         inkscape:connector-curvature="0"
         style="fill:#ffffff" />
      <path
         d="m 20.578125,27.164062 3.316406,0 0,0.742188 -3.316406,0 z"
         id="path3247"
         inkscape:connector-curvature="0"
         style="fill:#ffffff" />
      <path
         d="m 24.152344,27.164062 2.269531,0 0,0.742188 -2.269531,0 z"
         id="path3249"
         inkscape:connector-curvature="0"
         style="fill:#ffffff" />
      <path
         d="m 11.578125,24.195312 2.320313,0 0,0.742188 -2.320313,0 z"
         id="path3251"
         inkscape:connector-curvature="0"
         style="fill:#ffffff" />
      <path
         d="m 14.144531,24.195312 3.851563,0 0,0.742188 -3.851563,0 z"
         id="path3253"
         inkscape:connector-curvature="0"
         style="fill:#ffffff" />
      <path
         d="m 18.242188,24.195312 1.859374,0 0,0.742188 -1.859374,0 z"
         id="path3255"
         inkscape:connector-curvature="0"
         style="fill:#ffffff" />
      <path
         d="m 22.328125,24.195312 1.476563,0 0,0.742188 -1.476563,0 z"
         id="path3257"
         inkscape:connector-curvature="0"
         style="fill:#ffffff" />
      <path
         d="m 24.050781,24.195312 2.371094,0 0,0.742188 -2.371094,0 z"
         id="path3259"
         inkscape:connector-curvature="0"
         style="fill:#ffffff" />
      <path
         d="m 20.347656,24.195312 1.734375,0 0,0.742188 -1.734375,0 z"
         id="path3261"
         inkscape:connector-curvature="0"
         style="fill:#ffffff" />
      <path
         d="m 11.578125,25.679688 3.058594,0 0,0.742187 -3.058594,0 z"
         id="path3263"
         inkscape:connector-curvature="0"
         style="fill:#ffffff" />
      <path
         d="m 14.890625,25.679688 0.960937,0 0,0.742187 -0.960937,0 z"
         id="path3265"
         inkscape:connector-curvature="0"
         style="fill:#ffffff" />
      <path
         d="m 16.105469,25.679688 2.199219,0 0,0.742187 -2.199219,0 z"
         id="path3267"
         inkscape:connector-curvature="0"
         style="fill:#ffffff" />
      <path
         d="m 18.554688,25.679688 1.5,0 0,0.742187 -1.5,0 z"
         id="path3269"
         inkscape:connector-curvature="0"
         style="fill:#ffffff" />
      <path
         d="m 20.308594,25.679688 1.5,0 0,0.742187 -1.5,0 z"
         id="path3271"
         inkscape:connector-curvature="0"
         style="fill:#ffffff" />
      <path
         d="m 22.0625,25.679688 2.171875,0 0,0.742187 -2.171875,0 z"
         id="path3273"
         inkscape:connector-curvature="0"
         style="fill:#ffffff" />
      <path
         d="m 24.484375,25.679688 0.453125,0 0,0.742187 -0.453125,0 z"
         id="path3275"
         inkscape:connector-curvature="0"
         style="fill:#ffffff" />
      <path
         d="m 11.578125,28.648438 1.210937,0 0,0.742187 -1.210937,0 z"
         id="path3277"
         inkscape:connector-curvature="0"
         style="fill:#ffffff" />
      <path
         d="m 13.105469,28.648438 4.410156,0 0,0.742187 -4.410156,0 z"
         id="path3279"
         inkscape:connector-curvature="0"
         style="fill:#ffffff" />
    </g>
  </g>
</svg>
