<?xml version="1.0" encoding="UTF-8" standalone="no"?>
<svg
   xmlns:dc="http://purl.org/dc/elements/1.1/"
   xmlns:cc="http://creativecommons.org/ns#"
   xmlns:rdf="http://www.w3.org/1999/02/22-rdf-syntax-ns#"
   xmlns:svg="http://www.w3.org/2000/svg"
   xmlns="http://www.w3.org/2000/svg"
   xmlns:sodipodi="http://sodipodi.sourceforge.net/DTD/sodipodi-0.dtd"
   xmlns:inkscape="http://www.inkscape.org/namespaces/inkscape"
   width="47.5"
   height="47.5"
   viewBox="0 0 38 38"
   id="svg2"
   version="1.1"
   inkscape:version="0.48.4 r9939"
   sodipodi:docname="applications-profiling.svg">
  <metadata
     id="metadata60">
    <rdf:RDF>
      <cc:Work
         rdf:about="">
        <dc:format>image/svg+xml</dc:format>
        <dc:type
           rdf:resource="http://purl.org/dc/dcmitype/StillImage" />
      </cc:Work>
    </rdf:RDF>
  </metadata>
  <defs
     id="defs58" />
  <sodipodi:namedview
     pagecolor="#ffffff"
     bordercolor="#666666"
     borderopacity="1"
     objecttolerance="10"
     gridtolerance="10"
     guidetolerance="10"
     inkscape:pageopacity="0"
     inkscape:pageshadow="2"
     inkscape:window-width="1440"
     inkscape:window-height="848"
     id="namedview56"
     showgrid="false"
     inkscape:zoom="4.9684211"
     inkscape:cx="-31.096398"
     inkscape:cy="22.944916"
     inkscape:window-x="0"
     inkscape:window-y="0"
     inkscape:window-maximized="1"
     inkscape:current-layer="svg2" />
  <g
     style="fill:#ffffff"
     id="g4"
     transform="translate(0.96610057,2.9418288e-5)">
    <path
       d="m 30.90625,21.9375 c 0,6.574219 -5.332031,11.90625 -11.90625,11.90625 -6.574219,0 -11.90625,-5.332031 -11.90625,-11.90625 0,-6.578125 5.332031,-11.90625 11.90625,-11.90625 6.574219,0 11.90625,5.328125 11.90625,11.90625 z"
       id="path6"
       inkscape:connector-curvature="0"
       style="fill:#ffffff" />
    <path
       d="m 18.082031,8.363281 1.835938,0 c 0.25,0 0.449219,0.203125 0.449219,0.449219 l 0,1.449219 c 0,0.25 -0.199219,0.449219 -0.449219,0.449219 l -1.835938,0 c -0.25,0 -0.449219,-0.199219 -0.449219,-0.449219 l 0,-1.449219 c 0,-0.246094 0.199219,-0.449219 0.449219,-0.449219 z"
       id="path8"
       inkscape:connector-curvature="0"
       style="fill:#ffffff" />
    <path
       d="m 18.0625,6.796875 1.875,0 c 0.628906,0 1.136719,0.507813 1.136719,1.136719 0,0.625 -0.507813,1.136718 -1.136719,1.136718 l -1.875,0 c -0.628906,0 -1.136719,-0.511718 -1.136719,-1.136718 0,-0.628906 0.507813,-1.136719 1.136719,-1.136719 z"
       id="path10"
       inkscape:connector-curvature="0"
       style="fill:#ffffff" />
    <path
       style="fill:#ffffff;stroke:#b477d0;stroke-width:6.10699987;stroke-linejoin:round"
       d="m 124.13158,31.052632 8.97368,0 c 8.86842,0 16.05263,4.473684 16.05263,10.026315 l 0,1.052632 c 0,5.526316 -7.18421,10 -16.05263,10 l -8.97368,0 c -8.86842,0 -16.07895,-4.473684 -16.07895,-10 l 0,-1.052632 c 0,-5.552631 7.21053,-10.026315 16.07895,-10.026315 z"
       transform="scale(0.14844,0.14844)"
       id="path12"
       inkscape:connector-curvature="0" />
  </g>
  <path
     sodipodi:type="arc"
     style="fill:#b477d0;fill-opacity:1;stroke:none"
     id="path3037"
     sodipodi:cx="-41.871964"
     sodipodi:cy="16.90678"
     sodipodi:rx="42.661934"
     sodipodi:ry="26.366526"
     d="m 0.7899704,16.90678 a 42.661934,26.366526 0 1 1 -85.3238674,0 42.661934,26.366526 0 1 1 85.3238674,0 z"
     transform="matrix(0.45004992,0,0,0.72819606,37.844474,6.6885492)" />
  <path
     transform="matrix(0.8,0,0,0.8,63.762711,0.80508423)"
     d="m -39.650423,22.743645 a 16.302965,16.302965 0 1 1 -32.60593,0 16.302965,16.302965 0 1 1 32.60593,0 z"
     sodipodi:ry="16.302965"
     sodipodi:rx="16.302965"
     sodipodi:cy="22.743645"
     sodipodi:cx="-55.953388"
     id="path3013"
     style="fill:#ffd5d5;fill-opacity:1;stroke:none"
     sodipodi:type="arc" />
  <rect
     y="11.110169"
     x="17.872883"
     height="8.3728809"
     width="1.4491525"
     id="rect3015"
     style="fill:#ffffff;fill-opacity:1;stroke:none" />
  <rect
     transform="matrix(0.8660254,-0.5,0.5,0.8660254,0,0)"
     style="fill:#ffffff;fill-opacity:1;stroke:none"
     id="rect3017"
     width="1.4491525"
     height="8.3728809"
     x="5.8639569"
     y="25.461214" />
</svg>
