<?xml version="1.0" encoding="UTF-8" standalone="no"?>
<svg
   xmlns:dc="http://purl.org/dc/elements/1.1/"
   xmlns:cc="http://creativecommons.org/ns#"
   xmlns:rdf="http://www.w3.org/1999/02/22-rdf-syntax-ns#"
   xmlns:svg="http://www.w3.org/2000/svg"
   xmlns="http://www.w3.org/2000/svg"
   xmlns:xlink="http://www.w3.org/1999/xlink"
   xmlns:sodipodi="http://sodipodi.sourceforge.net/DTD/sodipodi-0.dtd"
   xmlns:inkscape="http://www.inkscape.org/namespaces/inkscape"
   width="47.5"
   height="47.5"
   viewBox="0 0 38 38"
   id="svg2"
   version="1.1"
   inkscape:version="0.48.4 r9939"
   sodipodi:docname="applications-versioncontrol.svg">
  <metadata
     id="metadata111">
    <rdf:RDF>
      <cc:Work
         rdf:about="">
        <dc:format>image/svg+xml</dc:format>
        <dc:type
           rdf:resource="http://purl.org/dc/dcmitype/StillImage" />
      </cc:Work>
    </rdf:RDF>
  </metadata>
  <sodipodi:namedview
     pagecolor="#ffffff"
     bordercolor="#666666"
     borderopacity="1"
     objecttolerance="10"
     gridtolerance="10"
     guidetolerance="10"
     inkscape:pageopacity="0"
     inkscape:pageshadow="2"
     inkscape:window-width="1440"
     inkscape:window-height="848"
     id="namedview109"
     showgrid="false"
     inkscape:zoom="4.9684211"
     inkscape:cx="-8.2521186"
     inkscape:cy="23.347458"
     inkscape:window-x="0"
     inkscape:window-y="0"
     inkscape:window-maximized="1"
     inkscape:current-layer="svg2" />
  <defs
     id="defs4">
    <clipPath
       id="clip3">
      <rect
         width="38"
         height="38"
         id="rect7" />
    </clipPath>
    <clipPath
       id="clip1">
      <rect
         width="38"
         height="38"
         id="rect10" />
    </clipPath>
    <clipPath
       id="clip5">
      <rect
         width="38"
         height="38"
         id="rect13" />
    </clipPath>
    <clipPath
       id="clip2">
      <rect
         width="38"
         height="38"
         id="rect16" />
    </clipPath>
    <clipPath
       id="clip4">
      <rect
         width="38"
         height="38"
         id="rect19" />
    </clipPath>
    <filter
       width="100%"
       x="0"
       y="0"
       height="100%"
       filterUnits="objectBoundingBox"
       id="alpha">
      <feColorMatrix
         values="0 0 0 0 1 0 0 0 0 1 0 0 0 0 1 0 0 0 1 0"
         in="SourceGraphic"
         type="matrix"
         id="feColorMatrix22" />
    </filter>
    <g
       style="clip-path:url(#clip2)"
       id="surface9"
       clip-path="url(#clip2)">
      <path
         style="fill:none;stroke:#fff;stroke-width:5.262"
         d="M 118.157895 93.789474 L 207.605263 93.789474 "
         transform="scale(.14844)"
         id="path25" />
    </g>
    <g
       style="clip-path:url(#clip5)"
       id="surface18"
       clip-path="url(#clip5)">
      <path
         style="fill:none;stroke:#fff;stroke-width:5.262"
         d="M 107.631579 188.5 L 197.078947 188.5 "
         transform="scale(.14844)"
         id="path28" />
    </g>
    <g
       style="clip-path:url(#clip1)"
       id="surface6"
       clip-path="url(#clip1)">
      <path
         style="fill:none;stroke:#fff;stroke-width:5.262"
         d="M 107.631579 62.236842 L 197.078947 62.236842 "
         transform="scale(.14844)"
         id="path31" />
    </g>
    <g
       style="clip-path:url(#clip3)"
       id="surface12"
       clip-path="url(#clip3)">
      <path
         style="fill:none;stroke:#fff;stroke-width:5.262"
         d="M 118.157895 125.368421 L 207.605263 125.368421 "
         transform="scale(.14844)"
         id="path34" />
    </g>
    <g
       style="clip-path:url(#clip4)"
       id="surface15"
       clip-path="url(#clip4)">
      <path
         style="fill:none;stroke:#fff;stroke-width:5.262"
         d="M 107.631579 156.947368 L 197.078947 156.947368 "
         transform="scale(.14844)"
         id="path37" />
    </g>
    <linearGradient
       gradientTransform="matrix(11.46713 0 0 2.41418 2.3936 -8.80389)"
       id="linear0"
       x1="8.718"
       gradientUnits="userSpaceOnUse"
       x2="17.436">
      <stop
         offset="0"
         style="stop-color:#fff"
         id="stop40" />
      <stop
         offset="1"
         style="stop-color:#fff;stop-opacity:0"
         id="stop42" />
    </linearGradient>
    <mask
       id="mask3">
      <g
         style="filter:url(#alpha)"
         id="g45">
        <rect
           width="38"
           x="0"
           y="0"
           height="38"
           style="fill-opacity:.4"
           id="rect47" />
      </g>
    </mask>
    <mask
       id="mask4">
      <g
         style="filter:url(#alpha)"
         id="g50">
        <rect
           width="38"
           x="0"
           y="0"
           height="38"
           style="fill-opacity:.4"
           id="rect52" />
      </g>
    </mask>
    <mask
       id="mask1">
      <g
         style="filter:url(#alpha)"
         id="g55">
        <rect
           width="38"
           x="0"
           y="0"
           height="38"
           style="fill-opacity:.4"
           id="rect57" />
      </g>
    </mask>
    <mask
       id="mask0">
      <g
         style="filter:url(#alpha)"
         id="g60">
        <rect
           width="38"
           x="0"
           y="0"
           height="38"
           style="fill-opacity:.4"
           id="rect62" />
      </g>
    </mask>
    <mask
       id="mask2">
      <g
         style="filter:url(#alpha)"
         id="g65">
        <rect
           width="38"
           x="0"
           y="0"
           height="38"
           style="fill-opacity:.4"
           id="rect67" />
      </g>
    </mask>
    <linearGradient
       inkscape:collect="always"
       xlink:href="#linear0"
       id="linearGradient3940"
       gradientUnits="userSpaceOnUse"
       gradientTransform="matrix(11.46713,0,0,2.41418,2.3936,-8.80389)"
       x1="8.718"
       x2="17.436" />
    <linearGradient
       inkscape:collect="always"
       xlink:href="#linear0"
       id="linearGradient3942"
       gradientUnits="userSpaceOnUse"
       gradientTransform="matrix(11.46713,0,0,2.41418,2.3936,-8.80389)"
       x1="8.718"
       x2="17.436" />
    <linearGradient
       inkscape:collect="always"
       xlink:href="#linear0"
       id="linearGradient4026"
       gradientUnits="userSpaceOnUse"
       gradientTransform="matrix(11.46713,0,0,2.41418,2.3936,-8.80389)"
       x1="8.718"
       x2="17.436" />
    <linearGradient
       inkscape:collect="always"
       xlink:href="#linear0"
       id="linearGradient4028"
       gradientUnits="userSpaceOnUse"
       gradientTransform="matrix(11.46713,0,0,2.41418,2.3936,-8.80389)"
       x1="8.718"
       x2="17.436" />
  </defs>
  <path
     sodipodi:type="arc"
     style="fill:#ca9a69;fill-opacity:1;stroke:none"
     id="path3088"
     sodipodi:cx="-33.109112"
     sodipodi:cy="29.6875"
     sodipodi:rx="22.441738"
     sodipodi:ry="22.441738"
     d="m -10.667374,29.6875 a 22.441738,22.441738 0 1 1 -44.883476,0 22.441738,22.441738 0 1 1 44.883476,0 z"
     transform="matrix(0.8,0,0,0.8,45.487289,-4.75)" />
  <g
     transform="matrix(0.7071534,0,0,0.7071534,5.5638593,5.5638593)"
     id="g3944">
    <g
       style="fill:none;stroke:#ffffff;stroke-opacity:1"
       id="g3946">
      <path
         inkscape:connector-curvature="0"
         style="stroke:#ffffff;stroke-width:8.07299995;stroke-linecap:round;stroke-opacity:1"
         d="m 34.394737,32.026316 187.210523,0 c 1.31579,0 2.36842,1.052631 2.36842,2.368421 l 0,187.210523 c 0,1.31579 -1.05263,2.36842 -2.36842,2.36842 l -187.210523,0 c -1.31579,0 -2.368421,-1.05263 -2.368421,-2.36842 l 0,-187.210523 c 0,-1.31579 1.052631,-2.368421 2.368421,-2.368421 z"
         transform="scale(0.14844,0.14844)"
         id="path3948" />
      <path
         inkscape:connector-curvature="0"
         style="stroke:#ffffff;stroke-width:5.3210001;stroke-linejoin:bevel;stroke-miterlimit:6.4000001;stroke-opacity:1"
         d="M 47.263158,30.657895 47.131579,225.3421"
         transform="scale(0.14844,0.14844)"
         id="path3950" />
    </g>
    <use
       height="38"
       width="38"
       y="0"
       x="0"
       xlink:href="#surface6"
       id="use3952"
       mask="url(#mask0)" />
    <path
       inkscape:connector-curvature="0"
       style="fill:#ffffff;fill-opacity:1;stroke:#ffffff;stroke-width:2.63100004;stroke-linecap:square;stroke-opacity:1"
       d="m 81.315789,56.973684 10.526316,0 c 1.447369,0 2.631579,1.157895 2.631579,2.631579 l 0,10.526316 c 0,1.447368 -1.18421,2.631579 -2.631579,2.631579 l -10.526316,0 c -1.447368,0 -2.631578,-1.184211 -2.631578,-2.631579 l 0,-10.526316 c 0,-1.473684 1.18421,-2.631579 2.631578,-2.631579 z m 25.894741,0 C 106,57.052632 104.97368,57.973684 105,59 l 0,11.736842 c -0.0263,1.052632 1.15789,2.026316 2.42105,2.026316 l 89.84211,0 c 1.28947,0 2.44737,-0.973684 2.44737,-2.026316 l 0,-11.736842 c 0,-1.078947 -1.1579,-2.052632 -2.44737,-2.026316 l -89.81579,0 c -0.079,0 -0.1579,0 -0.23684,0 z"
       transform="scale(0.14844,0.14844)"
       id="path3954" />
    <use
       height="38"
       width="38"
       y="0"
       x="0"
       xlink:href="#surface9"
       id="use3956"
       mask="url(#mask1)" />
    <path
       inkscape:connector-curvature="0"
       style="fill:#ffffff;fill-opacity:1;stroke:#ffffff;stroke-width:2.63100004;stroke-linecap:square;stroke-opacity:1"
       d="m 91.842105,88.526316 10.526315,0 c 1.44737,0 2.63158,1.18421 2.63158,2.631579 l 0,10.526315 c 0,1.47368 -1.18421,2.63158 -2.63158,2.63158 l -10.526315,0 c -1.447368,0 -2.631579,-1.1579 -2.631579,-2.63158 l 0,-10.526315 c 0,-1.447369 1.184211,-2.631579 2.631579,-2.631579 z m 25.894735,0 c -1.21052,0.105263 -2.23684,1.026316 -2.21052,2.026316 l 0,11.736838 c -0.0263,1.07895 1.15789,2.05264 2.42105,2.02632 l 89.8421,0 c 1.28948,0.0263 2.44737,-0.94737 2.44737,-2.02632 l 0,-11.736838 c 0,-1.052632 -1.15789,-2.026316 -2.44737,-2.026316 l -89.81579,0 c -0.0789,0 -0.15789,0 -0.23684,0 z"
       transform="scale(0.14844,0.14844)"
       id="path3958" />
    <use
       height="38"
       width="38"
       y="0"
       x="0"
       xlink:href="#surface12"
       id="use3960"
       mask="url(#mask2)" />
    <path
       inkscape:connector-curvature="0"
       style="fill:#ffffff;fill-opacity:1;stroke:#ffffff;stroke-width:2.63100004;stroke-linecap:square;stroke-opacity:1"
       d="m 91.842105,120.10526 10.526315,0 c 1.44737,0 2.63158,1.18421 2.63158,2.63158 l 0,10.52632 c 0,1.44737 -1.18421,2.63158 -2.63158,2.63158 l -10.526315,0 c -1.447368,0 -2.631579,-1.18421 -2.631579,-2.63158 l 0,-10.52632 c 0,-1.44737 1.184211,-2.63158 2.631579,-2.63158 z m 25.894735,0 c -1.21052,0.0789 -2.23684,1.02632 -2.21052,2.02632 l 0,11.73684 c -0.0263,1.05263 1.15789,2.02632 2.42105,2.02632 l 89.8421,0 c 1.28948,0 2.44737,-0.97369 2.44737,-2.02632 l 0,-11.73684 c 0,-1.05263 -1.15789,-2.02632 -2.44737,-2.02632 l -89.81579,0 c -0.0789,0 -0.15789,0 -0.23684,0 z"
       transform="scale(0.14844,0.14844)"
       id="path3962" />
    <use
       height="38"
       width="38"
       y="0"
       x="0"
       xlink:href="#surface15"
       id="use3964"
       mask="url(#mask3)" />
    <g
       style="fill:#ffffff;stroke-linecap:square"
       id="g3966">
      <path
         inkscape:connector-curvature="0"
         style="fill:#ffffff;stroke:#ca9a69;stroke-width:2.63100004"
         d="m 81.315789,151.68421 10.526316,0 c 1.447369,0 2.631579,1.15789 2.631579,2.63158 l 0,10.52631 c 0,1.44737 -1.18421,2.60527 -2.631579,2.60527 l -10.526316,0 c -1.447368,0 -2.631578,-1.1579 -2.631578,-2.60527 l 0,-10.52631 c 0,-1.47369 1.18421,-2.63158 2.631578,-2.63158 z m 25.894741,0 c -1.21053,0.0789 -2.23685,1 -2.21053,2 l 0,11.76316 c -0.0263,1.05263 1.15789,2.02631 2.42105,2 l 89.84211,0 c 1.28947,0.0263 2.44737,-0.94737 2.44737,-2 l 0,-11.76316 c 0,-1.05263 -1.1579,-2.02632 -2.44737,-2 l -89.81579,0 c -0.079,0 -0.1579,0 -0.23684,0 z"
         transform="scale(0.14844,0.14844)"
         id="path3968" />
      <path
         inkscape:connector-curvature="0"
         style="fill:#ffffff;stroke:url(#linearGradient4026);stroke-width:5.26200008"
         d="M 107.21053,183.23684 C 106,183.31579 104.97368,184.26316 105,185.26316 L 105,197 c -0.0263,1.07895 1.15789,2.02632 2.42105,2.02632 l 89.84211,0 c 1.28947,0 2.44737,-0.94737 2.44737,-2.02632 l 0,-11.73684 c 0,-1.05263 -1.1579,-2.02632 -2.44737,-2.02632 l -89.81579,0 c -0.079,0 -0.1579,0 -0.23684,0 z"
         transform="scale(0.14844,0.14844)"
         id="path3970" />
    </g>
    <use
       height="38"
       width="38"
       y="0"
       x="0"
       xlink:href="#surface18"
       id="use3972"
       mask="url(#mask4)" />
    <g
       style="stroke:#ffffff;stroke-opacity:1"
       id="g3974">
      <g
         id="g3976"
         style="stroke:#ffffff;stroke-opacity:1">
        <path
           inkscape:connector-curvature="0"
           style="fill:#ca9a69;stroke:#ffffff;stroke-width:2.63100004;stroke-linecap:square;stroke-opacity:1"
           d="m 81.315789,183.23684 10.526316,0 c 1.447369,0 2.631579,1.18421 2.631579,2.63158 l 0,10.52632 c 0,1.47368 -1.18421,2.63158 -2.631579,2.63158 l -10.526316,0 c -1.447368,0 -2.631578,-1.1579 -2.631578,-2.63158 l 0,-10.52632 c 0,-1.44737 1.18421,-2.63158 2.631578,-2.63158 z m 25.894741,0 C 106,183.31579 104.97368,184.26316 105,185.26316 L 105,197 c -0.0263,1.07895 1.15789,2.05263 2.42105,2.02632 l 89.84211,0 c 1.28947,0.0263 2.44737,-0.94737 2.44737,-2.02632 l 0,-11.73684 c 0,-1.05263 -1.1579,-2.02632 -2.44737,-2.02632 l -89.81579,0 c -0.079,0 -0.1579,0 -0.23684,0 z"
           transform="scale(0.14844,0.14844)"
           id="path3978" />
      </g>
      <g
         style="fill:none;stroke:#ffffff;stroke-width:5.26599979;stroke-linejoin:round;stroke-miterlimit:6.4000001;stroke-opacity:1"
         id="g3980">
        <path
           inkscape:connector-curvature="0"
           d="m 74.078947,188.55263 -24.342105,0.0263 M 74.078947,157 49.736842,157.0263 m 24.342105,-94.736846 -24.342105,0.02632"
           transform="scale(0.14844,0.14844)"
           id="path3982"
           style="stroke:#ffffff;stroke-opacity:1" />
        <path
           inkscape:connector-curvature="0"
           d="m 84.605263,125.26316 -34.868421,0.0263 m 34.868421,-31.421049 -34.868421,0"
           transform="scale(0.14844,0.14844)"
           id="path3984"
           style="stroke:#ffffff;stroke-opacity:1" />
      </g>
    </g>
    <g
       id="g3986"
       style="fill:none;stroke:#ffffff;stroke-opacity:1">
      <path
         inkscape:connector-curvature="0"
         id="path3988"
         transform="scale(0.14844,0.14844)"
         d="m 34.394737,32.026316 187.210523,0 c 1.31579,0 2.36842,1.052631 2.36842,2.368421 l 0,187.210523 c 0,1.31579 -1.05263,2.36842 -2.36842,2.36842 l -187.210523,0 c -1.31579,0 -2.368421,-1.05263 -2.368421,-2.36842 l 0,-187.210523 c 0,-1.31579 1.052631,-2.368421 2.368421,-2.368421 z"
         style="stroke:#ffffff;stroke-width:8.07299995;stroke-linecap:round;stroke-opacity:1" />
      <path
         inkscape:connector-curvature="0"
         id="path3990"
         transform="scale(0.14844,0.14844)"
         d="M 47.263158,30.657895 47.131579,225.3421"
         style="stroke:#ffffff;stroke-width:5.3210001;stroke-linejoin:bevel;stroke-miterlimit:6.4000001;stroke-opacity:1" />
    </g>
    <use
       height="38"
       width="38"
       y="0"
       x="0"
       mask="url(#mask0)"
       id="use3992"
       xlink:href="#surface6" />
    <path
       inkscape:connector-curvature="0"
       id="path3994"
       transform="scale(0.14844,0.14844)"
       d="m 81.315789,56.973684 10.526316,0 c 1.447369,0 2.631579,1.157895 2.631579,2.631579 l 0,10.526316 c 0,1.447368 -1.18421,2.631579 -2.631579,2.631579 l -10.526316,0 c -1.447368,0 -2.631578,-1.184211 -2.631578,-2.631579 l 0,-10.526316 c 0,-1.473684 1.18421,-2.631579 2.631578,-2.631579 z m 25.894741,0 C 106,57.052632 104.97368,57.973684 105,59 l 0,11.736842 c -0.0263,1.052632 1.15789,2.026316 2.42105,2.026316 l 89.84211,0 c 1.28947,0 2.44737,-0.973684 2.44737,-2.026316 l 0,-11.736842 c 0,-1.078947 -1.1579,-2.052632 -2.44737,-2.026316 l -89.81579,0 c -0.079,0 -0.1579,0 -0.23684,0 z"
       style="fill:#ffffff;fill-opacity:1;stroke:#ffffff;stroke-width:2.63100004;stroke-linecap:square;stroke-opacity:1" />
    <use
       height="38"
       width="38"
       y="0"
       x="0"
       mask="url(#mask1)"
       id="use3996"
       xlink:href="#surface9" />
    <path
       inkscape:connector-curvature="0"
       id="path3998"
       transform="scale(0.14844,0.14844)"
       d="m 91.842105,88.526316 10.526315,0 c 1.44737,0 2.63158,1.18421 2.63158,2.631579 l 0,10.526315 c 0,1.47368 -1.18421,2.63158 -2.63158,2.63158 l -10.526315,0 c -1.447368,0 -2.631579,-1.1579 -2.631579,-2.63158 l 0,-10.526315 c 0,-1.447369 1.184211,-2.631579 2.631579,-2.631579 z m 25.894735,0 c -1.21052,0.105263 -2.23684,1.026316 -2.21052,2.026316 l 0,11.736838 c -0.0263,1.07895 1.15789,2.05264 2.42105,2.02632 l 89.8421,0 c 1.28948,0.0263 2.44737,-0.94737 2.44737,-2.02632 l 0,-11.736838 c 0,-1.052632 -1.15789,-2.026316 -2.44737,-2.026316 l -89.81579,0 c -0.0789,0 -0.15789,0 -0.23684,0 z"
       style="fill:#ffffff;fill-opacity:1;stroke:#ffffff;stroke-width:2.63100004;stroke-linecap:square;stroke-opacity:1" />
    <use
       height="38"
       width="38"
       y="0"
       x="0"
       mask="url(#mask2)"
       id="use4000"
       xlink:href="#surface12" />
    <path
       inkscape:connector-curvature="0"
       id="path4002"
       transform="scale(0.14844,0.14844)"
       d="m 91.842105,120.10526 10.526315,0 c 1.44737,0 2.63158,1.18421 2.63158,2.63158 l 0,10.52632 c 0,1.44737 -1.18421,2.63158 -2.63158,2.63158 l -10.526315,0 c -1.447368,0 -2.631579,-1.18421 -2.631579,-2.63158 l 0,-10.52632 c 0,-1.44737 1.184211,-2.63158 2.631579,-2.63158 z m 25.894735,0 c -1.21052,0.0789 -2.23684,1.02632 -2.21052,2.02632 l 0,11.73684 c -0.0263,1.05263 1.15789,2.02632 2.42105,2.02632 l 89.8421,0 c 1.28948,0 2.44737,-0.97369 2.44737,-2.02632 l 0,-11.73684 c 0,-1.05263 -1.15789,-2.02632 -2.44737,-2.02632 l -89.81579,0 c -0.0789,0 -0.15789,0 -0.23684,0 z"
       style="fill:#ffffff;fill-opacity:1;stroke:#ffffff;stroke-width:2.63100004;stroke-linecap:square;stroke-opacity:1" />
    <use
       height="38"
       width="38"
       y="0"
       x="0"
       mask="url(#mask3)"
       id="use4004"
       xlink:href="#surface15" />
    <g
       id="g4006"
       style="fill:#ffffff;stroke-linecap:square">
      <path
         inkscape:connector-curvature="0"
         id="path4008"
         transform="scale(0.14844,0.14844)"
         d="m 81.315789,151.68421 10.526316,0 c 1.447369,0 2.631579,1.15789 2.631579,2.63158 l 0,10.52631 c 0,1.44737 -1.18421,2.60527 -2.631579,2.60527 l -10.526316,0 c -1.447368,0 -2.631578,-1.1579 -2.631578,-2.60527 l 0,-10.52631 c 0,-1.47369 1.18421,-2.63158 2.631578,-2.63158 z m 25.894741,0 c -1.21053,0.0789 -2.23685,1 -2.21053,2 l 0,11.76316 c -0.0263,1.05263 1.15789,2.02631 2.42105,2 l 89.84211,0 c 1.28947,0.0263 2.44737,-0.94737 2.44737,-2 l 0,-11.76316 c 0,-1.05263 -1.1579,-2.02632 -2.44737,-2 l -89.81579,0 c -0.079,0 -0.1579,0 -0.23684,0 z"
         style="fill:#ffffff;stroke:#ca9a69;stroke-width:2.63100004" />
      <path
         inkscape:connector-curvature="0"
         id="path4010"
         transform="scale(0.14844,0.14844)"
         d="M 107.21053,183.23684 C 106,183.31579 104.97368,184.26316 105,185.26316 L 105,197 c -0.0263,1.07895 1.15789,2.02632 2.42105,2.02632 l 89.84211,0 c 1.28947,0 2.44737,-0.94737 2.44737,-2.02632 l 0,-11.73684 c 0,-1.05263 -1.1579,-2.02632 -2.44737,-2.02632 l -89.81579,0 c -0.079,0 -0.1579,0 -0.23684,0 z"
         style="fill:#ffffff;stroke:url(#linearGradient4028);stroke-width:5.26200008" />
    </g>
    <use
       height="38"
       width="38"
       y="0"
       x="0"
       mask="url(#mask4)"
       id="use4012"
       xlink:href="#surface18" />
    <g
       id="g4014"
       style="stroke:#ffffff;stroke-opacity:1">
      <g
         style="stroke:#ffffff;stroke-opacity:1"
         id="g4016">
        <path
           inkscape:connector-curvature="0"
           id="path4018"
           transform="scale(0.14844,0.14844)"
           d="m 81.315789,183.23684 10.526316,0 c 1.447369,0 2.631579,1.18421 2.631579,2.63158 l 0,10.52632 c 0,1.47368 -1.18421,2.63158 -2.631579,2.63158 l -10.526316,0 c -1.447368,0 -2.631578,-1.1579 -2.631578,-2.63158 l 0,-10.52632 c 0,-1.44737 1.18421,-2.63158 2.631578,-2.63158 z m 25.894741,0 C 106,183.31579 104.97368,184.26316 105,185.26316 L 105,197 c -0.0263,1.07895 1.15789,2.05263 2.42105,2.02632 l 89.84211,0 c 1.28947,0.0263 2.44737,-0.94737 2.44737,-2.02632 l 0,-11.73684 c 0,-1.05263 -1.1579,-2.02632 -2.44737,-2.02632 l -89.81579,0 c -0.079,0 -0.1579,0 -0.23684,0 z"
           style="fill:#ca9a69;stroke:#ffffff;stroke-width:2.63100004;stroke-linecap:square;stroke-opacity:1" />
      </g>
      <g
         id="g4020"
         style="fill:none;stroke:#ffffff;stroke-width:5.26599979;stroke-linejoin:round;stroke-miterlimit:6.4000001;stroke-opacity:1">
        <path
           inkscape:connector-curvature="0"
           style="stroke:#ffffff;stroke-opacity:1"
           id="path4022"
           transform="scale(0.14844,0.14844)"
           d="m 74.078947,188.55263 -24.342105,0.0263 M 74.078947,157 49.736842,157.0263 m 24.342105,-94.736846 -24.342105,0.02632" />
        <path
           inkscape:connector-curvature="0"
           style="stroke:#ffffff;stroke-opacity:1"
           id="path4024"
           transform="scale(0.14844,0.14844)"
           d="m 84.605263,125.26316 -34.868421,0.0263 m 34.868421,-31.421049 -34.868421,0" />
      </g>
    </g>
  </g>
</svg>
