<?xml version="1.0" encoding="UTF-8" standalone="no"?>
<svg
   xmlns:dc="http://purl.org/dc/elements/1.1/"
   xmlns:cc="http://creativecommons.org/ns#"
   xmlns:rdf="http://www.w3.org/1999/02/22-rdf-syntax-ns#"
   xmlns:svg="http://www.w3.org/2000/svg"
   xmlns="http://www.w3.org/2000/svg"
   xmlns:sodipodi="http://sodipodi.sourceforge.net/DTD/sodipodi-0.dtd"
   xmlns:inkscape="http://www.inkscape.org/namespaces/inkscape"
   width="47.5"
   height="47.5"
   viewBox="0 0 38 38"
   id="svg2"
   version="1.1"
   inkscape:version="0.48.4 r9939"
   sodipodi:docname="applications-painting.svg">
  <metadata
     id="metadata10">
    <rdf:RDF>
      <cc:Work
         rdf:about="">
        <dc:format>image/svg+xml</dc:format>
        <dc:type
           rdf:resource="http://purl.org/dc/dcmitype/StillImage" />
      </cc:Work>
    </rdf:RDF>
  </metadata>
  <defs
     id="defs8" />
  <sodipodi:namedview
     pagecolor="#ffffff"
     bordercolor="#666666"
     borderopacity="1"
     objecttolerance="10"
     gridtolerance="10"
     guidetolerance="10"
     inkscape:pageopacity="0"
     inkscape:pageshadow="2"
     inkscape:window-width="1440"
     inkscape:window-height="848"
     id="namedview6"
     showgrid="false"
     inkscape:zoom="4.9684211"
     inkscape:cx="-8.2521186"
     inkscape:cy="23.347458"
     inkscape:window-x="0"
     inkscape:window-y="0"
     inkscape:window-maximized="1"
     inkscape:current-layer="svg2" />
  <path
     style="fill:#ffffff"
     d="M 18.160156 4.15625 C 17.296875 4.15625 16.449219 4.253906 15.582031 4.457031 C 8.65625 6.097656 0.417969 17.300781 10.984375 22.289062 C 15.957031 24.636719 15.601562 35.3125 22.527344 33.671875 C 29.453125 32.03125 33.503906 24.164062 31.585938 16.097656 C 29.910156 9.039062 24.199219 4.164062 18.160156 4.15625 Z M 16.023438 6.382812 C 17.253906 6.382812 18.253906 7.378906 18.253906 8.609375 C 18.253906 9.835938 17.253906 10.835938 16.023438 10.835938 C 14.792969 10.835938 13.792969 9.835938 13.792969 8.609375 C 13.792969 7.378906 14.792969 6.382812 16.023438 6.382812 Z M 22.714844 7.125 C 23.945312 7.125 24.945312 8.121094 24.945312 9.351562 C 24.945312 10.578125 23.945312 11.574219 22.714844 11.574219 C 21.480469 11.574219 20.484375 10.578125 20.484375 9.351562 C 20.484375 8.121094 21.480469 7.125 22.714844 7.125 Z M 10.820312 10.835938 C 12.050781 10.835938 13.050781 11.832031 13.050781 13.058594 C 13.050781 14.289062 12.050781 15.285156 10.820312 15.285156 C 9.589844 15.285156 8.589844 14.289062 8.589844 13.058594 C 8.589844 11.832031 9.589844 10.835938 10.820312 10.835938 Z M 27.171875 12.316406 C 28.40625 12.316406 29.402344 13.316406 29.402344 14.542969 C 29.402344 15.773438 28.40625 16.769531 27.171875 16.769531 C 25.941406 16.769531 24.945312 15.773438 24.945312 14.542969 C 24.945312 13.316406 25.941406 12.316406 27.171875 12.316406 Z M 14.980469 18.183594 C 16.03125 18.164062 17.109375 19.101562 17.511719 20.480469 C 17.96875 22.054688 17.390625 23.613281 16.210938 23.957031 C 15.027344 24.300781 13.695312 23.304688 13.238281 21.730469 C 12.777344 20.160156 13.355469 18.597656 14.539062 18.253906 C 14.683594 18.210938 14.828125 18.1875 14.980469 18.183594 Z M 27.917969 18.996094 C 29.148438 18.996094 30.148438 19.992188 30.148438 21.222656 C 30.148438 22.453125 29.148438 23.449219 27.917969 23.449219 C 26.683594 23.449219 25.6875 22.453125 25.6875 21.222656 C 25.6875 19.992188 26.683594 18.996094 27.917969 18.996094 Z M 24.945312 24.933594 C 26.175781 24.933594 27.171875 25.929688 27.171875 27.15625 C 27.171875 28.386719 26.175781 29.382812 24.945312 29.382812 C 23.710938 29.382812 22.714844 28.386719 22.714844 27.15625 C 22.714844 25.929688 23.710938 24.933594 24.945312 24.933594 Z "
     id="path4" />
  <path
     sodipodi:type="arc"
     style="fill:#e784a4;fill-opacity:1;stroke:none"
     id="path2987"
     sodipodi:cx="-30.794491"
     sodipodi:cy="8.2521191"
     sodipodi:rx="11.472458"
     sodipodi:ry="11.472458"
     d="m -19.322033,8.2521191 a 11.472458,11.472458 0 1 1 -22.944916,0 11.472458,11.472458 0 1 1 22.944916,0 z"
     transform="matrix(1.6735734,0,0,1.6735734,70.536841,5.189473)" />
  <path
     id="path3757"
     d="M 18.160156 4.15625 C 17.296875 4.15625 16.449219 4.253906 15.582031 4.457031 C 8.65625 6.097656 0.417969 17.300781 10.984375 22.289062 C 15.957031 24.636719 15.601562 35.3125 22.527344 33.671875 C 29.453125 32.03125 33.503906 24.164062 31.585938 16.097656 C 29.910156 9.039062 24.199219 4.164062 18.160156 4.15625 Z M 16.023438 6.382812 C 17.253906 6.382812 18.253906 7.378906 18.253906 8.609375 C 18.253906 9.835938 17.253906 10.835938 16.023438 10.835938 C 14.792969 10.835938 13.792969 9.835938 13.792969 8.609375 C 13.792969 7.378906 14.792969 6.382812 16.023438 6.382812 Z M 22.714844 7.125 C 23.945312 7.125 24.945312 8.121094 24.945312 9.351562 C 24.945312 10.578125 23.945312 11.574219 22.714844 11.574219 C 21.480469 11.574219 20.484375 10.578125 20.484375 9.351562 C 20.484375 8.121094 21.480469 7.125 22.714844 7.125 Z M 10.820312 10.835938 C 12.050781 10.835938 13.050781 11.832031 13.050781 13.058594 C 13.050781 14.289062 12.050781 15.285156 10.820312 15.285156 C 9.589844 15.285156 8.589844 14.289062 8.589844 13.058594 C 8.589844 11.832031 9.589844 10.835938 10.820312 10.835938 Z M 27.171875 12.316406 C 28.40625 12.316406 29.402344 13.316406 29.402344 14.542969 C 29.402344 15.773438 28.40625 16.769531 27.171875 16.769531 C 25.941406 16.769531 24.945312 15.773438 24.945312 14.542969 C 24.945312 13.316406 25.941406 12.316406 27.171875 12.316406 Z M 14.980469 18.183594 C 16.03125 18.164062 17.109375 19.101562 17.511719 20.480469 C 17.96875 22.054688 17.390625 23.613281 16.210938 23.957031 C 15.027344 24.300781 13.695312 23.304688 13.238281 21.730469 C 12.777344 20.160156 13.355469 18.597656 14.539062 18.253906 C 14.683594 18.210938 14.828125 18.1875 14.980469 18.183594 Z M 27.917969 18.996094 C 29.148438 18.996094 30.148438 19.992188 30.148438 21.222656 C 30.148438 22.453125 29.148438 23.449219 27.917969 23.449219 C 26.683594 23.449219 25.6875 22.453125 25.6875 21.222656 C 25.6875 19.992188 26.683594 18.996094 27.917969 18.996094 Z M 24.945312 24.933594 C 26.175781 24.933594 27.171875 25.929688 27.171875 27.15625 C 27.171875 28.386719 26.175781 29.382812 24.945312 29.382812 C 23.710938 29.382812 22.714844 28.386719 22.714844 27.15625 C 22.714844 25.929688 23.710938 24.933594 24.945312 24.933594 Z "
     style="fill:#ffffff" />
</svg>
