<?xml version="1.0" encoding="UTF-8" standalone="no"?>
<svg
   xmlns:dc="http://purl.org/dc/elements/1.1/"
   xmlns:cc="http://creativecommons.org/ns#"
   xmlns:rdf="http://www.w3.org/1999/02/22-rdf-syntax-ns#"
   xmlns:svg="http://www.w3.org/2000/svg"
   xmlns="http://www.w3.org/2000/svg"
   xmlns:sodipodi="http://sodipodi.sourceforge.net/DTD/sodipodi-0.dtd"
   xmlns:inkscape="http://www.inkscape.org/namespaces/inkscape"
   width="47.5"
   height="47.5"
   viewBox="0 0 38 38"
   id="svg2"
   version="1.1"
   inkscape:version="0.48.4 r9939"
   sodipodi:docname="applications-monodevelopment.svg">
  <metadata
     id="metadata16">
    <rdf:RDF>
      <cc:Work
         rdf:about="">
        <dc:format>image/svg+xml</dc:format>
        <dc:type
           rdf:resource="http://purl.org/dc/dcmitype/StillImage" />
      </cc:Work>
    </rdf:RDF>
  </metadata>
  <defs
     id="defs14" />
  <sodipodi:namedview
     pagecolor="#ffffff"
     bordercolor="#666666"
     borderopacity="1"
     objecttolerance="10"
     gridtolerance="10"
     guidetolerance="10"
     inkscape:pageopacity="0"
     inkscape:pageshadow="2"
     inkscape:window-width="1440"
     inkscape:window-height="848"
     id="namedview12"
     showgrid="false"
     inkscape:zoom="4.9684211"
     inkscape:cx="-8.2521186"
     inkscape:cy="23.347458"
     inkscape:window-x="0"
     inkscape:window-y="0"
     inkscape:window-maximized="1"
     inkscape:current-layer="svg2" />
  <path
     style="fill:none;stroke:#6997af;stroke-width:8"
     d="M 197.710526 46.263158 C 185.157895 51.421053 144.921053 68.210526 143.921053 68.631579 C 132.657895 59.421053 118.026316 52.289474 102.842105 51.473684 C 66.052632 49.157895 32.236842 81.842105 32.131579 118.078947 C 30.5 150.710526 45.394737 180.894737 58.842105 209.736842 C 70.105263 205.026316 111.026316 187.973684 112.078947 187.526316 C 123.105263 196.763158 137.263158 203.578947 152.026316 204.631579 C 188.210526 207.684211 221.868421 176.394737 223.710526 141.026316 C 226.342105 107.921053 211.078947 77.289474 198.263158 47.684211 C 198.052632 47.210526 197.894737 46.736842 197.710526 46.263158 Z "
     transform="scale(.14844)"
     id="path4" />
  <g
     style="fill:#6997af"
     id="g6">
    <path
       d="M 9.976562 27.996094 C 8.796875 25.140625 7.234375 22.628906 7.199219 17.964844 C 7.164062 13.148438 11.296875 10.03125 14.558594 10.03125 C 18.511719 10.03125 21.992188 13.371094 22.175781 16.132812 C 22.339844 18.628906 21.453125 22.257812 16.867188 22.230469 C 14.679688 22.21875 12.40625 20.316406 12.394531 17.484375 C 12.382812 14.425781 16.210938 14.128906 17.175781 14.90625 C 17.550781 15.207031 17.539062 15.808594 17.207031 15.699219 C 15.144531 15.027344 13.871094 16.351562 13.96875 17.667969 C 14.09375 19.453125 15.15625 20.515625 17.054688 20.605469 C 19.792969 20.734375 20.5625 18.070312 20.492188 16.988281 C 20.40625 15.675781 19.257812 12.96875 15.695312 12.476562 C 14.007812 12.242188 12.613281 12.746094 11.59375 13.734375 C 10.574219 14.722656 10.003906 15.746094 9.917969 17.421875 C 9.832031 19.15625 10.210938 20.175781 11.246094 22.449219 C 11.617188 23.261719 12.652344 24.902344 13.453125 26.542969 Z "
       id="path8" />
    <path
       d="M 28.023438 10.03125 C 29.203125 12.886719 30.765625 15.402344 30.800781 20.0625 C 30.835938 24.878906 26.703125 27.996094 23.441406 27.996094 C 19.488281 27.996094 16.007812 24.660156 15.824219 21.894531 C 15.660156 19.398438 16.546875 15.769531 21.132812 15.796875 C 23.320312 15.808594 25.59375 17.710938 25.605469 20.546875 C 25.617188 23.601562 21.789062 23.898438 20.824219 23.121094 C 20.449219 22.820312 20.460938 22.222656 20.792969 22.328125 C 22.855469 23 24.128906 21.675781 24.03125 20.363281 C 23.90625 18.574219 22.84375 17.511719 20.945312 17.421875 C 18.207031 17.292969 17.4375 19.957031 17.507812 21.039062 C 17.59375 22.351562 18.742188 25.058594 22.304688 25.550781 C 23.992188 25.785156 25.386719 25.28125 26.40625 24.292969 C 27.425781 23.304688 27.996094 22.28125 28.082031 20.605469 C 28.167969 18.871094 27.789062 17.855469 26.753906 15.578125 C 26.382812 14.765625 25.347656 13.128906 24.546875 11.484375 Z "
       id="path10" />
  </g>
  <path
     sodipodi:type="arc"
     style="fill:#6997af;fill-opacity:1;stroke:none"
     id="path2993"
     sodipodi:cx="-31.599577"
     sodipodi:cy="21.133474"
     sodipodi:rx="15.699153"
     sodipodi:ry="15.699153"
     d="m -15.900424,21.133474 a 15.699153,15.699153 0 1 1 -31.398306,0 15.699153,15.699153 0 1 1 31.398306,0 z"
     transform="matrix(1.2229959,0,0,1.2229959,57.646153,-6.8461525)" />
  <path
     id="path3763"
     d="M 29.346499,6.8669832 C 27.483187,7.6326211 21.51043,10.12485 21.36199,10.187352 19.690087,8.8201411 17.518175,7.7615295 15.264231,7.6404337 9.8032021,7.2966779 4.7835862,12.148322 4.767961,17.527319 c -0.2421916,4.843831 1.9687832,9.324376 3.9649105,13.605698 1.6719025,-0.699231 7.7462235,-3.230523 7.9024765,-3.296931 1.636746,1.371117 3.738344,2.382853 5.929787,2.539106 5.371184,0.453132 10.367362,-4.191477 10.640804,-9.441566 0.390632,-4.914145 -1.875031,-9.461096 -3.777407,-13.8557017 -0.03125,-0.070314 -0.05469,-0.1406275 -0.08203,-0.2109411 z"
     style="fill:none;stroke:#ffffff;stroke-width:1.18752003;stroke-opacity:1"
     inkscape:connector-curvature="0" />
  <g
     id="g3765"
     style="fill:#ffffff">
    <path
       id="path3767"
       d="M 9.976562 27.996094 C 8.796875 25.140625 7.234375 22.628906 7.199219 17.964844 C 7.164062 13.148438 11.296875 10.03125 14.558594 10.03125 C 18.511719 10.03125 21.992188 13.371094 22.175781 16.132812 C 22.339844 18.628906 21.453125 22.257812 16.867188 22.230469 C 14.679688 22.21875 12.40625 20.316406 12.394531 17.484375 C 12.382812 14.425781 16.210938 14.128906 17.175781 14.90625 C 17.550781 15.207031 17.539062 15.808594 17.207031 15.699219 C 15.144531 15.027344 13.871094 16.351562 13.96875 17.667969 C 14.09375 19.453125 15.15625 20.515625 17.054688 20.605469 C 19.792969 20.734375 20.5625 18.070312 20.492188 16.988281 C 20.40625 15.675781 19.257812 12.96875 15.695312 12.476562 C 14.007812 12.242188 12.613281 12.746094 11.59375 13.734375 C 10.574219 14.722656 10.003906 15.746094 9.917969 17.421875 C 9.832031 19.15625 10.210938 20.175781 11.246094 22.449219 C 11.617188 23.261719 12.652344 24.902344 13.453125 26.542969 Z "
       style="fill:#ffffff" />
    <path
       id="path3769"
       d="M 28.023438 10.03125 C 29.203125 12.886719 30.765625 15.402344 30.800781 20.0625 C 30.835938 24.878906 26.703125 27.996094 23.441406 27.996094 C 19.488281 27.996094 16.007812 24.660156 15.824219 21.894531 C 15.660156 19.398438 16.546875 15.769531 21.132812 15.796875 C 23.320312 15.808594 25.59375 17.710938 25.605469 20.546875 C 25.617188 23.601562 21.789062 23.898438 20.824219 23.121094 C 20.449219 22.820312 20.460938 22.222656 20.792969 22.328125 C 22.855469 23 24.128906 21.675781 24.03125 20.363281 C 23.90625 18.574219 22.84375 17.511719 20.945312 17.421875 C 18.207031 17.292969 17.4375 19.957031 17.507812 21.039062 C 17.59375 22.351562 18.742188 25.058594 22.304688 25.550781 C 23.992188 25.785156 25.386719 25.28125 26.40625 24.292969 C 27.425781 23.304688 27.996094 22.28125 28.082031 20.605469 C 28.167969 18.871094 27.789062 17.855469 26.753906 15.578125 C 26.382812 14.765625 25.347656 13.128906 24.546875 11.484375 Z "
       style="fill:#ffffff" />
  </g>
</svg>
