<?xml version="1.0" encoding="UTF-8" standalone="no"?>
<svg
   xmlns:dc="http://purl.org/dc/elements/1.1/"
   xmlns:cc="http://creativecommons.org/ns#"
   xmlns:rdf="http://www.w3.org/1999/02/22-rdf-syntax-ns#"
   xmlns:svg="http://www.w3.org/2000/svg"
   xmlns="http://www.w3.org/2000/svg"
   xmlns:sodipodi="http://sodipodi.sourceforge.net/DTD/sodipodi-0.dtd"
   xmlns:inkscape="http://www.inkscape.org/namespaces/inkscape"
   width="47.5"
   height="47.5"
   viewBox="0 0 38 38"
   id="svg2"
   version="1.1"
   inkscape:version="0.48.4 r9939"
   sodipodi:docname="applications-science.svg">
  <metadata
     id="metadata34">
    <rdf:RDF>
      <cc:Work
         rdf:about="">
        <dc:format>image/svg+xml</dc:format>
        <dc:type
           rdf:resource="http://purl.org/dc/dcmitype/StillImage" />
      </cc:Work>
    </rdf:RDF>
  </metadata>
  <defs
     id="defs32" />
  <sodipodi:namedview
     pagecolor="#ffffff"
     bordercolor="#666666"
     borderopacity="1"
     objecttolerance="10"
     gridtolerance="10"
     guidetolerance="10"
     inkscape:pageopacity="0"
     inkscape:pageshadow="2"
     inkscape:window-width="1440"
     inkscape:window-height="848"
     id="namedview30"
     showgrid="false"
     inkscape:zoom="4.9684211"
     inkscape:cx="-8.2521186"
     inkscape:cy="23.347458"
     inkscape:window-x="0"
     inkscape:window-y="0"
     inkscape:window-maximized="1"
     inkscape:current-layer="svg2" />
  <path
     sodipodi:type="arc"
     style="fill:#5b93d7;fill-opacity:1;stroke:none"
     id="path3011"
     sodipodi:cx="-50.133663"
     sodipodi:cy="26.769068"
     sodipodi:rx="27.355743"
     sodipodi:ry="16.90678"
     d="m -22.77792,26.769068 a 27.355743,16.90678 0 1 1 -54.711487,0 27.355743,16.90678 0 1 1 54.711487,0 z"
     transform="matrix(0.70186358,0,0,1.1356391,54.186992,-11.4)" />
  <g
     transform="matrix(0.87545248,0,0,0.87545248,2.4924804,2.1867043)"
     id="g3013"
     style="fill-rule:evenodd">
    <g
       id="g3015">
      <path
         inkscape:connector-curvature="0"
         id="path3017"
         transform="scale(0.14844,0.14844)"
         d="m 76.157895,33.447368 c 0,0 14.578947,-1.473684 30.289475,0.947369 0,0 0.78947,2.921052 -1.76316,3.789474 l -2.39474,24.447368 24.55264,113.526311 c 0,0 5.52631,14.31579 -11.60527,17.42106 -17.157893,3.10526 -42.868419,7.86842 -62.921051,-7.6579 0,0 -4.736842,-6 3.605264,-33.52631 L 78.684211,63.026316 77.789474,38.289474 c 0,0 -3.605263,-3.526316 -1.631579,-4.842106 z"
         style="fill:#ffffff;stroke:#ffffff;stroke-width:7.55999994;stroke-opacity:1" />
      <path
         inkscape:connector-curvature="0"
         id="path3019"
         d="m 18.179688,27.320312 c 0,0.644532 -2.058594,1.164063 -4.597657,1.164063 -2.535156,0 -4.59375,-0.519531 -4.59375,-1.164063 0,-0.644531 2.058594,-1.167968 4.59375,-1.167968 2.539063,0 4.597657,0.523437 4.597657,1.167968 z"
         style="fill:#d2d6cf;fill-opacity:0.46700003" />
      <path
         inkscape:connector-curvature="0"
         id="path3021"
         d="m 17.039062,22.433594 c -3.484374,1.875 -6.082031,1.335937 -7.789062,0.371094 l -0.00391,0.01953 c -0.00391,0.01563 -0.00781,0.02734 -0.00781,0.03906 -0.601562,1.984375 -0.714843,3.148438 -0.699219,3.753907 0.00781,0.222656 0.027344,0.351562 0.046876,0.4375 2.566406,1.828124 5.84375,1.253906 8.332031,0.804687 0.972656,-0.175781 0.984375,-0.429687 1.046875,-0.746094 0.0625,-0.316406 -0.05078,-0.667969 -0.05078,-0.667969 -0.01562,-0.03906 -0.02734,-0.08203 -0.03516,-0.125 z"
         style="fill:#adc3e2" />
      <path
         inkscape:connector-curvature="0"
         id="path3023"
         transform="scale(0.14844,0.14844)"
         d="m 143.36842,70.894737 -0.73684,-20.421053 c 0,0 0.0789,-2.631579 -1.34211,-3.421052 l 1.02632,-2.342106 c 0,0 8.60526,-1.894737 29.3421,0.578948 0,0 3.26316,-0.210527 3.68421,2.631579 0,0 -1.8421,1.894736 -1.68421,5.131579 l -2.39473,19.368421 c 0,0 25.10526,92.921047 31.81579,131.236837 0,0 -3.02632,15.94737 -20.42106,18.73685 -17.36842,2.78947 -52.76315,10.23684 -80.52631,-13.1579 0,0 -9.394738,-6.28947 3.18421,-33.21052 l 34.94737,-95.842109 c 0,0 3.15789,-4.947369 3.60526,-6.605264 0.44737,-1.657894 -0.44737,-2.5 -0.5,-2.68421 z"
         style="fill:#ffffff;stroke:#ffffff;stroke-width:7.55999994;stroke-opacity:1" />
      <path
         inkscape:connector-curvature="0"
         id="path3025"
         d="m 29.039062,30.835938 c 0,1.035156 -2.792968,1.871093 -6.242187,1.871093 -3.445313,0 -6.242187,-0.835937 -6.242187,-1.871093 0,-1.035157 2.796874,-1.875 6.242187,-1.875 3.449219,0 6.242187,0.839843 6.242187,1.875 z"
         style="fill:#d2d6cf;fill-opacity:0.46700003" />
    </g>
    <g
       id="g3027"
       style="fill:#adc3e2">
      <g
         id="g3029"
         style="fill-opacity:0.6">
        <path
           inkscape:connector-curvature="0"
           id="path3031"
           d="m 12.679688,5.929688 0.121093,3.390624 c 0.0039,0.089844 -0.0039,0.179688 -0.02734,0.269532 l -1.339844,5.261718 c 0.464844,0.03516 0.941406,0.214844 1.417968,0.582032 0.90625,0.707031 1.757813,0.585937 2.523438,0.02344 l -1.289065,-5.96094 c -0.01953,-0.097656 -0.02734,-0.195313 -0.01953,-0.292969 l 0.316406,-3.21875 c -0.625,-0.046875 -1.210937,-0.0625 -1.691406,-0.054687 -0.0039,0 -0.0078,0 -0.01172,0 z" />
        <path
           inkscape:connector-curvature="0"
           id="path3033"
           d="m 22.742188,7.679688 c -0.125,0 -0.207032,0.00391 -0.3125,0.00391 l 0.08984,2.574218 c 0.09766,0.246094 0.140625,0.605469 0.04687,0.941407 -0.128906,0.472656 -0.265625,0.609375 -0.402344,0.847656 -0.101562,0.171875 -0.152343,0.25 -0.195312,0.320313 l -2.691406,7.378906 c 1.613281,-0.601563 3.277344,-0.433594 4.421875,1.710937 0,0 2.140625,2.457031 1.605469,-4.300781 -0.05078,-0.648438 -0.02344,-1.222656 0.06641,-1.734375 -0.671875,-2.574219 -1.160156,-4.394531 -1.160156,-4.394531 -0.03906,-0.132813 -0.04688,-0.269532 -0.03125,-0.40625 L 24.53125,7.785156 C 23.820312,7.722656 23.195312,7.683594 22.742188,7.679688 z m -0.382813,2.269531 c 0.0039,0.00781 0.01172,0.019531 0.02344,0.039062 0,-0.00391 -0.0039,-0.011719 -0.0039,-0.015625 -0.01953,-0.023437 -0.03125,-0.039062 -0.01953,-0.023437 z m 0.03125,0.046875 c 0.01172,0.023437 0.02344,0.054687 0.03906,0.078125 -0.01563,-0.03516 -0.03125,-0.05859 -0.03906,-0.078125 z" />
      </g>
      <g
         id="g3035">
        <path
           inkscape:connector-curvature="0"
           id="path3037"
           d="m 17.351562,24.667969 -0.652343,1.785156 c -0.0078,0.02734 -0.01953,0.05469 -0.03125,0.08203 -0.882813,1.886719 -0.933594,2.9375 -0.859375,3.410156 0.03516,0.230469 0.09766,0.328126 0.117187,0.355469 3.679688,3.105469 8.335938,2.121094 10.996094,1.695313 1.613281,-0.257813 1.996094,-1.4375 2.078125,-1.789063 -0.230469,-1.289062 -0.601562,-2.992187 -1.03125,-4.851562 -4.78125,1.183593 -8.269531,0.433593 -10.617188,-0.6875 z" />
      </g>
    </g>
  </g>
</svg>
