<?xml version="1.0" encoding="UTF-8" standalone="no"?>
<svg
   xmlns:dc="http://purl.org/dc/elements/1.1/"
   xmlns:cc="http://creativecommons.org/ns#"
   xmlns:rdf="http://www.w3.org/1999/02/22-rdf-syntax-ns#"
   xmlns:svg="http://www.w3.org/2000/svg"
   xmlns="http://www.w3.org/2000/svg"
   xmlns:sodipodi="http://sodipodi.sourceforge.net/DTD/sodipodi-0.dtd"
   xmlns:inkscape="http://www.inkscape.org/namespaces/inkscape"
   viewBox="0 0 48 48"
   id="svg2"
   version="1.1"
   inkscape:version="0.48.4 r9939"
   width="100%"
   height="100%"
   sodipodi:docname="applications-utilities.svg">
  <metadata
     id="metadata20">
    <rdf:RDF>
      <cc:Work
         rdf:about="">
        <dc:format>image/svg+xml</dc:format>
        <dc:type
           rdf:resource="http://purl.org/dc/dcmitype/StillImage" />
      </cc:Work>
    </rdf:RDF>
  </metadata>
  <defs
     id="defs18" />
  <sodipodi:namedview
     pagecolor="#ffffff"
     bordercolor="#666666"
     borderopacity="1"
     objecttolerance="10"
     gridtolerance="10"
     guidetolerance="10"
     inkscape:pageopacity="0"
     inkscape:pageshadow="2"
     inkscape:window-width="1440"
     inkscape:window-height="848"
     id="namedview16"
     showgrid="false"
     inkscape:zoom="4.9166667"
     inkscape:cx="-8.3389831"
     inkscape:cy="23.59322"
     inkscape:window-x="0"
     inkscape:window-y="0"
     inkscape:window-maximized="1"
     inkscape:current-layer="svg2" />
  <g
     transform="translate(0 -1004.3622)"
     id="g4">
    <path
       style="fill:none;stroke:#ffffff;stroke-width:1.73300000000000010;stroke-opacity:1"
       d="m 43.398677,31.250408 a 12.153398,12.153398 0 1 1 -24.306795,0 12.153398,12.153398 0 1 1 24.306795,0 z"
       transform="matrix(1.21181 0 0 1.21181 -13.86332 990.49266)"
       id="path6" />
  </g>
  <g
     style="fill:#ffffff"
     transform="matrix(1.21181 0 0 1.21181 -13.48844 -1231.39349)"
     id="g8">
    <path
       d="m 43.398677,31.250408 c 0,6.712136 -5.441262,12.153398 -12.153398,12.153398 -6.712136,0 -12.153397,-5.441262 -12.153397,-12.153398 0,-6.712136 5.441261,-12.153397 12.153397,-12.153397 6.712136,0 12.153398,5.441261 12.153398,12.153397 z"
       transform="matrix(.1699 0 0 .1699 19.21923 1030.6568)"
       id="path10"
       style="fill:#ffffff" />
    <path
       d="m 43.398677,31.250408 c 0,6.712136 -5.441262,12.153398 -12.153398,12.153398 -6.712136,0 -12.153397,-5.441262 -12.153397,-12.153398 0,-6.712136 5.441261,-12.153397 12.153397,-12.153397 6.712136,0 12.153398,5.441261 12.153398,12.153397 z"
       transform="matrix(.1699 0 0 .1699 25.62738 1030.6568)"
       id="path12"
       style="fill:#ffffff" />
    <path
       d="m 43.398677,31.250408 c 0,6.712136 -5.441262,12.153398 -12.153398,12.153398 -6.712136,0 -12.153397,-5.441262 -12.153397,-12.153398 0,-6.712136 5.441261,-12.153397 12.153397,-12.153397 6.712136,0 12.153398,5.441261 12.153398,12.153397 z"
       transform="matrix(.1699 0 0 .1699 32.03554 1030.6568)"
       id="path14"
       style="fill:#ffffff" />
  </g>
  <path
     sodipodi:type="arc"
     style="fill:#40bdca;fill-opacity:1;stroke:none"
     id="path2997"
     sodipodi:cx="-40.474575"
     sodipodi:cy="35.18644"
     sodipodi:rx="24.20339"
     sodipodi:ry="24.20339"
     d="m -16.271185,35.18644 a 24.20339,24.20339 0 1 1 -48.40678,0 24.20339,24.20339 0 1 1 48.40678,0 z"
     transform="matrix(0.99159663,0,0,0.99159663,64.134452,-10.890755)" />
  <g
     id="g2999"
     transform="translate(0 -1004.3622)">
    <path
       id="path3001"
       transform="matrix(1.21181 0 0 1.21181 -13.86332 990.49266)"
       d="m 43.398677,31.250408 a 12.153398,12.153398 0 1 1 -24.306795,0 12.153398,12.153398 0 1 1 24.306795,0 z"
       style="fill:none;stroke:#ffffff;stroke-width:1.73300000000000010;stroke-opacity:1" />
  </g>
  <g
     id="g3003"
     transform="matrix(1.21181 0 0 1.21181 -13.48844 -1231.39349)"
     style="fill:#ffffff">
    <path
       style="fill:#ffffff"
       id="path3005"
       transform="matrix(.1699 0 0 .1699 19.21923 1030.6568)"
       d="m 43.398677,31.250408 c 0,6.712136 -5.441262,12.153398 -12.153398,12.153398 -6.712136,0 -12.153397,-5.441262 -12.153397,-12.153398 0,-6.712136 5.441261,-12.153397 12.153397,-12.153397 6.712136,0 12.153398,5.441261 12.153398,12.153397 z" />
    <path
       style="fill:#ffffff"
       id="path3007"
       transform="matrix(.1699 0 0 .1699 25.62738 1030.6568)"
       d="m 43.398677,31.250408 c 0,6.712136 -5.441262,12.153398 -12.153398,12.153398 -6.712136,0 -12.153397,-5.441262 -12.153397,-12.153398 0,-6.712136 5.441261,-12.153397 12.153397,-12.153397 6.712136,0 12.153398,5.441261 12.153398,12.153397 z" />
    <path
       style="fill:#ffffff"
       id="path3009"
       transform="matrix(.1699 0 0 .1699 32.03554 1030.6568)"
       d="m 43.398677,31.250408 c 0,6.712136 -5.441262,12.153398 -12.153398,12.153398 -6.712136,0 -12.153397,-5.441262 -12.153397,-12.153398 0,-6.712136 5.441261,-12.153397 12.153397,-12.153397 6.712136,0 12.153398,5.441261 12.153398,12.153397 z" />
  </g>
</svg>
