<?xml version="1.0" encoding="UTF-8" standalone="no"?>
<svg
   xmlns:dc="http://purl.org/dc/elements/1.1/"
   xmlns:cc="http://creativecommons.org/ns#"
   xmlns:rdf="http://www.w3.org/1999/02/22-rdf-syntax-ns#"
   xmlns:svg="http://www.w3.org/2000/svg"
   xmlns="http://www.w3.org/2000/svg"
   xmlns:sodipodi="http://sodipodi.sourceforge.net/DTD/sodipodi-0.dtd"
   xmlns:inkscape="http://www.inkscape.org/namespaces/inkscape"
   viewBox="0 0 48 48"
   id="svg2"
   version="1.1"
   inkscape:version="0.48.4 r9939"
   width="100%"
   height="100%"
   sodipodi:docname="applications-drawing.svg">
  <metadata
     id="metadata14">
    <rdf:RDF>
      <cc:Work
         rdf:about="">
        <dc:format>image/svg+xml</dc:format>
        <dc:type
           rdf:resource="http://purl.org/dc/dcmitype/StillImage" />
      </cc:Work>
    </rdf:RDF>
  </metadata>
  <defs
     id="defs12" />
  <sodipodi:namedview
     pagecolor="#ffffff"
     bordercolor="#666666"
     borderopacity="1"
     objecttolerance="10"
     gridtolerance="10"
     guidetolerance="10"
     inkscape:pageopacity="0"
     inkscape:pageshadow="2"
     inkscape:window-width="1440"
     inkscape:window-height="848"
     id="namedview10"
     showgrid="false"
     inkscape:zoom="4.9166667"
     inkscape:cx="-8.3389831"
     inkscape:cy="23.59322"
     inkscape:window-x="0"
     inkscape:window-y="0"
     inkscape:window-maximized="1"
     inkscape:current-layer="svg2" />
  <g
     style="fill:#f2479c"
     transform="translate(0 -1004.3622)"
     id="g4">
    <path
       d="m 38,1013.4656 -17.372371,24.063 c -1.403459,-0.02 -3.321213,-1.127 -4.265408,-2.1749 l 19.270977,-22.918 c 1.295216,-0.2391 2.084148,0.1049 2.366802,1.0299 z"
       id="path6" />
    <path
       d="m 16.637385,1041.2014 c 2.016308,-0.2112 5.139775,-2.2191 3.68123,-5.1259 -3.496774,-0.7807 -2.702667,-1.1758 -2.702667,-1.1758 -4.803285,0.898 -8.45364,5.1834 -7.448484,7.9077 0.637289,1.7274 0.530583,1.5496 0.530583,1.5496 1.332196,-3.3381 1.356295,-2.7267 5.939338,-3.1556 z"
       id="path8" />
  </g>
  <path
     sodipodi:type="arc"
     style="fill:#f2479c;fill-opacity:1;stroke:none"
     id="path2991"
     sodipodi:cx="-62.542374"
     sodipodi:cy="19.830509"
     sodipodi:rx="15.762712"
     sodipodi:ry="15.762712"
     d="m -46.779662,19.830509 a 15.762712,15.762712 0 1 1 -31.525423,0 15.762712,15.762712 0 1 1 31.525423,0 z"
     transform="matrix(1.5225807,0,0,1.5225807,119.22581,-6.1935506)" />
  <g
     id="g3761"
     transform="translate(0 -1004.3622)"
     style="fill:#ffffff">
    <path
       id="path3763"
       d="m 38,1013.4656 -17.372371,24.063 c -1.403459,-0.02 -3.321213,-1.127 -4.265408,-2.1749 l 19.270977,-22.918 c 1.295216,-0.2391 2.084148,0.1049 2.366802,1.0299 z"
       style="fill:#ffffff" />
    <path
       id="path3765"
       d="m 16.637385,1041.2014 c 2.016308,-0.2112 5.139775,-2.2191 3.68123,-5.1259 -3.496774,-0.7807 -2.702667,-1.1758 -2.702667,-1.1758 -4.803285,0.898 -8.45364,5.1834 -7.448484,7.9077 0.637289,1.7274 0.530583,1.5496 0.530583,1.5496 1.332196,-3.3381 1.356295,-2.7267 5.939338,-3.1556 z"
       style="fill:#ffffff" />
  </g>
</svg>
