<?xml version="1.0" encoding="UTF-8" standalone="no"?>
<svg
   xmlns:dc="http://purl.org/dc/elements/1.1/"
   xmlns:cc="http://creativecommons.org/ns#"
   xmlns:rdf="http://www.w3.org/1999/02/22-rdf-syntax-ns#"
   xmlns:svg="http://www.w3.org/2000/svg"
   xmlns="http://www.w3.org/2000/svg"
   xmlns:sodipodi="http://sodipodi.sourceforge.net/DTD/sodipodi-0.dtd"
   xmlns:inkscape="http://www.inkscape.org/namespaces/inkscape"
   viewBox="0 0 48 48"
   id="svg2"
   version="1.1"
   inkscape:version="0.48.4 r9939"
   width="100%"
   height="100%"
   sodipodi:docname="applications-electronics.svg">
  <metadata
     id="metadata12">
    <rdf:RDF>
      <cc:Work
         rdf:about="">
        <dc:format>image/svg+xml</dc:format>
        <dc:type
           rdf:resource="http://purl.org/dc/dcmitype/StillImage" />
      </cc:Work>
    </rdf:RDF>
  </metadata>
  <defs
     id="defs10" />
  <sodipodi:namedview
     pagecolor="#ffffff"
     bordercolor="#666666"
     borderopacity="1"
     objecttolerance="10"
     gridtolerance="10"
     guidetolerance="10"
     inkscape:pageopacity="0"
     inkscape:pageshadow="2"
     inkscape:window-width="1440"
     inkscape:window-height="848"
     id="namedview8"
     showgrid="false"
     inkscape:zoom="4.9166667"
     inkscape:cx="-8.3389831"
     inkscape:cy="23.59322"
     inkscape:window-x="0"
     inkscape:window-y="0"
     inkscape:window-maximized="1"
     inkscape:current-layer="svg2" />
  <g
     transform="translate(0 -1004.3622)"
     id="g4">
    <path
       style="fill:#92a991;line-height:normal;color:#000"
       d="M 10.03125 8.71875 L 10.03125 37.71875 L 8.03125 37.71875 L 8.03125 39.71875 L 12.03125 39.71875 L 12.03125 34.03125 L 39.5 34.03125 L 39.96875 34.03125 L 39.96875 33.5625 L 39.96875 14.46875 L 39.96875 14 L 39.5 14 L 12.03125 14 L 12.03125 8.71875 L 10.03125 8.71875 z M 12.03125 16 L 38 16 L 38 32 L 12.03125 32 L 12.03125 16 z M 25.96875 17.96875 L 25.96875 20.96875 L 35.96875 20.96875 L 35.96875 17.96875 L 25.96875 17.96875 z M 8 18 L 8 21 L 10 21 L 10 18 L 8 18 z M 14 18 L 14 21 L 23.96875 21 L 23.96875 18 L 14 18 z M 14 23 L 14 25 L 36 25 L 36 23 L 14 23 z M 8 24 L 8 27 L 10 27 L 10 24 L 8 24 z M 14 26 L 14 28 L 36 28 L 36 26 L 14 26 z M 14 29 L 14 29.96875 L 17 29.96875 L 17 29 L 14 29 z M 18 29 L 18 29.96875 L 20 29.96875 L 20 29 L 18 29 z M 21 29 L 21 29.96875 L 23 29.96875 L 23 29 L 21 29 z M 24 29 L 24 29.96875 L 26 29.96875 L 26 29 L 24 29 z M 29 29 L 29 29.96875 L 32 29.96875 L 32 29 L 29 29 z M 33 29 L 33 29.96875 L 36 29.96875 L 36 29 L 33 29 z "
       transform="translate(0 1004.3622)"
       id="path6" />
  </g>
  <path
     sodipodi:type="arc"
     style="fill:#92a991;fill-opacity:1;stroke:none"
     id="path2989"
     sodipodi:cx="-41.59322"
     sodipodi:cy="19.016949"
     sodipodi:rx="16.576271"
     sodipodi:ry="16.576271"
     d="m -25.016949,19.016949 a 16.576271,16.576271 0 1 1 -33.152542,0 16.576271,16.576271 0 1 1 33.152542,0 z"
     transform="matrix(1.4478528,0,0,1.4478528,84.22086,-3.5337424)" />
  <g
     id="g3759"
     transform="translate(0 -1004.3622)"
     style="fill:#ffffff">
    <path
       id="path3761"
       transform="translate(0 1004.3622)"
       d="M 10.03125 8.71875 L 10.03125 37.71875 L 8.03125 37.71875 L 8.03125 39.71875 L 12.03125 39.71875 L 12.03125 34.03125 L 39.5 34.03125 L 39.96875 34.03125 L 39.96875 33.5625 L 39.96875 14.46875 L 39.96875 14 L 39.5 14 L 12.03125 14 L 12.03125 8.71875 L 10.03125 8.71875 z M 12.03125 16 L 38 16 L 38 32 L 12.03125 32 L 12.03125 16 z M 25.96875 17.96875 L 25.96875 20.96875 L 35.96875 20.96875 L 35.96875 17.96875 L 25.96875 17.96875 z M 8 18 L 8 21 L 10 21 L 10 18 L 8 18 z M 14 18 L 14 21 L 23.96875 21 L 23.96875 18 L 14 18 z M 14 23 L 14 25 L 36 25 L 36 23 L 14 23 z M 8 24 L 8 27 L 10 27 L 10 24 L 8 24 z M 14 26 L 14 28 L 36 28 L 36 26 L 14 26 z M 14 29 L 14 29.96875 L 17 29.96875 L 17 29 L 14 29 z M 18 29 L 18 29.96875 L 20 29.96875 L 20 29 L 18 29 z M 21 29 L 21 29.96875 L 23 29.96875 L 23 29 L 21 29 z M 24 29 L 24 29.96875 L 26 29.96875 L 26 29 L 24 29 z M 29 29 L 29 29.96875 L 32 29.96875 L 32 29 L 29 29 z M 33 29 L 33 29.96875 L 36 29.96875 L 36 29 L 33 29 z "
       style="fill:#ffffff;line-height:normal;color:#000" />
  </g>
</svg>
