<?xml version="1.0" encoding="UTF-8" standalone="no"?>
<svg
   xmlns:dc="http://purl.org/dc/elements/1.1/"
   xmlns:cc="http://creativecommons.org/ns#"
   xmlns:rdf="http://www.w3.org/1999/02/22-rdf-syntax-ns#"
   xmlns:svg="http://www.w3.org/2000/svg"
   xmlns="http://www.w3.org/2000/svg"
   xmlns:sodipodi="http://sodipodi.sourceforge.net/DTD/sodipodi-0.dtd"
   xmlns:inkscape="http://www.inkscape.org/namespaces/inkscape"
   width="47.5"
   height="47.5"
   viewBox="0 0 38 38"
   id="svg2"
   version="1.1"
   inkscape:version="0.48.4 r9939"
   sodipodi:docname="applications-java.svg">
  <metadata
     id="metadata26">
    <rdf:RDF>
      <cc:Work
         rdf:about="">
        <dc:format>image/svg+xml</dc:format>
        <dc:type
           rdf:resource="http://purl.org/dc/dcmitype/StillImage" />
      </cc:Work>
    </rdf:RDF>
  </metadata>
  <defs
     id="defs24" />
  <sodipodi:namedview
     pagecolor="#ffffff"
     bordercolor="#666666"
     borderopacity="1"
     objecttolerance="10"
     gridtolerance="10"
     guidetolerance="10"
     inkscape:pageopacity="0"
     inkscape:pageshadow="2"
     inkscape:window-width="1440"
     inkscape:window-height="848"
     id="namedview22"
     showgrid="false"
     showguides="true"
     inkscape:guide-bbox="true"
     inkscape:zoom="4.9684211"
     inkscape:cx="-8.2521186"
     inkscape:cy="23.347458"
     inkscape:window-x="0"
     inkscape:window-y="0"
     inkscape:window-maximized="1"
     inkscape:current-layer="svg2" />
  <g
     style="fill:#ffffff;fill-rule:evenodd"
     id="g4">
    <path
       d="M 15.105469 27.113281 C 15.105469 27.113281 13.96875 27.773438 15.910156 28 C 18.265625 28.265625 19.464844 28.226562 22.058594 27.738281 C 22.058594 27.738281 22.742188 28.164062 23.691406 28.535156 C 17.878906 31.027344 10.539062 28.390625 15.105469 27.113281 "
       id="path6"
       style="fill:#ffffff" />
    <path
       d="M 14.394531 23.863281 C 14.394531 23.863281 13.121094 24.808594 15.066406 25.007812 C 17.578125 25.265625 19.5625 25.289062 22.996094 24.628906 C 22.996094 24.628906 23.472656 25.109375 24.21875 25.371094 C 17.191406 27.425781 9.363281 25.535156 14.394531 23.863281 "
       id="path8"
       style="fill:#ffffff" />
    <path
       d="M 20.378906 18.351562 C 21.8125 20 20.003906 21.484375 20.003906 21.484375 C 20.003906 21.484375 23.640625 19.605469 21.96875 17.257812 C 20.410156 15.0625 19.214844 13.976562 25.691406 10.21875 C 25.691406 10.21875 15.527344 12.757812 20.378906 18.351562 "
       id="path10"
       style="fill:#ffffff" />
    <path
       d="M 28.066406 29.519531 C 28.066406 29.519531 28.90625 30.210938 27.140625 30.746094 C 23.789062 31.761719 13.179688 32.070312 10.234375 30.785156 C 9.175781 30.324219 11.160156 29.6875 11.785156 29.550781 C 12.4375 29.410156 12.808594 29.4375 12.808594 29.4375 C 11.632812 28.605469 5.195312 31.066406 9.539062 31.769531 C 21.390625 33.691406 31.140625 30.90625 28.066406 29.519531 "
       id="path12"
       style="fill:#ffffff" />
    <path
       d="M 15.648438 20.496094 C 15.648438 20.496094 10.253906 21.777344 13.738281 22.246094 C 15.210938 22.441406 18.144531 22.398438 20.875 22.167969 C 23.109375 21.980469 25.351562 21.578125 25.351562 21.578125 C 25.351562 21.578125 24.5625 21.917969 23.992188 22.304688 C 18.515625 23.746094 7.929688 23.074219 10.976562 21.601562 C 13.554688 20.355469 15.648438 20.496094 15.648438 20.496094 "
       id="path14"
       style="fill:#ffffff" />
    <path
       d="M 25.328125 25.90625 C 30.898438 23.011719 28.324219 20.230469 26.527344 20.605469 C 26.085938 20.699219 25.890625 20.777344 25.890625 20.777344 C 25.890625 20.777344 26.050781 20.519531 26.363281 20.410156 C 29.921875 19.160156 32.65625 24.097656 25.21875 26.054688 C 25.21875 26.054688 25.304688 25.976562 25.328125 25.90625 "
       id="path16"
       style="fill:#ffffff" />
    <path
       d="M 21.96875 4.15625 C 21.96875 4.15625 25.054688 7.242188 19.042969 11.988281 C 14.226562 15.792969 17.945312 17.964844 19.042969 20.441406 C 16.230469 17.90625 14.164062 15.671875 15.550781 13.589844 C 17.582031 10.539062 23.214844 9.058594 21.96875 4.15625 "
       id="path18"
       style="fill:#ffffff" />
    <path
       d="M 16.195312 33.75 C 21.542969 34.09375 29.753906 33.558594 29.949219 31.03125 C 29.949219 31.03125 29.574219 31.988281 25.527344 32.75 C 20.964844 33.609375 15.335938 33.511719 12 32.960938 C 12 32.960938 12.683594 33.523438 16.195312 33.75 "
       id="path20"
       style="fill:#ffffff" />
  </g>
  <path
     sodipodi:type="arc"
     style="fill:#e760c1;fill-opacity:1;stroke:none"
     id="path3003"
     sodipodi:cx="-71.652542"
     sodipodi:cy="14.894068"
     sodipodi:rx="15.497881"
     sodipodi:ry="15.497881"
     d="m -56.154661,14.894068 a 15.497881,15.497881 0 1 1 -30.995762,0 15.497881,15.497881 0 1 1 30.995762,0 z"
     transform="matrix(1.238879,0,0,1.238879,107.76883,0.54805222)" />
  <g
     id="g3773"
     style="fill:#ffffff;fill-rule:evenodd">
    <path
       style="fill:#ffffff"
       id="path3775"
       d="M 15.105469 27.113281 C 15.105469 27.113281 13.96875 27.773438 15.910156 28 C 18.265625 28.265625 19.464844 28.226562 22.058594 27.738281 C 22.058594 27.738281 22.742188 28.164062 23.691406 28.535156 C 17.878906 31.027344 10.539062 28.390625 15.105469 27.113281 " />
    <path
       style="fill:#ffffff"
       id="path3777"
       d="M 14.394531 23.863281 C 14.394531 23.863281 13.121094 24.808594 15.066406 25.007812 C 17.578125 25.265625 19.5625 25.289062 22.996094 24.628906 C 22.996094 24.628906 23.472656 25.109375 24.21875 25.371094 C 17.191406 27.425781 9.363281 25.535156 14.394531 23.863281 " />
    <path
       style="fill:#ffffff"
       id="path3779"
       d="M 20.378906 18.351562 C 21.8125 20 20.003906 21.484375 20.003906 21.484375 C 20.003906 21.484375 23.640625 19.605469 21.96875 17.257812 C 20.410156 15.0625 19.214844 13.976562 25.691406 10.21875 C 25.691406 10.21875 15.527344 12.757812 20.378906 18.351562 " />
    <path
       style="fill:#ffffff"
       id="path3781"
       d="M 28.066406 29.519531 C 28.066406 29.519531 28.90625 30.210938 27.140625 30.746094 C 23.789062 31.761719 13.179688 32.070312 10.234375 30.785156 C 9.175781 30.324219 11.160156 29.6875 11.785156 29.550781 C 12.4375 29.410156 12.808594 29.4375 12.808594 29.4375 C 11.632812 28.605469 5.195312 31.066406 9.539062 31.769531 C 21.390625 33.691406 31.140625 30.90625 28.066406 29.519531 " />
    <path
       style="fill:#ffffff"
       id="path3783"
       d="M 15.648438 20.496094 C 15.648438 20.496094 10.253906 21.777344 13.738281 22.246094 C 15.210938 22.441406 18.144531 22.398438 20.875 22.167969 C 23.109375 21.980469 25.351562 21.578125 25.351562 21.578125 C 25.351562 21.578125 24.5625 21.917969 23.992188 22.304688 C 18.515625 23.746094 7.929688 23.074219 10.976562 21.601562 C 13.554688 20.355469 15.648438 20.496094 15.648438 20.496094 " />
    <path
       style="fill:#ffffff"
       id="path3785"
       d="M 25.328125 25.90625 C 30.898438 23.011719 28.324219 20.230469 26.527344 20.605469 C 26.085938 20.699219 25.890625 20.777344 25.890625 20.777344 C 25.890625 20.777344 26.050781 20.519531 26.363281 20.410156 C 29.921875 19.160156 32.65625 24.097656 25.21875 26.054688 C 25.21875 26.054688 25.304688 25.976562 25.328125 25.90625 " />
    <path
       style="fill:#ffffff"
       id="path3787"
       d="M 21.96875 4.15625 C 21.96875 4.15625 25.054688 7.242188 19.042969 11.988281 C 14.226562 15.792969 17.945312 17.964844 19.042969 20.441406 C 16.230469 17.90625 14.164062 15.671875 15.550781 13.589844 C 17.582031 10.539062 23.214844 9.058594 21.96875 4.15625 " />
    <path
       style="fill:#ffffff"
       id="path3789"
       d="M 16.195312 33.75 C 21.542969 34.09375 29.753906 33.558594 29.949219 31.03125 C 29.949219 31.03125 29.574219 31.988281 25.527344 32.75 C 20.964844 33.609375 15.335938 33.511719 12 32.960938 C 12 32.960938 12.683594 33.523438 16.195312 33.75 " />
  </g>
</svg>
