<?xml version="1.0" encoding="UTF-8" standalone="no"?>
<svg
   xmlns:dc="http://purl.org/dc/elements/1.1/"
   xmlns:cc="http://creativecommons.org/ns#"
   xmlns:rdf="http://www.w3.org/1999/02/22-rdf-syntax-ns#"
   xmlns:svg="http://www.w3.org/2000/svg"
   xmlns="http://www.w3.org/2000/svg"
   xmlns:sodipodi="http://sodipodi.sourceforge.net/DTD/sodipodi-0.dtd"
   xmlns:inkscape="http://www.inkscape.org/namespaces/inkscape"
   width="47.5"
   height="47.5"
   viewBox="0 0 38 38"
   id="svg2"
   version="1.1"
   inkscape:version="0.48.4 r9939"
   sodipodi:docname="gnome-system.svg">
  <metadata
     id="metadata30">
    <rdf:RDF>
      <cc:Work
         rdf:about="">
        <dc:format>image/svg+xml</dc:format>
        <dc:type
           rdf:resource="http://purl.org/dc/dcmitype/StillImage" />
      </cc:Work>
    </rdf:RDF>
  </metadata>
  <defs
     id="defs28" />
  <sodipodi:namedview
     pagecolor="#ffffff"
     bordercolor="#666666"
     borderopacity="1"
     objecttolerance="10"
     gridtolerance="10"
     guidetolerance="10"
     inkscape:pageopacity="0"
     inkscape:pageshadow="2"
     inkscape:window-width="1440"
     inkscape:window-height="848"
     id="namedview26"
     showgrid="false"
     inkscape:zoom="4.9684211"
     inkscape:cx="-8.2521186"
     inkscape:cy="23.347458"
     inkscape:window-x="0"
     inkscape:window-y="0"
     inkscape:window-maximized="1"
     inkscape:current-layer="svg2" />
  <path
     sodipodi:type="arc"
     style="fill:#b98595;fill-opacity:1;stroke:none"
     id="path3007"
     sodipodi:cx="-38.845341"
     sodipodi:cy="42.065678"
     sodipodi:rx="19.322035"
     sodipodi:ry="19.322035"
     d="m -19.523306,42.065678 a 19.322035,19.322035 0 1 1 -38.64407,0 19.322035,19.322035 0 1 1 38.64407,0 z"
     transform="matrix(0.99368416,0,0,0.99368416,57.6,-22.799998)" />
  <path
     id="path3797"
     d="M 18.394522,7.0512314 C 12.167854,7.3715494 7.2146454,12.606012 7.2146454,19.000651 c 0,6.601674 5.2774326,11.953326 11.7853556,11.953326 6.507922,0 11.785354,-5.351652 11.785354,-11.953326 0,-6.601674 -5.277432,-11.9494196 -11.785354,-11.9494196 -0.203129,0 -0.406257,-0.01172 -0.605479,0 z"
     style="fill:none;stroke:#ffffff;stroke-width:2.58241057;stroke-opacity:1"
     inkscape:connector-curvature="0" />
  <g
     id="g3799"
     style="fill:#ffffff;fill-opacity:1">
    <path
       id="path3801"
       d="m 17.328125,4.15625 3.34375,0 c 0.191406,0 0.34375,0.28125 0.34375,0.628906 l 0,1.914063 c 0,0.347656 -0.152344,0.628906 -0.34375,0.628906 l -3.34375,0 c -0.191406,0 -0.34375,-0.28125 -0.34375,-0.628906 l 0,-1.914063 c 0,-0.347656 0.152344,-0.628906 0.34375,-0.628906 z"
       inkscape:connector-curvature="0"
       style="fill:#ffffff;fill-opacity:1" />
    <path
       id="path3803"
       d="m 17.328125,30.671875 3.34375,0 c 0.191406,0 0.34375,0.28125 0.34375,0.628906 l 0,1.914063 c 0,0.347656 -0.152344,0.628906 -0.34375,0.628906 l -3.34375,0 c -0.191406,0 -0.34375,-0.28125 -0.34375,-0.628906 l 0,-1.914063 c 0,-0.347656 0.152344,-0.628906 0.34375,-0.628906 z"
       inkscape:connector-curvature="0"
       style="fill:#ffffff;fill-opacity:1" />
    <path
       id="path3805"
       d="m 21.753906,19.003906 c 0,1.4375 -1.234375,2.605469 -2.753906,2.605469 -1.519531,0 -2.753906,-1.167969 -2.753906,-2.605469 0,-1.441406 1.234375,-2.609375 2.753906,-2.609375 1.519531,0 2.753906,1.167969 2.753906,2.609375 z"
       inkscape:connector-curvature="0"
       style="fill:#ffffff;fill-opacity:1" />
    <path
       id="path3807"
       d="m 33.84375,17.355469 0,3.296875 c 0,0.1875 -0.296875,0.339844 -0.664062,0.339844 l -2.023438,0 c -0.367188,0 -0.664062,-0.152344 -0.664062,-0.339844 l 0,-3.296875 c 0,-0.191407 0.296874,-0.339844 0.664062,-0.339844 l 2.023438,0 c 0.367187,0 0.664062,0.148437 0.664062,0.339844 z"
       inkscape:connector-curvature="0"
       style="fill:#ffffff;fill-opacity:1" />
    <path
       id="path3809"
       d="m 7.507812,17.355469 0,3.296875 c 0,0.1875 -0.296874,0.339844 -0.664062,0.339844 l -2.023438,0 c -0.367187,0 -0.664062,-0.152344 -0.664062,-0.339844 l 0,-3.296875 c 0,-0.191407 0.296875,-0.339844 0.664062,-0.339844 l 2.023438,0 c 0.367188,0 0.664062,0.148437 0.664062,0.339844 z"
       inkscape:connector-curvature="0"
       style="fill:#ffffff;fill-opacity:1" />
    <path
       id="path3811"
       d="M 28.902344,7.382812 31.269531,9.625 c 0.136719,0.125 0.03516,0.425781 -0.226562,0.671875 l -1.429688,1.355469 c -0.257812,0.246094 -0.578125,0.339844 -0.710937,0.214844 L 26.535156,9.625 C 26.402344,9.5 26.5,9.199219 26.761719,8.953125 l 1.429687,-1.355469 c 0.261719,-0.246094 0.578125,-0.339844 0.710938,-0.214844 z"
       inkscape:connector-curvature="0"
       style="fill:#ffffff;fill-opacity:1" />
    <path
       id="path3813"
       d="M 9.097656,26.132812 11.464844,28.375 C 11.597656,28.5 11.5,28.800781 11.238281,29.046875 L 9.808594,30.402344 C 9.546875,30.648438 9.230469,30.742188 9.097656,30.617188 L 6.730469,28.375 C 6.59375,28.25 6.695312,27.949219 6.957031,27.703125 l 1.429688,-1.355469 c 0.257812,-0.246094 0.578125,-0.339844 0.710937,-0.214844 z"
       inkscape:connector-curvature="0"
       style="fill:#ffffff;fill-opacity:1" />
    <path
       id="path3815"
       d="m 31.269531,28.375 -2.367187,2.242188 c -0.132813,0.125 -0.449219,0.03125 -0.710938,-0.214844 L 26.761719,29.046875 C 26.5,28.800781 26.402344,28.5 26.535156,28.375 l 2.367188,-2.242188 c 0.132812,-0.125 0.453125,-0.03125 0.710937,0.214844 l 1.429688,1.355469 C 31.304688,27.949219 31.40625,28.25 31.269531,28.375 z"
       inkscape:connector-curvature="0"
       style="fill:#ffffff;fill-opacity:1" />
    <path
       id="path3817"
       d="m 11.464844,9.625 -2.367188,2.242188 c -0.132812,0.125 -0.453125,0.03125 -0.710937,-0.214844 L 6.957031,10.296875 C 6.695312,10.050781 6.59375,9.75 6.730469,9.625 L 9.097656,7.382812 c 0.132813,-0.125 0.449219,-0.03125 0.710938,0.214844 l 1.429687,1.355469 C 11.5,9.199219 11.597656,9.5 11.464844,9.625 z"
       inkscape:connector-curvature="0"
       style="fill:#ffffff;fill-opacity:1" />
  </g>
</svg>
