<?xml version="1.0" encoding="UTF-8" standalone="no"?>
<svg
   xmlns:dc="http://purl.org/dc/elements/1.1/"
   xmlns:cc="http://creativecommons.org/ns#"
   xmlns:rdf="http://www.w3.org/1999/02/22-rdf-syntax-ns#"
   xmlns:svg="http://www.w3.org/2000/svg"
   xmlns="http://www.w3.org/2000/svg"
   xmlns:sodipodi="http://sodipodi.sourceforge.net/DTD/sodipodi-0.dtd"
   xmlns:inkscape="http://www.inkscape.org/namespaces/inkscape"
   width="47.5"
   height="47.5"
   viewBox="0 0 38 38"
   id="svg2"
   version="1.1"
   inkscape:version="0.48.4 r9939"
   sodipodi:docname="gnome-settings.svg">
  <metadata
     id="metadata26">
    <rdf:RDF>
      <cc:Work
         rdf:about="">
        <dc:format>image/svg+xml</dc:format>
        <dc:type
           rdf:resource="http://purl.org/dc/dcmitype/StillImage" />
      </cc:Work>
    </rdf:RDF>
  </metadata>
  <defs
     id="defs24" />
  <sodipodi:namedview
     pagecolor="#ffffff"
     bordercolor="#666666"
     borderopacity="1"
     objecttolerance="10"
     gridtolerance="10"
     guidetolerance="10"
     inkscape:pageopacity="0"
     inkscape:pageshadow="2"
     inkscape:window-width="1440"
     inkscape:window-height="848"
     id="namedview22"
     showgrid="false"
     inkscape:zoom="4.9684211"
     inkscape:cx="-8.2521186"
     inkscape:cy="23.347458"
     inkscape:window-x="0"
     inkscape:window-y="0"
     inkscape:window-maximized="1"
     inkscape:current-layer="svg2" />
  <g
     style="fill:#ffffff"
     id="g4">
    <path
       d="M 5.804688 4.15625 L 5.804688 23.949219 L 7.453125 23.949219 L 7.453125 4.15625 Z "
       id="path6"
       style="fill:#ffffff" />
    <path
       d="M 9.105469 24.773438 C 9.105469 26.136719 7.996094 27.246094 6.628906 27.246094 C 5.265625 27.246094 4.15625 26.136719 4.15625 24.773438 C 4.15625 23.40625 5.265625 22.296875 6.628906 22.296875 C 7.996094 22.296875 9.105469 23.40625 9.105469 24.773438 Z "
       id="path8"
       style="fill:#ffffff" />
    <path
       d="M 15.703125 33.84375 L 15.703125 9.105469 L 14.050781 9.105469 L 14.050781 33.84375 Z "
       id="path10"
       style="fill:#ffffff" />
    <path
       d="M 12.402344 8.28125 C 12.402344 6.914062 13.511719 5.804688 14.875 5.804688 C 16.242188 5.804688 17.351562 6.914062 17.351562 8.28125 C 17.351562 9.644531 16.242188 10.753906 14.875 10.753906 C 13.511719 10.753906 12.402344 9.644531 12.402344 8.28125 Z "
       id="path12"
       style="fill:#ffffff" />
    <path
       d="M 22.296875 4.15625 L 22.296875 22.296875 L 23.949219 22.296875 L 23.949219 4.15625 Z "
       id="path14"
       style="fill:#ffffff" />
    <path
       d="M 25.597656 23.121094 C 25.597656 24.488281 24.488281 25.597656 23.125 25.597656 C 21.757812 25.597656 20.648438 24.488281 20.648438 23.121094 C 20.648438 21.757812 21.757812 20.648438 23.125 20.648438 C 24.488281 20.648438 25.597656 21.757812 25.597656 23.121094 Z "
       id="path16"
       style="fill:#ffffff" />
    <path
       d="M 32.195312 33.84375 L 32.195312 20.648438 L 30.546875 20.648438 L 30.546875 33.84375 Z "
       id="path18"
       style="fill:#ffffff" />
    <path
       d="M 28.894531 19.824219 C 28.894531 18.457031 30.003906 17.351562 31.371094 17.351562 C 32.734375 17.351562 33.84375 18.457031 33.84375 19.824219 C 33.84375 21.191406 32.734375 22.300781 31.371094 22.300781 C 30.003906 22.300781 28.894531 21.191406 28.894531 19.824219 Z "
       id="path20"
       style="fill:#ffffff" />
  </g>
  <path
     sodipodi:type="arc"
     style="fill:#ec86ab;fill-opacity:1;stroke:none"
     id="path3003"
     sodipodi:cx="-46.493645"
     sodipodi:cy="23.649364"
     sodipodi:rx="20.529661"
     sodipodi:ry="20.831568"
     d="m -25.963984,23.649364 a 20.529661,20.831568 0 1 1 -41.059322,0 20.529661,20.831568 0 1 1 41.059322,0 z"
     transform="matrix(0.93523219,0,0,0.92167811,62.482353,-2.7971015)" />
  <g
     id="g3773"
     style="fill:#ffffff"
     transform="matrix(0.88067797,0,0,0.88067797,2.2671186,2.2671186)">
    <path
       style="fill:#ffffff"
       id="path3775"
       d="m 5.804688,4.15625 0,19.792969 1.648437,0 0,-19.792969 z"
       inkscape:connector-curvature="0" />
    <path
       style="fill:#ffffff"
       id="path3777"
       d="m 9.105469,24.773438 c 0,1.363281 -1.109375,2.472656 -2.476563,2.472656 -1.363281,0 -2.472656,-1.109375 -2.472656,-2.472656 0,-1.367188 1.109375,-2.476563 2.472656,-2.476563 1.367188,0 2.476563,1.109375 2.476563,2.476563 z"
       inkscape:connector-curvature="0" />
    <path
       style="fill:#ffffff"
       id="path3779"
       d="m 15.703125,33.84375 0,-24.738281 -1.652344,0 0,24.738281 z"
       inkscape:connector-curvature="0" />
    <path
       style="fill:#ffffff"
       id="path3781"
       d="m 12.402344,8.28125 c 0,-1.367188 1.109375,-2.476562 2.472656,-2.476562 1.367188,0 2.476562,1.109374 2.476562,2.476562 0,1.363281 -1.109374,2.472656 -2.476562,2.472656 -1.363281,0 -2.472656,-1.109375 -2.472656,-2.472656 z"
       inkscape:connector-curvature="0" />
    <path
       style="fill:#ffffff"
       id="path3783"
       d="m 22.296875,4.15625 0,18.140625 1.652344,0 0,-18.140625 z"
       inkscape:connector-curvature="0" />
    <path
       style="fill:#ffffff"
       id="path3785"
       d="m 25.597656,23.121094 c 0,1.367187 -1.109375,2.476562 -2.472656,2.476562 -1.367188,0 -2.476562,-1.109375 -2.476562,-2.476562 0,-1.363282 1.109374,-2.472656 2.476562,-2.472656 1.363281,0 2.472656,1.109374 2.472656,2.472656 z"
       inkscape:connector-curvature="0" />
    <path
       style="fill:#ffffff"
       id="path3787"
       d="m 32.195312,33.84375 0,-13.195312 -1.648437,0 0,13.195312 z"
       inkscape:connector-curvature="0" />
    <path
       style="fill:#ffffff"
       id="path3789"
       d="m 28.894531,19.824219 c 0,-1.367188 1.109375,-2.472657 2.476563,-2.472657 1.363281,0 2.472656,1.105469 2.472656,2.472657 0,1.367187 -1.109375,2.476562 -2.472656,2.476562 -1.367188,0 -2.476563,-1.109375 -2.476563,-2.476562 z"
       inkscape:connector-curvature="0" />
  </g>
</svg>
