<?xml version="1.0" encoding="UTF-8" standalone="no"?>
<svg
   xmlns:dc="http://purl.org/dc/elements/1.1/"
   xmlns:cc="http://creativecommons.org/ns#"
   xmlns:rdf="http://www.w3.org/1999/02/22-rdf-syntax-ns#"
   xmlns:svg="http://www.w3.org/2000/svg"
   xmlns="http://www.w3.org/2000/svg"
   xmlns:sodipodi="http://sodipodi.sourceforge.net/DTD/sodipodi-0.dtd"
   xmlns:inkscape="http://www.inkscape.org/namespaces/inkscape"
   width="47.5"
   height="47.5"
   viewBox="0 0 38 38"
   id="svg2"
   version="1.1"
   inkscape:version="0.48.4 r9939"
   sodipodi:docname="preferences-desktop-personal-directory.svg">
  <metadata
     id="metadata10">
    <rdf:RDF>
      <cc:Work
         rdf:about="">
        <dc:format>image/svg+xml</dc:format>
        <dc:type
           rdf:resource="http://purl.org/dc/dcmitype/StillImage" />
      </cc:Work>
    </rdf:RDF>
  </metadata>
  <defs
     id="defs8" />
  <sodipodi:namedview
     pagecolor="#ffffff"
     bordercolor="#666666"
     borderopacity="1"
     objecttolerance="10"
     gridtolerance="10"
     guidetolerance="10"
     inkscape:pageopacity="0"
     inkscape:pageshadow="2"
     inkscape:window-width="1440"
     inkscape:window-height="848"
     id="namedview6"
     showgrid="false"
     inkscape:zoom="4.9684211"
     inkscape:cx="0.90572034"
     inkscape:cy="23.347458"
     inkscape:window-x="0"
     inkscape:window-y="0"
     inkscape:window-maximized="1"
     inkscape:current-layer="svg2" />
  <path
     style="fill:#ffffff"
     d="m 17.179688,6.332031 3.640624,0 c 5.460938,0 5.34375,5.542969 5.34375,5.542969 l 0,4.75 c 0,1.808594 -3.183593,5.542969 -3.183593,5.542969 l 0,2.375 7.167969,3.957031 0,3.167969 -22.296876,0 0,-3.167969 7.167969,-3.957031 0,-2.375 c 0,0 -3.195312,-3.734375 -3.183593,-5.542969 l 0,-4.75 c 0,0 -0.117188,-5.542969 5.34375,-5.542969 z"
     id="path4" />
  <path
     sodipodi:type="arc"
     style="fill:#4d4d4d;fill-opacity:1;stroke:none"
     id="path2987"
     sodipodi:cx="-41.260593"
     sodipodi:cy="26.769068"
     sodipodi:rx="21.334745"
     sodipodi:ry="21.334745"
     d="m -19.925848,26.769068 a 21.334745,21.334745 0 1 1 -42.669491,0 21.334745,21.334745 0 1 1 42.669491,0 z"
     transform="matrix(0.89994043,0,0,0.89994043,56.132076,-5.0905664)" />
  <path
     id="path2989"
     d="m 17.179688,6.332031 3.640624,0 c 5.460938,0 5.34375,5.542969 5.34375,5.542969 l 0,4.75 c 0,1.808594 -3.183593,5.542969 -3.183593,5.542969 l 0,2.375 7.167969,3.957031 0,3.167969 -22.296876,0 0,-3.167969 7.167969,-3.957031 0,-2.375 c 0,0 -3.195312,-3.734375 -3.183593,-5.542969 l 0,-4.75 c 0,0 -0.117188,-5.542969 5.34375,-5.542969 z"
     style="fill:#ffffff" />
</svg>
