<?xml version="1.0" encoding="UTF-8" standalone="no"?>
<svg
   xmlns:dc="http://purl.org/dc/elements/1.1/"
   xmlns:cc="http://creativecommons.org/ns#"
   xmlns:rdf="http://www.w3.org/1999/02/22-rdf-syntax-ns#"
   xmlns:svg="http://www.w3.org/2000/svg"
   xmlns="http://www.w3.org/2000/svg"
   xmlns:sodipodi="http://sodipodi.sourceforge.net/DTD/sodipodi-0.dtd"
   xmlns:inkscape="http://www.inkscape.org/namespaces/inkscape"
   viewBox="0 0 48 48"
   id="svg2"
   version="1.1"
   inkscape:version="0.48.4 r9939"
   width="100%"
   height="100%"
   sodipodi:docname="preferences-system-network.svg">
  <metadata
     id="metadata24">
    <rdf:RDF>
      <cc:Work
         rdf:about="">
        <dc:format>image/svg+xml</dc:format>
        <dc:type
           rdf:resource="http://purl.org/dc/dcmitype/StillImage" />
      </cc:Work>
    </rdf:RDF>
  </metadata>
  <defs
     id="defs22" />
  <sodipodi:namedview
     pagecolor="#ffffff"
     bordercolor="#666666"
     borderopacity="1"
     objecttolerance="10"
     gridtolerance="10"
     guidetolerance="10"
     inkscape:pageopacity="0"
     inkscape:pageshadow="2"
     inkscape:window-width="1440"
     inkscape:window-height="848"
     id="namedview20"
     showgrid="false"
     inkscape:zoom="4.9166667"
     inkscape:cx="0.91525424"
     inkscape:cy="23.59322"
     inkscape:window-x="0"
     inkscape:window-y="0"
     inkscape:window-maximized="1"
     inkscape:current-layer="svg2" />
  <g
     style="fill:#c0956e"
     id="g4">
    <g
       style="line-height:normal;color:#000"
       transform="translate(0 -1004.3622)"
       id="g6">
      <path
         style="opacity:.8"
         d="m 13.000023,1036.3301 c -1.8e-5,0 -3.3e-5,0 -3.3e-5,0 l 0,7e-4 c 0,0 1.8e-5,0 3.8e-5,0 l 3.12e-4,0 0,10e-5 3.02e-4,0 0,-10e-5 3.11e-4,0 c 1.9e-5,0 3.7e-5,0 3.7e-5,0 l 0,-7e-4 c 0,0 -1.8e-5,0 -3.7e-5,0 l -9.25e-4,0 -5e-6,0 z m 6.6e-5,1e-4 8e-4,0 0,5e-4 -8e-4,0 0,-5e-4 z m 1.01e-4,7e-4 0,10e-5 6e-4,0 0,-10e-5 -6e-4,0 z"
         id="path8" />
      <path
         d="m 17.08585,1012.4451 c -0.585537,0.062 -1.078149,0.6113 -1.075,1.2 l 0,9.5171 c 6.3e-5,0.6283 0.571698,1.1999 1.2,1.2 l 4.799995,0 3.845743,0 4.932578,0 c 0.628301,-10e-5 1.199937,-0.5717 1.199999,-1.2 l 0,-9.5171 c -6.2e-5,-0.6283 -0.571698,-1.1999 -1.199999,-1.2 l -13.578316,0 z"
         id="path10" />
      <path
         d="m 7.075015,1032.4451 c -0.585537,0.062 -1.078149,0.6113 -1.075,1.2 l 0,9.5171 c 6.3e-5,0.6283 0.571698,1.1999 1.2,1.2 l 4.799995,0 3.845743,0 4.932578,0 c 0.628301,-10e-5 1.199937,-0.5717 1.199999,-1.2 l 0,-9.5171 c -6.2e-5,-0.6283 -0.571698,-1.1999 -1.199999,-1.2 l -13.578316,0 z"
         id="path12" />
      <path
         d="m 27.075015,1032.4451 c -0.585537,0.062 -1.078149,0.6113 -1.075,1.2 l 0,9.5171 c 6.3e-5,0.6283 0.571698,1.1999 1.2,1.2 l 4.799995,0 3.845743,0 4.932578,0 c 0.628301,-10e-5 1.199937,-0.5717 1.199999,-1.2 l 0,-9.5171 c -6.2e-5,-0.6283 -0.571698,-1.1999 -1.199999,-1.2 l -13.578316,0 z"
         id="path14" />
    </g>
    <g
       transform="translate(0 -1004.3622)"
       id="g16">
      <path
         d="m 23,21 0,2 -10,0 0,4 2,0 0,-2 18,0 0,2 2,0 0,-4 -10,0 0,-2 z"
         transform="translate(0 1004.3622)"
         id="path18" />
    </g>
  </g>
  <path
     sodipodi:type="arc"
     style="fill:#d38d5f;fill-opacity:1;stroke:none"
     id="path3001"
     sodipodi:cx="-42.40678"
     sodipodi:cy="28.372881"
     sodipodi:rx="17.79661"
     sodipodi:ry="17.79661"
     d="m -24.61017,28.372881 a 17.79661,17.79661 0 1 1 -35.59322,0 17.79661,17.79661 0 1 1 35.59322,0 z"
     transform="matrix(1.3485715,0,0,1.3485715,81.188575,-14.262859)" />
  <g
     id="g3003"
     style="fill:#ffffff"
     transform="matrix(0.89259071,0,0,0.89259071,2.5874942,2.5408251)">
    <g
       id="g3005"
       transform="translate(0,-1004.3622)"
       style="line-height:normal;color:#000000;fill:#ffffff">
      <path
         id="path3007"
         d="m 13.000023,1036.3301 c -1.8e-5,0 -3.3e-5,0 -3.3e-5,0 l 0,7e-4 c 0,0 1.8e-5,0 3.8e-5,0 l 3.12e-4,0 0,10e-5 3.02e-4,0 0,-10e-5 3.11e-4,0 c 1.9e-5,0 3.7e-5,0 3.7e-5,0 l 0,-7e-4 c 0,0 -1.8e-5,0 -3.7e-5,0 l -9.25e-4,0 -5e-6,0 z m 6.6e-5,1e-4 8e-4,0 0,5e-4 -8e-4,0 0,-5e-4 z m 1.01e-4,7e-4 0,10e-5 6e-4,0 0,-10e-5 -6e-4,0 z"
         style="opacity:0.8;fill:#ffffff"
         inkscape:connector-curvature="0" />
      <path
         id="path3009"
         d="m 17.08585,1012.4451 c -0.585537,0.062 -1.078149,0.6113 -1.075,1.2 l 0,9.5171 c 6.3e-5,0.6283 0.571698,1.1999 1.2,1.2 l 4.799995,0 3.845743,0 4.932578,0 c 0.628301,-10e-5 1.199937,-0.5717 1.199999,-1.2 l 0,-9.5171 c -6.2e-5,-0.6283 -0.571698,-1.1999 -1.199999,-1.2 l -13.578316,0 z"
         style="fill:#ffffff"
         inkscape:connector-curvature="0" />
      <path
         id="path3011"
         d="m 7.075015,1032.4451 c -0.585537,0.062 -1.078149,0.6113 -1.075,1.2 l 0,9.5171 c 6.3e-5,0.6283 0.571698,1.1999 1.2,1.2 l 4.799995,0 3.845743,0 4.932578,0 c 0.628301,-10e-5 1.199937,-0.5717 1.199999,-1.2 l 0,-9.5171 c -6.2e-5,-0.6283 -0.571698,-1.1999 -1.199999,-1.2 l -13.578316,0 z"
         style="fill:#ffffff"
         inkscape:connector-curvature="0" />
      <path
         id="path3013"
         d="m 27.075015,1032.4451 c -0.585537,0.062 -1.078149,0.6113 -1.075,1.2 l 0,9.5171 c 6.3e-5,0.6283 0.571698,1.1999 1.2,1.2 l 4.799995,0 3.845743,0 4.932578,0 c 0.628301,-10e-5 1.199937,-0.5717 1.199999,-1.2 l 0,-9.5171 c -6.2e-5,-0.6283 -0.571698,-1.1999 -1.199999,-1.2 l -13.578316,0 z"
         style="fill:#ffffff"
         inkscape:connector-curvature="0" />
    </g>
    <g
       id="g3015"
       transform="translate(0,-1004.3622)"
       style="fill:#ffffff">
      <path
         id="path3017"
         transform="translate(0,1004.3622)"
         d="m 23,21 0,2 -10,0 0,4 2,0 0,-2 18,0 0,2 2,0 0,-4 -10,0 0,-2 z"
         style="fill:#ffffff"
         inkscape:connector-curvature="0" />
    </g>
  </g>
</svg>
