<?xml version="1.0" encoding="UTF-8" standalone="no"?>
<svg
   xmlns:dc="http://purl.org/dc/elements/1.1/"
   xmlns:cc="http://creativecommons.org/ns#"
   xmlns:rdf="http://www.w3.org/1999/02/22-rdf-syntax-ns#"
   xmlns:svg="http://www.w3.org/2000/svg"
   xmlns="http://www.w3.org/2000/svg"
   xmlns:sodipodi="http://sodipodi.sourceforge.net/DTD/sodipodi-0.dtd"
   xmlns:inkscape="http://www.inkscape.org/namespaces/inkscape"
   width="47.5"
   height="47.5"
   viewBox="0 0 38 38"
   id="svg2"
   version="1.1"
   inkscape:version="0.48.4 r9939"
   sodipodi:docname="preferences-desktop-peripherals-directory.svg">
  <metadata
     id="metadata36">
    <rdf:RDF>
      <cc:Work
         rdf:about="">
        <dc:format>image/svg+xml</dc:format>
        <dc:type
           rdf:resource="http://purl.org/dc/dcmitype/StillImage" />
      </cc:Work>
    </rdf:RDF>
  </metadata>
  <defs
     id="defs34" />
  <sodipodi:namedview
     pagecolor="#ffffff"
     bordercolor="#666666"
     borderopacity="1"
     objecttolerance="10"
     gridtolerance="10"
     guidetolerance="10"
     inkscape:pageopacity="0"
     inkscape:pageshadow="2"
     inkscape:window-width="1440"
     inkscape:window-height="848"
     id="namedview32"
     showgrid="false"
     inkscape:zoom="4.9684211"
     inkscape:cx="-8.2521186"
     inkscape:cy="23.347458"
     inkscape:window-x="0"
     inkscape:window-y="0"
     inkscape:window-maximized="1"
     inkscape:current-layer="svg2" />
  <g
     style="fill:#ffffff"
     id="g4">
    <path
       d="m 14.894531,7.144531 c 0,-0.449219 -0.367187,-0.8125 -0.820312,-0.8125 -0.449219,0 -0.8125,0.363281 -0.8125,0.8125 l 0,3.003907 1.632812,0 z"
       id="path6"
       style="fill:#ffffff" />
    <path
       d="m 13.261719,30.847656 c 0,0.449219 0.363281,0.816406 0.8125,0.816406 0.453125,0 0.820312,-0.367187 0.820312,-0.816406 l 0,-3 -1.632812,0 z"
       id="path8"
       style="fill:#ffffff" />
    <path
       d="m 19.816406,7.144531 c 0,-0.449219 -0.367187,-0.8125 -0.816406,-0.8125 -0.449219,0 -0.8125,0.363281 -0.8125,0.8125 l 0,3.003907 1.628906,0 z"
       id="path10"
       style="fill:#ffffff" />
    <path
       d="m 18.1875,30.847656 c 0,0.449219 0.363281,0.816406 0.8125,0.816406 0.449219,0 0.816406,-0.367187 0.816406,-0.816406 l 0,-3 -1.628906,0 z"
       id="path12"
       style="fill:#ffffff" />
    <path
       d="m 24.742188,7.144531 c 0,-0.449219 -0.363282,-0.8125 -0.816407,-0.8125 -0.449219,0 -0.8125,0.363281 -0.8125,0.8125 l 0,3.003907 1.628907,0 z"
       id="path14"
       style="fill:#ffffff" />
    <path
       d="m 23.113281,30.847656 c 0,0.449219 0.363281,0.816406 0.816407,0.816406 0.449218,0 0.8125,-0.367187 0.8125,-0.816406 l 0,-3 -1.628907,0 z"
       id="path16"
       style="fill:#ffffff" />
    <path
       d="m 7.148438,23.109375 c -0.449219,0 -0.8125,0.363281 -0.8125,0.8125 0,0.449219 0.363281,0.8125 0.8125,0.8125 l 3,0 0,-1.625 z"
       id="path18"
       style="fill:#ffffff" />
    <path
       d="m 30.851562,24.734375 c 0.453126,0 0.816407,-0.363281 0.816407,-0.8125 0,-0.449219 -0.363281,-0.8125 -0.816407,-0.8125 l -2.996093,0 0,1.625 z"
       id="path20"
       style="fill:#ffffff" />
    <path
       d="m 7.148438,18.183594 c -0.449219,0 -0.8125,0.363281 -0.8125,0.8125 0,0.449218 0.363281,0.816406 0.8125,0.816406 l 3,0 0,-1.628906 z"
       id="path22"
       style="fill:#ffffff" />
    <path
       d="m 30.851562,19.8125 c 0.453126,0 0.816407,-0.367188 0.816407,-0.816406 0,-0.449219 -0.363281,-0.8125 -0.816407,-0.8125 l -2.996093,0 0,1.628906 z"
       id="path24"
       style="fill:#ffffff" />
    <path
       d="m 7.148438,13.257812 c -0.449219,0 -0.8125,0.363282 -0.8125,0.8125 0,0.449219 0.363281,0.816407 0.8125,0.816407 l 3,0 0,-1.628907 z"
       id="path26"
       style="fill:#ffffff" />
    <path
       d="m 30.851562,14.886719 c 0.453126,0 0.816407,-0.367188 0.816407,-0.816407 0,-0.449218 -0.363281,-0.8125 -0.816407,-0.8125 l -2.996093,0 0,1.628907 z"
       id="path28"
       style="fill:#ffffff" />
    <path
       d="m 23.613281,25.3125 c 0.941407,0 1.710938,-0.765625 1.710938,-1.710938 l 0,-9.210937 c 0,-0.945313 -0.769531,-1.710937 -1.710938,-1.710937 l -9.222656,0 c -0.941406,0 -1.710937,0.765624 -1.710937,1.710937 l 0,9.210937 c 0,0.945313 0.769531,1.710938 1.710937,1.710938 z"
       id="path30"
       style="fill:#ffffff" />
  </g>
  <path
     sodipodi:type="arc"
     style="fill:#555555;fill-opacity:1;stroke:none"
     id="path3013"
     sodipodi:cx="-45.990467"
     sodipodi:cy="15.598517"
     sodipodi:rx="14.189619"
     sodipodi:ry="14.189619"
     d="m -31.800848,15.598517 a 14.189619,14.189619 0 1 1 -28.379238,0 14.189619,14.189619 0 1 1 28.379238,0 z"
     transform="matrix(1.3531019,0,0,1.3531019,81.229788,-2.1063836)" />
  <g
     id="g3783"
     style="fill:#ffffff">
    <path
       style="fill:#ffffff"
       id="path3785"
       d="m 14.894531,7.144531 c 0,-0.449219 -0.367187,-0.8125 -0.820312,-0.8125 -0.449219,0 -0.8125,0.363281 -0.8125,0.8125 l 0,3.003907 1.632812,0 z" />
    <path
       style="fill:#ffffff"
       id="path3787"
       d="m 13.261719,30.847656 c 0,0.449219 0.363281,0.816406 0.8125,0.816406 0.453125,0 0.820312,-0.367187 0.820312,-0.816406 l 0,-3 -1.632812,0 z" />
    <path
       style="fill:#ffffff"
       id="path3789"
       d="m 19.816406,7.144531 c 0,-0.449219 -0.367187,-0.8125 -0.816406,-0.8125 -0.449219,0 -0.8125,0.363281 -0.8125,0.8125 l 0,3.003907 1.628906,0 z" />
    <path
       style="fill:#ffffff"
       id="path3791"
       d="m 18.1875,30.847656 c 0,0.449219 0.363281,0.816406 0.8125,0.816406 0.449219,0 0.816406,-0.367187 0.816406,-0.816406 l 0,-3 -1.628906,0 z" />
    <path
       style="fill:#ffffff"
       id="path3793"
       d="m 24.742188,7.144531 c 0,-0.449219 -0.363282,-0.8125 -0.816407,-0.8125 -0.449219,0 -0.8125,0.363281 -0.8125,0.8125 l 0,3.003907 1.628907,0 z" />
    <path
       style="fill:#ffffff"
       id="path3795"
       d="m 23.113281,30.847656 c 0,0.449219 0.363281,0.816406 0.816407,0.816406 0.449218,0 0.8125,-0.367187 0.8125,-0.816406 l 0,-3 -1.628907,0 z" />
    <path
       style="fill:#ffffff"
       id="path3797"
       d="m 7.148438,23.109375 c -0.449219,0 -0.8125,0.363281 -0.8125,0.8125 0,0.449219 0.363281,0.8125 0.8125,0.8125 l 3,0 0,-1.625 z" />
    <path
       style="fill:#ffffff"
       id="path3799"
       d="m 30.851562,24.734375 c 0.453126,0 0.816407,-0.363281 0.816407,-0.8125 0,-0.449219 -0.363281,-0.8125 -0.816407,-0.8125 l -2.996093,0 0,1.625 z" />
    <path
       style="fill:#ffffff"
       id="path3801"
       d="m 7.148438,18.183594 c -0.449219,0 -0.8125,0.363281 -0.8125,0.8125 0,0.449218 0.363281,0.816406 0.8125,0.816406 l 3,0 0,-1.628906 z" />
    <path
       style="fill:#ffffff"
       id="path3803"
       d="m 30.851562,19.8125 c 0.453126,0 0.816407,-0.367188 0.816407,-0.816406 0,-0.449219 -0.363281,-0.8125 -0.816407,-0.8125 l -2.996093,0 0,1.628906 z" />
    <path
       style="fill:#ffffff"
       id="path3805"
       d="m 7.148438,13.257812 c -0.449219,0 -0.8125,0.363282 -0.8125,0.8125 0,0.449219 0.363281,0.816407 0.8125,0.816407 l 3,0 0,-1.628907 z" />
    <path
       style="fill:#ffffff"
       id="path3807"
       d="m 30.851562,14.886719 c 0.453126,0 0.816407,-0.367188 0.816407,-0.816407 0,-0.449218 -0.363281,-0.8125 -0.816407,-0.8125 l -2.996093,0 0,1.628907 z" />
    <path
       style="fill:#ffffff"
       id="path3809"
       d="m 23.613281,25.3125 c 0.941407,0 1.710938,-0.765625 1.710938,-1.710938 l 0,-9.210937 c 0,-0.945313 -0.769531,-1.710937 -1.710938,-1.710937 l -9.222656,0 c -0.941406,0 -1.710937,0.765624 -1.710937,1.710937 l 0,9.210937 c 0,0.945313 0.769531,1.710938 1.710937,1.710938 z" />
  </g>
</svg>
