<?xml version="1.0" encoding="UTF-8" standalone="no"?>
<svg
   xmlns:dc="http://purl.org/dc/elements/1.1/"
   xmlns:cc="http://creativecommons.org/ns#"
   xmlns:rdf="http://www.w3.org/1999/02/22-rdf-syntax-ns#"
   xmlns:svg="http://www.w3.org/2000/svg"
   xmlns="http://www.w3.org/2000/svg"
   xmlns:sodipodi="http://sodipodi.sourceforge.net/DTD/sodipodi-0.dtd"
   xmlns:inkscape="http://www.inkscape.org/namespaces/inkscape"
   width="47.5"
   height="47.5"
   viewBox="0 0 38 38"
   id="svg2"
   version="1.1"
   inkscape:version="0.48.4 r9939"
   sodipodi:docname="preferences-system-directory.svg">
  <metadata
     id="metadata16">
    <rdf:RDF>
      <cc:Work
         rdf:about="">
        <dc:format>image/svg+xml</dc:format>
        <dc:type
           rdf:resource="http://purl.org/dc/dcmitype/StillImage" />
      </cc:Work>
    </rdf:RDF>
  </metadata>
  <defs
     id="defs14" />
  <sodipodi:namedview
     pagecolor="#ffffff"
     bordercolor="#666666"
     borderopacity="1"
     objecttolerance="10"
     gridtolerance="10"
     guidetolerance="10"
     inkscape:pageopacity="0"
     inkscape:pageshadow="2"
     inkscape:window-width="1440"
     inkscape:window-height="848"
     id="namedview12"
     showgrid="false"
     showguides="true"
     inkscape:guide-bbox="true"
     inkscape:zoom="4.9684211"
     inkscape:cx="0.90572034"
     inkscape:cy="23.347458"
     inkscape:window-x="0"
     inkscape:window-y="0"
     inkscape:window-maximized="1"
     inkscape:current-layer="svg2" />
  <g
     style="fill:#555"
     id="g4">
    <path
       d="m 31.667969,16.441406 0,5.117188 c 0,0.335937 -0.359375,0.609375 -0.796875,0.609375 l -4.742188,0 c -0.441406,0 -0.796875,-0.273438 -0.796875,-0.609375 l 0,-5.117188 c 0,-0.335937 0.355469,-0.609375 0.796875,-0.609375 l 4.742188,0 c 0.4375,0 0.796875,0.273438 0.796875,0.609375 z"
       id="path6" />
    <path
       d="m 22.167969,16.441406 0,5.117188 c 0,0.335937 -0.359375,0.609375 -0.796875,0.609375 l -4.742188,0 c -0.441406,0 -0.796875,-0.273438 -0.796875,-0.609375 l 0,-5.117188 c 0,-0.335937 0.355469,-0.609375 0.796875,-0.609375 l 4.742188,0 c 0.4375,0 0.796875,0.273438 0.796875,0.609375 z"
       id="path8" />
    <path
       d="m 12.667969,16.441406 0,5.117188 c 0,0.335937 -0.359375,0.609375 -0.796875,0.609375 l -4.742188,0 c -0.441406,0 -0.796875,-0.273438 -0.796875,-0.609375 l 0,-5.117188 c 0,-0.335937 0.355469,-0.609375 0.796875,-0.609375 l 4.742188,0 c 0.4375,0 0.796875,0.273438 0.796875,0.609375 z"
       id="path10" />
  </g>
  <path
     sodipodi:type="arc"
     style="fill:#80b3ff;fill-opacity:1;stroke:none"
     id="path2993"
     sodipodi:cx="-58.268009"
     sodipodi:cy="30.693855"
     sodipodi:rx="21.435381"
     sodipodi:ry="21.435381"
     d="m -36.832628,30.693855 a 21.435381,21.435381 0 1 1 -42.870762,0 21.435381,21.435381 0 1 1 42.870762,0 z"
     transform="matrix(0.89571536,0,0,0.89571536,71.191551,-8.4929576)" />
  <g
     id="g2995"
     style="fill:#ffffff">
    <path
       id="path2997"
       d="m 31.667969,16.441406 0,5.117188 c 0,0.335937 -0.359375,0.609375 -0.796875,0.609375 l -4.742188,0 c -0.441406,0 -0.796875,-0.273438 -0.796875,-0.609375 l 0,-5.117188 c 0,-0.335937 0.355469,-0.609375 0.796875,-0.609375 l 4.742188,0 c 0.4375,0 0.796875,0.273438 0.796875,0.609375 z"
       style="fill:#ffffff" />
    <path
       id="path2999"
       d="m 22.167969,16.441406 0,5.117188 c 0,0.335937 -0.359375,0.609375 -0.796875,0.609375 l -4.742188,0 c -0.441406,0 -0.796875,-0.273438 -0.796875,-0.609375 l 0,-5.117188 c 0,-0.335937 0.355469,-0.609375 0.796875,-0.609375 l 4.742188,0 c 0.4375,0 0.796875,0.273438 0.796875,0.609375 z"
       style="fill:#ffffff" />
    <path
       id="path3001"
       d="m 12.667969,16.441406 0,5.117188 c 0,0.335937 -0.359375,0.609375 -0.796875,0.609375 l -4.742188,0 c -0.441406,0 -0.796875,-0.273438 -0.796875,-0.609375 l 0,-5.117188 c 0,-0.335937 0.355469,-0.609375 0.796875,-0.609375 l 4.742188,0 c 0.4375,0 0.796875,0.273438 0.796875,0.609375 z"
       style="fill:#ffffff" />
  </g>
</svg>
