<?xml version="1.0" encoding="UTF-8" standalone="no"?>
<svg
   xmlns:dc="http://purl.org/dc/elements/1.1/"
   xmlns:cc="http://creativecommons.org/ns#"
   xmlns:rdf="http://www.w3.org/1999/02/22-rdf-syntax-ns#"
   xmlns:svg="http://www.w3.org/2000/svg"
   xmlns="http://www.w3.org/2000/svg"
   xmlns:sodipodi="http://sodipodi.sourceforge.net/DTD/sodipodi-0.dtd"
   xmlns:inkscape="http://www.inkscape.org/namespaces/inkscape"
   width="47.5"
   height="47.5"
   viewBox="0 0 38 38"
   id="svg2"
   version="1.1"
   inkscape:version="0.48.4 r9939"
   sodipodi:docname="system-help.svg">
  <metadata
     id="metadata10">
    <rdf:RDF>
      <cc:Work
         rdf:about="">
        <dc:format>image/svg+xml</dc:format>
        <dc:type
           rdf:resource="http://purl.org/dc/dcmitype/StillImage" />
      </cc:Work>
    </rdf:RDF>
  </metadata>
  <defs
     id="defs8" />
  <sodipodi:namedview
     pagecolor="#ffffff"
     bordercolor="#666666"
     borderopacity="1"
     objecttolerance="10"
     gridtolerance="10"
     guidetolerance="10"
     inkscape:pageopacity="0"
     inkscape:pageshadow="2"
     inkscape:window-width="1440"
     inkscape:window-height="848"
     id="namedview6"
     showgrid="false"
     inkscape:zoom="4.9684211"
     inkscape:cx="-8.2521186"
     inkscape:cy="23.347458"
     inkscape:window-x="0"
     inkscape:window-y="0"
     inkscape:window-maximized="1"
     inkscape:current-layer="svg2" />
  <path
     style="fill:#9dc7cf"
     d="M 20.046875 24.894531 C 19.972656 22.203125 20.578125 19.589844 23.144531 17.734375 C 25.851562 15.640625 28.457031 13.019531 28.183594 9.933594 C 28.121094 6.953125 24.625 4.617188 20.859375 4.28125 C 16.621094 3.699219 11.492188 5.140625 10.070312 8.425781 C 9.351562 10.023438 10.019531 12.890625 12.4375 12.890625 C 13.851562 12.890625 14.5 11.984375 14.605469 11.15625 C 14.6875 10.527344 14.425781 9.96875 14.273438 9.449219 C 14.097656 8.859375 14.84375 7.714844 15.65625 7.246094 C 16.335938 6.859375 17.046875 6.726562 17.148438 6.703125 C 19.585938 6.121094 22.015625 7.40625 23.027344 8.96875 C 24.042969 10.53125 22.925781 12.898438 21.324219 15.207031 C 19.71875 17.511719 18 20.128906 18.003906 22.910156 C 18.003906 23.96875 17.910156 24.328125 17.976562 24.753906 C 18.03125 25.097656 19.171875 25.054688 20.046875 24.894531 Z M 18.933594 28.519531 C 16.605469 28.394531 14.992188 31.015625 16.390625 32.6875 C 17.640625 34.53125 21.148438 34.074219 21.746094 31.988281 C 22.371094 30.363281 20.871094 28.492188 18.933594 28.519531 Z "
     id="path4" />
  <g
     id="g2994">
    <path
       id="path4-3"
       d="m 20.046875,24.894531 c -0.07422,-2.691406 0.53125,-5.304687 3.097656,-7.160156 2.707031,-2.09375 5.3125,-4.714844 5.039063,-7.800781 C 28.121094,6.953125 24.625,4.617188 20.859375,4.28125 16.621094,3.699219 11.492188,5.140625 10.070312,8.425781 c -0.71875,1.597657 -0.05078,4.464844 2.367188,4.464844 1.414062,0 2.0625,-0.90625 2.167969,-1.734375 0.08203,-0.628906 -0.179688,-1.1875 -0.332031,-1.707031 -0.175782,-0.589844 0.570312,-1.734375 1.382812,-2.203125 0.679688,-0.386719 1.390625,-0.519532 1.492188,-0.542969 2.4375,-0.582031 4.867187,0.703125 5.878906,2.265625 1.015625,1.5625 -0.101563,3.929688 -1.703125,6.238281 C 19.71875,17.511719 18,20.128906 18.003906,22.910156 c 0,1.058594 -0.09375,1.417969 -0.02734,1.84375 0.05469,0.34375 1.195313,0.300782 2.070313,0.140625 z m -1.113281,3.625 c -2.328125,-0.125 -3.941406,2.496094 -2.542969,4.167969 1.25,1.84375 4.757813,1.386719 5.355469,-0.699219 0.625,-1.625 -0.875,-3.496093 -2.8125,-3.46875 z"
       style="fill:#ffffff"
       inkscape:connector-curvature="0" />
    <path
       transform="matrix(1.1356391,0,0,1.1356391,63.57143,14.2)"
       d="m -22.341103,4.2266951 c 0,9.3373569 -7.569423,16.9067799 -16.90678,16.9067799 -9.337357,0 -16.90678,-7.569423 -16.90678,-16.9067799 0,-9.3373569 7.569423,-16.9067801 16.90678,-16.9067801 9.337357,0 16.90678,7.5694232 16.90678,16.9067801 z"
       sodipodi:ry="16.90678"
       sodipodi:rx="16.90678"
       sodipodi:cy="4.2266951"
       sodipodi:cx="-39.247883"
       id="path2987"
       style="fill:#e9afde;fill-opacity:1;stroke:none"
       sodipodi:type="arc" />
    <path
       style="fill:#ffffff"
       d="m 20.046875,24.894531 c -0.07422,-2.691406 0.53125,-5.304687 3.097656,-7.160156 2.707031,-2.09375 5.3125,-4.714844 5.039063,-7.800781 C 28.121094,6.953125 24.625,4.617188 20.859375,4.28125 16.621094,3.699219 11.492188,5.140625 10.070312,8.425781 c -0.71875,1.597657 -0.05078,4.464844 2.367188,4.464844 1.414062,0 2.0625,-0.90625 2.167969,-1.734375 0.08203,-0.628906 -0.179688,-1.1875 -0.332031,-1.707031 -0.175782,-0.589844 0.570312,-1.734375 1.382812,-2.203125 0.679688,-0.386719 1.390625,-0.519532 1.492188,-0.542969 2.4375,-0.582031 4.867187,0.703125 5.878906,2.265625 1.015625,1.5625 -0.101563,3.929688 -1.703125,6.238281 C 19.71875,17.511719 18,20.128906 18.003906,22.910156 c 0,1.058594 -0.09375,1.417969 -0.02734,1.84375 0.05469,0.34375 1.195313,0.300782 2.070313,0.140625 z m -1.113281,3.625 c -2.328125,-0.125 -3.941406,2.496094 -2.542969,4.167969 1.25,1.84375 4.757813,1.386719 5.355469,-0.699219 0.625,-1.625 -0.875,-3.496093 -2.8125,-3.46875 z"
       id="path2989"
       inkscape:connector-curvature="0" />
  </g>
</svg>
